<?xml version="1.0" encoding="UTF-8" standalone="no"?>
<svg
   id="Layer_1"
   data-name="Layer 1"
   width="500"
   height="500"
   viewBox="0 0 499.99998 500.00001"
   version="1.1"
   sodipodi:docname="alpine.svg"
   inkscape:version="1.4.3 (0d15f75, 2025-12-25)"
   xmlns:inkscape="http://www.inkscape.org/namespaces/inkscape"
   xmlns:sodipodi="http://sodipodi.sourceforge.net/DTD/sodipodi-0.dtd"
   xmlns="http://www.w3.org/2000/svg"
   xmlns:svg="http://www.w3.org/2000/svg"
   xmlns:rdf="http://www.w3.org/1999/02/22-rdf-syntax-ns#"
   xmlns:cc="http://creativecommons.org/ns#"
   xmlns:dc="http://purl.org/dc/elements/1.1/">
  <defs
     id="defs18" />
  <sodipodi:namedview
     id="namedview18"
     pagecolor="#ffffff"
     bordercolor="#000000"
     borderopacity="0.25"
     inkscape:showpageshadow="2"
     inkscape:pageopacity="0.0"
     inkscape:pagecheckerboard="0"
     inkscape:deskcolor="#d1d1d1"
     inkscape:zoom="0.40531045"
     inkscape:cx="-320.74179"
     inkscape:cy="495.91615"
     inkscape:window-width="1440"
     inkscape:window-height="890"
     inkscape:window-x="-6"
     inkscape:window-y="-6"
     inkscape:window-maximized="1"
     inkscape:current-layer="Layer_1" />
  <title
     id="title1">Alpine F1 Team logo - Brandlogos.net</title>
  <g
     id="g18"
     transform="matrix(2.2942094,0,0,2.2942094,0.04588587,21.473802)">
    <path
       d="M 33.66,109.31 H 62.88 L 94.17,85.13 h 53.12 l -7.88,24.18 h 23.63 l 7.83,-24.18 H 197.5 L 217.31,69.79 H 175.9 L 198.63,-0.02 H 174.98 L 84.76,69.79 H 49.08 L 58.92,39.62 -0.02,85.15 H 64.87 Z M 165.16,30.24 152.3,69.81 h -38.32 z"
       style="fill:#02192b"
       id="path1" />
    <path
       d="m 58.15,175.85 h 1.83 v -5.64 h 6.39 v -1.64 h -6.39 v -3.83 h 7 v -1.64 h -8.79 z"
       style="fill:#02192b"
       id="path2" />
    <path
       d="m 72.55,164.62 h 3.18 v 11.18 h 1.82 v -12.71 h -5 z"
       style="fill:#02192b"
       id="path3" />
    <path
       d="m 85.39,162.72 a 2.21,2.21 0 1 0 2.21,2.21 2.09,2.09 0 0 0 -2.21,-2.21 m 0,4 a 1.83,1.83 0 1 1 1.79,-1.82 1.71,1.71 0 0 1 -1.79,1.82"
       style="fill:#02192b"
       id="path4" />
    <path
       d="m 86.37,164.46 c 0,-0.49 -0.32,-0.73 -0.94,-0.73 h -1 v 2.4 h 0.55 v -0.89 h 0.33 l 0.51,0.89 h 0.58 l -0.55,-1 a 0.66,0.66 0 0 0 0.51,-0.68 m -0.92,0.34 h -0.46 v -0.64 h 0.45 c 0.25,0 0.37,0.12 0.37,0.31 0,0.19 -0.11,0.33 -0.37,0.33"
       style="fill:#02192b"
       id="path5" />
    <path
       d="m 98.31,164.74 h 4.41 v 11.11 h 1.81 v -11.11 h 4.4 V 163.1 H 98.31 Z"
       style="fill:#02192b"
       id="path6" />
    <path
       d="m 114.92,175.85 h 8.79 v -1.64 h -7 v -4 h 6.39 v -1.64 h -6.39 v -3.83 h 7 v -1.64 h -8.79 z"
       style="fill:#02192b"
       id="path7" />
    <path
       d="m 133.57,163.1 -4.59,12.75 h 2 l 1.16,-3.34 h 5.52 l 1.16,3.34 h 1.93 l -4.56,-12.74 z m -0.87,7.76 2.18,-6.3 2.18,6.3 z"
       style="fill:#02192b"
       id="path8" />
    <path
       d="m 153.56,174.47 -3.63,-11.37 h -3.11 v 12.74 h 1.82 v -11 l 3.53,11 h 2.81 l 3.54,-11.22 v 11.18 h 1.82 v -12.7 h -3.15 z"
       style="fill:#02192b"
       id="path9" />
    <path
       d="m -0.02,147.85 h 6 l 3.15,-3.55 h 17.08 l 3.15,3.55 h 6 L 17.64,128.62 Z m 12.11,-6.91 5.52,-6.22 5.52,6.22 z"
       style="fill:#02192b"
       id="path10" />
    <path
       d="m 129.08,129.19 h -5 v 18.68 h 5 z"
       style="fill:#02192b"
       id="path11" />
    <path
       d="m 171.05,140.7 -20.86,-11.53 h -5.1 v 18.68 h 4.67 v -13.79 l 26,14.33 v -19.21 h -4.72 z"
       style="fill:#02192b"
       id="path12" />
    <path
       d="m 51.15,129.19 h -5 v 18.68 h 22.83 l 1.41,-3.36 H 51.15 Z"
       style="fill:#02192b"
       id="path13" />
    <path
       d="m 196.83,144.5 v -4.46 h 20.46 v -3.36 h -20.46 v -4.14 h 20.46 v -3.36 h -25.5 v 18.68 h 25.19 l 0.94,-3.36 z"
       style="fill:#02192b"
       id="path14" />
    <path
       d="M 102.62,129.19 H 81.04 v 18.68 h 5 v -6.25 h 16.3 c 6.06,0 8.41,-2.54 8.41,-6.3 0,-3.76 -2.56,-6.14 -8.17,-6.14 m -1.2,9.07 h -15.3 v -5.71 h 15.31 c 3,0 4,0.93 4,2.91 0,1.73 -1.31,2.8 -3.95,2.8"
       style="fill:#02192b"
       id="path15" />
    <path
       d="m 92.98,196.04 -4,3.2 h 14.62 l 4,-3.2 z"
       style="fill:#2173b8"
       id="path16" />
    <path
       d="m 107.56,196.04 -4,3.2 h 6.82 l 4,-3.2 z"
       style="fill:#fffffd"
       id="path17" />
    <path
       d="m 114.39,196.04 -4,3.2 h 14.59 l 4,-3.2 z"
       style="fill:#e12319"
       id="path18" />
  </g>
  <metadata
     id="metadata18">
    <rdf:RDF>
      <cc:Work
         rdf:about="">
        <dc:title>Alpine F1 Team logo - Brandlogos.net</dc:title>
      </cc:Work>
    </rdf:RDF>
  </metadata>
</svg>
