<?xml version="1.0" encoding="UTF-8" standalone="no"?>
<!-- Created with Inkscape (http://www.inkscape.org/) -->

<svg
   version="1.1"
   id="svg1"
   width="500"
   height="500"
   viewBox="0 0 500 500"
   sodipodi:docname="astonmartin.svg"
   inkscape:version="1.4.3 (0d15f75, 2025-12-25)"
   xmlns:inkscape="http://www.inkscape.org/namespaces/inkscape"
   xmlns:sodipodi="http://sodipodi.sourceforge.net/DTD/sodipodi-0.dtd"
   xmlns="http://www.w3.org/2000/svg"
   xmlns:svg="http://www.w3.org/2000/svg">
  <defs
     id="defs1">
    <linearGradient
       x1="0"
       y1="0"
       x2="1"
       y2="0"
       gradientUnits="userSpaceOnUse"
       gradientTransform="matrix(1260.6,0,0,-1260.6,1821.26,5036.8)"
       spreadMethod="pad"
       id="linearGradient14">
      <stop
         style="stop-opacity:1;stop-color:#3b9d61"
         offset="0"
         id="stop13" />
      <stop
         style="stop-opacity:1;stop-color:#1a4b30"
         offset="1"
         id="stop14" />
    </linearGradient>
    <clipPath
       clipPathUnits="userSpaceOnUse"
       id="clipPath14">
      <path
         d="m 3081.86,4945.36 h -1260.6 v 182.89 h 1260.6 z"
         transform="translate(0,2.5000001e-5)"
         id="path14" />
    </clipPath>
  </defs>
  <sodipodi:namedview
     id="namedview1"
     pagecolor="#ffffff"
     bordercolor="#000000"
     borderopacity="0.25"
     inkscape:showpageshadow="2"
     inkscape:pageopacity="0.0"
     inkscape:pagecheckerboard="0"
     inkscape:deskcolor="#d1d1d1"
     inkscape:zoom="0.65294409"
     inkscape:cx="372.92626"
     inkscape:cy="367.56593"
     inkscape:window-width="1440"
     inkscape:window-height="890"
     inkscape:window-x="-6"
     inkscape:window-y="-6"
     inkscape:window-maximized="1"
     inkscape:current-layer="g1">
    <inkscape:page
       x="0"
       y="0"
       inkscape:label="1"
       id="page1"
       width="500"
       height="500"
       margin="0"
       bleed="0" />
  </sodipodi:namedview>
  <g
     id="g1"
     inkscape:groupmode="layer"
     inkscape:label="1">
    <g
       id="g2"
       transform="matrix(1.2025299,0,0,1.2025299,-142.94944,139.30951)">
      <path
         id="path2"
         d="m 198.70666,183.58535 c -0.83733,-0.0467 -1.512,-0.132 -2.268,-0.132 -0.796,0 -1.552,0.0853 -2.26933,0.132 -1.27333,-3.572 -2.82533,-7.72133 -4.536,-11.64933 h -10.98 c -1.51333,3.792 -3.064,7.58933 -4.26,11.64933 -0.596,-0.0467 -1.072,-0.132 -1.59067,-0.132 -0.596,0 -1.03333,0.0853 -1.512,0.132 l 13.45067,-30.18133 h 0.99467 z m -14.52266,-24.52133 -4.696,11.052 h 9.51066 l -4.81466,-11.052"
         style="fill:#100f0d;fill-opacity:1;fill-rule:nonzero;stroke:none;stroke-width:0.133333" />
      <path
         id="path3"
         d="m 202.56666,177.77068 c 1.71067,2.74934 3.62,4.484 7,4.484 3.504,0 6.01067,-2.884 6.01067,-6.304 0,-8.03333 -13.52934,-4.50266 -13.52934,-14.24533 0,-5.572 4.416,-8.30133 9.58934,-8.30133 2.06933,0 4.576,0.644 6.168,2.08666 -0.51734,1.108 -0.79734,2.328 -1.156,3.528 h -0.436 c -0.916,-2.33066 -2.78534,-3.75066 -5.33334,-3.75066 -2.98266,0 -5.44933,1.976 -5.44933,5.06133 0,7.91867 13.608,4.72533 13.608,13.936 0,6.168 -4.81467,9.828 -10.664,9.828 -2.108,0 -5.57067,-0.88533 -7.04267,-2.48133 0.43867,-1.264 0.63734,-2.55334 0.79467,-3.84134 h 0.44"
         style="fill:#100f0d;fill-opacity:1;fill-rule:nonzero;stroke:none;stroke-width:0.133333" />
      <path
         id="path4"
         d="m 235.07333,183.67202 c -0.67734,-0.0413 -1.27334,-0.13334 -1.87067,-0.13334 -0.67467,0 -1.31333,0.092 -1.90933,0.13334 v -27.53867 c -4.37734,0 -7.004,0.24667 -9.468,0.51067 0.0373,-0.42134 0.156,-0.86667 0.156,-1.28934 0,-0.44133 -0.11867,-0.81866 -0.156,-1.30666 h 22.28 c -0.04,0.488 -0.12,0.86533 -0.12,1.30666 0,0.42267 0.08,0.868 0.12,1.28934 -2.148,-0.264 -5.172,-0.51067 -9.032,-0.51067 v 27.53867"
         style="fill:#100f0d;fill-opacity:1;fill-rule:nonzero;stroke:none;stroke-width:0.133333" />
      <path
         id="path5"
         d="m 245.18133,168.82802 c 0,-9.45467 7.04266,-15.424 15.99333,-15.424 8.11867,0 16.35333,4.41466 16.35333,14.78 0,9.608 -6.80533,15.90933 -16.432,15.90933 -9.54933,0 -15.91466,-6.036 -15.91466,-15.26533 z m 25.38533,-9.80934 c -2.15067,-2.70533 -5.49067,-4.19333 -8.95333,-4.19333 -7.6,0 -12.176,5.748 -12.176,14.51467 0,8.76666 5.332,13.336 11.77866,13.336 9.11067,0 12.372,-9.408 12.09467,-14.15867 0,-3.57467 -0.47867,-6.612 -2.744,-9.49867"
         style="fill:#100f0d;fill-opacity:1;fill-rule:nonzero;stroke:none;stroke-width:0.133333" />
      <path
         id="path6"
         d="m 308.68399,183.58535 h -1.27466 c -0.476,-0.6 -1.352,-1.64267 -2.26934,-2.61733 l -18.61866,-20.63867 h -0.43734 v 23.256 c -0.44,-0.0467 -0.83733,-0.132 -1.23466,-0.132 -0.436,0 -0.796,0.0853 -1.192,0.132 v -29.53733 h 1.67066 l 20.53067,22.23866 h 0.436 v -22.23866 c 0.35867,0.0427 0.75733,0.132 1.196,0.132 0.39867,0 0.756,-0.0893 1.19333,-0.132 v 29.53733"
         style="fill:#100f0d;fill-opacity:1;fill-rule:nonzero;stroke:none;stroke-width:0.133333" />
      <path
         id="path7"
         d="m 357.62399,154.04802 c 1.15333,10.676 2.348,21.304 3.50133,29.53733 -0.756,-0.0467 -1.352,-0.132 -2.03066,-0.132 -0.67467,0 -1.352,0.0853 -2.02667,0.132 -0.71733,-8.67867 -1.59067,-17.99867 -2.19067,-22.28 -5.012,8.944 -8.71066,15.84133 -11.29866,21.81333 h -0.476 l -2.38934,-4.87866 c -2.74533,-5.70667 -5.76933,-11.32267 -8.71333,-16.93467 -0.952,8.432 -2.11066,16.976 -2.11066,22.28 -0.55467,-0.0467 -1.03334,-0.132 -1.50934,-0.132 -0.55733,0 -1.03333,0.0853 -1.552,0.132 1.116,-6.94667 3.69867,-24.988 4.14,-29.53733 h 1.11067 c 3.46133,6.88 7.60133,14.97733 12.216,22.636 4.09733,-7.38934 8.07733,-14.892 12.45333,-22.636 h 0.876"
         style="fill:#100f0d;fill-opacity:1;fill-rule:nonzero;stroke:none;stroke-width:0.133333" />
      <path
         id="path8"
         d="m 391.40266,183.58535 c -0.83334,-0.0467 -1.508,-0.132 -2.264,-0.132 -0.79734,0 -1.55334,0.0853 -2.268,0.132 -1.236,-3.572 -2.82534,-7.72133 -4.53734,-11.64933 h -10.98 c -1.51333,3.792 -3.064,7.58933 -4.25866,11.64933 -0.59734,-0.0467 -1.07467,-0.132 -1.592,-0.132 -0.55867,0 -1.03334,0.0853 -1.512,0.132 l 13.44666,-30.18133 h 0.99734 z m -14.51734,-24.52133 -4.69733,11.052 h 9.50933 l -4.812,-11.052"
         style="fill:#100f0d;fill-opacity:1;fill-rule:nonzero;stroke:none;stroke-width:0.133333" />
      <path
         id="path9"
         d="m 395.98132,154.04802 h 9.15067 c 6.64533,0 9.58933,2.21733 9.58933,6.568 0,5.01733 -4.496,7.43466 -8.87333,8.212 l 8.91467,11.272 2.06666,2.39733 0.83734,1.088 c -0.916,-0.0467 -1.712,-0.132 -2.50667,-0.132 -0.83733,0 -1.71067,0.0853 -2.468,0.132 -0.95467,-1.33067 -1.83067,-2.552 -2.744,-3.75067 l -5.09333,-6.612 -3.42134,-4.064 h -1.672 v 14.42667 c -0.676,-0.0467 -1.27066,-0.132 -1.872,-0.132 -0.67466,0 -1.30933,0.0853 -1.908,0.132 z m 3.78,13.472 c 0.63867,0.0427 3.384,0.21866 5.57067,-0.20267 3.18267,-0.66533 5.52933,-2.81467 5.52933,-6.19067 0,-2.97333 -1.512,-4.904 -4.732,-5.436 -1.59333,-0.24533 -4.53733,-0.13333 -6.368,-0.0467 v 11.876"
         style="fill:#100f0d;fill-opacity:1;fill-rule:nonzero;stroke:none;stroke-width:0.133333" />
      <path
         id="path10"
         d="m 430.99732,183.67202 c -0.67733,-0.0413 -1.31333,-0.13334 -1.91066,-0.13334 -0.64,0 -1.27334,0.092 -1.91067,0.13334 v -27.53867 c -4.33733,0 -6.96267,0.24667 -9.43067,0.51067 0.0427,-0.42134 0.12,-0.86667 0.12,-1.28934 0,-0.44133 -0.0773,-0.81866 -0.12,-1.30666 h 22.284 c -0.0413,0.488 -0.16,0.86533 -0.16,1.30666 0,0.42267 0.11867,0.868 0.16,1.28934 -2.192,-0.264 -5.21333,-0.51067 -9.032,-0.51067 v 27.53867"
         style="fill:#100f0d;fill-opacity:1;fill-rule:nonzero;stroke:none;stroke-width:0.133333" />
      <path
         id="path11"
         d="m 444.96266,154.04802 c 0.636,0.0427 1.27066,0.132 1.91066,0.132 0.59467,0 1.23067,-0.0893 1.90667,-0.132 v 29.53733 c -0.676,-0.0467 -1.312,-0.132 -1.90667,-0.132 -0.64,0 -1.27466,0.0853 -1.91066,0.132 v -29.53733"
         style="fill:#100f0d;fill-opacity:1;fill-rule:nonzero;stroke:none;stroke-width:0.133333" />
      <path
         id="path12"
         d="m 482.24665,183.58535 h -1.316 c -0.47866,-0.6 -1.35066,-1.64267 -2.228,-2.61733 l -18.65866,-20.63867 h -0.44133 v 23.256 c -0.436,-0.0467 -0.83334,-0.132 -1.192,-0.132 -0.43734,0 -0.83467,0.0853 -1.23334,0.132 v -29.53733 h 1.712 l 20.492,22.23866 h 0.43733 v -22.23866 c 0.396,0.0427 0.75467,0.132 1.19067,0.132 0.39867,0 0.796,-0.0893 1.23733,-0.132 v 29.53733"
         style="fill:#100f0d;fill-opacity:1;fill-rule:nonzero;stroke:none;stroke-width:0.133333" />
      <path
         id="path13"
         d="m 3081.86,4945.36 h -1260.6 v 182.89 h 1260.6 v -182.89"
         style="fill:url(#linearGradient14);fill-opacity:1;fill-rule:nonzero;stroke:none"
         transform="matrix(0.13333333,0,0,-0.13333333,0,699.58667)"
         clip-path="url(#clipPath14)" />
      <path
         id="path15"
         d="m 134.136,24.00402 v 0 c 0,0 0,0 0,-0.02267 v 0.02267"
         style="fill:#100f0d;fill-opacity:1;fill-rule:nonzero;stroke:none;stroke-width:0.133333" />
      <path
         id="path16"
         d="m 533.99865,2.6693541 c -1.49866,-2.43333328 -4.116,-2.59599995 -5.28133,-2.66666661 h -168.06 c -4.74266,0 -8.60666,1.43733331 -11.43466,4.29066651 -2.04134,2.0413333 -3.45334,4.6839999 -4.2,7.861333 0,0.138667 -0.25067,0.765334 -1.62134,0.765334 h -33.26266 c -1.41467,0 -1.62133,-0.650667 -1.62133,-0.742667 -0.74934,-3.1773334 -2.164,-5.8426667 -4.2,-7.884 -2.82667,-2.8533332 -6.69334,-4.29066651 -11.43334,-4.29066651 H 124.78026 c -1.08026,0.04666667 -3.74333,0.23333333 -5.23853,2.64399991 -0.66413,1.1826667 -1.20573,3.1759999 0.28893,5.9586665 0.0444,0.024 3.07814,5.1253331 3.07814,5.1253331 1.28853,2.065333 2.70266,2.806667 5.7396,3.016 0.0412,0 1.45373,0.138667 2.41093,1.853333 l 3.158,5.496 c 0.668,1.277334 2.20267,4.245333 7.52667,4.962667 0.0853,0 1.62133,0.188 2.496,1.809333 l 3.86533,6.794667 c 1.124,2.202666 2.704,3.014666 5.572,3.895999 l 70.31066,20.64 c 2.36934,0.696 3.368,3.408 3.368,3.408 1.66267,4.337333 3.86534,7.909333 14.84134,11.201333 0,0.024 57.50533,15.698666 57.50533,15.698666 0.70533,0.233334 7.31867,2.228 12.26533,-2.549333 l 13.472,-12.870666 c 0,0 0.58267,-0.581334 1.328,-0.581334 0.74934,0 1.332,0.581334 1.332,0.581334 0.04,0.04533 13.46933,12.870666 13.46933,12.870666 4.99067,4.777333 11.55867,2.782667 12.31067,2.549333 -0.044,0 57.46,-15.674666 57.504,-15.698666 10.93467,-3.292 13.22133,-6.933333 14.8,-11.201333 0.0813,-0.184 0.99867,-2.712 3.36933,-3.408 0,0 10.64134,-3.106667 70.26933,-20.64 2.90667,-0.881333 4.488,-1.693333 5.61334,-3.895999 l 3.82266,-6.748 c 0.872,-1.668 2.412,-1.856 2.49334,-1.856 5.36533,-0.717334 6.90533,-3.685333 7.60933,-4.962667 -0.04,0 3.11867,-5.496 3.11867,-5.496 0.95866,-1.714666 2.37066,-1.853333 2.45333,-1.853333 2.992,-0.209333 4.452,-0.950667 5.656,-3.016 0,0.02267 3.116,-5.1253331 3.116,-5.1253331 0.624,-1.1826666 0.95867,-2.3426666 0.95867,-3.4306665 0,-0.9066667 -0.24934,-1.7626667 -0.66534,-2.5053333 z M 348.09999,12.872021 c 0.58133,-2.618667 1.70533,-4.7520004 3.32667,-6.3533337 2.244,-2.2506666 5.32,-3.3853332 9.23066,-3.3853332 0,0 37.58534,0 77.20934,0 -2.66,1.9946666 -4.03334,4.4986665 -4.116,4.6613332 -0.916,1.6693333 -2.036,3.6413337 -3.36667,5.8439997 h -82.57467 c 0.16267,-0.301333 0.29067,-0.766666 0.29067,-0.766666 z M 243.53066,39.47202 c 0,0 -0.0413,-0.024 -0.0413,-0.04667 V 16.073354 h 166.5613 V 39.44802 l -0.0427,0.024 z m -2.49733,-20.221333 -13.636,0.902667 c -0.99867,-1.412 -1.91467,-2.782667 -2.74534,-4.102667 h 16.38134 z m 0,2.528 v 3.338667 l -9.104,1.229333 c -0.99734,-1.274667 -1.95467,-2.529333 -2.82934,-3.754667 z m 0,5.797333 v 3.849333 l -4.24,0.857334 c -1.07867,-1.253334 -2.12134,-2.48 -3.12,-3.733334 z m 0,6.330667 v 3.061333 c -0.78934,-0.858667 -1.58,-1.717333 -2.36934,-2.574667 0.956,-0.208 1.74667,-0.370666 2.36934,-0.486666 z m 30.80933,7.999999 h 15.05333 l -21.04,15.049333 c -3.65866,-2.202666 -7.19333,-4.635999 -10.64266,-7.279999 7.9,-3.688 15.216,-7.12 16.62933,-7.769334 z m -18.79333,6.074667 c -0.164,-0.137333 -4.94534,-4.173333 -6.98534,-6.074667 h 20.044 z m 38.00533,-6.074667 h 8.06533 l -20.708,21.590667 c -3.49066,-1.554667 -6.89866,-3.293334 -10.268,-5.194667 9.93867,-7.118666 20.33334,-14.541333 22.91067,-16.396 z m 11.43333,0 h 6.9 l -15.96266,27.016 c -4.32534,-1.229334 -8.52534,-2.688 -12.60134,-4.405333 8.692,-9.068 19.168,-19.990667 21.664,-22.610667 z m 9.73067,0 h 5.78 l -8.40267,30.354666 c -4.69733,-0.648 -9.27066,-1.529333 -13.76,-2.688 6.152,-10.367999 14.30267,-24.187999 16.38267,-27.666666 z m 29.104,0 16.34,27.666666 c -4.448,1.158667 -9.02267,2.04 -13.72267,2.688 l -8.39733,-30.354666 z m 2.82533,0 h 6.86267 l 21.70266,22.633333 c -4.07333,1.694667 -8.272,3.153333 -12.59866,4.361333 z m 10.272,0 h 8.064 l 22.91067,16.396 c -3.36667,1.925333 -6.77734,3.64 -10.27067,5.194667 -7.568,-7.862667 -16.62933,-17.324 -20.704,-21.590667 z m 12.224,0 h 15.05067 l 16.63066,7.769334 c -3.45066,2.644 -6.98533,5.054666 -10.644,7.279999 -8.024,-5.750666 -16.46266,-11.802666 -21.03733,-15.049333 z m 20.788,0 h 20.04133 c -2.036,2.041334 -6.86133,5.961334 -6.98666,6.074667 -4.90534,-2.272 -9.644,-4.498667 -13.05467,-6.074667 z m 25.02933,-8.022666 2.412,0.509333 c -0.78933,0.857334 -1.58,1.716 -2.412,2.597334 z m 0,-2.482667 V 27.57602 l 7.40267,0.973333 c -0.99867,1.253334 -2.036,2.48 -3.11733,3.733334 -1.91334,-0.393334 -3.36934,-0.696 -4.28534,-0.881334 z m 0,-6.283999 v -3.338667 l 11.97734,0.813333 c -0.87467,1.204 -1.82934,2.48 -2.788,3.754667 z m 0,-5.866667 v -3.2 h 16.424 c -0.83066,1.32 -1.74533,2.690667 -2.74133,4.126667 z M 292.88399,3.1333541 c 3.90667,0 6.98534,1.1346666 9.22934,3.3853332 1.62133,1.6013333 2.74533,3.7346667 3.328,6.3533337 0,0 0.12266,0.441333 0.28933,0.766666 h -82.57467 c -1.29066,-2.089333 -3.368,-5.8439997 -3.368,-5.8439997 -0.0853,-0.1626667 -1.45466,-2.6666666 -4.11733,-4.6613332 39.62667,0 77.21333,0 77.21333,0 z M 128.85573,13.638687 c -2.1208,-0.164 -2.5776,-0.418667 -3.24427,-1.506666 0,0 -2.7864,-4.662667 -3.03546,-5.010667 -0.45667,-0.8586667 -0.5828,-1.4826667 -0.5828,-1.9466666 0.0412,-1.1373333 0.83186,-2.0186667 2.8708,-2.0413333 h 83.77999 c 5.65467,0 9.02267,5.8213332 9.02267,5.8213332 0.74933,1.3679997 1.62,2.9453337 2.66267,4.6839997 z m 11.3496,11.873333 c -2.12,-0.742666 -2.78667,-2.018666 -3.244,-2.853333 -1.28667,-2.226667 -2.992,-5.542667 -3.86493,-6.608 h 88.68759 c 0.872,1.366667 1.788,2.804 2.78534,4.312 l -77.79467,5.149333 c -1.20533,0.162667 -4.78133,0.441334 -6.56933,0 z m 14.38533,11.2 c -2.82666,0.372 -3.69866,-0.557333 -3.86666,-0.786667 l -3.74267,-6.562666 c -0.248,-0.489334 -0.53733,-0.882667 -0.87067,-1.254667 0.49734,-0.04667 80.12133,-5.333333 80.12133,-5.333333 0.916,1.276 1.86934,2.598667 2.912,3.942666 z m 18.088,7.165333 c -7.73466,-2.272 -14.012,-4.104 -16.672,-4.892 L 230.84799,28.94402 c 1.03867,1.274667 2.08,2.596 3.24134,3.896 l -51.264,10.528 c -1.87333,0.393333 -7.36,1.252 -10.14667,0.509333 z m 25.364,7.444 C 192.344,49.650686 186.316,47.890686 180.62133,46.22002 c 1.536,-0.208 2.61867,-0.44 2.70133,-0.464 0,0 37.12933,-7.628 52.59867,-10.806667 1.496,1.714667 3.116,3.433334 4.82266,5.172 l -34.344,10.574667 c -0.0853,0.02267 -4.74,1.576 -8.35733,0.625333 z m 26.776,7.861333 c -0.74933,-0.208 -8.9,-2.596 -19.376,-5.681333 0.99867,-0.230667 1.66267,-0.464 1.70667,-0.485334 0,0.02133 28.81333,-8.881333 35.54933,-10.969333 2.452,2.412 5.11333,4.776 7.94,7.094667 l -18.58533,8.673333 c -1.20534,0.626667 -4.78134,2.041333 -7.23467,1.368 z m 14.88667,13.497333 c -7.27867,-2.736 -8.35867,-5.473333 -9.39734,-8.116 -0.0853,-0.233333 -0.62533,-1.646666 -1.78666,-2.992 2.452,-0.465333 4.488,-1.485333 4.61466,-1.553333 -0.0453,0 9.812,-4.592 19.58267,-9.184 3.576,2.784 7.23333,5.333333 10.976,7.652 l -17.33733,12.430666 c -0.0413,0.04667 -3.65867,2.713334 -6.652,1.762667 z m 20.82933,5.890667 -15.384,-4.198667 c 1.496,-0.649333 2.57867,-1.437333 2.66133,-1.506667 0,0 8.564,-6.145333 18.16934,-13.009333 3.44933,2.017334 7.02533,3.872 10.64266,5.518667 l -10.10133,10.528 c -0.87467,0.929333 -3.70267,3.224 -5.988,2.668 z m 21.332,5.821333 -16.54933,-4.5 c 1.70266,-0.997333 2.868,-2.226667 2.99333,-2.318667 0,0 4.74133,-4.938666 10.684,-11.156 4.284,1.809334 8.65067,3.364 13.14,4.664 l -5.44533,9.250667 c -0.668,1.205333 -2.912,4.36 -4.82267,4.06 z m 24.27867,0.322666 c -0.04,0.02533 -0.664,2.990667 -2.744,4.244 -0.95467,0.578667 -2.03734,0.696 -3.324,0.417334 l -14.472,-3.941334 c 1.788,-1.438666 2.95333,-3.501333 3.16133,-3.897333 0,0.024 2.452,-4.126666 5.77867,-9.784 4.7,1.252 9.48266,2.202667 14.38666,2.874667 z m 3.66133,2.990667 c -1.12267,1.068 -2.32933,1.670667 -3.53467,1.973333 1.58,-1.786666 2.16267,-4.06 2.24534,-4.430666 l 2.868,-10.32 c 3.57466,0.44 7.236,0.697333 10.936,0.813333 -2.95334,2.829334 -12.51467,11.964 -12.51467,11.964 z m 2.204,-15.141333 8.52267,-30.657333 h 5.02933 v 31.468 c -4.61467,-0.02133 -9.104,-0.324 -13.552,-0.810667 z m 15.964,0.810667 v -31.468 h 5.02933 l 8.52533,30.657333 c -4.448,0.510667 -8.94133,0.789333 -13.55466,0.810667 z m 13.68133,12.337333 c 0,0 -7.81733,-7.444 -10.436,-9.970667 3.69867,-0.116 7.356,-0.394666 10.93333,-0.813333 l 2.86934,10.344 c 0.0827,0.346666 0.664,2.62 2.24533,4.406666 -2.16267,-0.602666 -2.82667,-1.277333 -5.612,-3.966666 z m 11.80667,3.664 c -1.29067,0.278666 -2.37067,0.161333 -3.32667,-0.417334 -1.996,-1.229333 -2.7,-4.057333 -2.74533,-4.218666 l -2.78267,-10.112 c 4.904,-0.672 9.68533,-1.646667 14.34267,-2.874667 l 5.82,9.830667 c 0.20666,0.349333 1.372,2.412 3.16133,3.850666 z m 18.212,-4.984 c -1.91467,0.3 -4.11867,-2.854667 -4.784,-4.013334 l -5.48534,-9.297333 c 4.48934,-1.3 8.85467,-2.854666 13.13734,-4.664 l 10.68533,11.156 c 0.12667,0.092 1.288,1.321334 2.99467,2.318667 z m 24.07466,-6.564 -2.74533,0.742667 c -2.28667,0.556 -5.11467,-1.738667 -5.98667,-2.668 0,0 -4.448,-4.614667 -10.10533,-10.528 3.61733,-1.646667 7.19333,-3.478667 10.64533,-5.518667 l 18.212,13.032 c 0.0813,0.04667 1.12,0.834667 2.62,1.484 -4.03333,1.113333 -12.64,3.456 -12.64,3.456 z m 27.48134,-13.264 c -1.03867,2.642667 -2.11867,5.38 -9.396,8.116 -3.036,0.928 -6.612,-1.716 -6.612,-1.762667 -0.04,0 -8.14934,-5.797333 -17.37867,-12.430666 3.744,-2.318667 7.4,-4.868 10.976,-7.652 l 19.624,9.184 c 0.12667,0.068 2.12133,1.088 4.57467,1.553333 -1.164,1.322667 -1.70134,2.713334 -1.788,2.992 z m 5.492,-5.381333 c -2.41334,0.673333 -6.03334,-0.741333 -7.19467,-1.345333 0,0 -9.18933,-4.290667 -18.62933,-8.696 2.82533,-2.318667 5.49066,-4.682667 7.94133,-7.073333 l 35.55067,10.969333 c 0.0813,0.024 0.74933,0.233333 1.70666,0.464 z m 26.776,-7.861333 c -3.57734,0.974667 -8.276,-0.602667 -8.35867,-0.602667 l -0.04,-0.02267 -34.304,-10.574667 c 1.704,-1.714666 3.32533,-3.457333 4.86533,-5.172 l 52.55333,10.806667 c 0.0853,0.024 1.16534,0.256 2.704,0.464 z m 25.40266,-7.444 c -2.82533,0.742667 -8.31733,-0.116 -10.18667,-0.509333 0,0 -35.09333,-7.189333 -51.22666,-10.528 1.124,-1.3 2.16267,-2.621333 3.20133,-3.896 l 74.844,10.041333 z M 506.55465,29.40802 c 0,-0.024 -3.076,5.402667 -3.69733,6.517333 -0.16667,0.208 -1.04,1.158667 -3.91067,0.786667 l -74.55199,-9.994667 c 1.04,-1.343999 1.996,-2.666666 2.91333,-3.942666 l 79.20533,5.241333 c 0.0867,0.02267 0.41733,0.04533 0.916,0.092 -0.332,0.372 -0.62133,0.814667 -0.87467,1.3 z m 13.22134,-12.361333 -3.2,5.612 c -0.45734,0.834667 -1.12134,2.110667 -3.244,2.853333 -1.78667,0.441334 -5.32,0.162667 -6.568,0 l -77.79467,-5.149333 c 0.99867,-1.508 1.956,-2.945333 2.788,-4.312 h 88.68667 c -0.248,0.3 -0.45734,0.624 -0.668,0.996 z m 11.188,-9.925333 c -0.0427,0.072 -3.03867,5.010667 -3.03867,5.010667 -0.58133,0.926666 -0.912,1.342666 -3.24267,1.506666 h -91.43066 c 0.99733,-1.738666 1.872,-3.316 2.61867,-4.6839997 0.044,-0.046667 3.28666,-5.8213332 9.02533,-5.8213332 h 83.78 c 0.872,0.022667 2.03733,0.1386666 2.61866,1.1346666 0.0867,0.1426667 0.24934,0.4186667 0.24934,0.9066667 0,0.4639999 -0.12267,1.0879999 -0.58,1.9466666"
         style="fill:#100f0d;fill-opacity:1;fill-rule:nonzero;stroke:none;stroke-width:0.133333" />
      <path
         id="path17"
         d="m 254.54799,19.80802 h -0.708 l -7.108,15.930667 h 1.95467 v -0.116 c 0.57867,-1.924 1.32933,-3.78 2.036,-5.565334 0,0 0.12267,-0.254666 0.168,-0.370666 0.164,0 5.31867,0 5.48533,0 0.75067,1.690666 1.54,3.64 2.33067,5.96 l 0.04,0.092 h 2.66133 z m -3.12,8.649333 c 0.12667,-0.324 1.996,-4.731999 2.248,-5.242666 0.208,0.510667 2.11867,4.918666 2.244,5.242666 -0.33333,0 -4.116,0 -4.492,0"
         style="fill:#ffffff;fill-opacity:1;fill-rule:nonzero;stroke:none;stroke-width:0.133333" />
      <path
         id="path18"
         d="m 262.15599,34.601353 0.0827,0.04667 c 0.83333,0.928 2.74533,1.344 3.74267,1.344 3.368,0 5.69866,-2.156 5.69866,-5.238667 0,-2.552 -1.956,-3.317333 -3.828,-4.06 -1.66266,-0.647999 -3.24266,-1.273333 -3.24266,-3.174666 0,-1.44 1.124,-2.484 2.66266,-2.484 1.24667,0 2.204,0.673333 2.66,1.856 l 0.0413,0.092 h 0.416 l 0.66666,-1.993333 -0.0853,-0.06933 c -0.872,-0.836 -2.28533,-1.112 -3.28267,-1.112 -3.12,0 -5.116,1.737334 -5.116,4.429334 0,2.758666 2.03734,3.547999 3.86534,4.265333 1.62533,0.626666 3.16133,1.229333 3.16133,3.132 0,1.737333 -1.32933,3.128 -2.99333,3.128 -1.496,0 -2.53467,-0.670667 -3.492,-2.270667 l -0.0413,-0.06933 h -0.41733 l -0.49867,2.178666"
         style="fill:#ffffff;fill-opacity:1;fill-rule:nonzero;stroke:none;stroke-width:0.133333" />
      <path
         id="path19"
         d="m 284.23599,20.13202 h -11.72666 v 1.646667 l 0.168,-0.02533 c 1.328,-0.137334 2.66,-0.253334 4.78133,-0.253334 0,0.278667 0,14.285333 0,14.285333 h 2.244 c 0,0 0,-14.006666 0,-14.285333 1.58133,0 3.076,0.092 4.53333,0.253334 l 0.12267,0.02533 V 20.13202 h -0.12267"
         style="fill:#ffffff;fill-opacity:1;fill-rule:nonzero;stroke:none;stroke-width:0.133333" />
      <path
         id="path20"
         d="m 292.30133,19.80802 c -4.98934,0 -8.44,3.338667 -8.44,8.138667 0,4.822666 3.36533,8.045333 8.39866,8.045333 5.19734,0 8.68934,-3.361333 8.68934,-8.393333 0,-5.38 -4.36667,-7.790667 -8.648,-7.790667 z m 4.15866,13.401333 c -1.124,1.184 -2.496,1.786667 -4.15866,1.786667 -3.61734,0 -5.988,-2.665333 -5.988,-6.794667 0,-4.545333 2.412,-7.373333 6.196,-7.373333 1.82933,0 3.536,0.788 4.57466,2.109334 1.12,1.482666 1.372,3.016 1.372,4.847999 0,0.092 0,0.206667 0,0.322667 0,1.485333 -0.58266,3.618667 -1.996,5.101333"
         style="fill:#ffffff;fill-opacity:1;fill-rule:nonzero;stroke:none;stroke-width:0.133333" />
      <path
         id="path21"
         d="m 316.54133,20.13202 h -1.41334 c 0,0 0,11.269333 0,11.548 v 0 c -0.0827,-0.09333 -10.684,-11.548 -10.684,-11.548 h -1.04266 v 15.606667 h 1.49733 c 0,0 0,-11.805333 0,-12.082667 0.0427,0 0.0427,0 0.0427,0 0.0853,0.092 9.64533,10.666667 9.64533,10.666667 l 1.20533,1.390666 0.044,0.02533 h 0.83067 V 20.13202 h -0.12533"
         style="fill:#ffffff;fill-opacity:1;fill-rule:nonzero;stroke:none;stroke-width:0.133333" />
      <path
         id="path22"
         d="m 341.73599,20.13202 h -0.54133 l -3.77867,6.864 c 0,0 -2.416,4.336 -2.624,4.730667 -2.32533,-3.872 -4.404,-7.978667 -6.19066,-11.501333 l -0.0453,-0.09333 h -0.78933 l -0.0413,0.138667 c -0.208,2.297333 -1.536,11.688 -2.11867,15.305333 l -0.044,0.162667 h 1.87333 v -0.14 c 0,-2.202667 0.41467,-5.472 0.832,-8.950667 0,0 0.16267,-1.530666 0.248,-2.156 0.24934,0.509334 3.20134,6.097333 4.28134,8.393333 l 1.28933,2.597334 h 0.416 l 0.0413,-0.09333 c 1.28933,-2.989333 3.16,-6.421333 5.65333,-10.919999 0.37334,2.687999 0.83467,8.067999 1.08134,11.129333 l 0.044,0.14 h 2.36933 V 35.57602 C 343.1507,31.797353 342.5667,26.786687 341.8627,20.270687 V 20.13202 h -0.12667"
         style="fill:#ffffff;fill-opacity:1;fill-rule:nonzero;stroke:none;stroke-width:0.133333" />
      <path
         id="path23"
         d="m 352.42399,19.80802 h -0.708 l -7.108,15.930667 h 1.90933 l 0.0427,-0.116 c 0.58133,-1.948 1.32933,-3.804 2.03733,-5.612 0,0 0.124,-0.208 0.16667,-0.324 0.16667,0 5.32267,0 5.48933,0 0.748,1.714666 1.53867,3.709333 2.32667,5.96 l 0.0427,0.092 h 2.66133 z m -3.11867,8.649333 c 0.124,-0.324 1.996,-4.709333 2.20267,-5.242666 0.248,0.510667 2.16267,4.918666 2.288,5.242666 -0.37333,0 -4.11733,0 -4.49067,0"
         style="fill:#ffffff;fill-opacity:1;fill-rule:nonzero;stroke:none;stroke-width:0.133333" />
      <path
         id="path24"
         d="m 366.10266,28.01602 c 2.82533,-0.556 4.53066,-2.18 4.53066,-4.336 0,-2.389333 -1.70533,-3.548 -5.15466,-3.548 h -4.74134 -0.12266 v 15.606667 h 2.24533 c 0,0 0,-7.212 0,-7.490667 0.168,0 0.54133,0 0.62267,0 0.0813,0.09333 1.78933,2.065333 1.78933,2.065333 -0.0413,0 2.61733,3.408 2.61733,3.408 l 1.45467,2.017334 h 0.0853 2.86667 c 0,0 -5.90267,-7.397334 -6.19333,-7.722667 z m -3.24267,-0.881333 c 0,-0.256 0,-5.634667 0,-5.889333 0.91733,-0.04667 2.328,-0.117334 3.12,0.02267 1.576,0.256 2.36667,1.158667 2.36667,2.690667 0,1.553333 -1.03867,2.712 -2.78667,3.061333 -0.952,0.182667 -2.11733,0.137333 -2.7,0.114667"
         style="fill:#ffffff;fill-opacity:1;fill-rule:nonzero;stroke:none;stroke-width:0.133333" />
      <path
         id="path25"
         d="m 383.60799,20.13202 h -11.72533 v 1.646667 l 0.16666,-0.02533 c 1.332,-0.137334 2.61734,-0.253334 4.74,-0.253334 0,0.278667 0,14.285333 0,14.285333 h 2.244 c 0,0 0,-14.006666 0,-14.285333 1.62267,0 3.12,0.092 4.53467,0.253334 l 0.16267,0.02533 V 20.13202 h -0.12267"
         style="fill:#ffffff;fill-opacity:1;fill-rule:nonzero;stroke:none;stroke-width:0.133333" />
      <path
         id="path26"
         d="m 385.60532,35.738687 h 2.11734 V 20.153354 h -2.11734 v 15.585333"
         style="fill:#ffffff;fill-opacity:1;fill-rule:nonzero;stroke:none;stroke-width:0.133333" />
      <path
         id="path27"
         d="m 402.77599,20.13202 c 0,0 0,11.269333 0,11.548 0,0 0,0 -0.0413,0 -0.0853,-0.09333 -10.64534,-11.548 -10.64534,-11.548 h -1.08 v 15.606667 h 1.54 c 0,0 0,-11.805333 0,-12.082667 h 0.04 c 0.08,0.092 9.64534,10.666667 9.64534,10.666667 l 1.20666,1.390666 0.87067,0.02533 V 20.13202 h -1.536"
         style="fill:#ffffff;fill-opacity:1;fill-rule:nonzero;stroke:none;stroke-width:0.133333" />
    </g>
  </g>
</svg>
