<?xml version="1.0" encoding="UTF-8" standalone="no"?>
<svg
   id="Layer_1"
   viewBox="0 0 499.99999 500.00001"
   version="1.1"
   sodipodi:docname="cadillac.svg"
   width="500"
   height="500"
   inkscape:version="1.4.3 (0d15f75, 2025-12-25)"
   xmlns:inkscape="http://www.inkscape.org/namespaces/inkscape"
   xmlns:sodipodi="http://sodipodi.sourceforge.net/DTD/sodipodi-0.dtd"
   xmlns="http://www.w3.org/2000/svg"
   xmlns:svg="http://www.w3.org/2000/svg">
  <sodipodi:namedview
     id="namedview12"
     pagecolor="#ffffff"
     bordercolor="#000000"
     borderopacity="0.25"
     inkscape:showpageshadow="2"
     inkscape:pageopacity="0.0"
     inkscape:pagecheckerboard="0"
     inkscape:deskcolor="#d1d1d1"
     inkscape:zoom="0.55559379"
     inkscape:cx="19.798637"
     inkscape:cy="318.57807"
     inkscape:window-width="1440"
     inkscape:window-height="890"
     inkscape:window-x="-6"
     inkscape:window-y="-6"
     inkscape:window-maximized="1"
     inkscape:current-layer="Layer_1" />
  <defs
     id="defs1">
    <style
       id="style1">.cls-1{fill:#fff;}</style>
  </defs>
  <g
     id="g12"
     transform="matrix(0.88278395,0,0,0.88278395,-7.2025e-7,121.69618)">
    <path
       id="path20"
       class="cls-1"
       d="M 282.62,141.78 C 251.54,136.92 189.06,124.33 161.61,117.82 140.36,112.77 137.87,105.83 135.3,94.01 l -0.1,-0.46 C 134.41,89.93 127.75,54.01 124.98,38.9 L 97.43,0 h 371.5 l -27.55,38.9 c -2.62,14.32 -9.43,51 -10.22,54.65 l -0.1,0.46 c -2.57,11.82 -5.06,18.76 -26.3,23.81 -27.37,6.49 -89.86,19.07 -121.06,23.96 l -0.54,0.08 z" />
    <path
       id="path24"
       d="m 462.19,3.48 -24.1,34.03 c -2.64,14.45 -9.55,51.68 -10.33,55.3 -2.27,10.42 -3.36,16.76 -23.81,21.62 -27.23,6.46 -89.5,19.01 -120.79,23.91 -31.27,-4.89 -93.52,-17.45 -120.75,-23.91 -20.45,-4.87 -21.54,-11.2 -23.81,-21.62 -0.78,-3.6 -7.69,-40.85 -10.34,-55.3 L 104.16,3.48 h 358.02 z" />
    <path
       id="path28"
       class="cls-1"
       d="M 443.18,9.88 H 123.2 l 19.01,27.14 c 4.75,28.22 7.69,46.37 8.91,52.7 2.11,11.01 2.49,15.75 13.86,18.82 22.61,5.35 88.12,18.82 118.23,23.36 30.11,-4.54 95.63,-18 118.25,-23.36 11.37,-3.06 11.74,-7.81 13.86,-18.82 1.19,-6.33 4.16,-24.47 8.91,-52.7 L 443.2,9.88 Z" />
    <path
       id="path32"
       d="m 182.39,64.67 h -30.73 l -2.38,-14.08 h 131.95 v 14.08 h -3.56 V 53.89 h -96.4 z" />
    <path
       id="path36"
       d="M 148.75,47.38 H 281.2 V 37.06 H 147.03 Z" />
    <path
       id="path40"
       d="m 231.59,82.01 h 49.63 v -7.39 h -49.61 z" />
    <path
       id="path44"
       d="m 145.74,33.77 h 31.39 l -5.94,-10.33 h 106.49 v 10.29 h 3.56 V 19.87 H 136.01 l 9.72,13.9 z" />
    <path
       id="path48"
       d="m 335.21,19.87 h -50.06 v 20.75 h 50.09 l -0.02,-20.75 z" />
    <path
       id="path52"
       d="m 158.8,99.87 c 0.81,1.24 2.32,2.67 7.33,4.03 2.42,0.59 5.12,1.19 8.85,2.02 h 53.14 V 98.6 h -70.01 c 0.19,0.44 0.41,0.87 0.68,1.27 z" />
    <path
       id="path56"
       d="m 155.77,88.68 h 72.36 V 67.99 h -75.91 l 3.56,20.69 z" />
    <path
       id="path60"
       d="m 231.59,117.7 c 18.53,3.65 36.65,7.01 49.66,9.05 V 92.03 h -49.66 z" />
    <path
       id="path64"
       d="m 338.64,64.67 h 76.07 l 3.47,-20.75 h -79.55 v 20.75 z" />
    <path
       id="path68"
       d="m 338.64,26.47 v 7.37 l 81.82,-0.03 5.13,-7.34 h -86.96 z" />
    <path
       id="path72"
       d="m 285.15,82.01 h 3.56 V 71.56 h 94.67 c -0.12,1.02 -1.01,8.02 -1.47,10.48 h 29.89 l 2.38,-14.05 H 285.15 Z" />
    <path
       id="path76"
       d="M 285.15,95.54 H 409.29 L 411.3,85.26 H 285.15 Z" />
    <path
       id="path78"
       d="m 335.23,50.6 h -50.09 v 7.41 h 50.09 z" />
    <path
       id="path82"
       d="m 313.21,118.2 c -4.95,0.94 -18.82,3.36 -24.5,4.39 v -20.43 h 87.72 c -4.2,4.94 -12.84,6.41 -63.22,16.04 M 285.15,98.6 v 28.14 c 31.56,-5.16 92.84,-17.31 115.13,-22.86 5.04,-1.25 6.53,-2.77 7.34,-4.01 0.27,-0.4 0.49,-0.82 0.67,-1.27 z" />
    <path
       id="path86"
       d="M 15.78,230.4 C 10.66,228.34 6.76,225.49 4.05,221.84 1.35,218.19 0,214.02 0,209.34 c 0,-4.68 1.35,-8.86 4.05,-12.5 2.7,-3.65 6.61,-6.5 11.73,-8.56 5.11,-2.06 11.16,-3.08 18.12,-3.08 11.88,0 21.89,2.87 30.02,8.62 v 1.59 l -3.22,3.91 c -7.68,-5.62 -16.62,-8.42 -26.8,-8.42 -5.54,0 -10.34,0.73 -14.41,2.19 -4.07,1.46 -7.19,3.58 -9.38,6.37 -2.19,2.79 -3.28,6.08 -3.28,9.88 0,3.8 1.09,7.1 3.28,9.88 2.19,2.79 5.32,4.91 9.38,6.37 4.06,1.46 8.87,2.19 14.41,2.19 5.09,0 9.77,-0.71 14.04,-2.12 4.26,-1.41 8.5,-3.56 12.7,-6.43 l 3.28,3.91 v 1.59 c -4.02,2.83 -8.45,5 -13.3,6.5 -4.85,1.5 -10.42,2.26 -16.72,2.26 -6.97,0 -13.01,-1.03 -18.12,-3.08" />
    <path
       id="path94"
       d="m 192.08,226.85 c 9.69,0 16.85,-1.39 21.47,-4.18 4.62,-2.79 6.93,-7.23 6.93,-13.33 0,-6.1 -2.31,-10.55 -6.93,-13.33 -4.62,-2.79 -11.78,-4.18 -21.47,-4.18 h -18.09 v 35.02 z m -24.79,5.71 v -46.43 h 26.13 c 11.21,0 19.67,1.95 25.36,5.84 5.7,3.89 8.54,9.68 8.54,17.38 0,7.7 -2.85,13.49 -8.54,17.38 -5.7,3.89 -14.15,5.84 -25.36,5.84 h -26.13 z" />
    <path
       id="path96"
       d="m 253.91,232.56 h -6.7 v -46.43 h 6.7 z" />
    <path
       id="path100"
       d="m 285.52,186.12 v 40.73 h 48.63 l -4.41,5.7 h -50.92 v -46.43 z" />
    <path
       id="path104"
       d="m 357.84,186.12 v 40.73 h 48.63 l -4.41,5.7 h -50.92 v -46.43 z" />
    <path
       id="path108"
       d="m 452.44,191.7 -15.08,23.35 h 33.46 L 455.74,191.7 h -3.31 z m -3.48,-5.58 h 10.28 l 29.88,44.84 v 1.59 h -6.97 l -7.64,-11.81 h -40.83 l -7.64,11.81 h -6.97 v -1.59 l 29.88,-44.84 z" />
    <path
       id="path108-2"
       d="M 112.72,191.7 97.64,215.05 H 131.1 L 116.02,191.7 h -3.31 z m -3.49,-5.58 h 10.28 l 29.88,44.84 v 1.59 h -6.97 l -7.64,-11.81 H 93.95 l -7.64,11.81 h -6.97 v -1.59 l 29.88,-44.84 z" />
    <path
       id="path112"
       d="m 518.25,230.4 c -5.12,-2.06 -9.02,-4.91 -11.73,-8.56 -2.7,-3.65 -4.05,-7.82 -4.05,-12.5 0,-4.68 1.35,-8.86 4.05,-12.5 2.7,-3.65 6.61,-6.5 11.73,-8.56 5.11,-2.06 11.15,-3.08 18.12,-3.08 11.88,0 21.89,2.87 30.02,8.62 v 1.59 l -3.22,3.91 c -7.68,-5.62 -16.62,-8.42 -26.8,-8.42 -5.54,0 -10.34,0.73 -14.41,2.19 -4.07,1.46 -7.19,3.58 -9.38,6.37 -2.19,2.79 -3.28,6.08 -3.28,9.88 0,3.8 1.09,7.1 3.28,9.88 2.19,2.79 5.32,4.91 9.38,6.37 4.06,1.46 8.87,2.19 14.41,2.19 5.09,0 9.77,-0.71 14.04,-2.12 4.26,-1.41 8.5,-3.56 12.7,-6.43 l 3.28,3.91 v 1.59 c -4.02,2.83 -8.45,5 -13.3,6.5 -4.85,1.5 -10.42,2.26 -16.72,2.26 -6.97,0 -13.01,-1.03 -18.12,-3.08" />
    <path
       d="M 34.31,267.54 H 7.49 v 7.81 h 22.32 v 3.17 H 7.49 v 11.64 H 3.81 v -25.79 h 29.32 z"
       id="path1" />
    <path
       d="m 51.21,288.98 c -2.8,-1.13 -4.91,-2.71 -6.34,-4.73 -1.42,-2.03 -2.14,-4.35 -2.14,-6.98 0,-2.63 0.71,-4.95 2.14,-6.98 1.42,-2.03 3.54,-3.6 6.34,-4.73 2.8,-1.13 6.19,-1.69 10.17,-1.69 3.98,0 7.37,0.57 10.17,1.69 2.8,1.13 4.91,2.71 6.34,4.73 1.42,2.03 2.14,4.35 2.14,6.98 0,2.63 -0.71,4.95 -2.14,6.98 -1.42,2.03 -3.54,3.6 -6.34,4.73 -2.8,1.13 -6.19,1.69 -10.17,1.69 -3.98,0 -7.37,-0.56 -10.17,-1.69 z m 21.2,-4.16 c 2.57,-1.79 3.85,-4.31 3.85,-7.55 0,-3.24 -1.28,-5.76 -3.85,-7.55 -2.57,-1.79 -6.24,-2.69 -11.03,-2.69 -4.79,0 -8.47,0.9 -11.03,2.69 -2.57,1.79 -3.85,4.31 -3.85,7.55 0,3.24 1.28,5.76 3.85,7.55 2.57,1.79 6.24,2.69 11.03,2.69 4.79,0 8.47,-0.9 11.03,-2.69 z"
       id="path2" />
    <path
       d="m 91.63,290.16 v -25.79 h 22.03 c 3.59,0 6.24,0.59 7.96,1.77 1.72,1.18 2.58,2.93 2.58,5.27 0,2.34 -0.86,4.09 -2.58,5.27 -1.72,1.18 -4.37,1.77 -7.96,1.77 h -1.62 v 0.88 l 2.73,0.44 8.88,9.5 v 0.88 h -3.79 L 109.25,278.44 H 95.33 v 11.71 h -3.68 z m 22.58,-14.88 c 2.16,0 3.75,-0.3 4.77,-0.9 1.02,-0.6 1.53,-1.59 1.53,-2.97 0,-1.38 -0.51,-2.36 -1.53,-2.97 -1.02,-0.6 -2.61,-0.9 -4.77,-0.9 h -18.9 v 7.74 z"
       id="path3" />
    <path
       d="m 139.92,290.16 h -3.68 v -25.79 h 5.08 l 14.66,22.21 h 0.88 l 14.66,-22.21 h 5.08 v 25.79 h -3.68 v -20.48 h -0.88 l -13.56,20.48 h -4.13 l -13.56,-20.48 h -0.88 v 20.48 z"
       id="path4" />
    <path
       d="m 193.52,287.2 c -2.8,-2.32 -4.2,-5.81 -4.2,-10.48 V 264.38 H 193 v 12.82 c 0,3.44 1.14,6.02 3.41,7.74 2.27,1.72 5.38,2.58 9.34,2.58 3.96,0 7.07,-0.86 9.34,-2.58 2.27,-1.72 3.41,-4.3 3.41,-7.74 v -12.82 h 3.68 v 12.34 c 0,4.67 -1.4,8.16 -4.2,10.48 -2.8,2.32 -6.88,3.48 -12.23,3.48 -5.35,0 -9.43,-1.16 -12.23,-3.48 z"
       id="path5" />
    <path
       d="m 238.57,264.37 v 22.62 h 25.57 l -1.25,3.17 h -28 v -25.79 z"
       id="path6" />
    <path
       d="m 289.81,264.37 h 4.72 l 16.43,24.9 v 0.88 h -3.83 l -4.2,-6.56 h -21.51 l -4.2,6.56 h -3.83 v -0.88 l 16.43,-24.9 z m 1.92,3.1 -8.29,12.97 h 17.46 l -8.29,-12.97 z"
       id="path7" />
    <path
       d="M 354.24,290.16 H 350.7 V 268.2 h -0.74 l -10.57,5.97 -1.4,-2.03 v -0.74 l 12.71,-7.04 h 3.54 v 25.79 z"
       id="path8" />
    <path
       d="m 422.06,264.37 1.18,3.17 h -15.32 v 22.62 h -3.68 v -22.62 h -15.32 l 1.18,-3.17 h 31.98 z"
       id="path9" />
    <path
       d="m 438.01,278.52 v 8.47 h 27.78 l -1.18,3.17 h -30.28 v -25.79 h 29.91 l 1.18,3.17 h -27.41 v 7.81 h 22.25 v 3.17 z"
       id="path10" />
    <path
       d="m 491.61,264.37 h 4.72 l 16.43,24.9 v 0.88 h -3.83 l -4.2,-6.56 h -21.51 l -4.2,6.56 h -3.83 v -0.88 l 16.43,-24.9 z m 1.91,3.1 -8.29,12.97 h 17.46 l -8.29,-12.97 z"
       id="path11" />
    <path
       d="m 526.72,290.16 h -3.68 v -25.79 h 5.08 l 14.66,22.21 h 0.88 l 14.66,-22.21 h 5.08 v 25.79 h -3.68 v -20.48 h -0.88 l -13.56,20.48 h -4.13 l -13.56,-20.48 h -0.88 v 20.48 z"
       id="path12" />
  </g>
</svg>
