<?xml version="1.0" encoding="UTF-8" standalone="no"?>
<svg
   id="Layer_1"
   data-name="Layer 1"
   viewBox="0 0 500 499.99999"
   version="1.1"
   sodipodi:docname="ferrari.svg"
   width="500"
   height="500"
   inkscape:version="1.4.3 (0d15f75, 2025-12-25)"
   xmlns:inkscape="http://www.inkscape.org/namespaces/inkscape"
   xmlns:sodipodi="http://sodipodi.sourceforge.net/DTD/sodipodi-0.dtd"
   xmlns="http://www.w3.org/2000/svg"
   xmlns:svg="http://www.w3.org/2000/svg"
   xmlns:rdf="http://www.w3.org/1999/02/22-rdf-syntax-ns#"
   xmlns:cc="http://creativecommons.org/ns#"
   xmlns:dc="http://purl.org/dc/elements/1.1/">
  <defs
     id="defs1" />
  <sodipodi:namedview
     id="namedview1"
     pagecolor="#ffffff"
     bordercolor="#000000"
     borderopacity="0.25"
     inkscape:showpageshadow="2"
     inkscape:pageopacity="0.0"
     inkscape:pagecheckerboard="0"
     inkscape:deskcolor="#d1d1d1"
     inkscape:zoom="0.59753417"
     inkscape:cx="-181.57958"
     inkscape:cy="299.56446"
     inkscape:window-width="1440"
     inkscape:window-height="890"
     inkscape:window-x="-6"
     inkscape:window-y="-6"
     inkscape:window-maximized="1"
     inkscape:current-layer="Layer_1" />
  <title
     id="title1">Ferrari logo - Brandlogos.net</title>
  <g
     id="_Group_"
     data-name="&lt;Group&gt;"
     transform="matrix(1.3082156,0,0,1.3082156,18.15149,-1.16e-6)">
    <g
       id="_Group_2"
       data-name="&lt;Group&gt;">
      <path
         id="_Compound_Path_"
         data-name="&lt;Compound Path&gt;"
         d="m 244.54,219.62 c 35.87,-15.57 70.79,-23.28 106.39,-23.45 35.6,-0.17 71.81,7.2 110.3,21.8 l 1.13,0.43 v 1.2 l 0.17,71.76 v 0.19 0 a 128.65,128.65 0 0 1 -2.88,23.54 201,201 0 0 1 -7.51,26.29 c -16.62,46.52 -52.12,98.86 -98.37,122.17 l -0.77,0.39 -0.78,-0.38 c -0.28,-0.14 0.34,0.17 -0.11,-0.05 v 0 A 148.58,148.58 0 0 1 326,446.84 186.89,186.89 0 0 1 303.07,425.2 c -36.4,-40.42 -58,-96.27 -59.28,-133.64 v -0.05 l -0.29,-70.28 v -1.15 l 1.06,-0.46 z M 459,291.49 v -0.16 L 458.83,220.8 C 421.16,206.64 385.7,199.49 350.89,199.65 316.08,199.81 282,207.29 247,222.37 l 0.29,69.07 c 1.3,36.7 22.53,91.62 58.38,131.43 A 183.42,183.42 0 0 0 328.17,444.1 145.53,145.53 0 0 0 353,460 c 45,-23.06 79.6,-74.26 95.88,-119.83 a 197.48,197.48 0 0 0 7.39,-25.83 125.11,125.11 0 0 0 2.8,-22.89 v 0 z m 0,0 z"
         transform="translate(-175.78,-168.88)"
         style="fill:#231f20;fill-rule:evenodd" />
    </g>
    <path
       id="_Compound_Path_2"
       data-name="&lt;Compound Path&gt;"
       d="M 177.29,474.78 V 485 h 9.87 v 55.88 h -11.38 v 10.2 h 38.55 v -10.22 h -11 v -23.34 h 6.53 L 209.7,522 h 8.18 v -19.86 h -8.64 v 5.08 l -5.83,0.09 v -22.5 h 292.82 v -10 z M 240,493.91 h 24 c 5.07,1.05 9.06,3.41 11.79,9.17 v 23.64 h -31.37 v 14.11 c 0.52,1.53 1.34,2.83 4.22,2.47 H 256 q 2.9,0 3.69,-3.51 v -7.08 h 16.37 v 7.94 q -2.37,9.08 -13.89,10.41 h -20.91 q -12.58,-1.85 -13.2,-12.88 v -35.63 q 3.17,-7.5 12,-8.64 z m 7.57,7.41 h 9.52 a 3.58,3.58 0 0 1 2.28,3.66 v 15.53 H 244.6 v -16 a 3.31,3.31 0 0 1 3,-3.26 z m 35.28,-7.44 h 21.5 v 8.48 l 7.07,-4.72 c 7.83,-6.39 17.16,-5.15 20.35,4.3 v 22.51 h -16.6 v -20.4 q -1.47,-1.37 -10.77,9 v 28 h 5.68 v 9.6 h -26.62 v -9.79 h 5.29 v -38 h -5.87 v -9 z m 55.83,0 h 21.5 v 8.48 l 7.07,-4.72 c 7.83,-6.39 17.16,-5.15 20.35,4.3 v 22.51 H 371 v -20.4 q -1.47,-1.37 -10.77,9 v 28 h 5.69 v 9.6 h -26.63 v -9.79 h 5.29 v -38 h -5.88 v -9 z m 109.09,0 h 21.5 v 8.48 l 7.07,-4.72 c 7.83,-6.39 17.16,-5.15 20.35,4.3 v 22.51 h -16.6 v -20.4 q -1.47,-1.37 -10.77,9 v 28 H 475 v 9.6 h -26.62 v -9.79 h 5.29 v -38 h -5.87 v -9 z m 54.16,-0.47 v 8.53 l 5.32,0.06 v 38.22 H 502 V 550 h 27.9 v -9.42 h -5.69 v -38.65 h 5.35 v -8.53 z m 14,-19.29 c -7.88,0 -14.3,2.39 -14.3,5.32 0,2.93 6.42,5.32 14.3,5.32 7.88,0 14.3,-2.39 14.3,-5.32 0,-2.93 -6.42,-5.32 -14.3,-5.32 z m -123.4,37.25 c -0.44,-15 8.76,-17.3 14.63,-18 h 15.63 q 12.8,0.83 15,12.3 v 34.9 h 4 v 10.33 h -36.62 a 12.45,12.45 0 0 1 -12.31,-11 v -13.14 c 0.06,-5 5.77,-9.81 13,-9.41 h 15.3 V 505 q 0.9,-3.91 -2.66,-4 h -6.65 q -3.09,-0.25 -3,3.33 v 7 z m 28.94,11.52 v 20.27 H 413 c -2.66,0.21 -4,-0.48 -4.14,-2.39 v -15.33 q 0,-1.92 2.55,-2.55 z"
       transform="translate(-175.78,-168.88)"
       style="fill:#231f20;fill-rule:evenodd" />
    <path
       id="_Path_"
       data-name="&lt;Path&gt;"
       d="m 245.23,221.23 c 71.29,-31 138.81,-30.68 215.4,-1.63 l 0.17,71.76 C 459.89,342 416.72,429.88 353,462 288,429.88 247.36,343 245.53,291.5 Z"
       transform="translate(-175.78,-168.88)"
       style="fill:#fff100;fill-rule:evenodd" />
    <path
       id="_Path_2"
       data-name="&lt;Path&gt;"
       d="m 345.3,331 -1.82,-0.36 -0.36,0.91 a 2.52,2.52 0 0 0 0,1.82 c 0.36,1.09 0.18,2.73 0.55,3.64 a 19.53,19.53 0 0 1 1.09,3.09 c 0.36,1.45 1.27,5.82 1.27,5.82 a 14.16,14.16 0 0 0 1.27,3.08 c 0.91,1.64 1.82,2.36 2.36,3.64 0.54,1.28 1.82,4 1.82,4 l 1.82,2.18 c 0,0 0.55,-0.18 0.91,1.27 0.36,1.45 0.55,1.09 0.55,2 0,0.91 -1.27,1.64 -1.27,1.64 a 20.12,20.12 0 0 0 -3.27,-0.36 24.81,24.81 0 0 1 -3.46,-0.36 c -1.64,-0.18 -3.82,-0.55 -3.82,-0.55 a 5,5 0 0 0 -2.36,-1.09 c -1.64,-0.36 -3.46,-0.73 -3.46,-0.73 a 7.48,7.48 0 0 0 -2.73,-0.91 8.25,8.25 0 0 1 -1.82,-0.18 l -2.18,0.18 -1.64,-0.73 H 322 l -2.36,-0.18 h -2.91 l -1.27,0.73 0.73,3.09 1.27,1.45 2.73,1.45 a 9.72,9.72 0 0 0 2.91,1.09 c 0.91,0 2.36,0.18 3.46,0.18 a 16,16 0 0 0 2.73,-0.36 c 0,0 2,-1.09 2.55,-0.18 a 4.58,4.58 0 0 0 2,1.46 h 4.73 c 1.27,0 0.36,-1.09 2.55,-0.18 a 10.42,10.42 0 0 0 4.36,0.73 l 5.09,1.64 a 22.31,22.31 0 0 0 2.18,1.09 c 0.91,0.36 1.82,0.55 2.91,0.91 a 15.6,15.6 0 0 0 3.82,0.73 6.21,6.21 0 0 0 2.36,-0.91 1.57,1.57 0 0 0 0.91,-1.45 8.26,8.26 0 0 0 -0.18,-1.82 l -2.18,-3.82 -1.27,-4.36 -1.27,-4.73 0.18,-4.18 0.73,-4.55 -0.91,-1.27 -2.73,-2.56 -0.36,-1.46 -0.55,-1.82 -0.91,-1.82 -1.27,-2 -1.45,-1.27 -2,-1.64 -1.82,-1.09 z"
       transform="translate(-175.78,-168.88)"
       style="fill:#231f20;fill-rule:evenodd" />
    <path
       id="_Path_3"
       data-name="&lt;Path&gt;"
       d="m 351.14,209.92 -0.94,0.78 -0.16,0.78 a 5.91,5.91 0 0 0 -0.16,2.19 l 0.31,0.94 -0.47,1.25 -1.87,0.16 h -1.55 l -2,-0.47 -1.41,-0.94 -1.25,-0.16 h -3.44 l -1.09,0.47 1.09,0.62 1.25,0.47 -0.78,0.47 -1.25,-0.16 -1.87,-0.31 -1.25,0.78 -0.47,0.78 1.4,0.16 c 0,0 -0.31,-0.47 0.78,-0.31 1.09,0.16 1.72,0.31 1.72,0.31 l 1.09,0.16 0.94,0.47 1.87,0.78 1.09,0.62 -13.43,7.18 -3.41,0.63 -2.05,1.87 -2.65,2.81 v 5 l 0.62,0.78 1.41,-0.16 5.31,-1.56 0.78,0.31 0.16,0.78 -1.56,0.47 -4.22,1.41 a 14.6,14.6 0 0 0 2,1.09 2.71,2.71 0 0 0 1.09,0.16 c 0.78,0 0.16,0 1.56,-0.31 1.4,-0.31 2,-0.47 2,-0.47 l 1.56,-0.62 1.09,0.16 1.25,-0.31 0.78,0.62 1.41,0.16 2,0.47 2,0.31 1.87,0.31 1.87,0.16 h 1.09 l 0.94,1.72 -0.47,1.56 -0.78,2 -1.25,2.81 -1.09,2.19 -1.87,3.12 -1.41,2.34 -2,2.65 -1.87,2 -2.5,1.72 -1.4,1.56 -0.78,2.19 -1.41,1.56 -2.81,1.72 -2.5,1.72 -2.5,1.72 -2.19,1.56 -2,1.09 -0.94,-0.62 -2.19,-0.94 -2.34,-1.25 -2.5,-0.94 -1.39,-1.19 -1.56,-1.87 -1.87,-1.25 -2,-1.25 -1.25,-0.47 -2.5,-0.16 -1.87,0.47 -1.72,1.41 -1.09,1.56 -0.62,1.72 -1.41,2.19 -1.25,4.06 -0.31,1.87 a 34.82,34.82 0 0 0 -1.72,3.9 c -0.16,0.78 -0.78,3.28 -0.78,3.28 l -1.41,3.44 -0.16,1.72 -1.41,2.5 a 2.73,2.73 0 0 0 -0.78,1.56 23.81,23.81 0 0 0 0.47,3 c 0,0 -0.16,1.72 -0.16,2.5 0,0.78 -0.31,1.25 -0.31,2 a 18.93,18.93 0 0 0 -0.16,3 c 0.16,0.78 0.47,2.65 0.47,2.65 l 2,0.62 1.25,-1.56 1.56,-1.25 1.56,-1.72 -0.62,-2.66 -0.62,-2 -0.62,-2.5 -0.31,-3.44 0.94,-4.06 0.94,-2.19 1.56,-1.09 1.56,-1.09 2.19,-1.72 0.94,-2.65 1.09,-2.5 0.16,-1.72 1.87,0.47 0.94,0.94 1.41,1.56 1.56,1.72 1.87,1.87 2.5,2 1.09,1.25 -0.16,0.78 -1.72,-0.16 -3.54,-1.12 -2.19,-0.16 -2,-0.16 -1.41,-0.47 -1.72,0.16 -2.34,0.47 -2,1.41 -1.41,2 -0.47,2.34 v 2.19 l 0.31,3.44 0.78,3.59 1.72,10.62 0.78,1.72 a 13.09,13.09 0 0 1 0.16,1.87 5.36,5.36 0 0 0 1.09,2.34 l 1.41,1.09 1.41,2 1.41,3.44 1.09,1.56 1.72,2 1.41,1.25 2.19,0.47 1.72,-0.78 0.47,-2.19 0.16,-2.81 -0.31,-2.5 -1.41,-2 -1.56,-1.41 -2.81,-0.78 v -3.12 l -1.25,-1.25 -0.78,-1.87 -1.25,-4.22 -0.47,-3.28 -1.25,-3.12 -0.16,-2.19 0.47,-1.56 0.94,-0.62 1.72,0.47 3.12,1.56 2.34,1.25 2.81,1.09 2.5,1.09 1.56,1.41 2.5,2.19 2,0.78 2.5,0.31 h 3 l 1.56,0.16 -0.78,1.56 0.31,1.56 a 11.67,11.67 0 0 1 1.09,1.87 10.42,10.42 0 0 0 1.72,2.19 l 2.19,2.5 2.81,2.5 2.5,2.5 3.12,2.19 3,2.19 3.59,2 2.39,2.25 4.06,2.66 3,3.12 2,2 1.09,3.12 0.78,2.34 c 0,0 1.56,1.72 2.34,1.72 h 1.56 l 1.72,-2.34 1.72,-3.44 0.16,-3.75 0.16,-1.41 0.94,-2 c 0,0 0.78,-1.09 1.72,-1.09 a 1.83,1.83 0 0 1 1.25,0.31 l -1.41,1.87 c 0,0 -1.09,1.12 -1.09,1.89 v 2.5 l -0.31,2.5 -0.94,2 -1.25,1.56 -1.87,2.5 -0.63,1.94 -0.94,2.19 a 26.76,26.76 0 0 0 -0.94,4.06 c 0,0.94 0.62,1.72 0.62,2.81 a 15.74,15.74 0 0 0 0.78,3.9 l 1.09,3.28 a 11.83,11.83 0 0 0 1.25,2.34 34.47,34.47 0 0 1 2,3.59 l 1.56,1.87 0.62,1.87 1.25,1.72 0.62,1.25 a 6.28,6.28 0 0 1 -0.62,2 c -0.47,0.78 -1.09,1.87 -1.72,2.81 a 10,10 0 0 1 -2.34,2 l -2,3.12 -3,2.19 -1.72,0.94 -2,0.78 -2.34,2.65 -1.09,1.87 -2.81,3.12 -2.19,3.64 -0.94,2.34 0.62,2.5 2.19,0.47 8.75,-3.9 0.31,-1.25 0.16,-2 0.47,-1.41 2.5,-1.72 1.41,-1.87 0.62,-2 0.31,-1.25 1.72,-1.09 1.41,-1.41 0.78,-1.25 2.19,-1.87 1.72,-1.41 3.75,-2.19 2.19,-1.72 0.47,-6.09 -1.58,-1.88 -1.09,-2 c 0,0 -0.16,-1.41 -0.16,-2.34 v -3.12 a 9.14,9.14 0 0 1 0.78,-2 19.58,19.58 0 0 1 2.34,-2.5 l 2.81,-2.34 3,-1.72 2.65,-3 3.28,-4.06 1.72,-2.65 1.54,-3.67 1.09,-2.81 v -2.34 c 0,0 0.31,-1.41 1.09,-0.94 0.78,0.47 0.78,0.62 1.09,1.56 a 11.72,11.72 0 0 1 0.31,3.44 9.91,9.91 0 0 1 -0.47,2.65 l 0.16,3.12 0.16,2.81 1.09,0.94 v -1.87 l 0.31,-2 0.62,-2 v -1.87 l 0.78,-1.87 a 6.63,6.63 0 0 1 1.09,2.19 c 0.16,0.94 0.47,2.66 0.47,2.66 a 8.05,8.05 0 0 1 -0.47,2.65 c -0.47,1.09 -0.16,1.41 -0.78,2.19 -0.62,0.78 -1.72,2.5 -1.72,2.5 a 5,5 0 0 0 -1.25,2 13.73,13.73 0 0 0 -0.31,2.65 9.05,9.05 0 0 0 0.78,2.81 l 0.62,-1.25 0.31,-2 1.09,-2.66 1.87,-2.34 2.19,-3.75 1.25,-4.69 0.16,-3 -0.31,-2 -1.09,-1.87 -0.47,-1.56 0.94,-0.47 1.41,2.19 a 3.55,3.55 0 0 1 0.47,1.09 c 0.31,0.94 0.31,-0.16 0.47,1.41 a 11.21,11.21 0 0 0 0.31,2.65 c 0.31,1.09 0.31,1.56 0.62,2.5 a 20.43,20.43 0 0 1 0.78,2.34 7.2,7.2 0 0 0 1.09,2 v -1.25 L 408,348 l 0.47,-1.87 -0.31,-1.87 0.47,-2 0.31,-2.5 -0.78,-2 -0.78,-2 v -1.56 l 3,-1.56 3.75,-2.34 1.72,-2 2,-2 1.09,-3.28 0.47,-3.44 0.62,-4.22 -0.62,-4.84 -0.78,-3.59 -0.31,-3.44 -0.32,-3.49 0.62,-3.12 1.25,-3.12 2,-2.81 1.09,-1.56 1,-3.9 -1.65,1.09 -0.94,1.09 -0.31,0.94 -1.72,2 -1.34,1.77 -1.25,1.87 -0.78,1.56 h -1.41 l -0.62,-2 v -2.21 a 15.11,15.11 0 0 1 0.62,-3 l 0.94,-2.19 0.94,-2.34 2,-2.34 1.25,-2.65 0.62,-3.44 -1.41,1.87 -1.9,2.38 -2.19,2.5 -1.72,1.87 -1.87,2 -0.94,1.25 -0.94,-0.78 -0.31,-1.72 0.62,-2.65 0.94,-2.66 0.78,-3 2.34,-3.75 2.19,-2.34 1.87,-1.41 c -0.94,-0.16 -2.81,0.94 -2.81,0.94 l -2.19,2.19 -4.37,4.69 -1.72,3.44 -0.94,3.12 -0.31,2.81 a 12.09,12.09 0 0 0 -0.31,3 c 0.16,0.78 0.31,2 0.47,3.12 a 10,10 0 0 0 0.62,3.44 26.72,26.72 0 0 1 1.41,3.44 c 0.31,1.09 0.62,1.87 0.94,3.28 0.32,1.41 0.16,1.72 0.47,2.81 a 15,15 0 0 1 0.47,3.44 23.81,23.81 0 0 0 0.47,3 l -0.31,3.44 a 16.61,16.61 0 0 1 -0.16,2.34 c -0.16,0.78 -0.62,1.09 -0.94,2.19 -0.32,1.1 -0.31,2 -0.94,2.81 -0.63,0.81 -1.25,1.72 -1.87,2.5 a 19.52,19.52 0 0 1 -1.87,1.87 12.61,12.61 0 0 1 -2.19,1.41 c -1.25,0.62 -1.87,0.47 -2.65,0.94 a 4,4 0 0 1 -2,0.78 c -1.09,0.16 -3.59,0.31 -3.59,0.31 l 0.16,-1.41 -1.09,-1.87 -1.41,-2.34 -1.56,-3.28 -2,-2.5 -2,-2 -1.41,-1.72 -2.81,-2.19 -2.5,-2.19 -2.34,-1.56 -3.49,-2.7 -3.28,-2.5 -3.44,-3.9 -3.44,-4.53 -2,-3.28 -1.41,-2.66 -0.78,-3 0.31,-3.28 c 0,0 1.41,0.62 2.19,1.09 a 9.26,9.26 0 0 0 3.12,0.47 l 1.73,0.84 2.19,0.78 1.87,1.72 2.5,1.87 2,-0.47 -0.94,-0.78 -1.25,-0.62 -1.41,-2 -1.25,-1.56 -1.41,-0.94 -1.56,-0.62 2.34,-0.31 2.19,1.41 1.72,1.41 a 2,2 0 0 0 0.31,-1.72 l -2.5,-1.56 -1.72,-1.41 -2.5,-1.25 -2.19,-0.62 -0.62,-1.25 1.25,0.16 1.87,0.78 1.41,0.31 1.41,0.31 2,1.09 a 18.67,18.67 0 0 1 2.19,0.47 11.22,11.22 0 0 0 3,0.62 5,5 0 0 0 2.19,-0.16 c 0.78,-0.31 2.34,-1.09 2.34,-1.09 l 1.41,-1.72 -1.84,1.04 a 6.42,6.42 0 0 1 -2.34,0.78 h -2 a 7.59,7.59 0 0 1 -2.19,-1.72 4.85,4.85 0 0 0 -1.72,-1.87 7.25,7.25 0 0 0 -3,-1.41 11.75,11.75 0 0 1 -2.34,-0.47 l -1.75,-1.2 c 0,0 0.94,0.16 1.72,0.31 a 12.6,12.6 0 0 0 2.5,0 l 1.25,-0.47 a 4,4 0 0 1 1.72,0 c 1.41,0.16 0.78,-0.78 2,0.31 a 6.7,6.7 0 0 0 2.65,1.41 l 0.31,-0.78 -1.41,-1.09 -1.09,-0.94 -1.56,-1.25 a 4,4 0 0 0 -1.87,-0.62 H 370 l -0.62,-0.94 c 0,0 0.16,-0.31 1.25,-0.16 1.09,0.15 1.87,0.31 1.87,0.31 l 2,0.78 a 5,5 0 0 0 1.72,0.94 c 0.78,0.16 1.87,0.31 1.87,0.31 l 2.5,0.16 a 1.94,1.94 0 0 0 -0.16,-1.56 h -2 l -2,-1.56 -1.09,-1.41 a 11.73,11.73 0 0 1 -1.87,-0.16 15.44,15.44 0 0 1 -2.5,-0.78 c -0.78,-0.31 -1.41,-0.62 -1.41,-0.62 0,0 -0.62,-0.78 0.16,-0.78 a 9.83,9.83 0 0 1 2.65,0.94 l 1.56,0.31 h 0.78 l -1.25,-0.94 a 2.49,2.49 0 0 1 -0.62,-1.41 l 1.72,0.31 h 0.94 l 2,0.78 1.72,1.09 1.25,1.25 h 1.25 l -0.78,-0.62 a 2.18,2.18 0 0 1 -1.09,-1.25 3.85,3.85 0 0 0 -0.62,-1.72 c -0.47,-0.78 -0.47,-1.25 -1.25,-1.72 -0.78,-0.47 -0.78,-0.78 -1.87,-1.09 -1.09,-0.31 -2.34,-0.78 -2.34,-0.78 L 372.22,259 a 2.88,2.88 0 0 0 -1.09,-1.41 5.78,5.78 0 0 0 -1.41,-0.62 l 0.16,-1.56 2.81,0.78 2,0.16 a 2.05,2.05 0 0 1 0.94,0.94 16.55,16.55 0 0 0 1.09,1.56 c 0,0 1.09,1.25 1.87,1.25 a 8.42,8.42 0 0 1 1.72,0.16 13.17,13.17 0 0 0 2.65,0 l 1.09,-0.47 -1.41,-0.47 -1.09,-0.47 -1.25,-0.78 -1.09,-0.94 -0.78,-1.41 -0.31,-1.09 -1.41,-1.41 c 0,0 -1.09,-0.62 -1.87,-1.09 -0.78,-0.47 -1.41,-0.78 -2.19,-1.25 -0.78,-0.47 -1.41,-0.94 -1.41,-0.94 l -0.94,-1.25 -0.16,-1.25 1.41,1.09 2,1.72 1.25,0.78 1.56,0.62 1.72,1.25 0.94,1.09 1.25,1.25 1.56,0.78 1.25,-0.47 -1.41,-1.09 -1.25,-1.25 -0.31,-1.72 -0.94,-1.56 -2,-0.78 v -1.25 l -1.09,-1.72 -1.56,-1.72 -1.41,-1.25 -0.94,-1.09 -0.47,-1.25 c 0,0 -0.47,0.31 0.78,-0.16 a 1.08,1.08 0 0 1 1.56,0.62 l 2.19,1.41 1.72,0.47 a 6.46,6.46 0 0 1 1.87,0 c 0.94,0.16 1.25,0.47 2.19,0.62 a 5.28,5.28 0 0 0 1.72,0 l 0.94,-0.94 -1.25,-0.16 -1.72,-0.78 A 5,5 0 0 0 380,241 a 6.65,6.65 0 0 0 -1.72,-0.31 6.42,6.42 0 0 1 -1.41,-0.16 l -0.94,-0.78 -0.78,-0.94 -0.16,-0.94 c 0,0 -1.25,-0.94 -0.31,-0.78 0.94,0.16 0.78,0.31 1.56,0.62 a 3.73,3.73 0 0 0 1.41,0.47 c 0.94,0.16 0.78,0.47 1.56,0.16 a 4.72,4.72 0 0 1 1.56,-0.31 3.83,3.83 0 0 1 1.56,0 3.71,3.71 0 0 1 1.87,0.47 11,11 0 0 1 1.72,1.09 l 1.25,0.62 -0.31,-1.41 L 386,238 a 4.67,4.67 0 0 0 -1.56,-1.41 c -0.94,-0.47 -0.78,-0.62 -1.56,-0.78 -0.78,-0.16 -1.87,-0.31 -1.87,-0.31 a 4,4 0 0 0 -1.87,-0.47 c -1.09,0 -1.25,0.31 -2.19,0 a 4.45,4.45 0 0 1 -2.19,-1.25 c -0.78,-0.78 -0.31,-0.78 -1.41,-1.41 a 7.69,7.69 0 0 0 -1.72,-0.78 l -0.78,-1.09 a 4.22,4.22 0 0 1 3.12,0.31 c 0.78,0.31 0.31,0.31 1.41,0.47 a 12.76,12.76 0 0 0 1.56,0.16 l 3,0.47 1.09,0.47 1.25,1.25 a 6.11,6.11 0 0 0 1.41,1.09 l 1.41,0.62 h 0.9 l -1.09,-1.09 -0.94,-1.25 a 1.45,1.45 0 0 0 -0.78,-1.41 10.5,10.5 0 0 0 -1.72,-1.09 20.31,20.31 0 0 1 -1.87,-1.09 c 0,0 -0.47,0.47 -1.25,-0.16 a 23,23 0 0 0 -2,-1.56 14.65,14.65 0 0 1 -1.87,-1.41 3.25,3.25 0 0 0 -1.56,-0.94 20.88,20.88 0 0 0 -2.19,-0.78 l -0.47,-0.62 c -0.79,-1.06 1.33,-1.55 1.33,-1.55 a 3.76,3.76 0 0 0 1.63,-0.56 4.4,4.4 0 0 1 2.06,-0.49 l 1.09,-0.4 c 0,0 1.08,-0.59 0.3,-0.9 a 2.68,2.68 0 0 0 -1.6,-0.23 c -0.94,0 -0.74,-0.39 -1.84,-0.39 h -5.62 a 2.49,2.49 0 0 1 -1.41,-0.62 c -0.78,-0.62 -1.56,-1.41 -1.56,-1.41 a 19.15,19.15 0 0 0 -1.87,-0.94 c -0.78,-0.31 -0.62,-0.62 -1.72,-0.78 -1.1,-0.16 -1.41,-0.31 -2.19,-0.47 -0.78,-0.16 -1.25,0.62 -2.34,-0.16 a 6,6 0 0 1 -1.41,-1.25 l -1.41,-0.94 -0.78,-0.78 -0.94,-0.94 z"
       transform="translate(-175.78,-168.88)"
       style="fill:#231f20;fill-rule:evenodd" />
    <path
       id="_Path_4"
       data-name="&lt;Path&gt;"
       d="m 345,210.19 -0.16,1.09 v 0.78 c -0.62,0.78 -1.25,1.72 -1.25,1.72 a 1,1 0 0 0 0.94,0.78 3.48,3.48 0 0 1 1.4,0.31 l 1.41,0.31 0.78,-0.31 -0.16,-1.09 -1.09,-1.25 -0.62,-0.78 -0.62,-0.78 z"
       transform="translate(-175.78,-168.88)"
       style="fill:#231f20;fill-rule:evenodd" />
    <path
       id="_Path_5"
       data-name="&lt;Path&gt;"
       d="m 243.57,202.5 v 17.77 c 72.85,-31.81 146,-31.16 218.85,-1.28 V 200.15 L 353,182.78 Z"
       transform="translate(-175.78,-168.88)"
       style="fill:#ec1c24;fill-rule:evenodd" />
    <path
       id="_Path_6"
       data-name="&lt;Path&gt;"
       d="m 243.57,196.1 v 6.38 L 353,182.72 462.43,200.08 v -6.9 L 353.2,174.53 c 0,0 -109.63,20.99 -109.63,21.57 z"
       transform="translate(-175.78,-168.88)"
       style="fill:#ffffff;fill-rule:evenodd" />
    <polygon
       id="_Path_7"
       data-name="&lt;Path&gt;"
       points="286.65,24.32 177.22,5.9 67.8,27.09 67.8,20.82 177.22,0 286.65,18.87 "
       style="fill:#00a551;fill-rule:evenodd" />
    <path
       id="_Path_8"
       data-name="&lt;Path&gt;"
       d="m 334.65,391.39 a 1,1 0 0 0 -1.11,-0.25 l -0.37,0.74 a 3.86,3.86 0 0 1 -2.72,0 c -3.29,-1.74 -7.25,-2.77 -10.5,-0.25 -2.52,2.24 -5.23,7.35 2.59,12.11 2.92,1.85 7.83,3 10.63,4.45 5.8,3.81 0.92,11.11 -6.18,11.24 -6.74,0.11 -11.37,-5.73 -8.77,-8.28 2.42,1.28 3.93,-0.21 3.83,-2.1 -0.1,-1.89 -3,-3.41 -4.94,-1 -4.36,3.4 -0.25,14.65 10.38,13.34 8.64,-1.22 12.41,-5.58 10.5,-13.71 -2.13,-4.81 -8.92,-6.66 -14.7,-9.27 -3.39,-2.52 -2.94,-6.48 4,-5.68 a 14.27,14.27 0 0 1 8.4,6.8 l 0.86,-0.49 z"
       transform="translate(-175.78,-168.88)"
       style="fill:#231f20;fill-rule:evenodd" />
    <path
       id="_Path_9"
       data-name="&lt;Path&gt;"
       d="m 384.57,396.18 c -4.44,2.41 -5.87,1.19 -5.6,-0.73 2.24,-5.87 11.25,-1.49 14.94,-1.45 -2.74,3.07 -4.79,6.22 -5.29,9.55 -3.46,0.17 -4.3,1.65 -4.77,3.32 a 5.43,5.43 0 0 1 3.22,-0.83 c 0,2.29 -3.15,7.56 -5.33,9.89 -4.59,5.32 -15.12,0.72 -12.1,-5.73 1.19,1.17 4.5,0.53 4.2,-2.08 -0.3,-2.61 -3.11,-3.11 -4.93,-1.25 -3.12,2.42 -3.21,13.51 8.41,14 9.54,-0.54 13,-9.78 15,-14.84 4,0 5.8,-1.44 6,-3.94 a 11.69,11.69 0 0 1 -4.77,1 15.51,15.51 0 0 1 4.37,-9.27 c 7.21,0.46 13.52,-3.21 16,-4.22 q 0.61,-0.81 -0.21,-1.14 c -16.74,4.7 -22.43,0.41 -28.13,1.07 -6.54,0.54 -12.07,6.61 -8.3,9.62 3.32,2.46 6.72,-0.28 7.29,-2.97 z"
       transform="translate(-175.78,-168.88)"
       style="fill:#231f20;fill-rule:evenodd" />
    <path
       id="_Path_10"
       data-name="&lt;Path&gt;"
       d="m 412.94,306.68 c 5.88,9.82 -2.11,22.52 -6.28,22.4 5.52,-5.83 7.41,-13.4 6.28,-22.4 z"
       transform="translate(-175.78,-168.88)"
       style="fill:#ffffff;fill-rule:evenodd" />
    <polygon
       id="_Path_11"
       data-name="&lt;Path&gt;"
       points="131.14,111.84 131.02,110.97 130.16,110.11 129.42,109.5 128.31,109.62 129.17,110.48 129.79,111.1 "
       style="fill:#ffffff;fill-rule:evenodd" />
    <polygon
       id="_Path_12"
       data-name="&lt;Path&gt;"
       points="121.91,101.5 122.9,101.38 124.37,101.25 124.37,100.64 123.76,100.15 122.4,100.39 121.67,100.76 "
       style="fill:#ffffff;fill-rule:evenodd" />
    <path
       id="_Path_13"
       data-name="&lt;Path&gt;"
       d="m 295.11,274.32 -0.86,0.37 -0.37,1.11 -0.74,1.23 -0.12,1.35 -0.37,1.11 0.25,1 0.86,-0.37 0.74,-1.23 0.37,-1.23 a 9.56,9.56 0 0 1 0.37,-1.11 3.29,3.29 0 0 0 0.25,-1.11 z"
       transform="translate(-175.78,-168.88)"
       style="fill:#ffffff;fill-rule:evenodd" />
    <path
       id="_Path_14"
       data-name="&lt;Path&gt;"
       d="m 304.09,295.73 0.74,0.49 1.23,1 1.48,1 1.23,0.86 1.11,0.74 1,-0.62 c 0,0 0.25,-0.37 -0.37,-0.62 a 10,10 0 0 1 -1.23,-0.62 l -1.11,-0.49 -0.62,-0.37 -0.86,-0.37 -1.11,-0.49 z"
       transform="translate(-175.78,-168.88)"
       style="fill:#ffffff;fill-rule:evenodd" />
    <polygon
       id="_Path_15"
       data-name="&lt;Path&gt;"
       points="118.1,120.2 117.36,121.19 117.36,122.05 118.1,122.05 118.34,121.07 "
       style="fill:#ffffff;fill-rule:evenodd" />
    <path
       id="_Path_16"
       data-name="&lt;Path&gt;"
       d="m 294.74,300.78 -1,0.74 -0.12,1.23 0.12,1.85 0.37,1.11 0.49,1.35 0.74,1.23 0.62,0.49 a 1.7,1.7 0 0 0 0.25,-1.23 c -0.12,-0.74 -0.12,-0.25 -0.37,-1 a 6.13,6.13 0 0 1 -0.49,-1.6 8.18,8.18 0 0 1 -0.12,-1.6 c 0,-0.62 -0.12,-1.6 -0.12,-1.6 z"
       transform="translate(-175.78,-168.88)"
       style="fill:#ffffff;fill-rule:evenodd" />
    <polygon
       id="_Path_17"
       data-name="&lt;Path&gt;"
       points="110.34,136.57 111.08,136.94 110.84,135.83 "
       style="fill:#ffffff;fill-rule:evenodd" />
    <polygon
       id="_Path_18"
       data-name="&lt;Path&gt;"
       points="128.43,156.88 127.82,157.74 128.93,158.35 129.66,157.86 129.42,157.12 "
       style="fill:#ffffff;fill-rule:evenodd" />
    <path
       id="_Path_19"
       data-name="&lt;Path&gt;"
       d="m 339.9,362.92 h -0.74 c 0,0 -0.37,0.49 0.49,0.74 a 11.55,11.55 0 0 0 1.6,0.49 6.5,6.5 0 0 1 1.48,0.37 5.8,5.8 0 0 1 1.11,0.37 c 0.86,0.37 0.37,0.49 1.35,0.62 a 4.54,4.54 0 0 0 1.85,0.12 c 1.11,-0.12 0.74,-0.49 1.6,-0.12 a 7.8,7.8 0 0 0 1.6,0.49 l -0.86,-0.86 -1,-0.49 h -0.86 c 0,0 0,0.25 -0.62,0.12 a 5,5 0 0 1 -1.11,-0.37 1.79,1.79 0 0 0 -1,-0.62 9.51,9.51 0 0 0 -1.85,-0.25 h -1.11 l -1.23,-0.37 z"
       transform="translate(-175.78,-168.88)"
       style="fill:#ffffff;fill-rule:evenodd" />
    <polygon
       id="_Path_20"
       data-name="&lt;Path&gt;"
       points="157.47,192.44 158.46,192.31 158.46,193.05 157.84,193.42 156.86,193.05 "
       style="fill:#ffffff;fill-rule:evenodd" />
    <polygon
       id="_Path_21"
       data-name="&lt;Path&gt;"
       points="143.57,191.95 145.78,191.58 145.91,192.69 144.92,193.3 143.81,193.3 "
       style="fill:#ffffff;fill-rule:evenodd" />
    <polygon
       id="_Path_22"
       data-name="&lt;Path&gt;"
       points="181.47,194.9 180.73,195.39 180.36,196.38 181.59,196.13 181.96,195.51 "
       style="fill:#ffffff;fill-rule:evenodd" />
    <polygon
       id="_Path_23"
       data-name="&lt;Path&gt;"
       points="173.59,234.16 174.21,234.65 175.32,234.4 176.3,233.42 175.81,231.94 175.07,232.68 174.09,233.29 "
       style="fill:#ffffff;fill-rule:evenodd" />
    <polygon
       id="_Path_24"
       data-name="&lt;Path&gt;"
       points="180.86,225.54 181.59,225.05 181.72,223.57 180.73,223.94 179.99,224.68 179.87,225.54 "
       style="fill:#ffffff;fill-rule:evenodd" />
    <path
       id="_Path_25"
       data-name="&lt;Path&gt;"
       d="m 369.68,381.13 -1,0.86 -2,1 -0.74,1.11 -1.11,1.48 -1.11,1.11 -1.48,1.48 -1,1.35 0.74,-0.12 a 4,4 0 0 1 1.23,-1 26.18,26.18 0 0 0 2.58,-1.6 l 1.6,-2.09 1,-1.35 1.11,-0.86 z"
       transform="translate(-175.78,-168.88)"
       style="fill:#ffffff;fill-rule:evenodd" />
    <polygon
       id="_Path_26"
       data-name="&lt;Path&gt;"
       points="198.45,210.53 199.56,210.53 199.81,209.05 198.82,209.54 "
       style="fill:#ffffff;fill-rule:evenodd" />
    <path
       id="_Path_27"
       data-name="&lt;Path&gt;"
       d="m 365.86,362.55 -0.74,0.49 v 1 l 0.25,1.11 0.62,0.86 0.62,1.72 0.37,1 0.37,-0.62 a 7.54,7.54 0 0 1 -0.37,-1.72 12.9,12.9 0 0 0 -0.12,-1.48 l -0.12,-1 z"
       transform="translate(-175.78,-168.88)"
       style="fill:#ffffff;fill-rule:evenodd" />
    <path
       id="_Path_28"
       data-name="&lt;Path&gt;"
       d="m 364.88,346.19 -1.35,0.74 -0.86,1.48 -0.49,1.23 v 3 l 0.62,0.62 0.37,-1.48 a 2.07,2.07 0 0 0 0.49,-1 l 0.25,-1.23 0.62,-1.23 0.49,-0.74 z"
       transform="translate(-175.78,-168.88)"
       style="fill:#ffffff;fill-rule:evenodd" />
    <path
       id="_Path_29"
       data-name="&lt;Path&gt;"
       d="m 388.87,336.47 -0.86,0.62 0.49,0.74 0.49,0.62 a 5.09,5.09 0 0 0 0,1.48 10.26,10.26 0 0 1 0.12,1.48 l 0.86,-1.11 v -2.46 l -0.37,-0.86 z"
       transform="translate(-175.78,-168.88)"
       style="fill:#ffffff;fill-rule:evenodd" />
    <path
       id="_Path_30"
       data-name="&lt;Path&gt;"
       d="m 364.39,317.15 -1.11,0.12 -0.62,0.49 v 1 a 3.82,3.82 0 0 1 -0.25,1.23 l -0.49,1.35 1,0.62 a 12.08,12.08 0 0 0 0.62,-1.35 8.82,8.82 0 0 1 0.74,-1.23 l 0.12,-0.62 z"
       transform="translate(-175.78,-168.88)"
       style="fill:#ffffff;fill-rule:evenodd" />
    <path
       id="_Path_31"
       data-name="&lt;Path&gt;"
       d="m 332,311.61 -0.62,-0.37 c 0,0 -0.86,0 -0.74,0.62 a 10.33,10.33 0 0 0 0.25,1.23 3.35,3.35 0 0 0 1,1.6 l 1.6,2.09 2.21,1.6 2,2 a 6.12,6.12 0 0 0 1.48,1.23 c 0.86,0.49 1.48,1 2.09,1.35 a 12.48,12.48 0 0 1 1.6,1.11 5.3,5.3 0 0 0 1.23,0.86 c 0.86,0.49 1.48,0.86 1.48,0.86 0,0 1.23,0 0.49,-0.62 -0.74,-0.62 -0.49,-0.62 -1.23,-1.23 -0.74,-0.61 -1,-1 -1.72,-1.6 -0.72,-0.6 -1.23,-0.86 -1.85,-1.48 L 340,319.61 a 22.73,22.73 0 0 1 -1.72,-1.72 c -0.49,-0.62 -0.74,-0.74 -1.35,-1.48 a 16.88,16.88 0 0 0 -1.48,-1.48 c -0.74,-0.74 -1.6,-1.48 -1.6,-1.48 l -0.74,-0.74 z"
       transform="translate(-175.78,-168.88)"
       style="fill:#ffffff;fill-rule:evenodd" />
    <path
       id="_Path_32"
       data-name="&lt;Path&gt;"
       d="m 352.57,282.22 a 1.52,1.52 0 0 1 -0.31,0.14 c -0.09,0 -0.32,0.09 -0.32,0.09 a 0.22,0.22 0 0 0 -0.17,0.14 c 0,0.12 -0.11,0.14 0,0.28 0.11,0.14 0,0.26 0.23,0.28 0.23,0.02 0.18,0.06 0.32,0.06 h 0.29 c 0.22,0 0.26,0 0.35,-0.06 a 0.69,0.69 0 0 0 0.15,-0.2 1.52,1.52 0 0 1 0.18,-0.23 v -0.25 l -0.14,-0.12 -0.25,-0.08 z"
       transform="translate(-175.78,-168.88)"
       style="fill:#ffffff;fill-rule:evenodd" />
    <path
       id="_Path_33"
       data-name="&lt;Path&gt;"
       d="m 351.83,276.93 a 1.52,1.52 0 0 1 -0.31,0.14 c -0.09,0 -0.32,0.09 -0.32,0.09 a 0.22,0.22 0 0 0 -0.17,0.14 c 0,0.12 -0.11,0.14 0,0.28 0.11,0.14 0,0.26 0.23,0.28 0.23,0.02 0.18,0.06 0.32,0.06 h 0.29 c 0.22,0 0.26,0 0.35,-0.06 a 0.69,0.69 0 0 0 0.15,-0.2 1.52,1.52 0 0 1 0.18,-0.23 v -0.25 l -0.14,-0.12 -0.25,-0.08 z"
       transform="translate(-175.78,-168.88)"
       style="fill:#ffffff;fill-rule:evenodd" />
    <path
       id="_Path_34"
       data-name="&lt;Path&gt;"
       d="m 365.18,235.37 a 0.92,0.92 0 0 1 -0.19,0.08 l -0.19,0.06 a 0.13,0.13 0 0 0 -0.1,0.08 c 0,0.07 -0.06,0.08 0,0.17 0.06,0.09 0,0.16 0.14,0.17 0.14,0.01 0.11,0 0.2,0 h 0.18 c 0.13,0 0.16,0 0.21,0 a 0.43,0.43 0 0 0 0.09,-0.12 0.91,0.91 0 0 1 0.11,-0.14 v -0.15 l -0.08,-0.07 h -0.15 z"
       transform="translate(-175.78,-168.88)"
       style="fill:#ffffff;fill-rule:evenodd" />
    <path
       id="_Path_35"
       data-name="&lt;Path&gt;"
       d="m 365.61,237.7 a 1.58,1.58 0 0 1 -0.31,0.14 c -0.09,0 -0.33,0.09 -0.33,0.09 a 0.23,0.23 0 0 0 -0.17,0.14 c 0,0.13 -0.11,0.14 0,0.28 0.11,0.14 0,0.27 0.24,0.28 0.24,0.01 0.19,0.06 0.33,0.06 h 0.3 c 0.22,0 0.27,0 0.36,-0.06 a 0.71,0.71 0 0 0 0.16,-0.21 1.59,1.59 0 0 1 0.19,-0.24 v -0.25 l -0.14,-0.13 -0.25,-0.08 z"
       transform="translate(-175.78,-168.88)"
       style="fill:#ffffff;fill-rule:evenodd" />
    <path
       id="_Path_36"
       data-name="&lt;Path&gt;"
       d="m 365.53,240.09 a 1.56,1.56 0 0 1 -0.31,0.14 c -0.09,0 -0.33,0.1 -0.33,0.1 a 0.23,0.23 0 0 0 -0.17,0.14 c 0,0.13 -0.11,0.14 0,0.28 0.11,0.14 0,0.27 0.24,0.28 0.24,0.01 0.19,0.06 0.33,0.06 h 0.3 c 0.22,0 0.27,0 0.36,-0.06 a 0.71,0.71 0 0 0 0.16,-0.2 1.56,1.56 0 0 1 0.19,-0.24 v -0.25 l -0.14,-0.13 -0.25,-0.08 z"
       transform="translate(-175.78,-168.88)"
       style="fill:#ffffff;fill-rule:evenodd" />
    <path
       id="_Path_37"
       data-name="&lt;Path&gt;"
       d="m 365.22,242.15 a 1.58,1.58 0 0 1 -0.31,0.14 c -0.09,0 -0.33,0.1 -0.33,0.1 a 0.22,0.22 0 0 0 -0.17,0.14 c 0,0.13 -0.11,0.14 0,0.28 0.11,0.14 0,0.27 0.24,0.28 0.24,0.01 0.19,0.06 0.33,0.06 h 0.3 c 0.22,0 0.27,0 0.36,-0.06 a 0.7,0.7 0 0 0 0.16,-0.2 1.56,1.56 0 0 1 0.19,-0.24 v -0.25 l -0.14,-0.13 -0.25,-0.08 z"
       transform="translate(-175.78,-168.88)"
       style="fill:#ffffff;fill-rule:evenodd" />
    <path
       id="_Path_38"
       data-name="&lt;Path&gt;"
       d="m 365.18,244.71 a 2.26,2.26 0 0 1 -0.45,0.2 c -0.13,0 -0.47,0.13 -0.47,0.13 a 0.32,0.32 0 0 0 -0.25,0.2 c -0.07,0.18 -0.16,0.2 -0.07,0.41 0.09,0.21 0.07,0.38 0.34,0.41 0.27,0.03 0.27,0.09 0.47,0.09 h 0.43 c 0.31,0 0.38,0 0.52,-0.09 a 1,1 0 0 0 0.22,-0.29 2.18,2.18 0 0 1 0.27,-0.34 l -0.07,-0.36 -0.2,-0.18 -0.36,-0.11 z"
       transform="translate(-175.78,-168.88)"
       style="fill:#ffffff;fill-rule:evenodd" />
    <path
       id="_Path_39"
       data-name="&lt;Path&gt;"
       d="m 365.18,247.49 a 2.26,2.26 0 0 1 -0.45,0.2 c -0.13,0 -0.47,0.14 -0.47,0.14 a 0.32,0.32 0 0 0 -0.25,0.2 c -0.07,0.18 -0.16,0.2 -0.07,0.41 0.09,0.21 0.07,0.38 0.34,0.41 0.27,0.03 0.27,0.09 0.47,0.09 h 0.43 c 0.31,0 0.38,0 0.52,-0.09 a 1,1 0 0 0 0.22,-0.29 2.19,2.19 0 0 1 0.27,-0.34 l -0.07,-0.36 -0.2,-0.18 -0.36,-0.11 z"
       transform="translate(-175.78,-168.88)"
       style="fill:#ffffff;fill-rule:evenodd" />
    <path
       id="_Path_40"
       data-name="&lt;Path&gt;"
       d="m 364.94,250.34 a 2.26,2.26 0 0 1 -0.45,0.2 c -0.13,0 -0.47,0.13 -0.47,0.13 a 0.32,0.32 0 0 0 -0.25,0.2 c -0.07,0.18 -0.16,0.2 -0.07,0.41 0.09,0.21 0.07,0.38 0.34,0.41 0.27,0.03 0.27,0.09 0.47,0.09 h 0.43 c 0.31,0 0.38,0 0.52,-0.09 a 1,1 0 0 0 0.22,-0.29 2.18,2.18 0 0 1 0.27,-0.34 l -0.07,-0.36 -0.2,-0.18 -0.36,-0.11 z"
       transform="translate(-175.78,-168.88)"
       style="fill:#ffffff;fill-rule:evenodd" />
    <path
       id="_Path_41"
       data-name="&lt;Path&gt;"
       d="m 364.86,252.57 a 2.24,2.24 0 0 1 -0.45,0.2 c -0.13,0 -0.47,0.14 -0.47,0.14 a 0.32,0.32 0 0 0 -0.25,0.2 c -0.07,0.18 -0.16,0.2 -0.07,0.41 0.09,0.21 0.07,0.38 0.34,0.41 0.27,0.03 0.27,0.09 0.47,0.09 h 0.43 c 0.31,0 0.38,0 0.52,-0.09 a 1,1 0 0 0 0.22,-0.29 2.17,2.17 0 0 1 0.27,-0.34 l -0.07,-0.36 -0.2,-0.18 -0.36,-0.11 z"
       transform="translate(-175.78,-168.88)"
       style="fill:#ffffff;fill-rule:evenodd" />
    <path
       id="_Path_42"
       data-name="&lt;Path&gt;"
       d="m 359.83,271.77 a 1.51,1.51 0 0 1 -0.31,0.14 c -0.09,0 -0.32,0.09 -0.32,0.09 a 0.22,0.22 0 0 0 -0.17,0.14 c 0,0.12 -0.11,0.14 0,0.28 0.11,0.14 0,0.26 0.23,0.28 0.23,0.02 0.18,0.06 0.32,0.06 h 0.29 c 0.22,0 0.26,0 0.35,-0.06 a 0.69,0.69 0 0 0 0.15,-0.2 1.49,1.49 0 0 1 0.18,-0.23 v -0.25 l -0.14,-0.12 -0.25,-0.08 z"
       transform="translate(-175.78,-168.88)"
       style="fill:#ffffff;fill-rule:evenodd" />
    <path
       id="_Path_43"
       data-name="&lt;Path&gt;"
       d="m 360.7,269.62 a 1.55,1.55 0 0 1 -0.31,0.14 c -0.09,0 -0.32,0.09 -0.32,0.09 a 0.22,0.22 0 0 0 -0.17,0.14 c 0,0.12 -0.11,0.14 0,0.28 0.11,0.14 0,0.26 0.23,0.28 0.23,0.02 0.18,0.06 0.32,0.06 h 0.29 c 0.22,0 0.26,0 0.35,-0.06 a 0.69,0.69 0 0 0 0.15,-0.2 1.49,1.49 0 0 1 0.18,-0.23 v -0.25 l -0.14,-0.12 -0.25,-0.08 z"
       transform="translate(-175.78,-168.88)"
       style="fill:#ffffff;fill-rule:evenodd" />
    <path
       id="_Path_44"
       data-name="&lt;Path&gt;"
       d="m 361.49,266.84 a 1.53,1.53 0 0 1 -0.31,0.14 c -0.09,0 -0.32,0.09 -0.32,0.09 a 0.22,0.22 0 0 0 -0.17,0.14 c 0,0.12 -0.11,0.14 0,0.28 0.11,0.14 0,0.26 0.23,0.28 0.23,0.02 0.19,0.06 0.32,0.06 h 0.29 c 0.21,0 0.26,0 0.35,-0.06 a 0.68,0.68 0 0 0 0.15,-0.2 1.51,1.51 0 0 1 0.18,-0.23 v -0.25 L 362,267 l -0.25,-0.08 z"
       transform="translate(-175.78,-168.88)"
       style="fill:#ffffff;fill-rule:evenodd" />
    <path
       id="_Path_45"
       data-name="&lt;Path&gt;"
       d="m 362.21,264.3 a 1.53,1.53 0 0 1 -0.31,0.14 c -0.09,0 -0.32,0.09 -0.32,0.09 a 0.22,0.22 0 0 0 -0.17,0.14 c 0,0.12 -0.11,0.14 0,0.28 0.11,0.14 0,0.26 0.23,0.28 0.23,0.02 0.18,0.06 0.32,0.06 h 0.29 c 0.22,0 0.26,0 0.35,-0.06 a 0.69,0.69 0 0 0 0.15,-0.2 1.44,1.44 0 0 1 0.18,-0.23 v -0.25 l -0.14,-0.12 -0.25,-0.08 z"
       transform="translate(-175.78,-168.88)"
       style="fill:#ffffff;fill-rule:evenodd" />
    <path
       id="_Path_46"
       data-name="&lt;Path&gt;"
       d="m 363.12,261.06 a 2.26,2.26 0 0 1 -0.45,0.2 c -0.13,0 -0.47,0.14 -0.47,0.14 a 0.32,0.32 0 0 0 -0.25,0.2 c -0.07,0.18 -0.16,0.2 -0.07,0.41 0.09,0.21 0.07,0.38 0.34,0.41 0.27,0.03 0.27,0.09 0.47,0.09 h 0.43 c 0.31,0 0.38,0 0.52,-0.09 a 1,1 0 0 0 0.22,-0.29 2.18,2.18 0 0 1 0.27,-0.34 l -0.07,-0.36 -0.2,-0.18 -0.36,-0.11 z"
       transform="translate(-175.78,-168.88)"
       style="fill:#ffffff;fill-rule:evenodd" />
    <path
       id="_Path_47"
       data-name="&lt;Path&gt;"
       d="m 363.75,258 a 2.26,2.26 0 0 1 -0.45,0.2 c -0.13,0 -0.47,0.14 -0.47,0.14 a 0.32,0.32 0 0 0 -0.25,0.2 c -0.07,0.18 -0.16,0.2 -0.07,0.41 0.09,0.21 0.07,0.38 0.34,0.41 0.27,0.03 0.27,0.09 0.47,0.09 h 0.43 c 0.31,0 0.38,0 0.52,-0.09 a 1,1 0 0 0 0.22,-0.29 2.18,2.18 0 0 1 0.27,-0.34 l -0.07,-0.36 -0.2,-0.18 -0.36,-0.11 z"
       transform="translate(-175.78,-168.88)"
       style="fill:#ffffff;fill-rule:evenodd" />
    <path
       id="_Path_48"
       data-name="&lt;Path&gt;"
       d="m 364.86,255.42 a 2.24,2.24 0 0 1 -0.45,0.2 c -0.13,0 -0.47,0.14 -0.47,0.14 a 0.32,0.32 0 0 0 -0.25,0.2 c -0.07,0.18 -0.16,0.2 -0.07,0.41 0.09,0.21 0.07,0.38 0.34,0.41 0.27,0.03 0.27,0.09 0.47,0.09 h 0.43 c 0.31,0 0.38,0 0.52,-0.09 a 1,1 0 0 0 0.22,-0.29 2.15,2.15 0 0 1 0.27,-0.34 l -0.07,-0.36 -0.2,-0.18 -0.36,-0.11 z"
       transform="translate(-175.78,-168.88)"
       style="fill:#ffffff;fill-rule:evenodd" />
    <path
       id="_Path_49"
       data-name="&lt;Path&gt;"
       d="m 356,288.23 -1,0.37 -0.25,1.11 0.37,1.11 c 0,0 0.37,1.48 0.49,2.09 a 5.53,5.53 0 0 0 0.37,1.35 c 0.25,0.62 0.12,0.12 0.62,1.35 0.5,1.23 0.62,1.35 0.86,2.09 0.24,0.74 0.49,0.74 0.74,1.35 a 5.3,5.3 0 0 0 1,1.35 l 0.74,1 c 0,0 0.12,0.25 1.11,0.86 a 10.85,10.85 0 0 0 1.48,0.86 3.34,3.34 0 0 1 1.11,0.86 l 0.62,0.49 0.86,0.25 a 5.33,5.33 0 0 1 -1.23,-1.23 c -0.37,-0.62 -0.25,-0.49 -0.74,-1.35 a 15.72,15.72 0 0 0 -0.86,-1.48 21.4,21.4 0 0 1 -1.35,-1.72 c -0.49,-0.86 -0.74,-0.86 -1,-1.72 a 6.33,6.33 0 0 0 -0.74,-1.6 c -0.37,-0.74 -0.37,-0.86 -0.74,-1.6 -0.37,-0.74 -0.62,-0.74 -0.74,-1.48 -0.12,-0.74 -0.12,-0.37 -0.25,-1 a 13.49,13.49 0 0 0 -0.37,-1.35 l -0.49,-1 z"
       transform="translate(-175.78,-168.88)"
       style="fill:#ffffff;fill-rule:evenodd" />
    <path
       id="_Path_50"
       data-name="&lt;Path&gt;"
       d="m 317.5,280.35 -0.86,0.74 -0.62,0.62 -0.37,0.86 -0.12,0.86 -0.37,0.86 a 2.73,2.73 0 0 0 -0.49,0.86 c -0.25,0.62 -0.37,1 -0.37,1 l -1,1.23 -0.37,0.74 0.62,0.86 1,-0.25 0.62,-0.74 0.74,-1 0.12,-0.86 0.49,-0.86 0.62,-0.86 0.62,-1 0.25,-1.11 -0.25,-1.11 z"
       transform="translate(-175.78,-168.88)"
       style="fill:#ffffff;fill-rule:evenodd" />
    <polygon
       id="_Path_51"
       data-name="&lt;Path&gt;"
       points="170.03,111.47 170.4,112.21 171.26,112.45 172.24,112.82 172.73,112.21 172.73,111.47 171.75,110.61 170.76,110.48 "
       style="fill:#ffffff;fill-rule:evenodd" />
    <path
       id="_Path_52"
       data-name="&lt;Path&gt;"
       d="m 342.73,273.09 -1.6,-0.12 a 4.43,4.43 0 0 0 -1.6,-0.49 c -1,-0.12 -1.85,-0.37 -2.46,-0.37 a 7.58,7.58 0 0 0 -1.6,0.12 10.93,10.93 0 0 1 -1.72,0.37 2.05,2.05 0 0 0 -1.11,0.37 l -1,0.12 v -0.62 l 1.11,-0.86 1.72,-0.49 2.09,-0.25 a 4.86,4.86 0 0 1 1.6,-0.37 7.1,7.1 0 0 1 1.72,0.37 8.08,8.08 0 0 1 1.23,0.37 l 0.74,0.37 z"
       transform="translate(-175.78,-168.88)"
       style="fill:#ffffff;fill-rule:evenodd" />
    <polygon
       id="_Path_53"
       data-name="&lt;Path&gt;"
       points="166.58,92.15 165.72,93.5 165.97,94.36 167.07,93.62 168.8,92.03 170.15,89.81 172,87.72 173.59,85.13 174.83,82.3 175.19,80.83 175.32,79.47 173.97,79.59 173.35,80.58 172.24,82.06 171.5,83.29 170.4,84.76 169.53,86.49 168.92,87.96 168.06,89.69 167.57,90.92 "
       style="fill:#ffffff;fill-rule:evenodd" />
    <path
       id="_Path_54"
       data-name="&lt;Path&gt;"
       d="m 361.19,221.53 1.11,0.12 a 1,1 0 0 1 -0.62,0.86 l -0.62,-0.25 c 0,0 0,-0.73 0.13,-0.73 z"
       transform="translate(-175.78,-168.88)"
       style="fill:#ffffff;fill-rule:evenodd" />
    <polygon
       id="_Path_55"
       data-name="&lt;Path&gt;"
       points="185.04,49.82 183.81,49.82 184.06,50.68 185.04,50.68 185.66,50.43 "
       style="fill:#ffffff;fill-rule:evenodd" />
    <polygon
       id="_Path_56"
       data-name="&lt;Path&gt;"
       points="171.13,58.8 170.64,57.94 169.9,57.2 169.16,56.83 168.18,56.83 166.58,57.32 166.34,58.18 167.32,59.17 168.43,59.91 169.78,60.52 170.89,60.65 171.26,59.91 "
       style="fill:#ffffff;fill-rule:evenodd" />
    <path
       id="_Path_57"
       data-name="&lt;Path&gt;"
       d="m 362.54,228.3 -0.86,-0.49 -0.62,0.37 -0.37,0.86 -0.49,1.23 c 0,0 -1,0.62 -0.25,0.74 a 8.3,8.3 0 0 0 1.23,0.12 l 0.86,-0.25 c 0,0 0.12,-0.37 1,-0.49 0.88,-0.12 0.74,-0.12 1.35,-0.25 a 1.72,1.72 0 0 0 1,-0.86 h -1.11 l -0.86,0.12 -0.62,-0.12 z"
       transform="translate(-175.78,-168.88)"
       style="fill:#ffffff;fill-rule:evenodd" />
    <path
       id="_Path_58"
       data-name="&lt;Path&gt;"
       d="m 355.16,238.63 -1,0.37 -0.74,0.49 -0.86,0.86 -0.62,0.37 -1.23,0.25 -0.86,0.25 c 0,0 -0.12,0.74 0.86,0.74 0.98,0 2.46,-0.12 2.46,-0.12 l 0.86,-1 1.11,-0.25 0.49,-1.48 z"
       transform="translate(-175.78,-168.88)"
       style="fill:#ffffff;fill-rule:evenodd" />
    <path
       id="_Path_59"
       data-name="&lt;Path&gt;"
       d="m 352.45,235.93 -0.86,0.49 -0.49,0.74 -0.49,0.62 -0.62,0.49 c 0,0 -0.86,0.49 -0.25,0.62 a 6.39,6.39 0 0 0 1.6,0 l 1.35,-1.11 a 3.77,3.77 0 0 0 0.37,-1.11 z"
       transform="translate(-175.78,-168.88)"
       style="fill:#ffffff;fill-rule:evenodd" />
    <polygon
       id="_Path_60"
       data-name="&lt;Path&gt;"
       points="170.4,68.77 171.5,66.55 171.87,66.06 167.32,69.14 "
       style="fill:#ffffff;fill-rule:evenodd" />
    <path
       id="_Path_61"
       data-name="&lt;Path&gt;"
       d="m 331.9,235.56 h -0.62 l 0.25,0.74 0.62,0.25 c 0.24,-0.75 -0.25,-0.99 -0.25,-0.99 z"
       transform="translate(-175.78,-168.88)"
       style="fill:#ffffff;fill-rule:evenodd" />
    <path
       id="_Path_62"
       data-name="&lt;Path&gt;"
       d="m 328.7,231.74 -0.74,0.37 v 0.62 l 0.74,0.37 a 1.55,1.55 0 0 0 0,-1.36 z"
       transform="translate(-175.78,-168.88)"
       style="fill:#ffffff;fill-rule:evenodd" />
    <polygon
       id="_Path_63"
       data-name="&lt;Path&gt;"
       points="149.48,62.86 148.37,63.11 147.88,63.97 147.75,64.83 148,65.69 148.86,65.32 149.85,64.83 150.58,64.21 150.58,63.6 150.22,62.98 "
       style="fill:#ffffff;fill-rule:evenodd" />
    <path
       id="_Path_64"
       data-name="&lt;Path&gt;"
       d="m 339,225.22 -1.23,0.37 a 5.89,5.89 0 0 1 -1.6,0.62 11.46,11.46 0 0 0 -1.72,0.49 11.2,11.2 0 0 1 -1.11,0.62 c -0.74,0.37 -2.09,0.25 -1.35,0.74 a 1.94,1.94 0 0 0 1.35,0.37 l 1.48,-0.25 a 7.6,7.6 0 0 0 1.35,-0.37 15.78,15.78 0 0 1 1.6,-0.49 l 0.86,-0.37 z"
       transform="translate(-175.78,-168.88)"
       style="fill:#ffffff;fill-rule:evenodd" />
    <polygon
       id="_Path_65"
       data-name="&lt;Path&gt;"
       points="173.72,54.12 173.72,53.51 172.61,53.88 172,54.25 172,54.98 172.86,54.74 "
       style="fill:#ffffff;fill-rule:evenodd" />
  </g>
  <metadata
     id="metadata1">
    <rdf:RDF>
      <cc:Work
         rdf:about="">
        <dc:title>Ferrari logo - Brandlogos.net</dc:title>
      </cc:Work>
    </rdf:RDF>
  </metadata>
</svg>
