<?xml version="1.0" encoding="UTF-8" standalone="no"?>
<svg
   id="Layer_1"
   data-name="Layer 1"
   viewBox="0 0 500 500.00001"
   version="1.1"
   sodipodi:docname="haas.svg"
   width="500"
   height="500"
   inkscape:version="1.4.3 (0d15f75, 2025-12-25)"
   xmlns:inkscape="http://www.inkscape.org/namespaces/inkscape"
   xmlns:sodipodi="http://sodipodi.sourceforge.net/DTD/sodipodi-0.dtd"
   xmlns="http://www.w3.org/2000/svg"
   xmlns:svg="http://www.w3.org/2000/svg"
   xmlns:rdf="http://www.w3.org/1999/02/22-rdf-syntax-ns#"
   xmlns:cc="http://creativecommons.org/ns#"
   xmlns:dc="http://purl.org/dc/elements/1.1/">
  <defs
     id="defs4" />
  <sodipodi:namedview
     id="namedview4"
     pagecolor="#ffffff"
     bordercolor="#000000"
     borderopacity="0.25"
     inkscape:showpageshadow="2"
     inkscape:pageopacity="0.0"
     inkscape:pagecheckerboard="0"
     inkscape:deskcolor="#d1d1d1"
     inkscape:zoom="0.64291145"
     inkscape:cx="-38.885604"
     inkscape:cy="300.19686"
     inkscape:window-width="1440"
     inkscape:window-height="890"
     inkscape:window-x="-6"
     inkscape:window-y="-6"
     inkscape:window-maximized="1"
     inkscape:current-layer="Layer_1" />
  <title
     id="title1">Haas F1 Team logo - Brandlogos.net</title>
  <g
     id="g4"
     transform="matrix(1.3547867,0,0,1.3547867,0.01597297,167.79154)">
    <path
       d="M 174.32,65.55 V 39.69 h 37.38 v 25.87 h 9.22 V 9.69 h -9.22 v 22 h -37.38 v -22 h -9.24 v 55.84 z m 80.72,-9.86 a 20.67,20.67 0 0 1 -11.3,3.05 c -5.5,0 -9.19,-2.38 -9.19,-5.92 0,-3.54 2.52,-5.35 9,-6.16 l 8.92,-1.07 c 3.55,-0.43 5.81,-0.87 7.24,-1.85 v 4.18 c 0,3 -1.66,5.77 -4.67,7.77 m 5.31,3.94 c 0.92,4.37 4.08,5 7.38,5 a 42.2,42.2 0 0 0 6.23,-0.46 l 0.37,-0.06 v -6.23 l -0.53,0.1 a 15.86,15.86 0 0 1 -2.68,0.3 c -2.21,0 -3.11,-0.87 -3.11,-3 V 33.69 c 0,-10.29 -12.2,-11.82 -19.46,-11.82 -13.3,0 -20,4.55 -21,14.31 v 0.47 h 8.33 v -0.41 c 0.19,-5.08 4.23,-7.55 12.34,-7.55 8.11,0 11.48,1.84 11.48,6.15 0,3.14 -2.19,3.92 -6.79,4.39 l -9,0.92 c -13.06,1.36 -18.15,5 -18.15,12.9 0,3.76 1.68,12.51 17.25,12.51 5.84,0 13.53,-1.86 17.32,-5.93 m 50.34,-11.71 c 0,3 -1.66,5.77 -4.67,7.77 a 20.67,20.67 0 0 1 -11.3,3.05 c -5.5,0 -9.19,-2.38 -9.19,-5.92 0,-3.54 2.52,-5.35 9,-6.16 l 8.92,-1.07 c 3.54,-0.43 5.81,-0.87 7.24,-1.85 z m 14.09,10.06 a 15.8,15.8 0 0 1 -2.68,0.3 c -2.21,0 -3.11,-0.87 -3.11,-3 V 33.69 c 0,-10.29 -12.2,-11.82 -19.46,-11.82 -13.3,0 -20,4.55 -21,14.31 v 0.47 h 8.33 v -0.41 c 0.19,-5.08 4.23,-7.55 12.34,-7.55 8.11,0 11.48,1.84 11.48,6.15 0,3.14 -2.19,3.92 -6.79,4.39 l -9,0.92 c -13.06,1.36 -18.15,5 -18.15,12.9 0,3.76 1.68,12.51 17.25,12.51 5.84,0 13.53,-1.86 17.32,-5.93 0.92,4.37 4.08,5 7.39,5 a 42.19,42.19 0 0 0 6.22,-0.46 l 0.37,-0.06 v -6.23 z m 3,-7.28 v 0.46 c 0.69,9.56 7.7,14.4 20.82,14.4 6.32,0 11.3,-1.15 14.79,-3.42 A 12,12 0 0 0 369,51.43 c 0,-6.21 -4.54,-9.72 -14.29,-11.06 l -10.8,-1.45 c -5.26,-0.74 -6.26,-2.17 -6.26,-4.55 0,-2 1.07,-3.47 3.18,-4.45 a 17,17 0 0 1 6.89,-1.24 c 8.2,0 11.33,3.67 11.52,7.09 v 0.4 h 8.47 v -0.46 c -0.79,-8.93 -7.85,-13.85 -19.9,-13.85 -5.6,0 -10.28,1.21 -13.52,3.5 a 11.59,11.59 0 0 0 -5.07,9.86 c 0,6.6 5.61,10.31 11.17,11.06 l 12.55,1.68 c 6,0.83 7.16,2.44 7.16,4.94 a 4.5,4.5 0 0 1 -2.21,3.84 c -2,1.33 -5.2,2 -9.53,2 -8.94,0 -12.13,-3.93 -12.13,-7.61 v -0.44 z"
       style="fill:#e6002d"
       id="path1" />
    <path
       d="m 191.78,75.26 h -26.7 v 36.43 h 5.8 V 95.8 h 19.93 v -5.47 h -19.93 v -9.64 h 20.9 z m 16.72,0 v 0.41 c -0.35,4 -3.77,6.1 -10.15,6.1 h -1.68 v 4.78 h 10.63 v 25.14 h 6.32 V 75.28 Z m 53.69,5.43 v -5.47 h -31.56 v 5.47 h 12.87 v 31 h 5.91 v -31 z m 12.37,9 c 4.32,0 7.45,2.29 8.28,6 h -16.89 c 0.84,-3.61 4.23,-6 8.61,-6 m 0.24,-4.71 c -4.71,0 -8.62,1.37 -11.29,4 a 12.89,12.89 0 0 0 -3.75,9.38 c 0,8.11 5.91,13.35 15.05,13.35 4.78,0 10.81,-2.22 13.38,-8.44 l 0.23,-0.57 h -6 l -0.11,0.24 c -1.75,3.66 -6,4.05 -7.73,4.05 -3.89,0 -8.2,-2.39 -8.8,-6.84 h 23.12 v -1 c 0,-10.43 -7.28,-14.14 -14.09,-14.14 m 36.69,15.85 a 5.52,5.52 0 0 1 -2.7,4.56 11.93,11.93 0 0 1 -6.62,1.82 c -3.17,0 -5.29,-1.37 -5.29,-3.42 0,-2.05 1.41,-3.08 5.2,-3.56 l 5.29,-0.65 a 11.7,11.7 0 0 0 4.11,-1 v 2.23 z m 8.49,5.92 a 8.78,8.78 0 0 1 -1.55,0.17 c -1.21,0 -1.69,-0.47 -1.69,-1.66 v -13 c 0,-6.35 -7.34,-7.3 -11.72,-7.3 -8,0 -12,2.79 -12.59,8.78 v 0.46 h 5.28 v -0.4 c 0.11,-3 2.45,-4.4 7.16,-4.4 4.71,0 6.65,1.07 6.65,3.56 0,1.78 -1.2,2.21 -3.88,2.49 l -5.34,0.56 c -7.75,0.82 -10.91,3.12 -10.91,7.94 0,2.32 1,7.71 10.4,7.71 3.4,0 7.84,-1.07 10.19,-3.42 0.65,2.5 2.6,2.86 4.47,2.86 a 24.86,24.86 0 0 0 3.72,-0.28 l 0.35,-0.06 v -4.1 l -0.51,0.1 z m 49.06,-12.57 c 0,-7.3 -6.26,-9.25 -9.95,-9.25 a 12.44,12.44 0 0 0 -10.09,4.33 10,10 0 0 0 -8.55,-4.33 c -2.42,0 -6.69,0.53 -9.46,3.87 v -3 h -5.7 v 25.86 h 5.65 V 96.84 a 6.52,6.52 0 0 1 2.32,-5.23 8.57,8.57 0 0 1 5.47,-1.78 c 2.55,0 5.59,1 5.6,5.53 v 16.33 h 5.64 V 96.12 a 5.55,5.55 0 0 1 2.29,-4.77 9.42,9.42 0 0 1 5.49,-1.53 c 2.55,0 5.59,1 5.6,5.53 v 16.34 h 5.63 z"
       id="path2" />
    <path
       d="M 75.94,107.49 A 45.84,45.84 0 0 1 43.62,94.17 h 13 c 0,0 37.33,-66.48 37.46,-66.78 0.13,-0.3 0.09,-0.45 -0.17,-0.45 H 78.67 c -0.31,0 -0.35,0.09 -0.44,0.22 -0.09,0.13 -21,37 -21,37 H 29.8 Q 29.67,62.4 29.67,60.64 c 0,-25.82 20.69,-46.8 46.27,-46.8 a 45.82,45.82 0 0 1 33.24,14.3 c -3.65,6.23 -20,34.37 -22.23,38.47 -1.28,-3 -7.18,-2.4 -10.22,-2.45 -1.32,2.23 -7.53,14.07 -7.53,14.07 0,0 3.43,0 6.51,0 3.08,0 3.35,3.2 2.16,5.21 -1.19,2.01 -6.08,10.68 -6.08,10.68 H 87.5 L 117.75,40.7 a 46.59,46.59 0 0 1 4.46,19.99 c 0,25.83 -20.73,46.79 -46.27,46.79 M 33.06,78.27 h 16 L 41.35,91.76 A 48.5,48.5 0 0 1 33.08,78.27 M 75.96,-0.01 c -33.15,0 -60,27.17 -60,60.69 0,1.2 0,2.35 0.08,3.52 H 8.2 a 0.92,0.92 0 0 0 -0.84,0.58 c -0.13,0.31 -7.09,12.69 -7.27,13 -0.18,0.31 -0.13,0.49 0.22,0.49 H 18.5 a 60.1,60.1 0 0 0 57.45,43.1 c 33.16,0 60,-27.17 60,-60.69 0,-33.52 -26.85,-60.69 -60,-60.69"
       style="fill:#e6002d"
       id="path3" />
    <path
       d="m 216.02,77.53 h 0.28 a 0.7,0.7 0 0 0 0.24,-0.05 0.37,0.37 0 0 0 0.16,-0.14 0.49,0.49 0 0 0 0.06,-0.26 0.42,0.42 0 0 0 -0.06,-0.23 0.37,0.37 0 0 0 -0.14,-0.13 0.61,0.61 0 0 0 -0.2,-0.06 h -0.22 -0.58 v 0.91 h 0.46 z m 0.19,-1.26 a 1.16,1.16 0 0 1 0.75,0.2 0.75,0.75 0 0 1 0.24,0.61 0.7,0.7 0 0 1 -0.21,0.56 1,1 0 0 1 -0.53,0.21 l 0.81,1.25 h -0.47 l -0.77,-1.22 h -0.47 v 1.22 h -0.44 v -2.84 z m -2,2.24 a 2,2 0 0 0 3.25,0.66 2,2 0 0 0 0.42,-0.66 2.22,2.22 0 0 0 0.15,-0.83 2.14,2.14 0 0 0 -0.15,-0.81 2,2 0 0 0 -1.05,-1.09 1.91,1.91 0 0 0 -0.78,-0.16 2,2 0 0 0 -1.84,1.25 2.31,2.31 0 0 0 0,1.64 z m -0.4,-1.78 a 2.42,2.42 0 1 1 0.52,2.7 2.43,2.43 0 0 1 -0.5,-2.74 z"
       id="path4" />
  </g>
  <metadata
     id="metadata4">
    <rdf:RDF>
      <cc:Work
         rdf:about="">
        <dc:title>Haas F1 Team logo - Brandlogos.net</dc:title>
      </cc:Work>
    </rdf:RDF>
  </metadata>
</svg>
