<?xml version="1.0" encoding="UTF-8" standalone="no"?>
<svg
   viewBox="0 0 500 500"
   version="1.1"
   id="svg14"
   sodipodi:docname="mclaren.svg"
   width="500"
   height="500"
   inkscape:version="1.4.3 (0d15f75, 2025-12-25)"
   xmlns:inkscape="http://www.inkscape.org/namespaces/inkscape"
   xmlns:sodipodi="http://sodipodi.sourceforge.net/DTD/sodipodi-0.dtd"
   xmlns="http://www.w3.org/2000/svg"
   xmlns:svg="http://www.w3.org/2000/svg"
   xmlns:rdf="http://www.w3.org/1999/02/22-rdf-syntax-ns#"
   xmlns:cc="http://creativecommons.org/ns#"
   xmlns:dc="http://purl.org/dc/elements/1.1/">
  <defs
     id="defs14" />
  <sodipodi:namedview
     id="namedview14"
     pagecolor="#ffffff"
     bordercolor="#000000"
     borderopacity="0.25"
     inkscape:showpageshadow="2"
     inkscape:pageopacity="0.0"
     inkscape:pagecheckerboard="0"
     inkscape:deskcolor="#d1d1d1"
     inkscape:zoom="1.0427882"
     inkscape:cx="138.09132"
     inkscape:cy="197.5473"
     inkscape:window-width="1440"
     inkscape:window-height="890"
     inkscape:window-x="-6"
     inkscape:window-y="-6"
     inkscape:window-maximized="1"
     inkscape:current-layer="svg14" />
  <title
     id="title1">McLaren Formula 1 team logo - Brandlogos.net</title>
  <g
     id="g14"
     transform="matrix(1.0989739,0,0,1.0989739,-0.00296922,186.09467)">
    <path
       d="m 239.5,55.16 c 0,1.82 -0.8,3.14 -3.29,3.14 h -15.87 c -2,0 -3.22,-0.59 -3.22,-2.49 0,-1.9 0.8,-2.84 3.22,-2.84 h 19.16 z m 70,-7.58 v -2 c 0,-1.9 0.8,-3.14 3.37,-3.14 h 15.88 c 2.18,0 3.28,0.65 3.28,2.7 0,1.74 -0.86,2.55 -3.12,2.55 z m 41.7,-14.06 v 33.52 h 16.06 V 42.65 h 13.1 c 4.46,0 6.72,1.4 6.72,5.69 v 18.73 h 16 V 47.02 c 0,-9.4 -5.19,-13.48 -19.82,-13.48 z m -39.44,0 c -12.91,0 -18.08,4.29 -18.08,14 v 6.64 c 0,8.37 5.17,12.89 16.84,12.89 H 344.5 V 58.3 h -30.81 c -3,0 -4.08,-0.88 -4.08,-3.14 v -1.38 h 24.27 c 8.37,0 13.1,-2.62 13.1,-8.89 v -1.52 c 0,-5.69 -2.84,-9.77 -17,-9.77 z m -51.57,33.52 h 16 V 45.05 c 0,-1.52 0.59,-2.41 2.56,-2.41 h 12.39 v -9.1 h -17.75 c -9.56,0 -13.2,3.56 -13.2,9.54 z m -54.8,-33.52 v 8.83 h 30.11 c 3,0 4,1 4,3.22 v 1.29 h -24.12 c -10.13,0 -13.18,4.17 -13.18,9.48 v 1.3 c 0,7.37 5.9,9.4 17.49,9.4 h 17.81 c 12.6,0 18.06,-2.84 18.06,-12.76 v -7.74 c 0,-8.39 -5.17,-13 -16.9,-13 z M 109.5,52.16 c 0,10.62 5.38,14.86 19.31,14.86 h 30.55 v -9.1 h -28.24 c -3.35,0 -5.61,-1.52 -5.61,-6.34 v -2.82 c 0,-4.31 2.11,-6.07 5.54,-6.07 h 28.29 v -9.1 h -31 c -13.65,0 -18.87,5.75 -18.87,14.94 z m 54.6,-24 v 38.9 h 34.88 v -9.1 H 180.16 V 28.21 Z M 64,49.88 V 28.21 h -9.1 c -5.61,0 -8.81,2.24 -12.13,4.88 l -42.74,34 h 19.31 l 28.44,-23 v 23 H 61.11 L 88.65,43.91 v 23.15 h 16.34 V 28.21 h -8.9 c -4.81,0 -8.16,2 -11.51,4.73 z"
       id="path1" />
    <path
       d="m 441.7,0 c -8.95,0 -21.55,2.67 -35.22,7.67 a 178.75,178.75 0 0 0 -34.88,17.19 100.33,100.33 0 0 1 32.82,-6.14 c 15.68,0 26.85,6.07 10.36,27 C 463.32,13.87 462.06,0.04 441.7,0.04"
       style="fill:#ff8000"
       id="path2" />
    <path
       d="m 89.37,100.62 h 9.95 v 2.93 H 92.5 v 3.46 h 6.07 v 2.94 H 92.5 v 6.07 h -3.15 z"
       id="path3" />
    <path
       d="m 111.37,108.46 v -0.3 c 0,-4.64 2.91,-7.89 7,-7.89 4.09,0 7,3.22 7,7.84 v 0.26 c 0,4.55 -2.93,7.89 -7,7.89 -4.07,0 -7,-3.19 -7,-7.8 z m 10.62,0 v -0.3 c 0,-3 -1.52,-5 -3.69,-5 -2.17,0 -3.64,1.93 -3.64,5 v 0.15 c 0,3 1.52,5 3.72,5 2.2,0 3.66,-1.91 3.66,-4.94 z"
       id="path4" />
    <path
       d="m 138.66,100.62 h 5.84 a 5.75,5.75 0 0 1 4.17,1.52 4.84,4.84 0 0 1 1.3,3.58 v 0 a 4.67,4.67 0 0 1 -2.87,4.55 l 3.29,5.73 h -3.66 l -2.85,-5.08 h -2 V 116 h -3.22 z m 5.57,7.58 a 2.23,2.23 0 0 0 2.52,-2.32 v 0 c 0,-1.52 -1,-2.32 -2.58,-2.32 h -2.29 v 4.6 z"
       id="path5" />
    <path
       d="m 163.31,100.62 h 3.35 l 3.44,6.26 3.41,-6.26 h 3.37 v 15.41 h -3.14 v -9.87 l -3.64,6.37 v 0 l -3.6,-6.31 v 9.81 h -3 z"
       id="path6" />
    <path
       d="m 190.7,110.02 v -9.4 h 3.22 v 9.46 c 0,2.18 1,3.26 2.68,3.26 1.68,0 2.7,-1.06 2.7,-3.2 v -9.53 h 3.2 v 9.37 c 0,4.26 -2.34,6.32 -5.92,6.32 -3.58,0 -5.88,-2.03 -5.88,-6.28 z"
       id="path7" />
    <path
       d="m 216.29,100.62 h 3.21 v 12.54 h 6.25 v 2.94 h -9.45 z"
       id="path8" />
    <path
       d="m 243.44,100.5 h 3 l 5.55,15.53 h -3.28 l -1.18,-3.28 h -5.31 l -1.09,3.28 h -3.2 z m 3.15,9.36 -1.68,-5 -1.7,5 z"
       id="path9" />
    <path
       d="m 282.74,103.76 -2.35,0.64 -0.52,-2.78 3.76,-1.15 h 2.21 v 15.56 h -3.15 z"
       id="path10" />
    <path
       d="m 319.14,103.55 h -3.88 v -2.93 h 11 v 3 h -3.9 v 12.54 h -3.17 z"
       id="path11" />
    <path
       d="m 338.9,100.62 h 9.95 v 2.88 h -6.75 v 3.34 h 6 v 2.88 h -6 v 3.44 h 6.86 v 2.9 h -10 z"
       id="path12" />
    <path
       d="m 366.81,100.5 h 3 l 5.54,15.53 h -3.31 l -1.12,-3.28 h -5.32 l -1.1,3.36 h -3.22 z m 3.15,9.36 -1.67,-5 -1.7,5 z"
       id="path13" />
    <path
       d="m 388,100.62 h 3.32 l 3.44,6.26 3.44,-6.26 h 3.38 v 15.41 h -3.14 v -9.87 l -3.64,6.37 v 0 l -3.63,-6.32 v 9.81 h -3.12 z"
       id="path14" />
  </g>
  <metadata
     id="metadata14">
    <rdf:RDF>
      <cc:Work
         rdf:about="">
        <dc:title>McLaren Formula 1 team logo - Brandlogos.net</dc:title>
      </cc:Work>
    </rdf:RDF>
  </metadata>
</svg>
