<?xml version="1.0" encoding="UTF-8" standalone="no"?>
<svg
   viewBox="0 0 500 499.99999"
   version="1.1"
   id="svg562"
   sodipodi:docname="mercedes.svg"
   xml:space="preserve"
   width="500"
   height="500"
   inkscape:version="1.4.3 (0d15f75, 2025-12-25)"
   xmlns:inkscape="http://www.inkscape.org/namespaces/inkscape"
   xmlns:sodipodi="http://sodipodi.sourceforge.net/DTD/sodipodi-0.dtd"
   xmlns:xlink="http://www.w3.org/1999/xlink"
   xmlns="http://www.w3.org/2000/svg"
   xmlns:svg="http://www.w3.org/2000/svg"
   xmlns:rdf="http://www.w3.org/1999/02/22-rdf-syntax-ns#"
   xmlns:cc="http://creativecommons.org/ns#"
   xmlns:dc="http://purl.org/dc/elements/1.1/"><sodipodi:namedview
     id="namedview562"
     pagecolor="#ffffff"
     bordercolor="#000000"
     borderopacity="0.25"
     inkscape:showpageshadow="2"
     inkscape:pageopacity="0.0"
     inkscape:pagecheckerboard="0"
     inkscape:deskcolor="#d1d1d1"
     inkscape:zoom="0.67254266"
     inkscape:cx="56.501992"
     inkscape:cy="29.737891"
     inkscape:window-width="1440"
     inkscape:window-height="890"
     inkscape:window-x="-6"
     inkscape:window-y="-6"
     inkscape:window-maximized="1"
     inkscape:current-layer="svg562" /><defs
     id="defs92"><clipPath
       id="a"
       transform="translate(-204.55 -299.1)"><path
         d="M 252.1,384 A 37.36,37.36 0 1 1 289.46,421.36 37.36,37.36 0 0 1 252.1,384 m -5.1,0 A 42.45,42.45 0 1 0 289.45,341.55 42.45,42.45 0 0 0 247,384"
         style="fill:none"
         id="path1" /></clipPath><linearGradient
       id="b"
       x1="89.459999"
       y1="815.81"
       x2="91.620003"
       y2="815.81"
       gradientTransform="matrix(0,39.3,-39.3,0,32349.22,-3174.01)"
       gradientUnits="userSpaceOnUse"><stop
         offset="0"
         stop-color="#04222d"
         id="stop1" /><stop
         offset="0.03"
         stop-color="#04222d"
         id="stop2" /><stop
         offset="0.17"
         stop-color="#374851"
         id="stop3" /><stop
         offset="0.5"
         stop-color="#a3acb2"
         id="stop4" /><stop
         offset="0.83"
         stop-color="#d4d8d3"
         id="stop5" /><stop
         offset="0.95"
         stop-color="#f9f8f3"
         id="stop6" /><stop
         offset="1"
         stop-color="#f9f8f3"
         id="stop7" /></linearGradient><clipPath
       id="c"
       transform="translate(-204.55 -299.1)"><path
         d="m 249.55,384 a 39.9,39.9 0 1 1 39.9,39.9 39.9,39.9 0 0 1 -39.9,-39.9 M 247,384 A 42.45,42.45 0 1 0 289.45,341.55 42.45,42.45 0 0 0 247,384"
         style="fill:none"
         id="path7" /></clipPath><linearGradient
       id="d"
       x1="89.459999"
       y1="815.81"
       x2="91.620003"
       y2="815.81"
       gradientTransform="matrix(0,39.3,-39.3,0,32349.22,-3174.01)"
       gradientUnits="userSpaceOnUse"><stop
         offset="0"
         stop-color="#f9f8f3"
         id="stop8" /><stop
         offset="0.03"
         stop-color="#f9f8f3"
         id="stop9" /><stop
         offset="0.17"
         stop-color="#e5e8e4"
         id="stop10" /><stop
         offset="0.4"
         stop-color="#bdc3c3"
         id="stop11" /><stop
         offset="0.62"
         stop-color="#8c969d"
         id="stop12" /><stop
         offset="0.83"
         stop-color="#2e4049"
         id="stop13" /><stop
         offset="0.97"
         stop-color="#43525a"
         id="stop14" /><stop
         offset="1"
         stop-color="#43525a"
         id="stop15" /></linearGradient><clipPath
       id="e"
       transform="translate(-204.55 -299.1)"><path
         d="m 289.45,341.76 a 41.23,41.23 0 0 1 0,82.46 v 2.23 a 42.45,42.45 0 1 0 0,-84.9 z"
         style="fill:none"
         id="path15" /></clipPath><linearGradient
       id="f"
       x1="96.510002"
       y1="810.90997"
       x2="98.669998"
       y2="810.90997"
       gradientTransform="matrix(0,39.31,-39.31,0,31981.09,-3750.95)"
       gradientUnits="userSpaceOnUse"><stop
         offset="0"
         stop-color="#e5e8e4"
         id="stop16" /><stop
         offset="0.03"
         stop-color="#e5e8e4"
         id="stop17" /><stop
         offset="0.17"
         stop-color="#636f76"
         id="stop18" /><stop
         offset="0.5"
         stop-color="#102933"
         id="stop19" /><stop
         offset="0.83"
         stop-color="#001622"
         id="stop20" /><stop
         offset="0.97"
         stop-color="#2e4049"
         id="stop21" /><stop
         offset="1"
         stop-color="#2e4049"
         id="stop22" /></linearGradient><clipPath
       id="g"
       transform="translate(-204.55 -299.1)"><path
         d="m 251.71,385.85 c -1.25,20.41 17.86,37.74 37.74,37.74 v -2.23 a 37.38,37.38 0 0 1 -36.72,-44.24 51.67,51.67 0 0 0 -1,8.73"
         style="fill:none"
         id="path22" /></clipPath><linearGradient
       id="h"
       x1="89.459999"
       y1="816.15997"
       x2="91.620003"
       y2="816.15997"
       gradientTransform="matrix(0,39.3,-39.3,0,32344.75,-3155.6)"
       gradientUnits="userSpaceOnUse"><stop
         offset="0"
         stop-color="#102933"
         id="stop23" /><stop
         offset="0.17"
         stop-color="#102933"
         id="stop24" /><stop
         offset="0.46"
         stop-color="#3d4d56"
         id="stop25" /><stop
         offset="0.83"
         stop-color="#d8dcd7"
         id="stop26" /><stop
         offset="1"
         stop-color="#d8dcd7"
         id="stop27" /></linearGradient><clipPath
       id="i"
       transform="translate(-204.55 -299.1)"><path
         d="m 289.24,343.78 v 0 A 40.55,40.55 0 0 0 249.27,379 c -0.09,0.71 -0.11,1.07 -0.18,1.57 a 3,3 0 0 1 -0.8,2.1 c -0.62,0.62 -1,1.33 -1,3.66 a 39.84,39.84 0 0 0 4.48,16 36.29,36.29 0 0 0 15.11,15 41.35,41.35 0 0 1 -17.33,-33.33 39.9,39.9 0 0 1 39.9,-39.91 v -0.32 z"
         style="fill:none"
         id="path27" /></clipPath><linearGradient
       id="j"
       x1="97.849998"
       y1="812.48999"
       x2="100.01"
       y2="812.48999"
       gradientTransform="matrix(0,34.06,-34.06,0,27737.44,-3288.17)"
       gradientUnits="userSpaceOnUse"><stop
         offset="0"
         stop-color="#e5e8e4"
         id="stop28" /><stop
         offset="0.03"
         stop-color="#e5e8e4"
         id="stop29" /><stop
         offset="0.17"
         stop-color="#374851"
         id="stop30" /><stop
         offset="0.5"
         stop-color="#001622"
         id="stop31" /><stop
         offset="0.57"
         stop-color="#061b27"
         id="stop32" /><stop
         offset="0.67"
         stop-color="#172a35"
         id="stop33" /><stop
         offset="0.78"
         stop-color="#32434c"
         id="stop34" /><stop
         offset="0.83"
         stop-color="#43525a"
         id="stop35" /><stop
         offset="0.97"
         stop-color="#5b6870"
         id="stop36" /><stop
         offset="1"
         stop-color="#5b6870"
         id="stop37" /></linearGradient><clipPath
       id="k"
       transform="translate(-204.55 -299.1)"><path
         d="m 287.22,344.16 v 0.26 c 20.21,0 37,14.62 39.4,34.18 a 4.72,4.72 0 0 0 1.07,2.55 4.24,4.24 0 0 1 1,3.21 39.37,39.37 0 0 1 -39.49,39.23 v 0.32 h 0.21 a 39.905,39.905 0 1 0 0,-79.81 z"
         style="fill:none"
         id="path37" /></clipPath><linearGradient
       id="l"
       x1="97.089996"
       y1="811.32001"
       x2="99.25"
       y2="811.32001"
       gradientTransform="matrix(0,36.95,-36.95,0,30081.38,-3542.22)"
       gradientUnits="userSpaceOnUse"><stop
         offset="0"
         stop-color="#3d4d56"
         id="stop38" /><stop
         offset="0.03"
         stop-color="#3d4d56"
         id="stop39" /><stop
         offset="0.17"
         stop-color="#2e4049"
         id="stop40" /><stop
         offset="0.5"
         stop-color="#001622"
         id="stop41" /><stop
         offset="0.83"
         stop-color="#374851"
         id="stop42" /><stop
         offset="0.97"
         stop-color="#d4d8d3"
         id="stop43" /><stop
         offset="1"
         stop-color="#d4d8d3"
         id="stop44" /></linearGradient><clipPath
       id="m"
       transform="translate(-204.55 -299.1)"><path
         d="m 247.25,384 a 42.2,42.2 0 1 1 42.2,42.2 42.2,42.2 0 0 1 -42.2,-42.2 M 247,384 A 42.45,42.45 0 1 0 289.45,341.55 42.45,42.45 0 0 0 247,384"
         style="fill:none"
         id="path44" /></clipPath><linearGradient
       id="n"
       x1="89.459999"
       y1="815.81"
       x2="91.620003"
       y2="815.81"
       gradientTransform="matrix(0,39.3,-39.3,0,32349.22,-3174.01)"
       gradientUnits="userSpaceOnUse"><stop
         offset="0"
         stop-color="#374851"
         id="stop45" /><stop
         offset="0.03"
         stop-color="#374851"
         id="stop46" /><stop
         offset="0.04"
         stop-color="#3a4b54"
         id="stop47" /><stop
         offset="0.09"
         stop-color="#57656d"
         id="stop48" /><stop
         offset="0.14"
         stop-color="#6c787f"
         id="stop49" /><stop
         offset="0.19"
         stop-color="#78838a"
         id="stop50" /><stop
         offset="0.24"
         stop-color="#7c878e"
         id="stop51" /><stop
         offset="0.5"
         stop-color="#636f76"
         id="stop52" /><stop
         offset="0.65"
         stop-color="#67737a"
         id="stop53" /><stop
         offset="0.79"
         stop-color="#737f86"
         id="stop54" /><stop
         offset="0.95"
         stop-color="#889299"
         id="stop55" /><stop
         offset="0.97"
         stop-color="#8c969d"
         id="stop56" /><stop
         offset="1"
         stop-color="#8c969d"
         id="stop57" /></linearGradient><clipPath
       id="o"
       transform="translate(-204.55 -299.1)"><path
         d="M 252.1,384 A 37.36,37.36 0 1 1 289.46,421.36 37.36,37.36 0 0 1 252.1,384 m -0.25,0 a 37.6,37.6 0 1 0 37.6,-37.6 37.6,37.6 0 0 0 -37.6,37.6"
         style="fill:none"
         id="path57" /></clipPath><linearGradient
       id="p"
       x1="85.389999"
       y1="794.21002"
       x2="87.550003"
       y2="794.21002"
       gradientTransform="matrix(0,-39.39,39.39,0,-30997.62,3790.2)"
       gradientUnits="userSpaceOnUse"><stop
         offset="0"
         stop-color="#374851"
         id="stop58" /><stop
         offset="0.03"
         stop-color="#374851"
         id="stop59" /><stop
         offset="0.08"
         stop-color="#3f4f58"
         id="stop60" /><stop
         offset="0.22"
         stop-color="#536169"
         id="stop61" /><stop
         offset="0.36"
         stop-color="#5f6b73"
         id="stop62" /><stop
         offset="0.5"
         stop-color="#636f76"
         id="stop63" /><stop
         offset="0.65"
         stop-color="#67737a"
         id="stop64" /><stop
         offset="0.79"
         stop-color="#737f86"
         id="stop65" /><stop
         offset="0.95"
         stop-color="#889299"
         id="stop66" /><stop
         offset="0.97"
         stop-color="#8c969d"
         id="stop67" /><stop
         offset="1"
         stop-color="#8c969d"
         id="stop68" /></linearGradient><clipPath
       id="q"
       transform="translate(-204.55 -299.1)"><path
         d="m 256.32,401.47 a 3.58,3.58 0 0 0 -0.33,1.84 l 33.46,-19.31 -6.34,-3.66 z"
         style="fill:none"
         id="path68" /></clipPath><linearGradient
       id="r"
       x1="146.28"
       y1="669.29999"
       x2="148.44"
       y2="669.29999"
       gradientTransform="matrix(0,2.98,2.98,0,-1721.62,-48.4)"
       gradientUnits="userSpaceOnUse"><stop
         offset="0"
         stop-color="#fff"
         id="stop69" /><stop
         offset="0.6"
         stop-color="#fff"
         id="stop70" /><stop
         offset="0.66"
         stop-color="#fafafb"
         id="stop71" /><stop
         offset="0.73"
         stop-color="#ebedee"
         id="stop72" /><stop
         offset="0.81"
         stop-color="#d3d7d9"
         id="stop73" /><stop
         offset="0.88"
         stop-color="#b4bbbf"
         id="stop74" /><stop
         offset="1"
         stop-color="#b4bbbf"
         id="stop75" /></linearGradient><clipPath
       id="s"
       transform="translate(-204.55 -299.1)"><path
         d="m 289.45,384 33.46,19.32 a 3.59,3.59 0 0 0 -0.31,-1.8 l -26.81,-21.18 z"
         style="fill:none"
         id="path75" /></clipPath><linearGradient
       id="t"
       x1="230.55"
       y1="806.28998"
       x2="232.71001"
       y2="806.28998"
       gradientTransform="matrix(-3.01,0,0,-3.01,1003.66,2816.65)"
       gradientUnits="userSpaceOnUse"><stop
         offset="0"
         stop-color="#fff"
         id="stop76" /><stop
         offset="0.5"
         stop-color="#fff"
         id="stop77" /><stop
         offset="0.58"
         stop-color="#fafafb"
         id="stop78" /><stop
         offset="0.68"
         stop-color="#ebedee"
         id="stop79" /><stop
         offset="0.79"
         stop-color="#d3d7d9"
         id="stop80" /><stop
         offset="0.9"
         stop-color="#b4bbbf"
         id="stop81" /><stop
         offset="1"
         stop-color="#b4bbbf"
         id="stop82" /></linearGradient><clipPath
       id="u"
       transform="translate(-204.55 -299.1)"><path
         d="m 288.59,346 a 3.73,3.73 0 0 0 -0.66,0.73 l -4.82,33.66 6.34,3.66 v -38.68 a 4.18,4.18 0 0 0 -0.86,0.58"
         style="fill:none"
         id="path82" /></clipPath><linearGradient
       id="v"
       x1="9.6000004"
       y1="923.64001"
       x2="11.76"
       y2="923.64001"
       gradientTransform="matrix(0,2.99,-2.99,0,3050.95,333.31)"
       xlink:href="#r" /><clipPath
       id="w"
       transform="translate(-204.55 -299.1)"><path
         d="m 256.33,401.39 a 5.87,5.87 0 0 0 -0.25,0.74 c 0.07,0 27.14,-19.48 28.07,-20.1 0.67,-0.44 0.71,-0.46 1.41,-0.21 l -0.71,-0.55 -1.73,-0.9 z m 38.45,-20.53 -4.45,2.74 c 0,0 -0.23,0.23 0,0.13 a 31.87,31.87 0 0 1 3.8,-1.37 3.76,3.76 0 0 1 2.86,1 l 25.78,18.71 a 4.84,4.84 0 0 0 -0.25,-0.74 l -26.86,-21 z m -6.6,-34.52 -0.25,0.3 -4.8,33.68 2.71,1.38 a 1.84,1.84 0 0 1 -0.76,-1 3.07,3.07 0 0 1 0,-1 c 0.06,-0.75 0.33,-2.7 3.38,-33.65 a 2.92,2.92 0 0 0 -0.29,0.3"
         style="fill:none"
         id="path83" /></clipPath><radialGradient
       id="x"
       cx="74.870003"
       cy="824.23999"
       r="2.1600001"
       gradientTransform="matrix(18.57,0,0,18.57,-1305.13,-15218.08)"
       gradientUnits="userSpaceOnUse"><stop
         offset="0"
         stop-color="#ccd0cd"
         id="stop83" /><stop
         offset="1"
         stop-color="#bdc3c3"
         id="stop84" /></radialGradient><clipPath
       id="y"
       transform="translate(-204.55 -299.1)"><path
         d="m 295.74,380.37 0.23,0.11 v 0 a 0.59,0.59 0 0 1 -0.21,-0.36 z"
         style="fill:none"
         id="path84" /></clipPath><linearGradient
       id="z"
       x1="-887.78003"
       y1="-1202.38"
       x2="-885.62"
       y2="-1202.38"
       gradientTransform="matrix(0,-0.19,0.19,0,526.91,209.93)"
       gradientUnits="userSpaceOnUse"><stop
         offset="0"
         stop-color="#66737a"
         id="stop85" /><stop
         offset="0.29"
         stop-color="#66737a"
         id="stop86" /><stop
         offset="0.72"
         stop-color="#52626b"
         id="stop87" /><stop
         offset="1"
         stop-color="#52626b"
         id="stop88" /></linearGradient><clipPath
       id="aa"
       transform="translate(-204.55 -299.1)"><path
         d="m 289.16,384.43 0.2,6.24 c 0,0 0,0.65 0.09,0.65 0.09,0 0.07,-0.65 0.07,-0.65 l 0.22,-6.24 z"
         style="fill:none"
         id="path88" /></clipPath><linearGradient
       id="ab"
       x1="-25.17"
       y1="728.58002"
       x2="-23.01"
       y2="728.58002"
       gradientTransform="matrix(0,-3.19,3.19,0,-2239.6,11.91)"
       gradientUnits="userSpaceOnUse"><stop
         offset="0"
         stop-color="#43525a"
         id="stop89" /><stop
         offset="0.04"
         stop-color="#43525a"
         id="stop90" /><stop
         offset="0.76"
         stop-color="#fff"
         id="stop91" /><stop
         offset="1"
         stop-color="#fff"
         id="stop92" /></linearGradient><linearGradient
       id="linear-gradient"
       x1="-13.11"
       y1="608.96997"
       x2="-12.35"
       y2="608.33002"
       gradientTransform="matrix(109.55,0,0,-109.55,1706.48,66986.73)"
       gradientUnits="userSpaceOnUse"><stop
         offset="0"
         stop-color="#fff"
         id="stop1-0" /><stop
         offset="0.1"
         stop-color="#e7e8e6"
         id="stop2-9" /><stop
         offset="0.1"
         stop-color="#cdd0d0"
         id="stop3-4" /><stop
         offset="0.2"
         stop-color="#b5bbbd"
         id="stop4-8" /><stop
         offset="0.2"
         stop-color="#a5acaf"
         id="stop5-8" /><stop
         offset="0.3"
         stop-color="#9ba3a7"
         id="stop6-2" /><stop
         offset="0.3"
         stop-color="#98a0a4"
         id="stop7-4" /><stop
         offset="0.4"
         stop-color="#828a8f"
         id="stop8-5" /><stop
         offset="0.5"
         stop-color="#667075"
         id="stop9-5" /><stop
         offset="0.6"
         stop-color="#535c63"
         id="stop10-1" /><stop
         offset="0.7"
         stop-color="#475158"
         id="stop11-7" /><stop
         offset="0.8"
         stop-color="#434d54"
         id="stop12-1" /><stop
         offset="1"
         stop-color="#475157"
         id="stop13-1" /></linearGradient><linearGradient
       id="linear-gradient-2"
       x1="-13"
       y1="608.91998"
       x2="-12.23"
       y2="608.28003"
       gradientTransform="matrix(102.9,0,0,-102.9,1610.05,62933.55)"
       gradientUnits="userSpaceOnUse"><stop
         offset="0"
         stop-color="#0b1f2a"
         id="stop14-5" /><stop
         offset="0.2"
         stop-color="#333f47"
         id="stop15-2" /><stop
         offset="0.5"
         stop-color="#777f84"
         id="stop16-7" /><stop
         offset="0.5"
         stop-color="#81898d"
         id="stop17-6" /><stop
         offset="0.7"
         stop-color="#b3b8b8"
         id="stop18-1" /><stop
         offset="0.8"
         stop-color="#d2d5d3"
         id="stop19-4" /><stop
         offset="0.8"
         stop-color="#dee0dd"
         id="stop20-2" /><stop
         offset="1"
         stop-color="#fbfbfb"
         id="stop21-3" /></linearGradient><linearGradient
       id="linear-gradient-3"
       x1="-12.6"
       y1="608.20001"
       x2="-12.94"
       y2="609.14001"
       gradientTransform="matrix(112,0,0,-112,1742,68480)"
       gradientUnits="userSpaceOnUse"><stop
         offset="0"
         stop-color="#e1e3e1"
         id="stop22-2" /><stop
         offset="0.1"
         stop-color="#c1c5c4"
         id="stop23-2" /><stop
         offset="0.3"
         stop-color="#9ba1a2"
         id="stop24-1" /><stop
         offset="0.5"
         stop-color="#7d8487"
         id="stop25-6" /><stop
         offset="0.7"
         stop-color="#687074"
         stop-opacity="0"
         id="stop26-8" /><stop
         offset="0.8"
         stop-color="#5b6469"
         stop-opacity="0"
         id="stop27-5" /><stop
         offset="1"
         stop-color="#576065"
         stop-opacity="0"
         id="stop28-7" /></linearGradient><linearGradient
       id="linear-gradient-4"
       x1="-12.74"
       y1="608.96997"
       x2="-12.24"
       y2="608.09998"
       gradientTransform="matrix(96.6,0,0,-96.6,1518.7,59093.7)"
       xlink:href="#linear-gradient-3" /><linearGradient
       id="linear-gradient-5"
       x1="-9.96"
       y1="605.72998"
       x2="-10.03"
       y2="605.66998"
       gradientTransform="matrix(42.7,0,0,-24.6,758.85,15225.62)"
       gradientUnits="userSpaceOnUse"><stop
         offset="0"
         stop-color="#27343c"
         id="stop29-6" /><stop
         offset="1"
         stop-color="#00111e"
         stop-opacity="0"
         id="stop30-1" /></linearGradient><linearGradient
       id="linear-gradient-6"
       x1="11.89"
       y1="607.12"
       x2="11.87"
       y2="607.28998"
       gradientTransform="matrix(7.35,0,0,-47.42,228.95,29096.95)"
       gradientUnits="userSpaceOnUse"><stop
         offset="0.1"
         stop-color="#02131f"
         id="stop31-8" /><stop
         offset="0.9"
         stop-color="#02131f"
         stop-opacity="0"
         id="stop32-9" /></linearGradient><linearGradient
       id="linear-gradient-7"
       x1="-9.4899998"
       y1="605.81"
       x2="-9.6599998"
       y2="605.78998"
       gradientTransform="matrix(43.05,0,0,-24.7,720.53,15285.83)"
       gradientUnits="userSpaceOnUse"><stop
         offset="0.2"
         stop-color="#02131f"
         id="stop33-2" /><stop
         offset="0.9"
         stop-color="#02131f"
         stop-opacity="0"
         id="stop34-7" /></linearGradient><linearGradient
       id="linear-gradient-8"
       x1="-9.79"
       y1="605.57001"
       x2="-9.8199997"
       y2="605.60999"
       gradientTransform="matrix(41.47,0,0,-23.99,698.47,14852.13)"
       gradientUnits="userSpaceOnUse"><stop
         offset="0"
         stop-color="#02131f"
         id="stop35-9" /><stop
         offset="0.1"
         stop-color="#02131f"
         id="stop36-5" /><stop
         offset="1"
         stop-color="#02131f"
         stop-opacity="0"
         id="stop37-4" /></linearGradient><linearGradient
       id="linear-gradient-9"
       x1="9.0799999"
       y1="607.63"
       x2="9.0600004"
       y2="607.60999"
       gradientTransform="matrix(8.23,0,0,-48.7,241.2,29872.87)"
       gradientUnits="userSpaceOnUse"><stop
         offset="0.3"
         stop-color="#02131f"
         id="stop38-3" /><stop
         offset="0.8"
         stop-color="#02131f"
         stop-opacity="0"
         id="stop39-1" /></linearGradient><linearGradient
       id="linear-gradient-10"
       x1="9.0799999"
       y1="607.63"
       x2="9.0699997"
       y2="607.62"
       gradientTransform="matrix(8.23,0,0,-48.7,241.2,29872.87)"
       gradientUnits="userSpaceOnUse"><stop
         offset="0.4"
         stop-color="#27343c"
         id="stop40-2" /><stop
         offset="1"
         stop-color="#3b474e"
         stop-opacity="0"
         id="stop41-3" /></linearGradient><linearGradient
       id="linear-gradient-11"
       x1="-9.7799997"
       y1="608.28003"
       x2="-9.3999996"
       y2="607.88"
       gradientTransform="matrix(39.03,0,0,-70.53,648.6,43215.25)"
       gradientUnits="userSpaceOnUse"><stop
         offset="0"
         stop-color="#24303a"
         stop-opacity="0"
         id="stop42-3" /><stop
         offset="0"
         stop-color="#25323b"
         stop-opacity="0"
         id="stop43-4" /><stop
         offset="0.1"
         stop-color="#27343c"
         id="stop44-1" /></linearGradient><linearGradient
       id="linear-gradient-12"
       x1="108.67"
       y1="597.77002"
       x2="108.67"
       y2="598.78003"
       gradientTransform="matrix(1.58,0,0,-8.3,140.75,5278.45)"
       gradientUnits="userSpaceOnUse"><stop
         offset="0.3"
         stop-color="#a5abaf"
         id="stop45-1" /><stop
         offset="1"
         stop-color="#a5abaf"
         stop-opacity="0"
         id="stop46-3" /></linearGradient><linearGradient
       id="linear-gradient-13"
       x1="-10.96"
       y1="609.13"
       x2="-10.96"
       y2="608.13"
       gradientTransform="matrix(54.78,0,0,-106.75,939.63,65281.53)"
       gradientUnits="userSpaceOnUse"><stop
         offset="0"
         stop-color="#dee0dd"
         id="stop47-8" /><stop
         offset="0"
         stop-color="#c5c9c7"
         id="stop48-7" /><stop
         offset="0"
         stop-color="#9ea4a5"
         id="stop49-4" /><stop
         offset="0"
         stop-color="#82898c"
         id="stop50-2" /><stop
         offset="0"
         stop-color="#71797d"
         id="stop51-7" /><stop
         offset="0"
         stop-color="#6b7378"
         id="stop52-7" /><stop
         offset="0.2"
         stop-color="#333f47"
         id="stop53-9" /><stop
         offset="0.5"
         stop-color="#27343c"
         id="stop54-3" /><stop
         offset="0.8"
         stop-color="#333f47"
         id="stop55-1" /><stop
         offset="1"
         stop-color="#434d54"
         id="stop56-9" /></linearGradient><linearGradient
       id="linear-gradient-14"
       x1="354.51999"
       y1="517"
       x2="355.51999"
       y2="517"
       gradientTransform="matrix(0.53,0,0,-1,125.88,771.23)"
       xlink:href="#linear-gradient-13" /><linearGradient
       id="linear-gradient-15"
       x1="-10.17"
       y1="608.59003"
       x2="-10.39"
       y2="608.09998"
       gradientTransform="matrix(46.18,0,0,-71.57,816.01,43826.17)"
       gradientUnits="userSpaceOnUse"><stop
         offset="0.7"
         stop-color="#27343c"
         id="stop57-8" /><stop
         offset="0.7"
         stop-color="#2b373f"
         id="stop58-6" /><stop
         offset="0.7"
         stop-color="#36424a"
         id="stop59-5" /><stop
         offset="0.7"
         stop-color="#49545b"
         id="stop60-0" /><stop
         offset="0.8"
         stop-color="#646d73"
         stop-opacity="0"
         id="stop61-2" /><stop
         offset="0.8"
         stop-color="#868d92"
         stop-opacity="0"
         id="stop62-8" /><stop
         offset="0.8"
         stop-color="#b0b5b8"
         stop-opacity="0"
         id="stop63-6" /><stop
         offset="0.8"
         stop-color="#e1e3e4"
         stop-opacity="0"
         id="stop64-0" /><stop
         offset="0.8"
         stop-color="#fff"
         stop-opacity="0"
         id="stop65-2" /></linearGradient><linearGradient
       inkscape:collect="always"
       xlink:href="#linear-gradient-3"
       id="linearGradient65"
       gradientUnits="userSpaceOnUse"
       gradientTransform="matrix(112,0,0,-112,1742,68480)"
       x1="-12.6"
       y1="608.20001"
       x2="-12.94"
       y2="609.14001" /><linearGradient
       inkscape:collect="always"
       xlink:href="#linear-gradient-13"
       id="linearGradient66"
       gradientUnits="userSpaceOnUse"
       gradientTransform="matrix(54.78,0,0,-106.75,939.63,65281.53)"
       x1="-10.96"
       y1="609.13"
       x2="-10.96"
       y2="608.13" /><linearGradient
       inkscape:collect="always"
       xlink:href="#r"
       id="linearGradient564"
       gradientUnits="userSpaceOnUse"
       gradientTransform="matrix(0,2.98,2.98,0,-1721.62,-48.4)"
       x1="146.28"
       y1="669.29999"
       x2="148.44"
       y2="669.29999" /></defs><title
     id="title92">Mercedes-AMG Petronas F1 logo - Brandlogos.net</title><g
     id="g564"
     transform="matrix(1.8230961,0,0,1.8230961,-77.191709,95.20091)"><g
       clip-path="url(#a)"
       id="g93"><rect
         x="229.42"
         y="323.97"
         width="120.07"
         height="120.07"
         transform="rotate(-45,-173.87379,481.36088)"
         style="fill:url(#b)"
         id="rect93" /></g><g
       clip-path="url(#c)"
       id="g94"><rect
         x="229.42"
         y="323.97"
         width="120.07"
         height="120.07"
         transform="rotate(-45,-173.87379,481.36088)"
         style="fill:url(#d)"
         id="rect94" /></g><g
       clip-path="url(#e)"
       id="g95"><rect
         x="84.900002"
         y="42.450001"
         width="42.450001"
         height="84.900002"
         style="fill:url(#f)"
         id="rect95" /></g><g
       clip-path="url(#g)"
       id="g96"><rect
         x="239.74001"
         y="370.14001"
         width="60.43"
         height="60.43"
         transform="rotate(-45,-193.36068,497.71262)"
         style="fill:url(#h)"
         id="rect96" /></g><g
       clip-path="url(#i)"
       id="g279"><rect
         x="42.689999"
         y="44.68"
         width="42.209999"
         height="73.540001"
         style="fill:url(#j)"
         id="rect279" /></g><g
       clip-path="url(#k)"
       id="g280"><rect
         x="82.669998"
         y="44.990002"
         width="42.130001"
         height="79.809998"
         style="fill:url(#l)"
         id="rect280" /></g><g
       clip-path="url(#m)"
       id="g282"><rect
         x="229.42"
         y="323.97"
         width="120.07"
         height="120.07"
         transform="rotate(-45,-173.87379,481.36088)"
         style="fill:url(#n)"
         id="rect282" /></g><g
       clip-path="url(#o)"
       id="g283"><rect
         x="236.27"
         y="330.82001"
         width="106.36"
         height="106.36"
         transform="rotate(-45,-173.87379,481.36088)"
         style="fill:url(#p)"
         id="rect283" /></g><g
       clip-path="url(#q)"
       id="g536"><rect
         x="252.39"
         y="373.26999"
         width="40.599998"
         height="37.119999"
         transform="rotate(-31.5,-359.85102,604.92494)"
         style="fill:url(#linearGradient564)"
         id="rect536" /></g><g
       clip-path="url(#s)"
       id="g537"><rect
         x="287.51999"
         y="371.51999"
         width="37.389999"
         height="40.610001"
         transform="rotate(-57.5,-68.661728,428.69796)"
         style="fill:url(#t)"
         id="rect537" /></g><g
       clip-path="url(#u)"
       id="g538"><rect
         x="266.87"
         y="360.84"
         width="38.830002"
         height="7.6900001"
         transform="matrix(0.03,-1,1,0.03,-292.73,338.96)"
         style="fill:url(#v)"
         id="rect538" /></g><g
       clip-path="url(#w)"
       id="g539"><rect
         x="51.529999"
         y="46.950001"
         width="66.730003"
         height="56.080002"
         style="fill:url(#x)"
         id="rect539" /></g><g
       clip-path="url(#y)"
       id="g540"><rect
         x="295.66"
         y="380.07999"
         width="0.38"
         height="0.43000001"
         transform="rotate(-30,-364.52941,612.46464)"
         style="fill:url(#z)"
         id="rect540" /></g><g
       clip-path="url(#aa)"
       id="g545"><rect
         x="84.610001"
         y="85.330002"
         width="0.56999999"
         height="6.8899999"
         style="fill:url(#ab)"
         id="rect545" /></g><path
       d="m 288,72.51 h 27.45 a 0.82,0.82 0 0 0 0.82,-0.82 v -6.84 a 0.82,0.82 0 0 0 -0.82,-0.81 h -13.5 a 0.82,0.82 0 0 0 -0.82,0.81 v 1.24 a 0.82,0.82 0 0 0 0.82,0.82 h 8.85 a 0.27,0.27 0 0 1 0.27,0.27 v 1.32 a 0.27,0.27 0 0 1 -0.27,0.27 h -17.63 a 0.82,0.82 0 0 1 -0.82,-0.81 V 62.9 a 0.82,0.82 0 0 1 0.82,-0.82 h 22.28 a 0.82,0.82 0 0 0 0.82,-0.81 V 59.41 A 0.82,0.82 0 0 0 315.45,58.6 H 288 a 0.82,0.82 0 0 0 -0.82,0.81 v 12.3 a 0.82,0.82 0 0 0 0.82,0.82 m -7.68,0 h 3.54 a 0.82,0.82 0 0 0 0.82,-0.82 v -12.3 a 0.82,0.82 0 0 0 -0.82,-0.81 h -4 a 0.78,0.78 0 0 0 -0.44,0.13 l -9.7,6.33 a 0.8,0.8 0 0 1 -0.89,0 l -9.7,-6.33 a 0.78,0.78 0 0 0 -0.45,-0.13 h -4 a 0.82,0.82 0 0 0 -0.82,0.81 v 12.3 a 0.82,0.82 0 0 0 0.82,0.82 h 3.54 a 0.82,0.82 0 0 0 0.81,-0.82 V 64.3 a 0.38,0.38 0 0 1 0.58,-0.32 l 7.51,4.71 a 0.77,0.77 0 0 0 0.43,0.13 h 3.37 a 0.77,0.77 0 0 0 0.43,-0.13 l 7.51,-4.71 a 0.38,0.38 0 0 1 0.58,0.32 v 7.41 a 0.82,0.82 0 0 0 0.82,0.82 m -29.73,0 h -3.48 a 0.82,0.82 0 0 1 -0.81,-0.82 v -2.17 a 0.27,0.27 0 0 0 -0.27,-0.27 h -18.61 a 0.79,0.79 0 0 0 -0.65,0.32 l -1.94,2.52 a 1.06,1.06 0 0 1 -0.86,0.42 h -4.86 a 0.38,0.38 0 0 1 -0.3,-0.61 l 10.05,-13 a 0.79,0.79 0 0 1 0.64,-0.32 h 21.15 a 0.81,0.81 0 0 1 0.81,0.81 v 12.3 a 0.82,0.82 0 0 1 -0.81,0.82 m -4.36,-7.12 v -3.06 a 0.27,0.27 0 0 0 -0.27,-0.27 h -13.18 a 0.52,0.52 0 0 0 -0.43,0.21 l -2.35,3 a 0.22,0.22 0 0 0 0,0.23 0.22,0.22 0 0 0 0.2,0.12 h 15.79 a 0.27,0.27 0 0 0 0.27,-0.27 m -61.07,7.12 h -11.74 a 0.37,0.37 0 0 1 -0.34,-0.21 0.38,0.38 0 0 1 0,-0.4 l 10.05,-13 a 0.8,0.8 0 0 1 0.65,-0.32 h 11.64 a 0.43,0.43 0 0 1 0.34,0.7 l -10,12.92 a 0.79,0.79 0 0 1 -0.65,0.32 m 8.48,0 h -5.53 a 0.38,0.38 0 0 1 -0.3,-0.61 l 10.05,-13 a 0.79,0.79 0 0 1 0.65,-0.32 h 5.41 a 0.43,0.43 0 0 1 0.35,0.7 l -10,12.92 a 0.79,0.79 0 0 1 -0.65,0.32 m 7.6,0 h -4.27 a 0.38,0.38 0 0 1 -0.3,-0.61 l 10.05,-13 a 0.8,0.8 0 0 1 0.65,-0.32 h 4.16 a 0.43,0.43 0 0 1 0.34,0.7 l -10,12.92 a 0.79,0.79 0 0 1 -0.65,0.32 m 6.87,0 h -3 a 0.38,0.38 0 0 1 -0.3,-0.61 l 10.05,-13 a 0.79,0.79 0 0 1 0.64,-0.32 h 3.01 a 0.43,0.43 0 0 1 0.34,0.7 l -10,12.92 a 0.79,0.79 0 0 1 -0.64,0.32 m 6.58,0 h -2.19 a 0.38,0.38 0 0 1 -0.3,-0.61 l 10.05,-13 a 0.8,0.8 0 0 1 0.65,-0.32 h 2.08 a 0.43,0.43 0 0 1 0.35,0.7 l -10,12.92 a 0.78,0.78 0 0 1 -0.64,0.32"
       style="fill-rule:evenodd"
       id="path548" /><path
       d="m 163.89,80.2 c -0.79,-0.49 -2.34,-0.73 -4.75,-0.73 H 148.7 v 14 h 2.22 v -5.39 h 8.22 c 2.41,0 4,-0.23 4.75,-0.71 a 2.93,2.93 0 0 0 1.22,-2.71 V 82.9 a 2.94,2.94 0 0 0 -1.22,-2.72 m -1.13,3.25 v 0.65 c 0,0.87 -0.19,1.44 -0.56,1.69 a 5.14,5.14 0 0 1 -2.53,0.41 h -8.74 v -4.84 h 8.74 a 5.14,5.14 0 0 1 2.53,0.41 c 0.37,0.25 0.56,0.82 0.56,1.69"
       style="fill:#00a19b"
       id="path549" /><polygon
       points="184.62,81.39 184.62,79.48 169.71,79.48 169.71,93.52 184.62,93.52 184.62,91.6 171.9,91.6 171.9,87.19 184.08,87.19 184.08,85.28 171.9,85.28 171.9,81.39 "
       style="fill:#00a19b"
       id="polygon549" /><polygon
       points="195.13,81.39 195.13,93.52 197.35,93.52 197.35,81.39 204.65,81.39 204.65,79.48 187.83,79.48 187.83,81.39 "
       style="fill:#00a19b"
       id="polygon550" /><path
       d="m 224.27,80.2 c -0.8,-0.49 -2.36,-0.72 -4.76,-0.72 h -10.72 v 14 h 2.22 v -5.35 h 8.74 c 1.85,0 2.55,0.24 2.81,0.44 a 2,2 0 0 1 0.55,1.67 v 3.24 h 2.23 V 89.9 a 2.86,2.86 0 0 0 -0.67,-2 2.48,2.48 0 0 0 -1.08,-0.68 3.05,3.05 0 0 0 1.28,-0.71 2.78,2.78 0 0 0 0.62,-2 V 82.9 a 2.93,2.93 0 0 0 -1.24,-2.72 m -1.09,3.25 v 0.65 a 2,2 0 0 1 -0.56,1.68 5,5 0 0 1 -2.51,0.42 H 211 v -4.84 h 9.09 a 5,5 0 0 1 2.51,0.42 2,2 0 0 1 0.57,1.67"
       style="fill:#00a19b"
       id="path550" /><path
       d="m 247.64,80.3 a 4.8,4.8 0 0 0 -1.94,-0.77 20.67,20.67 0 0 0 -3.52,-0.22 h -4.92 a 20.58,20.58 0 0 0 -3.51,0.22 4.81,4.81 0 0 0 -1.94,0.77 3.4,3.4 0 0 0 -1.2,1.68 8.88,8.88 0 0 0 -0.36,2.78 v 3.72 a 7.6,7.6 0 0 0 0.37,2.58 3.47,3.47 0 0 0 1.21,1.63 4.71,4.71 0 0 0 1.92,0.77 20.82,20.82 0 0 0 3.53,0.22 h 4.9 a 20.94,20.94 0 0 0 3.55,-0.22 4.66,4.66 0 0 0 1.91,-0.77 3.43,3.43 0 0 0 1.19,-1.64 8.07,8.07 0 0 0 0.37,-2.65 v -3.8 a 8.08,8.08 0 0 0 -0.37,-2.65 3.4,3.4 0 0 0 -1.19,-1.65 m -4.58,11.41 h -6.66 a 8,8 0 0 1 -2.14,-0.22 2.22,2.22 0 0 1 -1.11,-0.7 2,2 0 0 1 -0.41,-0.83 8.22,8.22 0 0 1 -0.12,-1.71 v -3.58 a 8.18,8.18 0 0 1 0.12,-1.71 2,2 0 0 1 0.41,-0.83 2.19,2.19 0 0 1 1.11,-0.7 8.09,8.09 0 0 1 2.14,-0.22 h 6.66 a 8.07,8.07 0 0 1 2.14,0.22 2.19,2.19 0 0 1 1.11,0.7 2,2 0 0 1 0.39,0.79 6.88,6.88 0 0 1 0.12,1.54 v 4 a 6.87,6.87 0 0 1 -0.12,1.53 2,2 0 0 1 -0.39,0.8 2.22,2.22 0 0 1 -1.11,0.7 8,8 0 0 1 -2.14,0.22"
       style="fill:#00a19b"
       id="path551" /><polygon
       points="270.51,79.48 270.51,91.31 257.46,79.48 254.31,79.48 254.31,93.52 256.53,93.52 256.53,81.5 269.77,93.52 272.72,93.52 272.72,79.48 "
       style="fill:#00a19b"
       id="polygon551" /><path
       d="m 284.98,79.48 -8.8,14 h 2.56 l 1.88,-3 h 11.5 l 1.93,3 h 2.4 l -8.82,-14 z m -3.22,9.2 4.57,-7.28 4.65,7.28 z"
       style="fill:#00a19b"
       id="path552" /><path
       d="m 316.22,87.17 a 2.57,2.57 0 0 0 -1.17,-1.27 4.31,4.31 0 0 0 -1.47,-0.45 19.87,19.87 0 0 0 -2.64,-0.13 h -5.3 a 6.78,6.78 0 0 1 -3.12,-0.46 1.79,1.79 0 0 1 -0.68,-1.65 1.73,1.73 0 0 1 0.7,-1.62 6.54,6.54 0 0 1 3,-0.46 h 5 a 5.93,5.93 0 0 1 2.84,0.44 1.88,1.88 0 0 1 0.61,1.66 v 0.41 h 2.16 v -0.59 a 5,5 0 0 0 -0.25,-1.71 2.61,2.61 0 0 0 -0.81,-1.15 4.17,4.17 0 0 0 -1.81,-0.71 26.12,26.12 0 0 0 -3.87,-0.19 h -3.34 c -2.48,0 -4.14,0.29 -5.09,0.88 a 3.4,3.4 0 0 0 -1.45,3.12 3.52,3.52 0 0 0 1.28,3.07 7.56,7.56 0 0 0 4.26,0.88 h 6.22 a 4.62,4.62 0 0 1 2.48,0.44 1.94,1.94 0 0 1 0.56,1.62 2.05,2.05 0 0 1 -0.81,1.93 8.74,8.74 0 0 1 -3.81,0.52 h -3.85 a 7.73,7.73 0 0 1 -3.31,-0.48 1.67,1.67 0 0 1 -0.81,-1.61 c 0,-0.1 0,-0.27 0,-0.53 v -0.47 h -2.14 v 0.16 a 0.85,0.85 0 0 0 0,0.18 c 0,0.41 0,0.71 0,0.88 a 3.24,3.24 0 0 0 1.35,2.92 8.14,8.14 0 0 0 4.34,0.86 h 5 c 2.36,0 4,-0.3 4.88,-0.93 a 3.75,3.75 0 0 0 1.41,-3.33 5.87,5.87 0 0 0 -0.34,-2.24"
       style="fill:#00a19b"
       id="path553" /><polygon
       points="173.59,105.14 177.75,105.14 177.75,105.9 173.59,105.9 173.59,110.8 172.72,110.8 172.72,100.59 178.06,100.59 178.06,101.36 173.59,101.36 "
       style="fill:#231f20"
       id="polygon553" /><path
       d="m 188.52,105.69 c 0,3.11 -1.65,5.28 -4,5.28 -2.35,0 -4,-2.16 -4,-5.34 0,-3 1.68,-5.2 4,-5.2 2.32,0 4,2.17 4,5.26 m -7.07,0 c 0,2.68 1.25,4.54 3.06,4.54 1.81,0 3.06,-1.87 3.06,-4.5 0,-2.63 -1.27,-4.48 -3.06,-4.48 -1.79,0 -3.06,1.87 -3.06,4.44"
       style="fill:#231f20"
       id="path554" /><path
       d="m 193.28,100.6 a 7.37,7.37 0 0 1 2.71,0.27 2.52,2.52 0 0 1 1.71,2.52 2.77,2.77 0 0 1 -2.2,2.75 l 2.8,4.65 h -1.07 l -2.78,-4.52 h -1.9 v 4.53 h -0.87 v -10.2 z m 0,4.91 a 5.81,5.81 0 0 0 2.2,-0.21 1.87,1.87 0 0 0 1.24,-1.91 1.8,1.8 0 0 0 -1.07,-1.79 6.22,6.22 0 0 0 -2.36,-0.23 h -0.73 v 4.15 z"
       style="fill:#231f20"
       id="path555" /><polygon
       points="202.02,101.39 202.02,110.8 201.15,110.8 201.15,100.59 202.56,100.59 205.64,109.82 208.71,100.59 210.12,100.59 210.12,110.8 209.25,110.8 209.25,101.39 206.08,110.8 205.21,110.8 "
       style="fill:#231f20"
       id="polygon555" /><path
       d="m 214.52,100.59 v 6.06 c 0,1.84 0,2.11 0.38,2.59 a 2.59,2.59 0 0 0 2.21,0.95 2.5,2.5 0 0 0 2.34,-1.15 c 0.23,-0.44 0.24,-0.7 0.26,-2.39 v -6.06 h 0.87 v 6.08 a 6.08,6.08 0 0 1 -0.2,2.39 3.19,3.19 0 0 1 -3.27,1.91 3.3,3.3 0 0 1 -3.11,-1.56 4,4 0 0 1 -0.35,-2 v -6.83 z"
       style="fill:#231f20"
       id="path556" /><polygon
       points="229.35,110.8 224.1,110.8 224.1,100.59 225,100.59 225,110.04 229.35,110.04 "
       style="fill:#231f20"
       id="polygon556" /><path
       d="m 235.83,100.52 3.54,10.28 h -0.92 l -1,-2.9 h -3.92 l -1,2.89 h -0.9 l 3.54,-10.28 z m -0.34,1.24 -1.71,5.39 h 3.41 z"
       style="fill:#231f20"
       id="path557" /><path
       d="m 254.45,105.69 c 0,3.11 -1.65,5.28 -4,5.28 -2.35,0 -4,-2.16 -4,-5.34 0,-3 1.68,-5.2 4,-5.2 2.32,0 4,2.17 4,5.26 m -7.07,0 c 0,2.68 1.25,4.54 3.06,4.54 1.81,0 3.06,-1.87 3.06,-4.5 0,-2.63 -1.27,-4.48 -3.06,-4.48 -1.79,0 -3.06,1.87 -3.06,4.44"
       style="fill:#231f20"
       id="path558" /><polygon
       points="257.62,100.59 258.59,100.59 263.73,109.53 263.73,100.59 264.54,100.59 264.54,110.8 263.53,110.8 258.45,101.89 258.45,110.8 257.62,110.8 "
       style="fill:#231f20"
       id="polygon558" /><polygon
       points="273.55,101.36 269.08,101.36 269.08,105.14 273.25,105.14 273.25,105.9 269.08,105.9 269.08,110.03 273.61,110.03 273.61,110.8 268.21,110.8 268.21,100.59 273.55,100.59 "
       style="fill:#231f20"
       id="polygon559" /><polygon
       points="286.69,101.36 284.06,101.36 284.06,110.8 283.19,110.8 283.19,101.36 280.54,101.36 280.54,100.59 286.69,100.59 "
       style="fill:#231f20"
       id="polygon560" /><polygon
       points="294.74,101.36 290.27,101.36 290.27,105.14 294.43,105.14 294.43,105.9 290.27,105.9 290.27,110.03 294.8,110.03 294.8,110.8 289.4,110.8 289.4,100.59 294.74,100.59 "
       style="fill:#231f20"
       id="polygon561" /><path
       d="m 301.12,100.52 3.54,10.28 h -0.92 l -1,-2.89 h -3.92 l -1,2.89 h -0.9 l 3.53,-10.28 z m -0.34,1.24 -1.71,5.39 h 3.38 z"
       style="fill:#231f20"
       id="path561" /><polygon
       points="308.23,101.39 308.23,110.8 307.36,110.8 307.36,100.59 308.76,100.59 311.84,109.82 314.91,100.59 316.32,100.59 316.32,110.8 315.45,110.8 315.45,101.39 312.28,110.8 311.41,110.8 "
       style="fill:#231f20"
       id="polygon562" /><g
       id="Group"
       transform="matrix(0.76,0,0,0.76,42.341,42.35)"><g
         id="g563"><path
           id="outer"
           d="M 366.78,309 A 54.78,54.78 0 1 1 312,254.23 54.74,54.74 0 0 1 366.78,309 Z M 312,257.55 A 51.45,51.45 0 1 0 363.45,309 51.31,51.31 0 0 0 312,257.55 Z"
           transform="translate(-256,-253)"
           style="fill:url(#linear-gradient)" /><path
           id="Shape"
           d="M 312,257.55 A 51.45,51.45 0 1 0 363.45,309 51.31,51.31 0 0 0 312,257.55 Z m 0,99.57 A 48.13,48.13 0 1 1 360.13,309 48.1,48.1 0 0 1 312,357.13 Z"
           transform="translate(-256,-253)"
           style="fill:url(#linear-gradient-2)" /><path
           id="Shape-2"
           data-name="Shape"
           d="M 312,363.78 A 54.78,54.78 0 1 0 257.23,309 54.74,54.74 0 0 0 312,363.78 Z M 312,253 a 56,56 0 1 1 -56,56 56.16,56.16 0 0 1 56,-56 z"
           transform="translate(-256,-253)"
           style="opacity:0.4;isolation:isolate;fill:url(#linearGradient65)" /><path
           id="Shape-3"
           data-name="Shape"
           d="M 259.85,309.17 A 52.32,52.32 0 0 1 312,256.85 v 0 a 52.21,52.21 0 0 1 52.15,52.32 v 0 a 52,52 0 0 1 -52.15,52 v 0 a 52,52 0 0 1 -52.15,-52 z m 16.28,-36 a 51,51 0 0 0 -15.05,36 v 0 A 50.8,50.8 0 0 0 276,345.05 v 0 a 51.53,51.53 0 0 0 36,14.88 v 0 a 50.08,50.08 0 0 0 35.88,-14.87 v 0 a 50.08,50.08 0 0 0 14.88,-35.88 v 0 a 51.53,51.53 0 0 0 -14.87,-36 v 0 A 50.23,50.23 0 0 0 312,258.07 v 0 a 50.23,50.23 0 0 0 -35.87,15.05 z"
           transform="translate(-256,-253)"
           style="fill:#ffffff" /><path
           id="Shape-4"
           data-name="Shape"
           d="M 312,357.3 A 48.4,48.4 0 1 1 346.13,343.12 47.92,47.92 0 0 1 312,357.3 Z m 0,-1.4 A 46.73,46.73 0 1 0 278.92,276.1 45.5,45.5 0 0 0 265.1,309 46.9,46.9 0 0 0 312,355.9 Z"
           transform="translate(-256,-253)"
           style="opacity:0.4;isolation:isolate;fill:url(#linear-gradient-4)" /><path
           id="Shape-5"
           data-name="Shape"
           d="m 354.53,331.75 -34.65,-27.47 -7.87,-45 a 3,3 0 0 0 -1.58,1.4 l -5.6,43.75 -34.83,26.79 c 0,0 -0.7,0.88 -1.05,1.4 a 3.41,3.41 0 0 0 -0.18,1.4 v 0 l 43.05,-17.68 43,17.68 v 0 a 2.5,2.5 0 0 0 -0.29,-2.27 z"
           transform="translate(-256,-253)"
           style="fill:#ffffff" /><path
           id="Shape-6"
           data-name="Shape"
           d="m 312.35,310.4 -0.35,8 39.55,15.93 a 3.15,3.15 0 0 0 3.5,-0.35 l -42.18,-23.8 a 0.34,0.34 0 0 0 -0.52,0.22 z"
           transform="translate(-256,-253)"
           style="fill:#565f64" /><path
           id="Shape-7"
           data-name="Shape"
           d="m 312.35,310.4 a 41.8,41.8 0 0 0 4.9,6.82 40.42,40.42 0 0 0 8.57,6.83 l 25.73,10.32 a 3.15,3.15 0 0 0 3.5,-0.35 l -42.18,-23.8 a 0.34,0.34 0 0 0 -0.52,0.18 z"
           transform="translate(-256,-253)"
           style="fill:url(#linear-gradient-5)" /><path
           id="Shape-8"
           data-name="Shape"
           d="m 354.88,332.45 c 0,-0.17 -0.18,-0.35 -0.35,-0.7 l -36.05,-26.42 -4.9,3.15 c 0,0 0.35,0.18 0.52,0 a 4.38,4.38 0 0 1 2.63,0 c 0.88,0.35 38.15,24.15 38.15,24.15 z"
           transform="translate(-256,-253)"
           style="fill:#a4aaae;fill-opacity:0.6" /><path
           id="Shape-9"
           data-name="Shape"
           d="m 353.65,330.88 -33.6,-26.6 v 0 l -1.58,1 36.05,26.6 a 4.64,4.64 0 0 0 -0.87,-1 z"
           transform="translate(-256,-253)"
           style="fill:#333e46" /><path
           id="Shape-10"
           data-name="Shape"
           d="m 312.88,307.78 -0.17,0.17 c 0,0 0,0.35 0.35,0.17 0.17,-0.17 5.25,-2.8 7,-3.85 l -6.13,-42 a 3,3 0 0 0 -2.1,-2.8 l 0.7,48.65 z"
           transform="translate(-256,-253)"
           style="fill:#565f64" /><path
           id="Shape-11"
           data-name="Shape"
           d="m 309.9,262.27 v 2.28 l -3.9,38.67 a 1.59,1.59 0 0 0 0.7,1.4 l 2.28,1.75 1.57,-42.7 0.18,-3.33 a 2.85,2.85 0 0 0 -0.83,1.93 z"
           transform="translate(-256,-253)"
           style="fill:#a4aaae;fill-opacity:0.6" /><path
           id="Shape-12"
           data-name="Shape"
           d="m 307.8,307.08 -2.1,-1.75 -35.53,25.73 c 0,0 -1.05,0.7 -1.23,1.4 v 0 l 1.23,-0.7 v 0 l 37.28,-23.45 c 0.7,-0.31 0.88,-0.71 0.35,-1.23 z"
           transform="translate(-256,-253)"
           style="fill:#a4aaae;fill-opacity:0.6" /><path
           id="Shape-13"
           data-name="Shape"
           d="m 311.47,310.4 c 0,-0.18 -0.17,-0.35 -0.35,-0.18 l -42.35,24 a 3.52,3.52 0 0 0 3.5,0.35 l 39.55,-15.93 z"
           transform="translate(-256,-253)"
           style="fill:#565f64" /><path
           id="Shape-14"
           data-name="Shape"
           d="m 312.7,308 0.17,-0.17 -0.17,0.17 v 0 a 0.17,0.17 0 0 0 0.17,0.17 H 313 c 0.17,-0.17 5.25,-2.8 7,-3.85 l -0.7,-5.08 v 0 l -5.42,-36.93 a 2.14,2.14 0 0 0 -0.52,-1.57 c 0,0 2.64,35.26 2.64,39.16 a 11.42,11.42 0 0 1 -3.3,8.1 z"
           transform="translate(-256,-253)"
           style="fill:url(#linear-gradient-6)" /><path
           id="Shape-15"
           data-name="Shape"
           d="m 311.47,310.4 c 0,-0.18 -0.17,-0.35 -0.35,-0.18 l -42.35,24 a 3.52,3.52 0 0 0 3.5,0.35 l 39.55,-15.93 z"
           transform="translate(-256,-253)"
           style="fill:url(#linear-gradient-7);fill-opacity:0.8" /><path
           id="Shape-16"
           data-name="Shape"
           d="m 272.27,334.38 39.55,-15.93 -0.35,-7.7 a 10,10 0 0 1 -5.25,6.13 v 0 c -2.45,1.4 -25.9,12.95 -34.3,17 a 11.05,11.05 0 0 1 -1.57,0.7 1.92,1.92 0 0 0 1.92,-0.2 z"
           transform="translate(-256,-253)"
           style="opacity:0.8;isolation:isolate;fill:url(#linear-gradient-8)" /><path
           id="Shape-17"
           data-name="Shape"
           d="m 312.88,307.78 -0.17,0.17 c 0,0 0,0.35 0.35,0.17 0.17,-0.17 5.25,-2.8 7,-3.85 l -6.13,-42 a 3,3 0 0 0 -2.1,-2.8 l 0.7,48.65 z"
           transform="translate(-256,-253)"
           style="fill:url(#linear-gradient-9)" /><path
           id="Shape-18"
           data-name="Shape"
           d="m 312.88,307.78 -0.17,0.17 c 0,0 0,0.35 0.35,0.17 0.17,-0.17 5.25,-2.8 7,-3.85 l -6.13,-42 a 3,3 0 0 0 -2.1,-2.8 l 0.7,48.65 z"
           transform="translate(-256,-253)"
           style="fill:url(#linear-gradient-10)" /><path
           id="Shape-19"
           data-name="Shape"
           d="M 264.93,330.7 C 263.7,327.9 256.7,314.25 264.4,288 h -3 c -1.58,5.25 -2.8,8.4 -3.5,13.13 0,0 -0.35,1.75 -0.53,3.67 a 39.81,39.81 0 0 0 -0.17,4.2 c 0,10.5 2.62,16.63 2.62,16.63 a 51.09,51.09 0 0 0 14.38,22.57 c 5.77,5.08 14.7,8.93 22,10.33 -1.2,-0.18 -22.2,-9.1 -31.27,-27.83 z"
           transform="translate(-256,-253)"
           style="fill:url(#linear-gradient-11)" /><path
           id="Shape-20"
           data-name="Shape"
           d="m 312.7,310 h -1.58 c 0.17,0 0.35,0 0.35,0.17 l 0.35,8.05 H 312 l 0.35,-8.05 c 0,-0.17 0.18,-0.35 0.35,-0.17 z"
           transform="translate(-256,-253)"
           style="fill:url(#linear-gradient-12)" /><path
           id="Shape-21"
           data-name="Shape"
           d="m 329.5,257 c 18.38,7 35.7,26.25 35.7,50.57 A 53.1,53.1 0 0 1 312,361 v 2.8 c 29.75,0 54.78,-24.5 54.78,-54.78 A 54.8,54.8 0 0 0 329.5,257 Z"
           transform="translate(-256,-253)"
           style="fill:url(#linearGradient66)" /><path
           id="Shape-22"
           data-name="Shape"
           d="M 312.53,254.23 Z"
           transform="translate(-256,-253)"
           style="fill:url(#linear-gradient-14)" /><path
           id="Shape-23"
           data-name="Shape"
           d="M 358.9,288.35 C 346.65,260.18 319,258.6 317.42,258.43 h -0.17 c 21.18,3.85 34.65,17.68 39.38,32.2 v 0.17 a 54.94,54.94 0 0 1 3.32,18 47.85,47.85 0 0 1 -3.85,19.25 c -0.17,0.88 -0.35,1.93 -0.53,1.93 h 2.8 c 8.41,-15.73 4.73,-31.65 0.53,-41.63 z"
           transform="translate(-256,-253)"
           style="fill:url(#linear-gradient-15)" /><path
           id="Shape-24"
           data-name="Shape"
           d="M 259.85,309.17 A 52.32,52.32 0 0 1 312,256.85 v 0 a 52.21,52.21 0 0 1 52.15,52.32 v 0 a 52,52 0 0 1 -52.15,52 v 0 a 52,52 0 0 1 -52.15,-52 z m 16.28,-36 a 51,51 0 0 0 -15.05,36 v 0 A 50.8,50.8 0 0 0 276,345.05 v 0 a 51.53,51.53 0 0 0 36,14.88 v 0 a 50.08,50.08 0 0 0 35.88,-14.87 v 0 a 50.08,50.08 0 0 0 14.88,-35.88 v 0 a 51.53,51.53 0 0 0 -14.87,-36 v 0 A 50.23,50.23 0 0 0 312,258.07 v 0 a 50.23,50.23 0 0 0 -35.87,15.05 z"
           transform="translate(-256,-253)"
           style="fill:#fbfbfb" /><path
           id="Shape-25"
           data-name="Shape"
           d="m 269.82,331.4 v 0 l 35.7,-25.73 a 36.21,36.21 0 0 0 5.42,2.45 c 0.35,0.17 0.35,-0.17 0.35,-0.17 l -4.37,-3.67 a 1.59,1.59 0 0 1 -0.7,-1.4 l 4.2,-42.18 c -0.17,0.18 -0.17,0.53 -0.35,0.7 a 1.58,1.58 0 0 0 -0.17,0.88 l -6.12,42.18 -33.6,26.42 c -0.18,0.17 -0.36,0.34 -0.36,0.52 z"
           transform="translate(-256,-253)"
           style="fill:#333f47" /></g></g></g><metadata
     id="metadata564"><rdf:RDF><cc:Work
         rdf:about=""><dc:title>Mercedes-AMG Petronas F1 logo - Brandlogos.net</dc:title></cc:Work></rdf:RDF></metadata></svg>
