<?xml version="1.0" encoding="UTF-8" standalone="no"?>
<svg
   id="Layer_1"
   viewBox="0 0 500.00001 499.99999"
   version="1.1"
   sodipodi:docname="rb.svg"
   width="500"
   height="500"
   inkscape:version="1.4.3 (0d15f75, 2025-12-25)"
   xmlns:inkscape="http://www.inkscape.org/namespaces/inkscape"
   xmlns:sodipodi="http://sodipodi.sourceforge.net/DTD/sodipodi-0.dtd"
   xmlns="http://www.w3.org/2000/svg"
   xmlns:svg="http://www.w3.org/2000/svg">
  <sodipodi:namedview
     id="namedview1"
     pagecolor="#ffffff"
     bordercolor="#000000"
     borderopacity="0.25"
     inkscape:showpageshadow="2"
     inkscape:pageopacity="0.0"
     inkscape:pagecheckerboard="0"
     inkscape:deskcolor="#d1d1d1"
     inkscape:zoom="0.53370786"
     inkscape:cx="-256.69474"
     inkscape:cy="256.69474"
     inkscape:window-width="1440"
     inkscape:window-height="890"
     inkscape:window-x="-6"
     inkscape:window-y="-6"
     inkscape:window-maximized="1"
     inkscape:current-layer="Layer_1" />
  <defs
     id="defs1">
    <style
       id="style1">.cls-1{fill:#8b8f91;}</style>
  </defs>
  <path
     class="cls-1"
     d="m 23.339635,425.66599 c 0.851149,0.71387 1.976861,1.53756 3.816439,1.53756 0.98843,0 2.114142,-0.27456 3.102572,-0.85115 5.793299,-2.82801 11.696424,-13.536 11.833706,-14.11258 0.576584,-1.70229 -1.400276,-3.23986 -3.816439,-5.21672 l -0.274564,-0.27456 c -1.125712,-0.85115 -3.102572,-0.71387 -4.365566,0.13728 -0.988431,0.57658 -1.839579,1.26299 -2.828009,1.83958 -2.96529,1.97686 -6.067863,3.95372 -9.307717,6.78173 -1.125712,0.98843 -1.839578,2.82801 -1.97686,4.22828 -0.137282,1.12571 0.137282,2.11414 0.576584,2.69073 0.411846,0.27456 2.690727,2.82801 3.239854,3.23985 M 438.45284,344.3127 c -0.71387,-3.23985 -3.51442,-8.59384 -6.06787,-11.28458 -2.52599,-2.69072 -3.37713,-4.091 -4.22828,-5.49127 -0.85115,-1.40028 -0.13728,-0.98843 -3.23986,-4.80487 -2.69072,-3.23986 -5.07943,-2.96528 -5.7933,-2.96528 0,0 -2.828,-0.13729 -4.94215,2.96528 -0.85114,1.12572 -2.828,5.93059 -2.828,5.93059 -0.98843,2.3887 -1.83958,3.10257 -2.69073,6.61699 -0.85115,3.37713 -0.57659,4.80486 -0.13728,6.61698 0.27456,1.83959 1.26299,1.97686 1.97686,1.53756 0.71386,-0.41185 0.71386,-0.85115 2.96529,-3.81644 1.97686,-2.52599 4.50285,-4.091 5.49128,-4.091 3.95372,-0.41185 10.70799,8.45656 12.13572,11.55914 1.263,2.82801 1.53756,9.58229 1.53756,9.58229 0,0.27456 -0.13728,2.82801 1.97686,2.82801 1.83958,0 2.52599,-1.40028 2.82801,-1.97686 0.27456,-0.57659 0.98843,-1.83958 1.40027,-4.36557 0.27457,-2.82801 0.41185,-5.62856 -0.41184,-8.89587 m -19.41167,45.30305 c -1.97686,-0.98843 -4.091,-0.27457 -4.091,-0.27457 -6.47971,1.7023 -9.71957,8.45657 -10.15887,9.17044 0,0 -0.98843,1.83958 -0.41184,2.82801 0.57658,0.85114 1.53755,1.26299 4.36556,1.40027 2.82801,0.13727 8.04472,-0.57658 9.445,-1.97686 1.40028,-1.26299 1.83958,-4.50286 1.83958,-4.50286 0,-0.57657 0.98843,-5.62856 -0.98843,-6.61698 M 349.49412,259.96667 c -2.11414,-4.22829 -4.22828,-6.91901 -6.34242,-7.90745 -0.57659,-0.27456 -1.263,-0.41184 -1.97686,-0.41184 -1.40028,0 -2.82801,0.57658 -3.23986,1.40027 -1.83958,2.96529 -0.13728,5.07944 1.7023,7.60542 0.85115,1.263 1.83958,2.526 2.69072,4.22829 2.52599,5.07943 3.81644,10.57071 5.93059,21.58072 0.13728,0.98843 0.85114,1.12572 0.98843,1.12572 0.57658,0 0.98843,-0.57659 1.26299,-1.263 0.13728,-0.13728 4.36557,-15.51285 -0.98843,-26.35813 M 499.9277,411.41613 c -0.13728,0.98844 -0.85115,1.70229 -1.97686,1.83958 -1.263,0.27457 -2.52599,0.41185 -3.95372,0.41185 -10.29615,0 -21.14142,-8.18201 -25.36971,-15.78743 -5.62856,-10.29614 -10.29615,-16.36401 -18.61543,-19.3293 0.85114,1.70229 1.83957,3.23986 2.96529,4.80487 0.71386,0.85115 1.26299,1.83958 1.83958,2.69072 2.69072,4.50286 6.4797,11.14729 8.45656,17.76428 1.83958,6.20515 8.45657,10.84528 14.52444,14.66172 l 7.60542,4.091 c 1.53755,0.71387 2.3887,1.83958 2.25142,2.82801 -0.13728,0.85116 -0.41185,1.53756 -1.83958,1.97686 l -1.40027,0.13728 h -1.53756 c -13.67329,0 -24.6833,-4.64013 -33.55171,-14.24987 -2.69073,-2.96529 -5.354,-4.50285 -8.04473,-4.50285 -6.06786,5.354 -12.273,10.708 -20.59229,11.28458 -10.29615,-1.70229 -18.89,-1.12571 -25.36971,1.7023 -1.12571,0.41184 -2.11414,0.71386 -3.23985,1.12571 -5.93058,2.11414 -11.99845,4.36557 -18.75272,4.64013 -3.67915,0 -8.31929,-1.83958 -9.58228,-5.49128 -0.41185,-1.53756 -0.27456,-2.96529 -0.85115,-4.80487 -0.85115,-3.23985 -1.53756,-6.61699 0.27457,-9.71956 l 5.07943,-7.60542 c 0,-0.71387 -0.57659,-1.26299 -1.26299,-1.40028 -0.71387,-0.13728 -1.53756,0.27457 -2.38871,0.57659 -0.85115,0.27456 -1.53756,0.71386 -2.25143,0.71386 -2.25142,-0.13728 -2.11414,-2.25142 -2.11414,-2.25142 0.27457,-5.93058 5.07944,-10.57071 9.58228,-14.6617 1.263,-1.12572 2.52599,-2.25144 3.67916,-3.51442 1.26299,-6.47971 3.81644,-11.83371 7.90744,-16.50129 -0.13728,-0.41185 -0.41184,-0.85115 -0.98843,-1.12572 -1.53756,0.27457 -3.10257,0.57659 -4.64013,0.85115 -4.94215,0.98843 -10.02158,1.83958 -15.37558,1.83958 -7.05629,3.67916 -16.77585,4.80487 -19.46658,2.96529 0,0 -1.12571,-0.85115 -1.263,-1.83958 -0.13728,-0.98843 0.13729,-2.11414 0.41185,-2.69072 6.91901,-9.58228 9.58228,-21.71801 7.60542,-33.27715 -0.13728,-0.98843 -0.57658,-1.263 -1.12571,-1.263 -0.85115,0 -1.12571,0.98843 -1.263,1.53756 -2.11414,12.13573 -5.49127,21.00414 -11.01001,29.46071 -1.83958,2.82801 -6.91901,3.95372 -11.8337,4.94215 -2.11415,0.41185 -3.95372,0.71387 -6.06787,1.53756 -1.12571,0.41185 -2.69072,1.53756 -2.69072,3.23985 -0.13728,3.51442 1.70229,6.617 3.51442,9.445 l 0.27456,0.27457 c 0.41185,0.85115 12.13572,20.01571 12.54757,23.96943 0.41185,3.37713 -1.12571,13.81056 -2.52599,18.17613 -0.41184,1.53756 0.27457,1.7023 0.41185,1.7023 0.27456,0 0.71386,-0.1373 1.26299,-0.5766 1.97686,-1.40026 8.89587,-11.99844 9.445,-15.23829 0.57659,-3.23985 -0.41184,-5.35399 -1.40027,-7.46813 l -13.81057,-27.34657 0.13728,-0.27457 c 0.71387,-1.40027 2.52599,-2.25142 5.07943,-2.3887 h 0.27457 c 2.25142,0 4.22828,0.71386 6.06786,1.53756 0.85115,0.27456 1.83958,0.71386 2.69073,0.98843 h 0.27456 l 0.13728,0.27456 c 3.10258,8.31929 4.50285,11.55914 12.13573,23.83215 2.52599,4.091 2.52599,9.30772 0,14.52443 -2.82801,5.93058 -6.20515,11.55914 -10.02158,17.05042 -3.10258,3.23986 -7.33086,3.51441 -11.42186,3.81644 -0.85115,0 -1.83958,0.13727 -2.69073,0.27456 h -3.95372 c -11.99844,6.34242 -24.54602,10.57071 -37.50543,14.66172 -1.83958,0.57657 -3.67916,0.85115 -5.62856,0.85115 -4.50285,0 -8.73114,-1.53756 -11.69643,-4.09101 -3.23985,-2.52599 -5.21671,-6.06786 -7.05629,-9.445 -0.71387,-1.40027 -1.53756,-2.828 -2.38871,-4.091 -0.98843,-1.26299 -2.69072,-1.83958 -5.07943,-1.83958 -0.85115,0 -1.70229,0 -2.3887,0.13728 -0.71387,0 -1.40028,0.13729 -2.11415,0.13729 -1.12571,0 -2.69072,-0.13729 -3.37713,-1.263 l -1.263,-2.11414 c -2.82801,-4.80487 -5.62856,-9.445 -8.45657,-14.38715 -0.71386,-1.12572 -0.71386,-2.52599 -0.27456,-3.51442 0.41185,-0.98843 1.26299,-1.53756 2.38871,-1.83958 5.35399,-1.12572 10.02158,-2.11414 14.93627,-2.52598 5.07944,-0.41185 8.89588,0.85114 11.83371,4.22828 2.25142,2.52598 3.95372,5.49128 5.62856,8.31929 3.10257,5.21671 2.52599,6.78173 7.46814,11.28456 0.13728,0.1373 2.82801,2.11415 5.93058,2.38872 4.64013,0.27456 12.54757,-2.82802 17.48972,-5.21671 3.10257,-1.83958 7.33086,-4.94216 7.33086,-9.30772 -0.57659,-9.58229 -7.7427,-16.50129 -13.67329,-20.72958 -9.30771,-4.80487 -16.77585,-10.70799 -21.58072,-16.77585 -2.25142,-3.10258 -3.37714,-6.91901 -4.36557,-10.43343 -0.27456,-0.85115 -0.41184,-1.7023 -0.71386,-2.52599 -0.13728,-0.57658 -0.71387,-0.71387 -1.12571,-0.71387 -0.41185,0 -0.98843,0.13729 -1.263,0.41185 -2.3887,2.11414 -0.98843,6.47971 0,9.445 0.13728,0.41184 0.27457,0.85115 0.41185,1.26299 l 0.13728,0.41185 c 0.71387,2.25142 1.12571,3.95372 -0.27456,5.21671 -2.11415,1.7023 -4.94216,2.52599 -8.89588,2.52599 -1.70229,0 -3.37713,-0.13728 -5.07943,-0.27456 -0.98843,-0.13728 -1.83958,-0.13728 -2.69072,-0.13728 -4.80487,-0.27457 -9.445,-1.12572 -13.81057,-2.11415 -5.07943,-0.98843 -10.43343,-2.11414 -15.92471,-2.11414 -1.26299,0 -2.3887,0 -3.51442,0.13728 -2.828,0.13728 -6.06786,0.71387 -9.445,1.12571 -4.36556,0.71387 -9.03315,1.40028 -13.12415,1.40028 -6.91901,0 -11.28458,-2.11414 -13.26144,-6.47971 -4.36557,-11.01001 -2.11414,-24.10671 -0.27456,-33.68899 0,-0.98843 -1.263,-1.40028 -1.83958,-1.53756 -0.27456,-0.13728 -0.41185,-0.13728 -0.57659,-0.13728 -0.57658,0 -1.12571,0.27456 -1.40027,0.98843 -1.263,4.64013 -1.97686,9.58228 -2.69073,14.52443 -0.85115,6.06786 -1.83958,12.41029 -3.81644,18.34087 -2.96529,9.03315 -10.43343,20.45501 -20.59229,25.53445 -7.90744,4.091 -16.91314,6.20514 -29.46071,7.05629 -16.91314,0.27456 -37.779996,2.82801 -50.053004,20.31773 -0.851148,1.53756 -0.98843,1.97686 -1.262994,3.23985 -0.137282,0.57659 -0.137282,1.12572 0.137282,1.40028 0.411846,0.57658 1.262994,0.41185 1.839578,-0.13728 11.559142,-12.95943 27.346568,-19.60388 46.950428,-19.60388 h 3.23986 c 15.78742,0 35.52857,-2.11414 47.6643,-18.61543 2.96529,-3.37714 7.46813,-10.84528 7.46813,-10.84528 l 0.27457,-0.41184 6.91901,5.21671 -0.13728,0.27457 c 0,0.13728 -2.96529,7.60542 -4.80487,11.01001 -1.83958,3.67917 -6.91901,12.68485 -12.68485,15.92471 -1.40028,0.71386 -3.10258,1.70229 -4.94216,2.69072 -3.37713,1.7023 -7.46813,3.95372 -11.55914,6.20515 -3.37713,1.97686 -7.60542,2.96529 -11.99844,2.96529 -2.52599,0 -5.07943,-0.27456 -7.60542,-0.98843 -4.64013,-0.85115 -10.57071,-1.97686 -16.06199,-1.97686 -4.50285,0 -8.04472,0.71387 -11.1473,2.11415 -2.388702,1.53755 -4.804865,3.67916 -7.056289,5.79329 -1.400276,1.40029 -2.96529,2.69073 -4.365566,3.95372 -3.377137,2.69073 -10.43343,7.33086 -17.764286,6.91901 -1.537558,-0.13727 -3.102573,-0.57657 -4.502849,-0.85115 -1.702296,-0.41184 -3.377136,-0.85114 -4.94215,-0.85114 -1.839579,0 -3.102573,0.57658 -4.228285,1.83957 -1.97686,1.83958 -3.377136,4.22829 -4.64013,6.61699 -2.114142,3.51442 -4.228285,7.19358 -8.182005,9.03316 -2.251424,1.26299 -4.804869,1.83958 -7.742703,1.83958 -2.937834,0 -6.342427,-0.71387 -9.307717,-1.40028 -2.388706,-0.57658 -4.502848,-0.98843 -6.781729,-1.12571 h -0.576584 l 0.137282,-0.85115 c 0.137282,-0.98843 0.411846,-1.83958 0.576584,-2.82801 1.262994,-6.20514 2.690726,-12.54757 6.781729,-17.35244 l 0.137282,-0.13728 h 0.137282 c 2.690726,-0.27457 5.491278,-0.85115 7.742703,-2.82801 2.828008,-2.52599 5.079432,-5.7933 7.193574,-9.30772 l 0.137282,-0.13728 c 1.262994,-0.85115 2.690727,-1.53756 3.953721,-2.3887 5.353996,-3.10258 10.845275,-6.34243 14.249868,-11.69643 1.125712,-2.52599 2.388706,-5.49128 3.514418,-8.31929 1.839578,-4.80486 3.514418,-8.89587 4.942151,-10.43342 0.851148,-0.85115 1.702296,-1.263 2.96529,-1.40028 0.576584,0 1.400276,-0.13728 2.690726,-0.13728 2.388707,-0.13728 5.793299,-0.27457 8.895872,-0.71387 1.97686,-0.27456 12.410289,-3.95372 17.626999,-8.73113 1.40028,-1.40028 2.11415,-3.81644 1.40028,-5.93058 -0.13728,-0.71387 -0.71387,-1.97686 -1.40028,-3.51442 -1.53755,-3.81644 -3.953716,-9.71956 -4.942146,-14.52443 -0.411846,-2.11414 -0.713866,-7.33086 -0.851148,-12.68486 -0.137282,-3.37713 -0.274564,-6.78172 -0.576584,-9.85684 -0.137282,-1.53756 -0.713867,-1.53756 -0.98843,-1.53756 -0.137282,0 -0.411846,0 -0.713867,0.13728 -6.781729,1.7023 -13.810565,3.51442 -21.278704,3.51442 -2.388706,0 -4.502848,-0.13728 -6.781729,-0.57658 -12.547571,-1.53756 -27.648587,-9.85685 -33.139866,-24.54602 -4.228284,-11.14729 -3.816438,-28.33499 5.353997,-38.35658 6.919011,-8.45657 15.238298,-15.37558 23.420303,-22.12985 1.537558,-1.26299 3.239854,-2.69073 4.804868,-3.95372 1.702297,-1.40028 2.388707,-2.38871 2.251425,-3.81644 -0.274564,-2.25142 -2.114143,-4.091 -3.953721,-4.64013 -1.97686,-0.57658 -4.228284,-0.57658 -6.067863,-0.57658 h -3.95372 c -2.965291,0 -6.067863,-0.13729 -9.170435,-1.40028 -0.411846,-0.13728 -0.851149,-0.27456 -1.262994,-0.41185 -9.445,-4.36556 -18.03885,-14.93627 -19.329301,-25.23242 -0.274564,-4.94215 0.576584,-9.30772 3.102573,-13.26144 6.781728,3.67916 12.684853,9.58228 20.455012,11.69642 2.96529,0.71387 5.930581,1.12572 9.033153,1.83958 0.411846,0.13729 1.262994,0.13729 1.839578,0.27457 l 0.851149,0.13728 c 4.804868,1.12571 17.764286,4.36557 23.557584,10.70799 5.793299,6.34243 6.342427,18.03885 1.262995,24.95786 -4.365567,5.93058 -10.845276,11.42186 -17.627005,17.05042 -4.228284,3.51442 -8.456568,7.19358 -12.273007,11.01002 -8.044723,8.04472 -11.010013,18.34087 -8.182005,28.47228 2.96529,9.03315 11.998444,15.78742 21.855289,16.50129 h 0.98843 c 13.261437,0 23.557585,-6.06787 34.402859,-12.41029 0.98843,-0.57659 2.11414,-1.263 2.96529,-1.83958 1.83958,-1.12571 5.62856,-4.091 8.59385,-6.34243 8.73113,-6.91901 19.16456,-14.93627 28.91158,-17.21516 6.47971,-1.53755 7.60542,-1.53755 14.38715,-2.25142 4.80487,-0.41184 9.30772,-0.98843 13.39872,-2.38871 9.03316,-3.10257 16.91314,-9.85684 24.6833,-16.91313 9.8843,-8.04473 19.46658,-11.42186 32.8653,-11.42186 5.7933,0 6.61699,-0.71387 13.67328,-7.33086 1.53756,-1.40028 3.37714,-3.10257 5.62857,-5.21671 7.60542,-7.0563 17.35244,-10.02159 26.79743,-12.95942 4.80487,-1.53756 9.71957,-2.96529 14.38715,-5.07943 5.93059,-1.97686 11.42186,-5.49128 16.63858,-8.89588 3.10257,-1.97686 6.34242,-4.091 9.58228,-5.79329 4.80487,-2.11415 10.57071,-3.23986 16.50129,-3.23986 4.64013,0 9.17044,0.71387 12.95942,2.11414 5.93058,2.11415 8.45657,3.23986 16.63857,8.89588 l 41.32187,34.26557 0.57659,0.57659 c 0.71386,0.71386 1.70229,1.53756 2.3887,2.3887 1.263,1.263 24.244,28.06044 33.85374,43.71058 3.10257,5.21672 5.62856,13.26144 5.93058,17.05042 1.83957,24.10671 9.17043,45.82472 15.9247,64.16559 0.27457,0.71387 1.7023,1.97686 3.23986,3.37714 1.83958,1.53755 3.81644,3.37713 5.07943,5.21671 1.83958,2.52599 3.51442,5.354 5.07943,8.04472 4.09101,6.91901 8.45657,14.11259 15.78743,18.34087 0,0 3.37714,1.7023 6.20514,3.10258 0.98843,0.71386 1.12572,1.40027 0.98843,2.25142 M 12.055058,425.94056 c -0.137282,0 -0.411846,0 -0.576584,0.13728 -3.1025723,1.26299 -6.6169905,5.21671 -6.7817289,7.60542 -0.7138662,10.29615 -1.1257121,11.42186 -3.81643853,14.52443 -0.85114817,0.85115 -1.26299406,2.96529 -0.41184589,3.81644 0.85114812,0.85115 10.84527432,3.95372 11.99844332,3.95372 h 0.274564 c 0.851148,-0.27456 1.702296,-2.52599 3.679156,-9.71956 1.125713,-3.81644 2.388707,-8.18201 3.816439,-12.13573 0.137282,-0.27456 0.137282,-0.57658 -0.851148,-1.97686 -1.125712,-1.7023 -5.079433,-6.20514 -7.330857,-6.20514 M 278.5468,414.24414 c 1.53756,3.37714 2.96529,6.47971 4.50285,6.91901 0.71387,0.13729 1.40028,0.27457 2.25143,0.27457 3.51442,0 8.59385,-1.97686 12.13572,-4.80487 1.97686,-1.7023 1.40028,-2.82801 0.41185,-4.36557 -0.27457,-0.41184 -0.57659,-0.98843 -0.98843,-1.70229 -0.98843,-1.83958 -1.53756,-3.81644 -1.97686,-5.49128 -0.98843,-3.51442 -1.83958,-6.47972 -5.49128,-5.93059 -5.354,0.71386 -10.43343,1.12572 -16.22673,1.12572 -0.13728,0 -1.83958,0 -2.3887,1.26299 -0.71387,1.40028 0.85114,2.82801 2.3887,4.22829 0.85115,0.85115 1.83958,1.70229 2.38871,2.52599 0.85115,1.53755 1.97686,3.81643 2.96529,5.93058 m 31.05318,-228.27245 0.57658,-0.27457 0.71387,-0.27456 c 6.91901,-2.96529 14.93628,-4.50285 23.25556,-4.50285 6.06787,0 12.13573,0.98843 17.35244,2.69073 V 88.803517 h 36.10516 c 15.78743,0 28.63702,14.524433 28.63702,30.311853 0,15.78743 -12.82214,28.63702 -28.63702,28.63702 h -18.75272 v 43.84786 c 1.40028,0.98843 2.96529,1.97686 4.80487,3.23985 l 0.57659,0.41185 1.40027,1.12571 h 27.78587 c 19.16456,0 33.689,15.51286 33.689,34.67742 -0.27457,6.61699 -1.83958,12.54757 -4.50285,17.62701 8.04472,9.71956 18.03885,22.70643 23.96943,32.28871 l 0.27456,0.41185 c 2.52599,4.36557 4.94215,10.15886 6.47971,15.37558 19.87843,-14.24987 32.70056,-36.517 32.70056,-61.47486 0,-30.88845 -10.84527,-52.74373 -47.22499,-69.65687 14.79899,-13.81057 23.83215,-32.28871 23.83215,-52.60645 0,-18.478147 -7.0563,-35.391285 -19.46658,-48.652723 C 440.31987,50.11746 417.47615,42.237475 386.58771,42.237475 H 293.81256 V 195.49906 c 1.53756,-0.98843 3.23985,-1.97686 4.94215,-3.10257 3.37714,-2.11414 6.91901,-4.50285 10.84527,-6.47971 M 96.37364,289.86667 c -1.125712,0.71388 -2.251424,1.26301 -3.377137,1.97687 v -30.31185 c 2.388707,-2.38872 4.502849,-4.94216 6.479709,-7.46815 10.021588,-13.39872 8.895868,-34.26558 -2.251424,-46.53859 -1.262994,-1.40027 -2.690727,-2.69072 -4.228285,-3.95372 V 42.264931 h 98.843017 c 44.97357,0 81.49057,35.803136 81.49057,79.953019 0,37.64271 -26.35814,69.08028 -62.05145,77.70158 l 19.87843,28.19772 c -0.41184,0.41184 -0.85115,0.71386 -1.12571,1.12571 -16.77586,0.13728 -30.03729,4.94215 -42.72215,15.2383 l -0.41184,0.27457 -0.27457,0.27457 c -1.70229,1.53755 -3.23985,2.96529 -4.94215,4.36556 l -16.22673,-25.09515 v -64.71472 h 13.39872 c 21.27871,0 38.49387,-15.78742 38.49387,-35.39128 0,-19.60387 -16.06199,-35.391293 -37.36815,-35.391293 H 150.65493 V 260.81781 c -2.52599,0.41185 -4.94215,0.85115 -8.89587,1.83958 -13.536,3.10258 -25.80901,12.68486 -35.66586,20.31774 -5.35399,4.22828 -6.919008,5.21671 -7.330854,5.49127 -0.851148,0.41184 -1.702296,0.98843 -2.388706,1.40027"
     id="path1"
     style="stroke-width:2.74564" />
</svg>
