<?xml version="1.0" encoding="UTF-8" standalone="no"?>
<svg
   id="Layer_1"
   data-name="Layer 1"
   width="500"
   height="500"
   viewBox="0 0 500.00002 500.00001"
   version="1.1"
   sodipodi:docname="redbull.svg"
   inkscape:version="1.4.3 (0d15f75, 2025-12-25)"
   xmlns:inkscape="http://www.inkscape.org/namespaces/inkscape"
   xmlns:sodipodi="http://sodipodi.sourceforge.net/DTD/sodipodi-0.dtd"
   xmlns:xlink="http://www.w3.org/1999/xlink"
   xmlns="http://www.w3.org/2000/svg"
   xmlns:svg="http://www.w3.org/2000/svg"
   xmlns:rdf="http://www.w3.org/1999/02/22-rdf-syntax-ns#"
   xmlns:cc="http://creativecommons.org/ns#"
   xmlns:dc="http://purl.org/dc/elements/1.1/">
  <sodipodi:namedview
     id="namedview17"
     pagecolor="#ffffff"
     bordercolor="#000000"
     borderopacity="0.25"
     inkscape:showpageshadow="2"
     inkscape:pageopacity="0.0"
     inkscape:pagecheckerboard="0"
     inkscape:deskcolor="#d1d1d1"
     inkscape:zoom="0.5379534"
     inkscape:cx="-219.34986"
     inkscape:cy="314.15361"
     inkscape:window-width="1440"
     inkscape:window-height="890"
     inkscape:window-x="-6"
     inkscape:window-y="-6"
     inkscape:window-maximized="1"
     inkscape:current-layer="Layer_1" />
  <defs
     id="defs9">
    <linearGradient
       id="linear-gradient"
       x1="384.01001"
       y1="334.37"
       x2="384.01001"
       y2="312.04999"
       gradientTransform="matrix(1,0,0,-1,0,770)"
       gradientUnits="userSpaceOnUse">
      <stop
         offset="0"
         stop-color="#8c8c8b"
         id="stop1" />
      <stop
         offset="0.5"
         stop-color="#9b9b9a"
         id="stop2" />
      <stop
         offset="0.66"
         stop-color="#868686"
         id="stop3" />
      <stop
         offset="1"
         stop-color="#4d4d4c"
         id="stop4" />
    </linearGradient>
    <linearGradient
       id="linear-gradient-2"
       x1="239.03999"
       y1="319.28"
       x2="567.96002"
       y2="319.28"
       gradientTransform="matrix(1.5230705,0,0,-1.5230705,-363.26826,667.95479)"
       gradientUnits="userSpaceOnUse">
      <stop
         offset="0"
         stop-color="#b2b2b2"
         id="stop5" />
      <stop
         offset="0.5"
         stop-color="#575756"
         id="stop6" />
      <stop
         offset="0.64"
         stop-color="#6e6e6d"
         id="stop7" />
      <stop
         offset="0.93"
         stop-color="#a5a5a4"
         id="stop8" />
      <stop
         offset="1"
         stop-color="#b2b2b2"
         id="stop9" />
    </linearGradient>
    <linearGradient
       id="linear-gradient-3"
       x1="384"
       y1="459.48001"
       x2="384"
       y2="418.92001"
       xlink:href="#linear-gradient"
       gradientTransform="matrix(1.6032321,0,0,1.6032321,-365.64105,-497.83544)" />
    <linearGradient
       inkscape:collect="always"
       xlink:href="#linear-gradient"
       id="linearGradient17"
       gradientUnits="userSpaceOnUse"
       gradientTransform="matrix(1.6032321,0,0,-1.6032321,-365.64105,736.65328)"
       x1="384.01001"
       y1="334.37"
       x2="384.01001"
       y2="312.04999" />
  </defs>
  <title
     id="title9">Oracle Red Bull Racing logo - Brandlogos.net</title>
  <g
     id="g17"
     transform="translate(0.04,132.18655)">
    <path
       d="m 41.435615,211.81922 c 0,-6.49309 -4.553179,-10.42101 -12.184564,-10.50117 H 0.04016161 v 34.27711 H 4.9941488 V 223.10598 H 28.754049 c 4.264597,0 6.829769,2.1323 6.829769,5.7075 v 6.78168 h 5.050181 v -6.73358 a 8.2726777,8.2726777 0 0 0 -5.17844,-8.01616 9.282714,9.282714 0 0 0 5.980056,-9.0262 z m -12.1525,6.78167 H 4.9941488 V 205.77504 H 29.283115 c 6.637381,0 7.150416,4.88986 7.150416,6.41293 0,1.52307 -0.513035,6.41292 -7.150416,6.41292 z m 99.224035,-10.53323 c -2.53311,-5.11431 -5.41892,-7.19851 -9.9721,-7.19851 -4.55318,0 -7.56726,2.14833 -10.00417,7.19851 l -13.018246,26.66175 -0.41684,0.84971 h 5.322726 l 0.16033,-0.33668 4.63334,-9.49113 h 26.61365 l 4.63334,9.49113 0.16033,0.33668 h 5.37082 l -0.41684,-0.84971 z m -21.0344,13.17857 5.78766,-11.83186 c 1.36275,-2.82168 2.88582,-3.97601 5.27464,-3.97601 2.38881,0 3.86379,1.15433 5.24257,3.97601 l 5.78766,11.83186 z m 86.41421,-2.78963 c 0,11.59137 5.03415,17.04236 15.87199,17.13856 h 26.83811 v -4.8097 h -26.45333 c -8.14442,0 -11.22262,-3.33472 -11.22262,-12.28076 0,-8.94603 3.0301,-12.29679 11.22262,-12.29679 h 26.51746 v -4.8097 h -26.83811 c -10.99817,0.0321 -15.93612,5.3067 -15.93612,17.05839 z m 98.88735,17.12252 h 4.93796 v -34.2771 h -4.93796 z m 102.31828,-4.93795 c -4.71351,0 -5.8518,-1.60323 -14.42909,-13.05031 l -0.38478,-0.51304 c -9.25065,-12.37695 -11.73566,-15.69564 -19.81595,-15.7758 h -4.00808 v 34.2771 h 4.88986 v -29.30708 c 4.45699,0 5.57925,1.45894 13.98019,12.45711 l 1.0421,1.34672 c 9.31477,12.18456 11.83185,15.45516 19.62356,15.51929 h 4.08824 v -34.27711 h -4.90589 v 29.33915 z m 99.84929,-12.72967 v 12.82586 h -21.70776 c -8.14442,0 -11.22262,-3.35075 -11.22262,-12.32885 0,-8.9781 3.0301,-12.2487 11.22262,-12.2487 h 26.3892 v -4.80969 h -26.77398 c -10.82181,0.0962 -15.85596,5.53115 -15.85596,17.09045 0,11.55931 5.03415,17.07442 15.872,17.18665 h 27.03049 v -17.63555 h -4.97002 z"
       style="fill:url(#linearGradient17);stroke-width:1.60323"
       id="path9" />
    <path
       d="m 128.15444,180.13936 h -5.08225 c -56.000894,0 -123.11219,1.18639 -123.11219,2.0842 0,0.89781 55.407702,3.03011 123.12823,3.03011 h 253.75958 c 56.00089,0 123.11219,-1.18639 123.11219,-2.0842 0,-0.89781 -55.4077,-3.03011 -123.12823,-3.03011 z"
       style="fill:url(#linear-gradient-2);stroke-width:1.60323"
       id="path10" />
    <path
       d="m 215.37027,118.14237 v 21.1306 a 6.7175426,6.7175426 0 0 1 -13.40302,0 v -21.1306 h -11.63947 v 23.39116 c 0,7.91996 8.19252,14.33289 18.29288,14.33289 10.10036,0 18.29288,-6.41293 18.29288,-14.33289 V 118.1584 Z m 37.83628,-25.122647 v 61.532047 h 11.71962 V 93.019723 Z M 233.3906,154.55177 h 11.71962 V 93.019723 H 233.3906 Z m -57.41175,-31.93638 a 15.599448,15.599448 0 0 0 5.16241,-11.41501 15.326899,15.326899 0 0 0 -4.2165,-10.53324 c -2.78962,-3.078205 -7.74361,-4.809696 -14.42909,-4.809696 h -20.0404 V 154.5678 h 25.87617 c 9.924,-0.16032 17.9081,-7.64741 17.9081,-16.83393 0,-6.71755 -2.35675,-11.47915 -10.26069,-15.11848 z m -9.81178,21.77189 h -11.22262 v -38.47757 h 7.82377 a 6.541187,6.541187 0 0 1 6.22054,6.57325 6.2205406,6.2205406 0 0 1 -6.22054,6.22054 h -4.07221 v 10.54927 h 7.47106 a 7.5512233,7.5512233 0 0 1 0,15.08641 z"
       style="fill:#e2071f;stroke-width:1.60323"
       id="path11" />
    <path
       d="M 39.142993,113.18838 A 17.507295,17.507295 0 0 0 21.50744,95.841412 H 0.04016161 V 154.55177 H 12.513307 v -48.62603 h 6.412929 a 7.8237727,7.8237727 0 0 1 8.112354,7.67948 8.0161606,8.0161606 0 0 1 -8.336807,7.67949 h -2.90185 v 14.04431 L 28.257047,154.5678 H 42.958685 L 25.739972,130.03835 a 17.411101,17.411101 0 0 0 13.403021,-16.84997 z m 21.803957,3.44695 a 19.623561,19.623561 0 0 0 0,39.23109 c 8.176483,0 14.541315,-3.70346 17.827941,-9.49113 l -9.523199,-4.39286 a 8.0161606,8.0161606 0 0 1 -7.342803,4.45699 7.6634495,7.6634495 0 0 1 -8.016161,-7.31074 v -0.48097 h 25.82807 c 0,-0.80162 0.112226,-1.60323 0.112226,-2.46898 0.224453,-12.6014 -8.176484,-19.5434 -18.886074,-19.5434 z m -7.054222,15.375 a 7.1664476,7.1664476 0 0 1 14.332895,0 z M 126.42295,154.5678 V 93.019723 h -11.68756 v 29.114697 a 16.689646,16.689646 0 0 0 -11.78376,-4.93796 c -9.619392,0 -17.523326,8.59333 -17.523326,19.23879 0,10.64546 7.839805,19.23878 17.523326,19.23878 a 16.641549,16.641549 0 0 0 11.83185,-5.08224 v 4.08824 z m -20.15263,-9.01016 a 9.4430372,9.4430372 0 1 1 8.60936,-9.41097 9.0422291,9.0422291 0 0 1 -8.60936,9.39494 z"
       style="fill:#e2071f;stroke-width:1.60323"
       id="path12" />
    <circle
       cx="394.33905"
       cy="122.61539"
       r="40.048737"
       style="fill:#ffd800;stroke-width:1.60323"
       id="circle12" />
    <path
       d="m 499.38284,149.43746 v 0 a 2.645333,2.645333 0 0 1 -0.14429,-0.33668 c 0,-0.20842 0,-0.46493 -0.11223,-0.72145 v 0 a 7.0702536,7.0702536 0 0 0 -0.43287,-1.92388 3.3988521,3.3988521 0 0 0 -2.43692,-1.92388 2.597236,2.597236 0 0 0 -0.38477,-0.92987 8.1604515,8.1604515 0 0 0 -2.42088,-2.11627 l -0.52907,-0.36874 -0.20842,-0.16033 a 2.7575592,2.7575592 0 0 0 -1.71546,-0.59319 3.8637894,3.8637894 0 0 0 -2.82169,1.50704 c -0.11222,-0.30462 -0.30461,-1.01004 -0.41684,-1.41085 -0.11222,-0.40081 -0.28858,-1.07416 -0.43287,-1.47497 v 0 -0.17636 a 3.8156924,3.8156924 0 0 0 -2.85375,-2.78962 13.034277,13.034277 0 0 0 -1.50704,-0.12826 3.3347228,3.3347228 0 0 1 -1.42688,-0.25652 c 0,-0.0802 0,-0.20842 0.16033,-0.41684 a 10.148459,10.148459 0 0 0 0.4008,-1.17036 11.222625,11.222625 0 0 0 0.35272,-4.98605 10.5653,10.5653 0 0 0 1.45894,0.11223 12.072338,12.072338 0 0 0 4.69747,-0.96194 v 0 a 9.4590695,9.4590695 0 0 0 5.49908,-8.49713 v -0.30462 c -0.32064,-3.41488 -2.22849,-6.65341 -5.8037,-9.84384 a 8.5612595,8.5612595 0 0 0 2.82169,-1.18639 8.0161606,8.0161606 0 0 0 3.06217,-8.529198 v -0.240485 a 2.2605573,2.2605573 0 0 0 -2.21246,-2.036105 2.1803957,2.1803957 0 0 0 -1.50703,0.609229 l -0.27255,0.256517 a 4.9219226,4.9219226 0 0 1 -0.65733,0.561131 8.0161606,8.0161606 0 0 1 -2.21246,0.673357 17.298875,17.298875 0 0 0 -2.0842,0.529064 c -3.20647,1.10623 -5.22654,2.83772 -6.01212,5.13035 a 5.8037003,5.8037003 0 0 0 0.57716,4.63334 v 0.11222 a 22.44525,22.44525 0 0 0 3.57521,4.04015 c 1.73149,1.60323 3.35076,3.20646 3.68743,5.09828 0,0.33667 0.16033,0.97797 -0.97797,1.82768 a 3.6553692,3.6553692 0 0 1 -1.77959,0.38478 6.8297688,6.8297688 0 0 1 -3.06217,-0.76956 v 0 a 40.802257,40.802257 0 0 1 -4.2165,-2.5812 29.387245,29.387245 0 0 0 -7.19851,-3.89585 18.212717,18.212717 0 0 0 -3.70347,-1.0421 9.2025523,9.2025523 0 0 1 -3.83172,-1.34672 l -0.14429,-0.0962 c -0.43288,-0.27255 -0.86575,-0.5932 -1.28259,-0.89781 a 13.851925,13.851925 0 0 0 -4.50508,-2.45295 9.4911341,9.4911341 0 0 0 -1.84372,-0.38477 3.2064642,3.2064642 0 0 1 -1.33068,-0.35271 l -0.86575,-0.62527 v 0 a 27.062558,27.062558 0 0 0 -3.76759,-2.45294 29.162792,29.162792 0 0 0 -7.02216,-2.21246 c -0.12826,0 -0.46494,-0.44891 -0.70542,-0.72146 a 7.5191586,7.5191586 0 0 0 -1.47497,-1.47497 10.901978,10.901978 0 0 0 -6.87787,-2.837719 h -0.73749 a 7.3107384,7.3107384 0 0 0 -4.13634,2.068169 c -2.10023,1.84372 -4.39285,3.49505 -6.60531,5.09828 a 64.465963,64.465963 0 0 0 -10.0683,8.41697 c -3.20646,3.35075 -4.42492,7.53519 -5.46702,11.22262 -0.14429,0.52907 -0.30462,1.05813 -0.46494,1.60323 -0.28858,1.01004 -0.5451,2.05214 -0.78558,3.06218 -1.26656,5.11431 -2.46898,9.94004 -7.24661,13.05031 a 2.3727835,2.3727835 0 0 0 -1.0902,2.26055 2.4369128,2.4369128 0 0 0 1.60323,2.00404 5.4830538,5.4830538 0 0 0 1.82769,0.28859 2.3086542,2.3086542 0 0 0 0.57716,1.41084 2.7735916,2.7735916 0 0 0 2.06817,0.91384 h 0.0802 a 10.98214,10.98214 0 0 0 7.64742,-3.84775 6.1564113,6.1564113 0 0 0 2.82169,1.60323 h 0.32064 0.35272 a 18.613525,18.613525 0 0 1 3.30265,-0.25652 c 0.96194,0.30461 1.95595,0.67336 2.93392,1.0421 0.97797,0.36874 1.60323,0.57716 2.32469,0.84971 l 0.38477,0.12826 h 0.33668 a 5.0020842,5.0020842 0 0 0 3.81569,-2.69343 v -0.14429 -0.14429 a 3.2064642,3.2064642 0 0 0 0.17636,-0.51303 v 0 l 0.12826,0.4489 a 7.6313849,7.6313849 0 0 0 1.21845,2.80566 3.094238,3.094238 0 0 0 2.38882,1.0902 v 0 a 6.6694456,6.6694456 0 0 0 0.91384,-0.0802 h 0.0641 l 0.0962,0.11223 a 4.2165005,4.2165005 0 0 0 1.87579,1.29862 c 0.88177,0.28858 1.76355,0.52906 2.6293,0.75352 a 28.24895,28.24895 0 0 1 3.20646,0.9459 h 0.11223 a 7.5512233,7.5512233 0 0 0 2.51707,0.48097 4.392856,4.392856 0 0 0 2.98201,-1.13829 5.4509892,5.4509892 0 0 0 1.92388,-3.01408 l 0.64129,-0.16032 c 1.45895,-0.48097 2.90185,-3.20646 2.90185,-3.20646 a 5.1143104,5.1143104 0 0 1 0.32065,-0.52907 2.8858178,2.8858178 0 0 0 0.52907,-1.71546 2.5651714,2.5651714 0 0 0 -2.53311,-2.54914 h -0.22445 c -0.11223,0 -2.86979,0 -3.65537,0 v 0 a 3.4148844,3.4148844 0 0 0 -0.94591,0.17636 v 0 c -0.20842,-0.25652 -0.43287,-0.84972 -0.73748,-0.99401 h 0.11222 l 0.76955,0.0802 c 0.497,0 0.99401,0.0802 1.49101,0.0802 a 27.447334,27.447334 0 0 0 4.80969,-0.56114 23.230833,23.230833 0 0 1 4.08825,-0.11222 h 0.497 a 18.308911,18.308911 0 0 1 1.82768,0.11222 21.146632,21.146632 0 0 0 2.11627,0.12826 h 0.76955 a 8.0161606,8.0161606 0 0 0 2.02007,-0.35271 l 0.24049,1.28259 0.0962,0.43287 a 8.1925161,8.1925161 0 0 0 3.65537,5.65941 l 0.41684,0.27255 a 8.336807,8.336807 0 0 0 3.97602,1.60323 6.4129285,6.4129285 0 0 0 1.98801,-0.0802 9.234617,9.234617 0 0 1 7.27867,1.68339 l 0.19239,0.12826 a 4.6814378,4.6814378 0 0 1 0.65732,0.51304 6.637381,6.637381 0 0 0 1.93991,1.25052 5.2105044,5.2105044 0 0 0 1.74753,0.33668 v 0 a 4.344759,4.344759 0 0 0 2.30865,-0.62526 v 0 a 3.895854,3.895854 0 0 1 0.22445,0.32064 8.9941322,8.9941322 0 0 0 1.37878,1.60323 5.0181165,5.0181165 0 0 0 3.62331,1.25053 c 0.46493,0 0.91384,0 1.31465,0 h 0.4489 0.70542 c 0.28859,0 0.48097,-0.0802 0.57717,-0.0962 a 2.3246866,2.3246866 0 0 0 1.29862,0.43287 1.9399109,1.9399109 0 0 0 0.60922,-0.0962 l 2.29263,-0.75352 a 2.3567512,2.3567512 0 0 0 1.44291,-1.26655 3.6072723,3.6072723 0 0 0 -0.33668,-3.2225 z m -72.25768,-11.36691 -0.17635,-0.25652 c 0,-0.11223 -0.14429,-0.20842 -0.24049,-0.35271 a 7.3428031,7.3428031 0 0 1 -0.78558,-1.34672 c 0.68939,0 1.41085,0.14429 2.1804,0.17636 z"
       style="fill:#ffd800;stroke-width:1.60323"
       id="path13" />
    <path
       d="m 393.05648,141.08462 -1.20242,-0.59319 a 8.28871,8.28871 0 0 1 -2.46898,-3.03011 c -0.35271,-0.57717 -0.70542,-1.18639 -1.0902,-1.73149 a 7.3909001,7.3909001 0 0 0 -1.33068,-1.39482 l -0.25652,-0.22445 a 45.227178,45.227178 0 0 1 -2.99804,-12.18456 12.024241,12.024241 0 0 0 -1.45894,-4.28063 v 0 a 91.769006,91.769006 0 0 0 -7.10232,-9.18652 c -0.17636,-0.19239 -0.36874,-0.38478 -0.5451,-0.5451 l -0.12826,-0.12826 -8.49713,-7.07025 -0.12826,-0.0962 a 13.547311,13.547311 0 0 0 -3.83172,-2.052134 10.901978,10.901978 0 0 0 -7.40693,0.256517 h -0.14429 c -0.73749,0.384776 -1.42688,0.833681 -2.08421,1.250517 a 14.028281,14.028281 0 0 1 -2.94994,1.60324 h -0.17636 a 22.44525,22.44525 0 0 1 -2.70946,0.9459 15.535319,15.535319 0 0 0 -6.17244,3.04614 l -1.15433,1.07417 c -0.44891,0.43287 -0.88178,0.83368 -1.05814,0.96194 h -0.36874 a 11.511207,11.511207 0 0 0 -7.90393,2.75756 h -0.0802 a 14.076378,14.076378 0 0 1 -4.34476,3.04614 10.324815,10.324815 0 0 1 -2.24453,0.38478 h -0.0802 a 16.753776,16.753776 0 0 0 -3.11027,0.48096 18.64559,18.64559 0 0 0 -6.63738,3.84776 c -0.83368,0.64129 -1.37878,1.05814 -1.60323,1.20243 l -0.52907,0.33667 a 12.072338,12.072338 0 0 1 -5.99609,2.26056 h -0.11222 a 3.2064642,3.2064642 0 0 1 -2.66137,-1.97197 3.943951,3.943951 0 0 1 1.17036,-3.84776 c 0.72145,-0.72145 1.60323,-1.44291 2.38882,-2.1323 a 23.48735,23.48735 0 0 0 3.86378,-3.79966 6.188476,6.188476 0 0 0 -0.36874,-7.53519 11.559304,11.559304 0 0 0 -5.73957,-2.741527 h -0.16032 -0.35271 -0.11223 l -0.64129,-0.112226 -1.05814,-0.208421 a 8.0161606,8.0161606 0 0 1 -2.06817,-1.154327 17.876038,17.876038 0 0 0 -1.60323,-1.042101 l -1.60323,-0.849713 -0.97797,1.507039 a 6.092282,6.092282 0 0 0 -0.94591,3.895856 v 0.11222 a 9.0742938,9.0742938 0 0 0 5.03415,6.63738 v 0 l 0.27255,0.11223 a 5.9800558,5.9800558 0 0 0 1.73149,0.40081 29.707891,29.707891 0 0 0 -4.00808,3.91189 9.9400391,9.9400391 0 0 0 -1.42688,9.71558 10.308783,10.308783 0 0 0 8.27268,6.22054 11.334851,11.334851 0 0 0 1.60323,0.12826 14.429089,14.429089 0 0 0 2.80566,-0.30461 v 0 a 26.854138,26.854138 0 0 0 0.20842,2.83772 18.886074,18.886074 0 0 0 1.10623,3.33472 c 0,0 0,0 0,0.0802 a 10.308783,10.308783 0 0 1 -2.11627,0.96194 c -0.54509,0 -1.15432,0.0962 -1.60323,0.12826 h -0.67336 a 2.8858178,2.8858178 0 0 0 -1.71545,0.81765 7.8237727,7.8237727 0 0 0 -1.45895,2.78962 c -0.19238,0.51304 -0.4008,1.0421 -0.60922,1.47498 a 2.9659794,2.9659794 0 0 1 -0.65733,0.68939 4.9058903,4.9058903 0 0 0 -1.25052,-1.34672 v 0 0 a 2.7735916,2.7735916 0 0 0 -3.20646,0 l -0.43288,0.28858 -0.11222,0.0802 a 20.120563,20.120563 0 0 0 -2.05214,1.49101 3.2064642,3.2064642 0 0 0 -0.994,1.69943 2.6773976,2.6773976 0 0 0 -0.51304,0.12825 4.3126944,4.3126944 0 0 0 -2.56517,3.20647 12.409017,12.409017 0 0 1 -0.17636,1.60323 l -0.11222,0.14429 a 2.5651714,2.5651714 0 0 0 0,3.44695 9.6193927,9.6193927 0 0 0 3.81569,1.37878 h 0.12826 0.32065 0.14429 l 0.4489,-0.17635 h 0.60923 a 11.078334,11.078334 0 0 1 1.1383,0.20842 11.222625,11.222625 0 0 0 2.30865,0.32064 5.0501812,5.0501812 0 0 0 2.45294,-0.59319 5.8998942,5.8998942 0 0 0 2.46898,-2.59724 c 0.14429,-0.24048 0.27255,-0.48097 0.41684,-0.67336 h 0.20842 a 6.4129285,6.4129285 0 0 0 1.29862,0.24049 7.7756758,7.7756758 0 0 0 4.92192,-1.81166 c 0.36875,-0.28858 0.70543,-0.60922 1.02607,-0.89781 a 11.703594,11.703594 0 0 1 1.02607,-0.88177 3.6714015,3.6714015 0 0 1 1.31465,-0.19239 16.16058,16.16058 0 0 1 2.83772,0.35271 7.438997,7.438997 0 0 0 5.38686,-0.60923 c 0.81765,-0.46494 1.60323,-0.88178 2.29262,-1.23449 h 0.11223 l 0.92987,-0.497 a 9.4751018,9.4751018 0 0 0 3.38282,-4.05618 c 0.33668,-0.68939 0.86575,-1.95594 1.01004,-2.30865 h 0.52907 a 19.334979,19.334979 0 0 0 2.96598,-0.30461 c 0.64129,-0.0962 1.23448,-0.19239 1.69942,-0.22446 h 0.62526 c 0.92988,0 2.26056,0.11223 3.20647,0.22446 0.9459,0.11222 1.41084,0.17635 2.51707,0.22445 h 0.48097 c 0.35271,0 0.75352,0 1.18639,0 a 6.3007022,6.3007022 0 0 0 2.80566,-0.64129 c 0.20842,0.20842 0.56113,0.70542 0.80161,0.91384 h -0.11222 a 2.4850098,2.4850098 0 0 0 -1.84372,0.78558 5.6273447,5.6273447 0 0 0 -2.61327,-0.22445 25.363132,25.363132 0 0 0 -3.20646,0.497 2.3567512,2.3567512 0 0 0 -1.79562,1.34672 2.7415269,2.7415269 0 0 0 0.12826,2.46897 c 0.57716,1.0421 1.13829,1.97198 1.73149,2.96598 l 0.25652,0.43288 a 2.597236,2.597236 0 0 0 2.35675,1.21845 h 0.57716 v 0 l 0.11223,0.19239 a 7.6153526,7.6153526 0 0 0 1.90784,2.46898 5.5792478,5.5792478 0 0 0 3.62331,1.28258 6.188476,6.188476 0 0 0 1.73149,-0.25651 46.493731,46.493731 0 0 0 7.50312,-2.88582 h 0.60923 0.48097 a 5.0341488,5.0341488 0 0 0 3.59124,-1.37878 l 0.11223,-0.11223 0.0802,-0.12826 c 0.4489,-0.64129 0.84971,-1.29861 1.23449,-1.95594 a 1.3306827,1.3306827 0 0 0 0,0.24049 v 0 a 3.9118864,3.9118864 0 0 0 3.78363,2.45294 h 0.0802 a 14.429089,14.429089 0 0 0 4.37682,-1.05813 h 0.0802 l 0.5451,-0.19239 h 0.12826 a 7.6474172,7.6474172 0 0 1 4.07221,-0.20842 h 0.22445 0.22446 a 7.487094,7.487094 0 0 0 4.31269,-1.90785 10.837849,10.837849 0 0 0 8.16045,3.43092 h 0.36874 0.52907 0.14429 a 2.3567512,2.3567512 0 0 0 1.87578,-2.11627 2.5651714,2.5651714 0 0 0 0,-0.60922 3.6072723,3.6072723 0 0 0 0.57717,-0.0962 2.4208805,2.4208805 0 0 0 1.90784,-1.98801 2.3727835,2.3727835 0 0 0 -1.25052,-2.56517 z m -28.07259,-5.38686 -0.28858,0.25652 a 10.693558,10.693558 0 0 0 -1.74753,1.89181 c -0.38477,-0.64129 -0.64129,-1.10623 -0.84971,-1.60323 a 9.5071664,9.5071664 0 0 0 2.45295,-0.70542 h 0.4489 a 0.14429089,0.14429089 0 0 1 0,0.16032 z"
       style="fill:#ffd800;stroke-width:1.60323"
       id="path14" />
    <path
       d="m 293.38354,146.1829 h -0.0962 a 2.5170744,2.5170744 0 0 0 -1.36275,1.60323 c -0.16032,2.0842 -0.20842,2.30866 -0.78558,2.94995 -0.16033,0.17635 -0.27255,0.5932 -0.0802,0.76955 a 12.825857,12.825857 0 0 0 2.43691,0.81765 v 0 c 0.19239,0 0.33668,-0.52907 0.75352,-1.97198 0.22445,-0.76955 0.48097,-1.60323 0.75352,-2.45294 0,0 0,-0.12826 -0.16033,-0.40081 -0.16032,-0.27255 -1.01003,-1.31465 -1.45894,-1.31465 z m 2.27659,0 a 1.1863918,1.1863918 0 0 0 0.76955,0.30461 1.4268766,1.4268766 0 0 0 0.6413,-0.17635 8.0161606,8.0161606 0 0 0 2.40484,-2.86979 c 0.12826,-0.35271 -0.27255,-0.67335 -0.78558,-1.07416 v 0 a 0.80161606,0.80161606 0 0 0 -0.89781,0 l -0.56113,0.38477 a 17.635553,17.635553 0 0 0 -1.87578,1.36275 1.2665534,1.2665534 0 0 0 -0.38478,0.86575 0.75351909,0.75351909 0 0 0 0.11223,0.52906 6.3007022,6.3007022 0 0 0 0.57716,0.6413 z m 96.53061,-3.31869 -1.26656,-0.62526 a 9.6193927,9.6193927 0 0 1 -3.20646,-3.73553 c -0.32065,-0.5451 -0.67336,-1.12226 -1.0421,-1.60323 a 6.8297688,6.8297688 0 0 0 -1.01004,-1.0421 3.2064642,3.2064642 0 0 1 -0.67336,-0.70543 47.904576,47.904576 0 0 1 -3.20646,-13.03427 9.9881361,9.9881361 0 0 0 -1.20242,-3.44695 90.406259,90.406259 0 0 0 -6.86184,-8.88191 l -0.497,-0.497 -0.12826,-0.12826 -8.3849,-6.95803 a 11.222625,11.222625 0 0 0 -3.38282,-1.81165 8.0161606,8.0161606 0 0 0 -2.6293,-0.432872 8.7215827,8.7215827 0 0 0 -3.35076,0.641292 c -0.67335,0.35271 -1.31465,0.76955 -1.93991,1.17036 a 15.583416,15.583416 0 0 1 -3.38282,1.79562 26.276974,26.276974 0 0 1 -2.91788,1.0421 13.547311,13.547311 0 0 0 -5.41892,2.6293 l -1.1383,1.05814 c -1.44291,1.36274 -1.60323,1.491 -2.77359,1.491 a 9.6193927,9.6193927 0 0 0 -6.66945,2.30866 15.47119,15.47119 0 0 1 -5.01811,3.44694 11.639465,11.639465 0 0 1 -2.70947,0.48097 14.733703,14.733703 0 0 0 -2.93391,0.44891 17.491262,17.491262 0 0 0 -5.88386,3.47901 c -0.57717,0.44891 -1.36275,1.05814 -1.73149,1.29862 l -0.60923,0.38478 a 13.595408,13.595408 0 0 1 -6.99009,2.51707 h -0.19239 a 5.1143104,5.1143104 0 0 1 -4.42492,-3.35075 5.8678295,5.8678295 0 0 1 1.60323,-5.78767 c 0.76955,-0.76955 1.60323,-1.52307 2.50104,-2.24453 a 22.300959,22.300959 0 0 0 3.55918,-3.47901 4.2645974,4.2645974 0 0 0 -0.24049,-5.05018 10.549267,10.549267 0 0 0 -4.80969,-2.16437 h -0.17636 -0.36874 c -0.62526,-0.12825 -1.21846,-0.20842 -1.82769,-0.35271 a 21.595537,21.595537 0 0 1 -4.13634,-2.37278 4.2485651,4.2485651 0 0 0 -0.64129,2.69343 7.1023183,7.1023183 0 0 0 3.91189,5.11431 l 0.24048,0.0962 a 4.6974701,4.6974701 0 0 0 1.84372,0.30462 h 0.83368 a 5.3547953,5.3547953 0 0 1 1.21846,0.0962 1.1703594,1.1703594 0 0 1 0.81765,0.92988 c 0,0.27255 -0.0962,0.497 -0.44891,0.76955 l -0.97797,0.81765 a 33.074679,33.074679 0 0 0 -4.8097,4.48905 8.0161606,8.0161606 0 0 0 -1.07416,7.77567 8.3207747,8.3207747 0 0 0 6.71754,4.97002 9.7957482,9.7957482 0 0 0 1.37878,0.11223 17.443165,17.443165 0 0 0 4.31269,-0.70542 h 0.12826 c 0,0 0.17636,0 0.20842,0.32064 0,0.60923 0.0802,1.31465 0.0962,1.98801 0,1.10623 0.0962,2.1323 0.17635,2.5812 a 17.635553,17.635553 0 0 0 0.99401,2.94995 c 0.14429,0.33668 0.24048,0.5932 0.28858,0.72146 a 1.1863918,1.1863918 0 0 1 -0.28858,1.20242 9.7476513,9.7476513 0 0 1 -3.57521,1.77959 c -0.62526,0.0802 -1.29862,0.11222 -1.79562,0.14429 h -0.5451 a 0.97797159,0.97797159 0 0 0 -0.5932,0.27255 8.0161606,8.0161606 0 0 0 -1.01003,2.10023 c -0.22446,0.5932 -0.46494,1.18639 -0.70543,1.69943 a 7.5351909,7.5351909 0 0 1 -2.86978,2.38881 l -0.80162,0.48097 v 0 a 8.7696797,8.7696797 0 0 1 -1.47497,1.89182 2.6293007,2.6293007 0 0 1 -1.60323,0.57716 v 0 0 a 7.3909001,7.3909001 0 0 0 -1.37878,3.51108 c 0,0.19239 -0.0802,0.38477 -0.12826,0.57716 v 0.17636 h 0.11223 c 0.4489,0 0.89781,0.14429 1.36274,0.24048 a 9.6193927,9.6193927 0 0 0 1.89182,0.27255 3.2064642,3.2064642 0 0 0 1.60323,-0.38477 3.992048,3.992048 0 0 0 1.60323,-1.82769 6.5732517,6.5732517 0 0 1 0.94591,-1.34671 1.0581332,1.0581332 0 0 1 0.86574,-0.36875 4.4730176,4.4730176 0 0 1 0.99401,0.17636 4.8096963,4.8096963 0 0 0 0.92987,0.17635 5.8678295,5.8678295 0 0 0 3.60727,-1.39481 c 0.30462,-0.24048 0.60923,-0.52906 0.89781,-0.80161 a 9.6193927,9.6193927 0 0 1 1.41085,-1.17036 5.1944721,5.1944721 0 0 1 2.24452,-0.43288 18.613525,18.613525 0 0 1 3.20647,0.40081 6.4129285,6.4129285 0 0 0 1.60323,0.20842 5.0982781,5.0982781 0 0 0 2.45294,-0.59319 l 2.34072,-1.26656 1.01004,-0.5451 a 8.0161606,8.0161606 0 0 0 2.5812,-3.20646 c 0.35271,-0.70542 0.96194,-2.21246 0.96194,-2.22849 v 0 l -1.39481,-1.05814 v 0.0962 a 22.926219,22.926219 0 0 1 -1.50704,2.21246 c -2.45294,3.35075 -6.41293,3.76759 -9.61939,3.76759 h -0.65732 a 12.120435,12.120435 0 0 0 -9.5232,3.97602 0.25651714,0.25651714 0 0 1 -0.38478,0 0.33667874,0.33667874 0 0 1 0,-0.28858 2.1322987,2.1322987 0 0 1 0.25652,-0.65733 c 2.48501,-3.52711 6.73357,-4.05617 10.16449,-4.1203 a 15.038317,15.038317 0 0 0 5.98006,-1.42688 9.3147786,9.3147786 0 0 0 4.1684,-5.19447 24.705807,24.705807 0 0 0 0.76955,-3.7195 28.72992,28.72992 0 0 1 0.5451,-2.93392 0.32064642,0.32064642 0 0 1 0.28858,-0.20842 h 0.0802 c 0.12826,0 0.36875,0.11223 0.38478,0.30462 a 12.825857,12.825857 0 0 0 0,6.82977 2.6132683,2.6132683 0 0 0 2.69343,1.29862 17.090454,17.090454 0 0 0 2.66136,-0.28859 c 0.68939,-0.11222 1.34672,-0.20842 1.90785,-0.24048 h 0.72145 a 16.417097,16.417097 0 0 1 3.20647,0.43287 20.040401,20.040401 0 0 0 2.80565,0.41684 h 0.5451 c 0.33668,0 0.67336,0 1.02607,0 a 2.7735916,2.7735916 0 0 0 1.81165,-0.497 c 0.28859,-0.24048 0.19239,-0.5932 0,-1.05813 v -0.0802 a 2.2765896,2.2765896 0 0 0 -0.0802,-0.25652 c -0.19239,-0.60923 -0.46493,-1.50704 0,-1.92388 a 0.44890499,0.44890499 0 0 1 0.25652,-0.0802 0.2244525,0.2244525 0 0 1 0.22445,0.14429 c 0,0.17635 0.0962,0.35271 0.16033,0.52907 a 6.589284,6.589284 0 0 0 0.88177,2.11626 13.386988,13.386988 0 0 0 4.36079,3.41489 5.8678295,5.8678295 0 0 1 2.78963,4.18443 c 0,0.88178 -0.86575,1.50704 -1.49101,1.89182 a 9.1223907,9.1223907 0 0 1 -3.54314,1.05813 2.2765896,2.2765896 0 0 1 -1.21846,-0.48097 c -0.97797,-0.89781 -0.86574,-1.21846 -1.50704,-2.27659 a 12.425049,12.425049 0 0 0 -1.13829,-1.68339 2.7254946,2.7254946 0 0 0 -2.42088,-0.84972 24.545484,24.545484 0 0 0 -3.01408,0.49701 0.67335749,0.67335749 0 0 0 -0.497,0.38477 0.78558374,0.78558374 0 0 0 0,0.72146 c 0.56113,1.01003 1.12226,1.93991 1.69943,2.91788 l 0.25651,0.43287 a 0.73748677,0.73748677 0 0 0 0.68939,0.27255 h 0.92988 a 1.1863918,1.1863918 0 0 1 1.0421,0.38478 c 0.17636,0.27254 0.33668,0.56113 0.48097,0.83368 a 5.7235387,5.7235387 0 0 0 1.44291,1.90784 3.6553692,3.6553692 0 0 0 2.37278,0.83368 3.943951,3.943951 0 0 0 1.15433,-0.17635 43.078847,43.078847 0 0 0 7.61535,-2.96598 h 0.80162 0.52906 a 3.3507551,3.3507551 0 0 0 2.32469,-0.76955 27.254946,27.254946 0 0 0 2.03611,-3.47902 2.9980441,2.9980441 0 0 0 0,-2.96598 20.248822,20.248822 0 0 1 -2.45295,-4.80969 v 0 0 l -0.5451,-0.19239 a 3.4148844,3.4148844 0 0 0 -1.23449,-0.30461 v 0 c -0.52906,0 -0.89781,0.17635 -1.0421,0.48096 v 0 l 2.80566,5.54719 a 2.5170744,2.5170744 0 0 1 0.27255,1.52307 9.7957482,9.7957482 0 0 1 -1.90785,3.09424 0.46493731,0.46493731 0 0 1 -0.24048,0.0962 c 0,0 -0.17636,0 -0.0802,-0.35271 a 14.429089,14.429089 0 0 0 0.49701,-3.70347 35.271107,35.271107 0 0 0 -2.54914,-4.80969 v 0 a 3.4148844,3.4148844 0 0 1 -0.70542,-1.92388 0.75351909,0.75351909 0 0 1 0.52906,-0.64129 8.4650656,8.4650656 0 0 1 1.21846,-0.30462 c 0.994,-0.22445 2.0361,-0.4489 2.40485,-1.01003 a 15.230705,15.230705 0 0 0 2.24452,-5.96403 c 0,-0.11222 0.0962,-0.32064 0.25652,-0.32064 0.16032,0 0.17635,0 0.22445,0.24048 a 8.9780998,8.9780998 0 0 1 -1.60323,6.74961 0.70542213,0.70542213 0 0 0 -0.0962,0.52906 0.67335749,0.67335749 0 0 0 0.25651,0.35271 5.4028922,5.4028922 0 0 0 3.94395,-0.59319 16.208677,16.208677 0 0 0 3.11027,-0.35271 l 0.94591,-0.17636 a 0.46493731,0.46493731 0 0 1 0.19239,0.20842 6.9259627,6.9259627 0 0 0 -1.60323,3.33473 c -0.22446,0.24048 -0.49701,0.48097 -0.73749,0.70542 a 4.8096963,4.8096963 0 0 0 -1.95594,2.98201 0.43287267,0.43287267 0 0 0 0.43287,0.46494 1.0741655,1.0741655 0 0 0 0.46494,-0.12826 1.2665534,1.2665534 0 0 1 0.48097,-0.12826 0.33667874,0.33667874 0 0 1 0.27255,0.28858 l -1.04211,1.60323 a 2.4208805,2.4208805 0 0 0 0,1.97198 c 0.11223,0.36874 0,0.64129 0.16033,0.96194 a 2.0040401,2.0040401 0 0 0 1.93991,1.12226 12.954115,12.954115 0 0 0 3.79966,-0.94591 l 0.64129,-0.22445 a 9.3628756,9.3628756 0 0 1 5.16241,-0.33668 7.2626415,7.2626415 0 0 0 4.1684,-2.29262 2.4529451,2.4529451 0 0 1 1.60323,0.91384 8.8017443,8.8017443 0 0 0 6.81374,2.90185 h 0.57716 c 0.28859,0 0.36875,-0.20842 0.38478,-0.38477 0.016,-0.17636 -0.14429,-0.43288 -0.46494,-0.57717 l -1.60323,-0.81764 a 6.4930901,6.4930901 0 0 1 -2.96598,-2.98202 16.673614,16.673614 0 0 0 -1.69942,-3.59124 c -0.11223,-0.17635 -0.22446,-0.35271 -0.35272,-0.52906 a 7.038189,7.038189 0 0 1 -0.60922,-0.97797 v 0 a 7.2466092,7.2466092 0 0 1 3.76759,3.92791 6.6053163,6.6053163 0 0 0 5.14638,3.20647 4.3768237,4.3768237 0 0 0 0.80161,-0.0802 0.48096963,0.48096963 0 0 0 0.40081,-0.38478 0.3948316,0.3948316 0 0 0 -0.0802,-0.78558 z m -30.12473,-25.05852 c 0,0.16032 -0.1443,0.27255 -0.25652,0.27255 -0.11223,0 -0.16032,0 -0.20842,-0.24048 a 16.689646,16.689646 0 0 0 -1.21846,-4.37683 5.1944721,5.1944721 0 0 0 -0.5451,-0.84971 c -0.36874,-0.51303 -0.70542,-0.96194 -0.33668,-1.60323 a 0.78558374,0.78558374 0 0 1 0.67336,-0.28858 1.1222625,1.1222625 0 0 1 0.40081,0.0802 3.3026582,3.3026582 0 0 1 1.28259,1.60323 8.833809,8.833809 0 0 1 0.20842,5.40289 z m 14.06034,22.44525 a 1.6032321,1.6032321 0 0 1 -0.36874,0.89781 3.8798217,3.8798217 0 0 1 -1.92388,0.40081 c -0.56113,0 -0.75352,-0.0962 -0.86575,-0.27255 -0.11222,-0.17636 0.0802,-0.57716 0.0802,-0.57716 a 3.5110783,3.5110783 0 0 1 2.05213,-1.85975 1.1222625,1.1222625 0 0 1 0.83368,0 c 0.41684,0.19238 0.24049,1.20242 0.19239,1.41084 z m 3.84776,-8.80174 a 2.7896239,2.7896239 0 0 1 -0.27255,0.89781 0.6092282,0.6092282 0 0 1 -0.57716,0.4008 c -0.41684,0 -0.38478,-0.497 -0.40081,-0.56113 a 7.086286,7.086286 0 0 0 -0.32065,-1.95594 c -0.28858,-0.62526 -1.60323,-2.40485 -2.46898,-2.34072 a 2.2284926,2.2284926 0 0 0 -1.10623,0.83368 c -0.46493,0.60923 -0.46493,0.68939 -0.60922,0.76955 -0.1443,0.0802 -0.33668,0 -0.40081,-0.32064 a 2.7415269,2.7415269 0 0 1 0,-1.34672 5.8517972,5.8517972 0 0 1 0.5451,-1.33068 c 0,0 0.41684,-0.96194 0.57716,-1.20242 a 1.1863918,1.1863918 0 0 1 1.01004,-0.60923 1.4108443,1.4108443 0 0 1 1.18639,0.60923 4.6814378,4.6814378 0 0 1 0.65732,0.97797 6.4129285,6.4129285 0 0 0 0.86575,1.10623 5.9479912,5.9479912 0 0 1 1.21845,2.30865 4.8096963,4.8096963 0 0 1 0.0962,1.71546 z m -33.15484,11.22262 a 8.5772918,8.5772918 0 0 1 0.62526,1.21846 c 0.32065,0.70542 0.59319,1.29862 0.91384,1.41084 a 1.3146503,1.3146503 0 0 0 0.44891,0 4.5531792,4.5531792 0 0 0 2.46897,-0.96194 c 0.41684,-0.35271 0.27255,-0.57716 0.0962,-0.88177 a 2.3246866,2.3246866 0 0 1 -0.19239,-0.35272 7.4710617,7.4710617 0 0 1 -0.41684,-1.12226 c -0.20842,-0.70542 -0.36874,-1.29862 -1.12226,-1.20242 a 21.900151,21.900151 0 0 1 -3.28663,0.22445 c 0,0 -0.38477,0 -0.497,0.25652 -0.11223,0.25651 0.16032,0.56113 0.48097,0.84971 a 2.8377208,2.8377208 0 0 1 0.497,0.51303 z"
       style="fill:#e2071f;stroke-width:1.60323"
       id="path15" />
    <path
       d="m 497.61928,150.27114 a 2.9499471,2.9499471 0 0 1 -0.27255,-0.67336 c 0,-0.32064 -0.11222,-0.65732 -0.16032,-0.97797 a 5.6113124,5.6113124 0 0 0 -0.28858,-1.41084 1.4268766,1.4268766 0 0 0 -1.26656,-0.81765 1.2825857,1.2825857 0 0 0 -0.52906,0.12826 c -0.78559,0.40081 -1.25052,0.81765 -1.12227,1.69942 a 32.240998,32.240998 0 0 1 0.92988,3.49505 c 0,0.19239 0.16032,0.83368 0.46494,0.83368 v 0 l 2.26055,-0.73749 a 0.38477571,0.38477571 0 0 0 0.24049,-0.20842 c 0.20842,-0.33667 -0.0321,-0.83368 -0.25652,-1.33068 z m -3.35075,-5.57925 a 6.8778658,6.8778658 0 0 0 -1.87579,-1.60323 c -0.28858,-0.19239 -0.54509,-0.36874 -0.72145,-0.51303 l -0.12826,-0.0962 a 0.75351909,0.75351909 0 0 0 -0.51303,-0.19238 1.9078462,1.9078462 0 0 0 -1.50704,1.15432 c 0,0.43288 0.59319,1.20243 1.39481,2.14833 l 0.17636,0.20842 a 2.0040401,2.0040401 0 0 0 1.31465,0.78559 v 0 a 1.7154584,1.7154584 0 0 0 1.23449,-0.52907 c 0.27254,-0.27255 0.92987,-0.994 0.62526,-1.36275 z m -53.00286,-3.20646 a 10.869914,10.869914 0 0 1 -1.23449,0.0802 h -1.10623 a 4.2806297,4.2806297 0 0 0 -0.67335,0 v 0 0 a 5.0822458,5.0822458 0 0 0 -0.72146,2.32469 c 0.11223,0.94591 1.07417,1.13829 1.81165,1.28258 a 4.7135024,4.7135024 0 0 0 0.86575,0.11223 1.0421009,1.0421009 0 0 0 1.0421,-0.52907 13.867958,13.867958 0 0 0 0.81765,-2.91788 0.28858178,0.28858178 0 0 0 0,-0.27255 0.72145445,0.72145445 0 0 0 -0.51304,-0.17635 z m 51.30343,6.65341 v 0 0 c -1.29862,0.0802 -2.11627,-0.97797 -2.90185,-2.00404 a 9.1223907,9.1223907 0 0 0 -0.76955,-0.92987 12.649501,12.649501 0 0 0 -1.25052,-1.21846 4.2966621,4.2966621 0 0 1 -1.01004,-1.07416 12.200596,12.200596 0 0 1 -0.57716,-1.84372 c -0.14429,-0.51303 -0.27255,-0.994 -0.38478,-1.33068 0,0 0,-0.12826 0,-0.20842 -0.24048,-0.62526 -0.52906,-1.41085 -1.34671,-1.60324 a 11.222625,11.222625 0 0 0 -1.28259,-0.0962 3.7034662,3.7034662 0 0 1 -2.98201,-1.10623 2.1322987,2.1322987 0 0 1 0,-2.27659 5.9960881,5.9960881 0 0 0 0.32065,-0.94591 9.0101645,9.0101645 0 0 0 0.24048,-4.44095 c 0,-0.19239 -0.11223,-0.40081 -0.17635,-0.59319 a 3.1102703,3.1102703 0 0 1 -0.24049,-1.60324 0.48096963,0.48096963 0 0 1 0.497,-0.28858 2.6132683,2.6132683 0 0 1 0.67336,0.12826 l 0.43287,0.11223 a 9.3949402,9.3949402 0 0 0 6.17245,-0.49701 7.4550293,7.4550293 0 0 0 4.39285,-6.66944 c -0.30461,-3.1263 -2.22849,-6.14038 -5.89989,-9.21859 l -0.27255,-0.22445 c -0.48097,-0.40081 -1.05813,-0.88178 -1.07417,-1.33068 -0.016,-0.44891 1.12227,-0.70542 1.84372,-0.88178 l 0.4489,-0.11223 h 0.19239 a 8.0161606,8.0161606 0 0 0 2.6293,-1.02606 6.4129285,6.4129285 0 0 0 2.2285,-6.57326 0.48096963,0.48096963 0 0 1 0,-0.16032 c 0,-0.224451 -0.11223,-0.497001 -0.32065,-0.497001 a 0.27254946,0.27254946 0 0 0 -0.19239,0.09619 l -0.24048,0.224453 a 5.1143104,5.1143104 0 0 1 -1.02607,0.817648 8.7215827,8.7215827 0 0 1 -2.80566,0.89781 14.7818,14.7818 0 0 0 -1.84371,0.46494 6.9580274,6.9580274 0 0 0 -4.8097,3.92792 3.895854,3.895854 0 0 0 0.4489,3.07821 20.729791,20.729791 0 0 0 3.20647,3.6714 c 1.87578,1.79562 3.81569,3.65537 4.2646,6.18847 a 3.7355308,3.7355308 0 0 1 -1.82769,3.78363 5.4990862,5.4990862 0 0 1 -2.85375,0.70542 8.8017443,8.8017443 0 0 1 -3.97602,-0.994 44.61795,44.61795 0 0 1 -4.42492,-2.69343 28.409273,28.409273 0 0 0 -6.81374,-3.70347 15.615481,15.615481 0 0 0 -3.38281,-0.9459 10.789752,10.789752 0 0 1 -4.64938,-1.73149 c -0.46494,-0.30462 -0.92987,-0.6413 -1.36275,-0.96194 a 12.216629,12.216629 0 0 0 -3.91188,-2.16437 9.5071664,9.5071664 0 0 0 -1.60323,-0.33668 4.6814378,4.6814378 0 0 1 -2.19643,-0.70542 l -0.92988,-0.67336 a 24.978356,24.978356 0 0 0 -3.49504,-2.27658 27.76798,27.76798 0 0 0 -6.58929,-2.05214 3.3347228,3.3347228 0 0 1 -1.74752,-1.37878 5.1143104,5.1143104 0 0 0 -1.13829,-1.1383 8.9780998,8.9780998 0 0 0 -5.70751,-2.452946 h -0.60923 a 5.8037003,5.8037003 0 0 0 -2.99804,1.603236 c -2.16437,1.89181 -4.48905,3.59124 -6.74961,5.2105 a 62.221438,62.221438 0 0 0 -9.79575,8.17649 c -2.91788,3.01408 -3.97601,6.76564 -5.00208,10.40498 -0.14429,0.52906 -0.30462,1.07416 -0.46494,1.60323 -0.27255,0.994 -0.52907,2.02007 -0.76955,3.01407 -1.33068,5.37083 -2.7255,10.72563 -8.01616,14.20464 a 0.44890499,0.44890499 0 0 0 0.0962,0.80162 4.4569853,4.4569853 0 0 0 4.63334,-1.44291 c 1.39481,-1.60323 2.10024,-3.20647 3.73553,-4.97002 0,0 0.24049,-0.22445 0.40081,-0.19239 0.16033,0.0321 0.16033,0.0962 0.11223,0.30461 a 6.2526053,6.2526053 0 0 1 -1.0421,1.89182 7.5031263,7.5031263 0 0 0 -1.07417,1.95594 9.9400391,9.9400391 0 0 1 -3.20646,3.87982 1.4268766,1.4268766 0 0 0 -0.32065,0.27255 c -0.11223,0.14429 -0.11223,0.20842 -0.11223,0.20842 0,0.33668 0.24049,0.5451 0.76956,0.57717 v 0 c 2.99804,0 5.14637,-2.1323 7.21454,-4.20047 a 0.43287267,0.43287267 0 0 1 0.35271,-0.12826 0.65732517,0.65732517 0 0 1 0.33668,0 7.2626415,7.2626415 0 0 1 0.70542,0.5932 5.1463751,5.1463751 0 0 0 2.27659,1.41084 v 0 a 21.082502,21.082502 0 0 1 3.09424,-0.27255 h 0.81765 c 1.0902,0.33668 2.19643,0.73749 3.20646,1.13829 0.75352,0.28859 1.60324,0.57717 2.29262,0.83369 v 0 c 0.99401,0 1.71546,-0.96194 2.24453,-1.79562 a 2.8537532,2.8537532 0 0 0 0,-1.71546 4.2966621,4.2966621 0 0 1 -0.11223,-0.99401 1.1382948,1.1382948 0 0 1 0.70543,0 3.2064642,3.2064642 0 0 0 0.70542,0 0.6092282,0.6092282 0 0 0 0.46494,-0.73748 6.4129285,6.4129285 0 0 0 -1.20243,-2.38882 7.6153526,7.6153526 0 0 1 -1.05813,-1.97197 7.5993202,7.5993202 0 0 0 -1.71546,-2.42089 6.1564113,6.1564113 0 0 1 -1.74752,-2.69343 c 0,0 0,-0.22445 0,-0.30461 0,-0.0802 0.28858,0 0.28858,0 0.35271,0.25652 0.72145,0.56113 1.07416,0.84971 a 8.2085484,8.2085484 0 0 0 3.75157,2.10024 22.846058,22.846058 0 0 0 4.2165,0.17635 0.56113124,0.56113124 0 0 0 0.48097,-0.70542 21.787924,21.787924 0 0 1 -1.50704,-3.91189 11.591368,11.591368 0 0 1 -0.28858,-5.96402 0.33667874,0.33667874 0 0 1 0.33668,-0.27255 v 0 a 0.67335749,0.67335749 0 0 1 0.41684,0.5451 v 0.27255 c 0.19238,2.86979 0.38477,5.57925 2.14833,7.90393 a 4.8096963,4.8096963 0 0 0 1.79562,1.52307 4.344759,4.344759 0 0 1 1.28258,0.91385 1.79562,1.79562 0 0 1 0.17636,1.76355 l -2.14833,3.20647 a 7.1183506,7.1183506 0 0 0 -1.18639,2.29262 8.0963222,8.0963222 0 0 0 0,2.32469 v 0.17635 a 0.35271107,0.35271107 0 0 1 -0.16033,-0.17635 4.5371469,4.5371469 0 0 1 -0.60923,-3.92792 c 0.28859,-0.65733 2.03611,-3.20647 2.54914,-3.95999 0.16033,-0.25651 0.28859,-0.52906 0.16033,-0.70542 a 4.9379549,4.9379549 0 0 0 -1.82769,-0.78558 v 0 a 1.3787796,1.3787796 0 0 0 -0.68939,0.62526 l -0.11222,0.17635 -2.66137,4.8097 v 0.17636 a 2.4850098,2.4850098 0 0 0 -0.16032,1.45894 21.178696,21.178696 0 0 0 0.5451,2.06817 c 0,0.16032 0.0962,0.32064 0.12825,0.48097 a 6.2846699,6.2846699 0 0 0 0.83369,2.06817 1.1382948,1.1382948 0 0 0 0.91384,0.4008 4.1363389,4.1363389 0 0 0 0.60923,0 2.8216885,2.8216885 0 0 1 0.96194,0 2.0681694,2.0681694 0 0 1 0.96193,0.70543 2.2765896,2.2765896 0 0 0 1.04211,0.76955 c 0.81764,0.27255 1.60323,0.497 2.51707,0.72145 a 32.064642,32.064642 0 0 1 3.35075,1.01004 6.6213486,6.6213486 0 0 0 1.92388,0.38477 2.4689775,2.4689775 0 0 0 1.76356,-0.70542 3.7355308,3.7355308 0 0 0 1.36275,-2.38881 c 0.17635,-0.91385 0.48097,-0.97798 1.13829,-1.01004 a 1.7314907,1.7314907 0 0 0 0.68939,-0.11223 6.6053163,6.6053163 0 0 0 1.79562,-2.24452 l 0.41684,-0.70542 a 1.1062302,1.1062302 0 0 0 0.20842,-0.60923 0.64129285,0.64129285 0 0 0 -0.65732,-0.6413 h -0.16033 c 0,0 -2.83772,0 -3.60727,0 -1.17036,0 -1.60323,1.1864 -2.0842,2.16437 a 8.0963222,8.0963222 0 0 1 -0.497,1.05813 1.7635553,1.7635553 0 0 1 -1.60324,0.88178 5.8357649,5.8357649 0 0 1 -0.9459,-0.19239 c -1.60323,-0.36874 -3.11027,-0.76955 -3.75157,-2.27659 a 1.3627473,1.3627473 0 0 1 0.22446,-1.25052 23.102575,23.102575 0 0 1 2.99804,-3.01408 6.3007022,6.3007022 0 0 0 3.92792,-2.90185 2.4850098,2.4850098 0 0 0 0.35271,-0.81764 1.8757816,1.8757816 0 0 1 0.65733,-1.0902 c 0.25651,-0.12826 0.4489,-0.0802 0.497,0.12826 a 4.392856,4.392856 0 0 1 -0.44891,2.32468 l -0.19238,0.497 v 0.12826 h 0.12825 a 11.543271,11.543271 0 0 0 1.29862,0 26.020457,26.020457 0 0 0 4.53715,-0.52906 25.459326,25.459326 0 0 1 4.47302,-0.52907 h 0.497 c 0.68939,0 1.34671,0 1.98801,0.11223 a 19.110527,19.110527 0 0 0 1.5872,0.14429 h 0.65732 a 3.8637894,3.8637894 0 0 0 3.83173,-2.40485 14.429089,14.429089 0 0 0 -0.12826,-6.20451 1.79562,1.79562 0 0 0 0,-0.24048 v 0 c 0,-0.11223 0,-0.22446 0.14429,-0.28859 0.14429,-0.0641 0.38477,0 0.46494,0.24049 a 31.679867,31.679867 0 0 1 1.41084,6.15641 12.825857,12.825857 0 0 0 2.06817,4.98605 7.5351909,7.5351909 0 0 0 6.41293,3.31869 14.429089,14.429089 0 0 0 1.84371,-0.19239 4.2004681,4.2004681 0 0 1 0.86575,0 10.50117,10.50117 0 0 1 8.44903,4.20047 0.14429089,0.14429089 0 0 1 0,0.12826 0.24048482,0.24048482 0 0 1 -0.32064,0.16032 l -0.28859,-0.22445 a 13.226665,13.226665 0 0 0 -6.3007,-3.28662 7.6153526,7.6153526 0 0 0 -1.37878,-0.11223 17.635553,17.635553 0 0 0 -2.0842,0.16032 16.529323,16.529323 0 0 1 -1.95594,0.14429 5.8678295,5.8678295 0 0 1 -2.22849,-0.4008 11.126431,11.126431 0 0 1 -5.86783,-6.20451 0.35271107,0.35271107 0 0 0 -0.30462,-0.19239 0.48096963,0.48096963 0 0 0 -0.24048,0.0802 c -0.32065,0.20842 -0.38478,0.32065 -0.43288,0.51304 a 16.032321,16.032321 0 0 0 0.35272,2.24452 6.6213486,6.6213486 0 0 0 2.90185,4.8097 7.3748677,7.3748677 0 0 0 3.6233,1.60323 4.6493731,4.6493731 0 0 0 1.25052,0 9.8759098,9.8759098 0 0 1 2.1804,-0.24049 11.39898,11.39898 0 0 1 6.68547,2.24453 6.589284,6.589284 0 0 1 0.94591,0.70542 4.7135024,4.7135024 0 0 0 1.39481,0.92988 3.3507551,3.3507551 0 0 0 1.05814,0.20842 3.0621733,3.0621733 0 0 0 1.76355,-0.5932 1.7795876,1.7795876 0 0 1 0.75352,-0.19239 c 0.72146,0 1.12226,0.56113 1.60323,1.28259 a 8.3207747,8.3207747 0 0 0 1.12227,1.34671 3.2064642,3.2064642 0 0 0 2.27659,0.72146 h 1.17035 c 0.36875,0 0.81765,0 1.05814,0 h 0.35271 v -0.0962 a 11.39898,11.39898 0 0 0 -1.02607,-4.29666 z m -75.35191,-6.73357 a 0.92987463,0.92987463 0 0 1 -0.86574,0.36874 1.8437169,1.8437169 0 0 1 -0.97798,-0.27255 2.3246866,2.3246866 0 0 1 -0.89781,-1.85975 0.59319588,0.59319588 0 0 1 0.24049,-0.59319 0.57716356,0.57716356 0 0 1 0.36874,-0.0802 2.6773976,2.6773976 0 0 1 1.77959,0.86574 c 0,0 0.5932,0.86575 0.25652,1.49101 z m 0.73749,-11.86392 a 0.62526053,0.62526053 0 0 1 -0.76955,0.28858 1.4910059,1.4910059 0 0 1 -0.65733,-0.70542 c -0.19239,-0.32065 -0.33668,-0.60923 -0.76955,-0.57716 v 0 a 1.79562,1.79562 0 0 0 -0.97797,0.46493 c -0.16033,0.12826 -0.76955,0.57717 -0.92988,0.72146 a 4.8096963,4.8096963 0 0 0 -1.89181,2.43691 c 0,0.35271 0,0.35271 -0.11223,0.52907 a 1.2505211,1.2505211 0 0 1 -0.41684,0.89781 h -0.16032 a 0.56113124,0.56113124 0 0 1 -0.36874,-0.14429 0.40080803,0.40080803 0 0 1 -0.17636,-0.33668 5.1303428,5.1303428 0 0 1 1.60323,-4.34476 13.739699,13.739699 0 0 0 2.00404,-2.21246 c 0.28858,-0.38478 0.5932,-0.76955 0.91384,-1.1383 0.32065,-0.36874 0.62527,0 1.28259,0.67336 a 13.723667,13.723667 0 0 1 1.50704,2.6774 0.91384231,0.91384231 0 0 1 -0.17636,0.68939 z m 14.15654,-19.86405 -1.01004,0.92988 a 18.565428,18.565428 0 0 0 -3.20646,3.51108 9.9240068,9.9240068 0 0 0 -0.94591,1.71546 c 0,0 -0.0962,0.19238 -0.22445,0.19238 a 0.25651714,0.25651714 0 0 1 -0.17636,-0.0802 4.9379549,4.9379549 0 0 1 0.25652,-2.64533 12.008209,12.008209 0 0 1 4.13634,-5.13034 1.4429089,1.4429089 0 0 1 0.72145,-0.20842 0.78558374,0.78558374 0 0 1 0.76955,0.46493 0.97797159,0.97797159 0 0 1 -0.43287,1.17036 z"
       style="fill:#e2071f;stroke-width:1.60323"
       id="path16" />
    <path
       d="m 215.85124,42.325524 h 33.02658 L 231.43465,14.156735 199.37001,65.011258 H 184.7325 L 223.7712,3.9762114 A 9.18652,9.18652 0 0 1 231.41862,1.9578554e-4 9.0903261,9.0903261 0 0 1 238.95381,3.8639852 L 278.07268,65.011258 H 263.48326 L 256.6054,53.676407 h -33.44342 l -7.29471,-11.318819 m 151.5375,11.318819 V 0.64148863 H 354.99575 V 58.870879 a 5.9960881,5.9960881 0 0 0 1.82769,4.264598 6.2686376,6.2686376 0 0 0 4.50508,1.891813 h 56.4017 l 7.34281,-11.366915 h -57.71636 m -204.8129,-9.491134 a 21.771892,21.771892 0 0 0 0,-43.52775237 H 108.41865 V 65.02729 H 120.7956 V 11.992372 h 41.02671 a 10.421009,10.421009 0 0 1 0,20.842018 h -34.91839 l 36.97053,32.1929 h 17.9562 L 156.99659,44.185273 h 5.64337 M 32.313224,65.02729 h 37.419438 a 32.192901,32.192901 0 0 0 0,-64.38580137 H 32.249095 a 32.192901,32.192901 0 1 0 0,64.38580137 M 68.834852,53.676407 H 33.082776 a 20.842018,20.842018 0 0 1 0,-41.684035 h 35.752076 a 20.842018,20.842018 0 1 1 0,41.684035 M 303.91678,65.011258 h 38.20502 l 7.27867,-11.334851 h -44.65001 a 20.842018,20.842018 0 1 1 0,-41.684035 h 36.29717 L 348.3744,0.60942399 h -44.44159 a 32.208933,32.208933 0 1 0 0,64.40183401 M 455.30999,53.676407 A 20.842018,20.842018 0 0 1 435.25355,38.509831 h 52.90666 l 7.29471,-11.350883 h -60.20137 a 20.842018,20.842018 0 0 1 20.05644,-15.166576 h 36.32924 l 7.26264,-11.38294801 h -44.40953 a 32.192901,32.192901 0 0 0 0,64.38580201 h 38.20502 L 499.96,53.660375 h -44.65001"
       style="fill:url(#linear-gradient-3);stroke-width:1.60323"
       id="path17" />
  </g>
  <metadata
     id="metadata17">
    <rdf:RDF>
      <cc:Work
         rdf:about="">
        <dc:title>Oracle Red Bull Racing logo - Brandlogos.net</dc:title>
      </cc:Work>
    </rdf:RDF>
  </metadata>
</svg>
