<?xml version="1.0" encoding="UTF-8" standalone="no"?>
<svg
   id="a"
   viewBox="0 0 499.99999 499.99999"
   version="1.1"
   sodipodi:docname="williams.svg"
   width="500"
   height="500"
   inkscape:version="1.4.3 (0d15f75, 2025-12-25)"
   xmlns:inkscape="http://www.inkscape.org/namespaces/inkscape"
   xmlns:sodipodi="http://sodipodi.sourceforge.net/DTD/sodipodi-0.dtd"
   xmlns="http://www.w3.org/2000/svg"
   xmlns:svg="http://www.w3.org/2000/svg"
   xmlns:rdf="http://www.w3.org/1999/02/22-rdf-syntax-ns#"
   xmlns:cc="http://creativecommons.org/ns#"
   xmlns:dc="http://purl.org/dc/elements/1.1/">
  <defs
     id="defs17" />
  <sodipodi:namedview
     id="namedview17"
     pagecolor="#ffffff"
     bordercolor="#000000"
     borderopacity="0.25"
     inkscape:showpageshadow="2"
     inkscape:pageopacity="0.0"
     inkscape:pagecheckerboard="0"
     inkscape:deskcolor="#d1d1d1"
     inkscape:zoom="0.59522307"
     inkscape:cx="100.80254"
     inkscape:cy="332.6484"
     inkscape:window-width="1440"
     inkscape:window-height="890"
     inkscape:window-x="-6"
     inkscape:window-y="-6"
     inkscape:window-maximized="1"
     inkscape:current-layer="a" />
  <title
     id="title1">Atlassian_Williams_F1_Team-logo - brandlogos.net</title>
  <g
     id="g17"
     transform="matrix(0.66499186,0,0,0.66499186,0,125)">
    <path
       d="m 162.8117,183.9153 -20.51,24.8361 h 10.9817 l -25.483,31.9176 v -56.7394 h -26.0325 c -7.351,0 -12.8577,2.8722 -16.3192,7.2649 l -42.8009,53.614 V 183.9296 H 0 v 125.39 h 40.9302 l 44.0692,-55.1064 v 55.1064 h 25.9057 c 11.1191,0 15.9757,-1.7878 22.7084,-9.9257 L 225.7896,183.9296 H 162.801 l 0.0106,-0.0143 z"
       id="path1" />
    <path
       d="m 624.9816,211.6797 c -8.7885,-3.0408 -18.8981,-3.7728 -28.4265,-2.0272 -8.7462,1.5912 -16.7684,5.8993 -23.5117,11.1085 -2.2988,-2.4072 -5.0257,-4.463 -8.1701,-6.1525 -4.233,-2.2666 -9.0791,-4.5618 -14.4272,-5.3222 -6.6483,-0.9433 -13.7563,-0.6194 -20.5576,0.9296 -3.7732,0.8588 -7.3194,2.8157 -10.5165,4.3081 v -3.7733 h -36.1264 v 98.5553 h 36.1264 v -54.2054 c 0,-10.32 7.8002,-15.0229 15.0508,-15.0229 3.8315,0 7.3616,1.2673 9.9669,3.5482 3.0441,2.6751 4.6348,6.6455 4.6348,11.4604 v 54.2054 h 36.1263 v -54.2054 c -0.1005,-10.2212 6.7591,-15.0086 14.9241,-15.0223 3.7045,0 7.0973,1.3233 9.5865,3.5476 2.9436,2.6329 4.492,6.6455 4.492,11.461 v 54.2048 h 36.1157 l 0.0371,-65.3419 c 0,-7.2786 -2.5156,-14.079 -7.2929,-19.6967 -4.4022,-5.1811 -10.6435,-10.0246 -18.0474,-12.5872"
       id="path2" />
    <path
       d="M 310.266,183.9153 H 274.1397 V 309.3059 H 310.266 Z"
       id="path3" />
    <path
       d="m 352.4909,212.7361 h -36.1264 v 96.5698 h 36.1264 z"
       id="path4" />
    <path
       d="m 316.3645,208.7794 h 36.1264 v -18.134 c 0,-3.7167 -3.0123,-6.7301 -6.7327,-6.7301 h -29.3937 z"
       id="path5" />
    <path
       d="m 268.0305,183.9153 h -36.1316 v 125.3906 h 36.1316 z"
       id="path6" />
    <path
       d="m 189.6739,238.9372 v 70.3687 h 36.1317 v -96.5698 h -15.22 l -20.9116,26.2011 v 0 z"
       id="path7" />
    <path
       d="m 440.2331,217.1145 c -2.8327,-1.8301 -5.6336,-3.2379 -8.8149,-4.5195 -6.4897,-2.6043 -13.3492,-3.8013 -20.3885,-3.8013 h -0.2959 c -7.1767,0.0423 -14.1472,1.3096 -20.695,4.0407 -6.31,2.6328 -11.9541,6.3639 -16.8107,11.1228 -4.8302,4.7304 -8.6141,10.2354 -11.2617,16.3462 -2.7323,6.3216 -4.1115,13.0089 -4.1115,19.9218 0,6.9272 1.3951,13.6573 4.1379,19.9926 2.6635,6.1244 6.4791,11.6438 11.3357,16.3742 4.8673,4.7589 10.5694,8.4899 16.9058,11.0947 6.59,2.7174 13.587,4.083 20.7954,4.083 7.2084,0 13.8988,-1.3233 20.3885,-3.9424 3.1232,-1.2667 6.0246,-2.7454 8.8149,-4.5195 v 6.0262 h 36.1263 v -98.569 h -36.1263 v 6.3496 0 z m -1.522,42.6181 c 0,11.0102 -10.0251,19.9504 -22.3438,19.9646 -12.3186,0 -22.3438,-8.9544 -22.3438,-19.9646 0,-5.308 2.3094,-10.3063 6.4896,-14.0653 4.1697,-3.7453 9.7292,-5.8428 15.6428,-5.8851 h 0.2114 c 12.3187,0 22.3438,8.9544 22.3438,19.9646"
       id="path8" />
    <path
       d="m 751.8889,277.9791 c -0.0423,9.2224 -4.4603,18.6836 -12.9212,24.1179 -9.6605,6.1953 -22.4601,9.6161 -36.0154,9.6161 -22.0636,0 -46.9282,-10.292 -47.2241,-33.4945 v -3.7025 h 37.5638 c 0,0 -0.0529,1.9004 0.5495,3.3928 1.2525,3.0974 5.66,6.1387 10.1256,6.1387 5.4908,0 10.1203,-2.506 10.1203,-5.4771 0,-1.6187 -0.6606,-2.1821 -2.04,-2.7454 -2.2513,-0.9291 -6.0563,-1.5907 -10.3633,-2.1118 -9.0263,-1.1124 -21.3292,-3.1254 -32.5539,-10.3063 l -0.1532,-0.1126 c -4.2226,-2.9705 -7.3616,-6.1245 -9.5707,-9.6441 -2.4785,-3.9424 -3.731,-8.3493 -3.731,-13.0797 0,-9.1515 5.0364,-17.4021 14.2053,-23.2311 4.4075,-2.8014 9.6289,-4.9698 15.516,-6.4622 5.9242,-1.4924 12.4033,-2.1118 19.2311,-2.1118 h 0.1268 c 4.9149,0.1126 10.1521,0.6616 15.1355,1.8444 5.5331,1.309 10.5588,3.1677 14.9346,5.5188 5.0259,2.7031 8.9841,5.9559 11.785,9.6726 3.1813,4.2235 4.788,8.9687 4.788,14.1076 v 3.8716 h -39.9684 c 0,0 0.2643,-2.6751 -0.8191,-4.3081 -0.5601,-0.9153 -2.5472,-2.5768 -6.5741,-2.5768 -2.9436,0 -4.5343,0.4085 -5.7868,1.1827 -0.6501,0.3942 -1.3952,1.0702 -1.3952,2.8162 0,0.9856 0.2537,2.0552 3.2976,3.3225 3.1233,1.2953 7.811,2.2386 13.2329,3.3088 8.5032,1.6895 16.9112,2.7597 26.1014,7.4335 l 0.1426,0.0708 c 0,0 0.1269,0.0703 0.1427,0.0845 8.9101,4.9698 12.1074,12.5301 12.065,22.8786"
       id="path9" />
    <path
       d="m 231.8989,341.716 v 41.9842 h 6.3848 v -16.969 h 22.4267 v -5.1537 h -22.4267 v -14.6389 h 25.1793 v -5.2226 z"
       id="path10" />
    <path
       d="m 273.7837,341.716 v 5.2226 h 11.2005 v 36.7615 h 6.3334 v -41.9842 h -17.5339 z"
       id="path11" />
    <path
       d="m 330.7946,341.716 v 5.2226 h 15.3216 v 36.7615 h 6.3335 v -36.7615 h 15.3216 v -5.2226 z"
       id="path12" />
    <path
       d="m 382.3983,341.716 v 41.9842 h 32.4595 V 378.492 H 388.7884 V 364.9356 H 411.21 v -5.0986 h -22.4216 v -12.8983 h 25.164 v -5.2226 h -31.5541 z"
       id="path13" />
    <path
       d="m 449.478,347.802 9.6364,20.6013 h -19.2831 l 9.6364,-20.6013 h 0.0104 z m -3.1385,-6.086 -20.2453,41.9981 h 6.5803 l 4.9083,-10.4993 h 23.7799 l 4.9082,10.4993 h 6.7143 L 452.673,341.716 Z"
       id="path14" />
    <path
       d="m 529.5844,341.716 -18.4086,29.4974 -18.64,-29.4974 h -5.2376 v 41.9842 h 6.1277 V 353.271 l 16.1602,25.3306 h 2.948 l 16.1602,-25.5225 0.0515,30.6211 h 6.143 l -0.0721,-41.9842 h -5.2324 v 0 z"
       id="path15" />
    <path
       d="m 0,136.3882 c 250.4318,-4.7748 501.4124,-4.8085 751.8889,0 -250.4317,4.8085 -501.4571,4.7748 -751.8889,0 z"
       id="path16" />
    <path
       d="m 643.2229,9.7145 h -23.9507 l -27.2273,78.4232 h 20.9067 l 3.8579,-13.221 c 4.6612,1.3656 9.6448,2.1964 14.586,2.1964 4.9412,0 9.8984,-0.8308 14.586,-2.1964 l 3.8579,13.221 h 20.9067 z m -11.8432,50.8973 c -3.5778,0 -6.8702,-0.5491 -9.8984,-1.3793 l 9.8984,-34.1007 9.8984,34.1007 c -3.0282,0.8302 -6.6007,1.3793 -9.8984,1.3793 z M 362.575,9.7145 h -23.9491 l -27.5253,78.4232 h 20.9077 l 3.8579,-13.221 c 4.6601,1.3656 9.6448,2.1964 14.5866,2.1964 4.9418,0 9.8979,-0.8308 14.586,-2.1964 l 3.8579,13.221 h 20.9082 L 362.5607,9.7145 h -0.028 z m -12.0943,50.8973 c -3.5762,0 -6.8708,-0.5491 -9.8979,-1.3793 l 9.8979,-34.1007 9.8979,34.1007 c -3.0271,0.8302 -6.3217,1.3793 -9.8979,1.3793 z M 159.8164,9.7145 h -23.9491 l -27.2442,78.4232 h 20.9082 l 3.8579,-13.221 c 4.6601,1.3656 9.6442,2.1964 14.586,2.1964 4.9418,0 9.8979,-0.8308 14.5866,-2.1964 l 3.8579,13.221 h 20.9077 c -0.2817,0 -27.5253,-78.4232 -27.5253,-78.4232 h -0.028 z m -12.1085,50.8973 c -3.5762,0 -6.8708,-0.5491 -9.8979,-1.3793 l 9.8979,-34.1007 9.8979,34.1007 c -3.0414,0.8302 -6.3217,1.3793 -9.8979,1.3793 z M 186.483,9.6865 h 60.2599 V 26.4832 H 225.0044 V 88.1377 H 206.5742 V 26.5117 H 186.483 Z m 92.1784,0.028 v 61.3728 h 25.033 l -5.7863,17.0503 H 260.4843 V 9.7145 Z m 259.7218,55.0512 c 0,14.586 -8.7833,24.4839 -30.5218,24.4839 -15.6848,0 -23.9496,-3.5762 -30.2713,-6.6034 V 63.9349 c 7.9832,4.6601 20.0775,8.2363 30.2713,8.2363 8.8134,0 11.5589,-2.4638 11.5589,-6.6033 0,-4.1395 -2.7455,-6.068 -15.1351,-8.8135 -21.1756,-4.1253 -26.4134,-13.1924 -26.4134,-24.7519 0,-14.3049 10.447,-23.1183 30.8204,-23.1183 10.7281,0 19.8244,2.1964 25.8649,5.2372 v 17.8811 c -8.5334,-3.8579 -17.3331,-6.6034 -26.4139,-6.6034 -7.4341,0 -11.5594,1.9147 -11.5594,6.3217 0,3.5762 2.7455,6.04 14.0232,8.5323 20.626,4.407 27.7763,10.7287 27.7763,24.4839 v 0.0287 z m 39.0599,23.372 H 559.2793 V 9.7145 h 18.1638 z m 132.643,-78.4232 18.9618,35.7622 6.3259,14.854 V 9.7145 h 16.515 V 88.1377 H 730.9769 L 707.3116,44.1111 700.4414,28.4264 V 88.1377 H 683.641 V 9.7145 Z M 401.9128,31.7209 c 0,11.5594 5.2378,20.6266 26.4134,24.7519 12.3897,2.7455 15.1351,4.6601 15.1351,8.8135 0,4.1534 -2.7454,6.6034 -11.5589,6.6034 -10.1796,0 -22.2881,-3.5762 -30.2708,-8.2363 v 18.7119 c 6.3217,3.0271 14.586,6.6028 30.2708,6.6028 22.0059,0 30.5245,-9.8979 30.5245,-24.2023 m 0.028,0.253 c 0,-13.7558 -7.1524,-20.0775 -27.779,-24.4839 -11.2777,-2.4923 -14.0232,-4.9561 -14.0232,-8.518 0,-4.407 4.1253,-6.3217 11.5594,-6.3217 9.0671,0 17.8811,2.7455 26.4128,6.6028 V 14.4174 c -6.068,-3.0271 -15.1351,-5.2378 -25.8638,-5.2378 -20.3729,0 -30.8061,8.814 -30.8061,23.1183 M 88.9399,84.4066 47.7858,2.0975 C 46.9832,0.3097 46.1807,0 45.1951,0 44.3926,0 43.407,0.3377 42.4496,1.9427 c -5.8289,9.222 -8.4195,19.9226 -8.4195,31.1015 0,15.5579 7.9268,30.1445 19.5984,53.6148 1.2958,2.5906 2.2809,3.0837 4.5338,3.0837 h 28.5109 c 2.0981,0 3.2385,-0.8028 3.2385,-2.4358 0,-0.8028 -0.1548,-1.2953 -0.9856,-2.9288 l 0.028,0.0285 h -0.0143 v 0 z M 29.1586,45.5327 c -3.2383,-4.8715 -4.2239,-5.1812 -5.0264,-5.1812 -0.8025,0 -1.2953,0.3382 -2.7455,3.2385 L 0.8025,84.7163 C 0.1548,86.0116 0,86.5041 0,87.1521 c 0,1.2953 1.1404,2.5906 3.5762,2.5906 h 29.0037 c 1.943,0 3.3932,-1.6335 4.2239,-4.6887 0.9856,-3.8859 1.2953,-7.2793 1.2953,-11.348 0,-11.348 -5.0264,-22.3584 -8.9123,-28.2012 l -0.0281,0.028 v 0 z"
       style="fill:#1868db"
       id="path17" />
  </g>
  <metadata
     id="metadata17">
    <rdf:RDF>
      <cc:Work
         rdf:about="">
        <dc:title>Atlassian_Williams_F1_Team-logo - brandlogos.net</dc:title>
      </cc:Work>
    </rdf:RDF>
  </metadata>
</svg>
