<?xml version="1.0" encoding="UTF-8" standalone="no"?>
<svg
   id="Layer_1"
   viewBox="0 0 499.99999 500.00001"
   version="1.1"
   sodipodi:docname="cadillac.svg"
   width="500"
   height="500"
   inkscape:version="1.4.3 (0d15f75, 2025-12-25)"
   xmlns:inkscape="http://www.inkscape.org/namespaces/inkscape"
   xmlns:sodipodi="http://sodipodi.sourceforge.net/DTD/sodipodi-0.dtd"
   xmlns="http://www.w3.org/2000/svg"
   xmlns:svg="http://www.w3.org/2000/svg">
  <sodipodi:namedview
     id="namedview12"
     pagecolor="#ffffff"
     bordercolor="#000000"
     borderopacity="0.25"
     inkscape:showpageshadow="2"
     inkscape:pageopacity="0.0"
     inkscape:pagecheckerboard="0"
     inkscape:deskcolor="#d1d1d1"
     inkscape:zoom="0.55559379"
     inkscape:cx="-28.798018"
     inkscape:cy="30.597894"
     inkscape:window-width="1440"
     inkscape:window-height="890"
     inkscape:window-x="-6"
     inkscape:window-y="-6"
     inkscape:window-maximized="1"
     inkscape:current-layer="Layer_1" />
  <defs
     id="defs1">
    <style
       id="style1">.cls-1{fill:#fff;}</style>
  </defs>
  <g
     id="g12"
     transform="matrix(1.396531,0,0,1.396531,-145.46267,150.97199)">
    <path
       id="path24"
       d="m 462.19,3.48 -24.1,34.03 c -2.64,14.45 -9.55,51.68 -10.33,55.3 -2.27,10.42 -3.36,16.76 -23.81,21.62 -27.23,6.46 -89.5,19.01 -120.79,23.91 -31.27,-4.89 -93.52,-17.45 -120.75,-23.91 -20.45,-4.87 -21.54,-11.2 -23.81,-21.62 -0.78,-3.6 -7.69,-40.85 -10.34,-55.3 L 104.16,3.48 h 358.02 z" />
    <path
       id="path28"
       class="cls-1"
       d="M 443.18,9.88 H 123.2 l 19.01,27.14 c 4.75,28.22 7.69,46.37 8.91,52.7 2.11,11.01 2.49,15.75 13.86,18.82 22.61,5.35 88.12,18.82 118.23,23.36 30.11,-4.54 95.63,-18 118.25,-23.36 11.37,-3.06 11.74,-7.81 13.86,-18.82 1.19,-6.33 4.16,-24.47 8.91,-52.7 L 443.2,9.88 Z" />
    <path
       id="path32"
       d="m 182.39,64.67 h -30.73 l -2.38,-14.08 h 131.95 v 14.08 h -3.56 V 53.89 h -96.4 z" />
    <path
       id="path36"
       d="M 148.75,47.38 H 281.2 V 37.06 H 147.03 Z" />
    <path
       id="path40"
       d="m 231.59,82.01 h 49.63 v -7.39 h -49.61 z" />
    <path
       id="path44"
       d="m 145.74,33.77 h 31.39 l -5.94,-10.33 h 106.49 v 10.29 h 3.56 V 19.87 H 136.01 l 9.72,13.9 z" />
    <path
       id="path48"
       d="m 335.21,19.87 h -50.06 v 20.75 h 50.09 l -0.02,-20.75 z" />
    <path
       id="path52"
       d="m 158.8,99.87 c 0.81,1.24 2.32,2.67 7.33,4.03 2.42,0.59 5.12,1.19 8.85,2.02 h 53.14 V 98.6 h -70.01 c 0.19,0.44 0.41,0.87 0.68,1.27 z" />
    <path
       id="path56"
       d="m 155.77,88.68 h 72.36 V 67.99 h -75.91 l 3.56,20.69 z" />
    <path
       id="path60"
       d="m 231.59,117.7 c 18.53,3.65 36.65,7.01 49.66,9.05 V 92.03 h -49.66 z" />
    <path
       id="path64"
       d="m 338.64,64.67 h 76.07 l 3.47,-20.75 h -79.55 v 20.75 z" />
    <path
       id="path68"
       d="m 338.64,26.47 v 7.37 l 81.82,-0.03 5.13,-7.34 h -86.96 z" />
    <path
       id="path72"
       d="m 285.15,82.01 h 3.56 V 71.56 h 94.67 c -0.12,1.02 -1.01,8.02 -1.47,10.48 h 29.89 l 2.38,-14.05 H 285.15 Z" />
    <path
       id="path76"
       d="M 285.15,95.54 H 409.29 L 411.3,85.26 H 285.15 Z" />
    <path
       id="path78"
       d="m 335.23,50.6 h -50.09 v 7.41 h 50.09 z" />
    <path
       id="path82"
       d="m 313.21,118.2 c -4.95,0.94 -18.82,3.36 -24.5,4.39 v -20.43 h 87.72 c -4.2,4.94 -12.84,6.41 -63.22,16.04 M 285.15,98.6 v 28.14 c 31.56,-5.16 92.84,-17.31 115.13,-22.86 5.04,-1.25 6.53,-2.77 7.34,-4.01 0.27,-0.4 0.49,-0.82 0.67,-1.27 z" />
  </g>
</svg>
