<?xml version="1.0" encoding="UTF-8" standalone="no"?>
<svg
   id="Layer_1"
   data-name="Layer 1"
   viewBox="0 0 555.55556 555.55556"
   version="1.1"
   sodipodi:docname="scuderia-ferrari-logo-brandlogos.net_mudh9xgcl.svg"
   width="500"
   height="500"
   inkscape:version="1.4.3 (0d15f75, 2025-12-25)"
   xmlns:inkscape="http://www.inkscape.org/namespaces/inkscape"
   xmlns:sodipodi="http://sodipodi.sourceforge.net/DTD/sodipodi-0.dtd"
   xmlns="http://www.w3.org/2000/svg"
   xmlns:svg="http://www.w3.org/2000/svg"
   xmlns:rdf="http://www.w3.org/1999/02/22-rdf-syntax-ns#"
   xmlns:cc="http://creativecommons.org/ns#"
   xmlns:dc="http://purl.org/dc/elements/1.1/">
  <defs
     id="defs8" />
  <sodipodi:namedview
     id="namedview8"
     pagecolor="#ffffff"
     bordercolor="#000000"
     borderopacity="0.25"
     inkscape:showpageshadow="2"
     inkscape:pageopacity="0.0"
     inkscape:pagecheckerboard="0"
     inkscape:deskcolor="#d1d1d1"
     inkscape:zoom="0.62050505"
     inkscape:cx="203.06039"
     inkscape:cy="293.30946"
     inkscape:window-width="845"
     inkscape:window-height="544"
     inkscape:window-x="-5"
     inkscape:window-y="0"
     inkscape:window-maximized="0"
     inkscape:current-layer="Layer_1" />
  <title
     id="title1">Scuderia Ferrari logo - Brandlogos.net</title>
  <g
     id="g8"
     transform="matrix(1.5094978,0,0,1.5094978,72.976664,-0.06038729)">
    <path
       d="m 271.28,31.17 v 7 L 135.64,14.33 0,38.18 v -7 l 135.63,-24 z"
       style="fill:#ffffff"
       id="path1" />
    <path
       d="m 271.28,24.04 v 7.18 L 135.64,7.17 0.01,31.17 v -7.13 l 135.63,-24 z"
       style="fill:#0d8922"
       id="path2" />
    <path
       d="M 271.28,38.18 135.64,14.34 0,38.18 v 24.2 l 1.18,-0.66 c 0.48,-0.27 48.6,-27 134.73,-27 86.13,0 133.69,26.78 134.17,27 l 1.15,0.67 z"
       style="fill:#ed1c24"
       id="path3" />
    <path
       d="m 135.91,39.36 c 77.76,0 123.29,21.95 130.66,25.8 v 69.66 A 258.71,258.71 0 0 1 240.09,247.3 C 201.64,327.36 143.74,358.8 135.64,362.91 127.53,358.8 69.64,327.36 31.15,247.29 A 258.83,258.83 0 0 1 4.64,134.81 V 65.16 c 7.45,-3.84 53.46,-25.8 131.25,-25.8"
       style="fill:#fff200"
       id="path4" />
    <path
       d="m 135.91,39.36 c 77.76,0 123.29,21.95 130.66,25.8 v 69.66 A 258.71,258.71 0 0 1 240.09,247.3 C 201.64,327.36 143.74,358.8 135.64,362.91 127.53,358.8 69.64,327.36 31.15,247.29 A 258.83,258.83 0 0 1 4.64,134.81 V 65.16 C 12.09,61.32 58.1,39.36 135.89,39.36 M 1.18,61.72 0,62.38 v 72.43 A 263.34,263.34 0 0 0 26.94,249.3 c 42,87.45 107.07,118 107.73,118.33 l 1,0.45 1,-0.45 c 0.65,-0.3 65.69,-30.89 107.68,-118.33 a 263.23,263.23 0 0 0 27,-114.49 V 62.39 l -1.16,-0.67 c -0.48,-0.26 -48,-27 -134.17,-27 -86.17,0 -134.38,26.72 -134.84,27"
       style="fill:#0a0a0a"
       id="path5" />
    <path
       d="m 102.51,287.89 c -6.42,-2.5 -10.1,-3.87 -10.19,-6.91 0,-5.13 6.42,-3.9 7.9,-3.37 a 19.76,19.76 0 0 1 11.38,9 c 0,0 -1.38,-8.2 -1.69,-9.76 -0.31,-1.56 -1.23,-1.35 -1.71,-1.29 -1,0.07 -1,1.77 -1,1.77 0,0 -20.68,-8.71 -20.68,4.93 0,6.39 6.8,7.44 9.82,9 6.13,3.25 13.85,5.18 14.51,10.05 0.6,4.36 -3.29,9.23 -11.69,9.23 a 11.87,11.87 0 0 1 -11.69,-9.55 c 0.32,-1.56 1.87,-0.63 3.12,-0.63 a 2.72,2.72 0 0 0 2.36,-3.93 c -0.78,-2 -7.26,-2.15 -7.26,4.47 0,9.37 9.28,12.2 13.32,12.2 a 13.6,13.6 0 0 0 14.25,-9.93 c 2,-8.89 -2.33,-12 -10.75,-15.28 m 85.13,-7.6 a 119.11,119.11 0 0 0 11.86,-1.49 28.07,28.07 0 0 0 9.36,-4.67 50.63,50.63 0 0 1 -14.1,2.52 33.78,33.78 0 0 1 -11.57,-0.19 32.36,32.36 0 0 0 -14.14,-0.85 9.23,9.23 0 0 0 -8.19,7.7 c -0.48,3 3,4.8 6,4.06 a 6.64,6.64 0 0 0 4.15,-4.63 11.4,11.4 0 0 1 -4.19,2 c -2.14,0.39 -3.25,-1.11 -2.64,-2.63 a 5.55,5.55 0 0 1 4.78,-3.81 32.57,32.57 0 0 1 8.1,0 c 4.07,0.4 6.13,1.14 5,3 a 30.11,30.11 0 0 0 -4.73,7.69 c -0.89,2.18 -0.66,3.27 -2.13,3.27 a 5.64,5.64 0 0 0 -4.12,1 4.38,4.38 0 0 0 -1.53,3.64 4.93,4.93 0 0 1 4.67,-2.16 c 0.78,0 0.28,2 -0.5,3.63 -0.78,1.63 -4.7,12.2 -12.93,12.2 a 9.3,9.3 0 0 1 -9.64,-8.95 q 0,-0.42 0,-0.84 c 0.85,-2.13 2.34,-0.19 4.07,-0.67 a 2.67,2.67 0 0 0 1.06,-4.71 c -5.24,-3.61 -10.23,5.27 -4.77,13.07 5.15,7.44 13.34,4.63 17.62,2.37 a 21,21 0 0 0 8.09,-9.75 c 1.43,-2.91 2.71,-6.16 2.71,-6.16 a 15.31,15.31 0 0 0 4.52,-0.67 7.09,7.09 0 0 0 3.4,-3.22 13.71,13.71 0 0 1 -6.91,0.91 c -0.62,0 0.83,-3.06 2.19,-5.71 a 14.51,14.51 0 0 1 4.53,-5.94"
       style="fill:#0a0a0a"
       id="path6" />
    <path
       d="m 130.05,58.35 c 0.13,0 1.78,-0.78 1.78,-0.78 a 11.16,11.16 0 0 0 -0.31,-1.72 c 0,-0.05 -3.59,-4.23 -3.59,-4.23 l -0.17,-0.2 -0.07,0.27 -0.37,1.69 c 0,0 -1.15,2.72 -1.15,2.72 l -0.05,0.11 2.4,1.24 1.53,0.91 m 86.77,86.59 c -0.17,-0.21 -0.31,-0.22 -0.39,-0.19 -0.08,0.03 -0.2,0.1 -0.23,0.36 -0.15,1.07 -1.49,3.84 -2.57,4.25 a 9,9 0 0 0 -4.07,5.25 c -0.42,1 -0.83,1.87 -1.14,1.89 -0.15,0 -0.29,-0.14 -0.46,-0.45 a 13.35,13.35 0 0 1 0,-8.68 l 0.16,-0.7 a 24,24 0 0 1 4.94,-7.77 l 0.74,-0.89 a 13.2,13.2 0 0 0 1.21,-6.61 0.13,0.13 0 0 0 -0.15,0.05 l -0.06,0.08 v 0 0 a 0.5,0.5 0 0 0 -0.18,0.33 26.25,26.25 0 0 1 -7.74,8.64 24.78,24.78 0 0 0 -3,3.56 9.21,9.21 0 0 1 -1.44,1.75 15.32,15.32 0 0 1 1.95,-11.51 l 0.46,-0.87 a 25.63,25.63 0 0 1 7.16,-9.57 0.34,0.34 0 0 0 -0.06,-0.43 c -0.19,-0.16 -0.54,-0.08 -1.12,0.2 l -0.31,0.16 a 22.46,22.46 0 0 0 -10.45,9.81 30.46,30.46 0 0 0 -3.29,13.5 14.4,14.4 0 0 0 0.63,4.66 134.87,134.87 0 0 1 3.82,13.82 107.42,107.42 0 0 1 0.45,12.34 c 0,2 0,3.35 0,3.41 l -1,3.26 a 15.87,15.87 0 0 1 -4.66,6.86 22.89,22.89 0 0 1 -8.9,5.69 8.22,8.22 0 0 1 -3.64,-0.18 c 0,-4.91 -8.38,-16.33 -12.67,-20.1 a 88.57,88.57 0 0 0 -13.82,-10.23 c -6.06,-3.7 -12.78,-19.18 -12.85,-19.33 l -0.59,-2.09 c 0,0 -0.33,-4.18 -0.42,-5.26 0.22,0.12 0.5,0.3 0.5,0.3 l 2.07,1.21 2.36,0.9 c 0,0 3.11,0.62 3.11,0.62 l 1.72,0.89 1.61,1 2.49,1.8 2.55,1.35 3.07,0.16 0.03,-0.15 -3.5,-1.64 c 0,-0.06 -1.25,-2.22 -1.25,-2.22 l -1.47,-2.1 -1.81,-1.1 c -0.05,0 -2.23,-0.32 -2.24,-0.32 l -0.73,-0.62 0.57,-0.35 c 0,0 2.4,0.31 2.41,0.31 0.01,0 2.13,1.48 2.13,1.48 l 2.33,1.81 2.22,0.86 0.28,0.12 -0.94,-2.5 c 0,0 -1.82,-1.7 -1.82,-1.7 l -2.64,-2.26 c 0,0 -2.07,-1.08 -2.07,-1.08 l -2.22,-0.75 -2.25,-1.5 v -0.3 l 3.21,1.29 2.81,0.76 2.33,0.9 3.36,1.64 c 0,0 2.83,0.62 2.83,0.62 l 3.42,-0.61 c 0.06,0 3.29,-2.28 3.29,-2.28 0,0 0.64,-1.4 0.64,-1.4 l 0.13,-0.31 -1.05,0.43 -2.94,1.49 -2,0.44 -2.3,-0.46 v 0 c 0,0 -1.85,-1.76 -1.85,-1.76 l -2.64,-2.56 -2.38,-1.23 -2.82,-0.46 -1.72,-0.89 c 0,0 0,0 0,-0.08 0,-0.2 0,-0.65 -0.07,-0.86 l 3.5,0.3 3.83,-0.3 2.16,0.44 2.19,0.91 2.24,0.3 0.4,0.06 -2.5,-2.4 -2.51,-1.82 -2.09,-0.76 -3.54,-0.3 c 0,0 0,-0.07 0,-0.16 0,-0.09 0,-0.5 -0.05,-0.66 l 1.62,-0.27 2.59,0.59 2.46,1.48 2.67,0.91 c 0.07,0 3.87,-0.59 3.87,-0.59 h 0.23 l -1.1,-1.54 c -0.06,-0.05 -2,-0.65 -2,-0.65 l -1.57,-1.19 -2.35,-1.66 -1.79,-0.61 -2.81,-0.45 c 0,0 -1.37,-1.29 -1.4,-1.32 a 3.62,3.62 0 0 0 0.16,-0.64 l 1.46,0.4 1.88,0.9 2.67,0.84 -0.58,-1.19 c 0,0 -1,-1.08 -1,-1.08 l -0.89,-1.15 0.4,-0.1 c 0,0 2.85,1.5 2.85,1.5 l 2.22,0.76 1.71,1.61 3.26,1.86 0.32,0.19 -0.58,-1.59 c 0,0 -1.78,-2.29 -1.78,-2.29 l -1.46,-2.53 c 0,0 -2.66,-2.73 -2.66,-2.73 0,0 -3.4,-1.84 -3.4,-1.84 l -1.3,-1.47 -2.35,-2.42 c 0,0 -0.24,-0.85 -0.37,-1.27 l 2.29,0.75 2.64,0.75 1.88,1.19 1.57,1.93 c 0.06,0 2.55,1.1 2.55,1.1 l 6.39,0.83 h 0.36 l -1.74,-1.84 c -0.05,0 -3.42,-1.54 -3.42,-1.54 l -2,-1.48 c 0,0 -1.14,-2.08 -1.14,-2.08 l -1.18,-2.1 c 0,0 -1.92,-1.83 -1.92,-1.83 0,0 -2.38,-1.38 -2.38,-1.38 l -2.32,-1.94 c 0,0 -0.56,-1.19 -0.92,-2 0.6,0.57 1.61,1.56 1.61,1.56 l 3.1,2.71 2.39,1.08 2,1.63 2.35,2.4 c 0.08,0 3.75,0.56 3.75,0.56 l 0.45,0.07 -3.72,-3.22 c 0,-0.07 -0.83,-2.65 -0.83,-2.65 0,0 -1.95,-1.86 -1.95,-1.86 l -1,-1.19 c 0,0 -1,-3.1 -1,-3.1 0,0 -2.1,-2.15 -2.1,-2.15 0,0 -3.36,-3.15 -3.36,-3.17 v 0 c 0,0 -0.12,-0.52 -0.19,-0.84 l 0.6,0.31 3.08,1.79 c 0,0 3.7,1.08 3.7,1.08 l 3.82,0.9 4.42,0.72 -1,-2.12 c -0.07,-0.07 -2.27,-1 -2.27,-1 l -2,-1.19 -2.51,-1.07 -2.19,-0.9 c 0,0 -1.43,-1.86 -2.22,-2.88 l 1.92,1.31 c 0.06,0 2,0.18 2,0.18 h 6 l 2.44,1.34 2.08,2.25 0.28,0.3 -0.26,-2.53 c 0,-0.08 -1.34,-1.73 -1.34,-1.73 0,0 -3.56,-2 -3.56,-2 l -3.01,-0.97 -4.28,-0.75 v 0 c 0,0 -0.81,-1 -0.81,-1 l -3.09,-2.86 -1.5,-0.77 -0.75,-0.79 h 1.58 l 2.42,1.48 3.26,1.06 4.13,0.6 c 0,0 1.53,1.77 1.53,1.77 l 2.24,1.37 c 0.05,0 2.54,0.46 2.54,0.46 l 0.35,0.06 -5.18,-6.49 -2.54,-1.38 c 0,0 -2.94,-0.92 -2.94,-0.92 0,0 -2.59,-3 -2.59,-3 0,0 -3.27,-2 -3.27,-2 l -2.34,-0.57 c 0.15,-0.24 0.63,-1 0.63,-1.05 0,-0.05 2.61,-1.08 2.61,-1.08 l 3.78,-0.73 a 6.08,6.08 0 0 0 0.4,-1 15.3,15.3 0 0 0 -1.66,-1.21 l -1.94,-0.62 a 10.63,10.63 0 0 0 -1.14,0.61 l -3.17,0.13 -3.79,-0.9 -3.92,-3.28 -1.79,-0.91 c -0.05,0 -6.48,-0.77 -6.5,-0.77 -0.02,0 -1.52,-2.34 -1.52,-2.34 0,0 -2.06,-2.27 -2.06,-2.27 0,0 -2.64,-2.39 -2.64,-2.39 l -0.08,0.17 -0.88,2 -0.87,1.33 v 0 c 0,0.24 0.13,1.55 0.13,1.55 0,0 0.9,1 0.91,1 0.01,0 -0.33,1.36 -0.33,1.37 0,0.01 -3.53,0.05 -3.53,0.05 0,0 -2.89,-1.34 -2.89,-1.34 l -2.21,-0.75 -5.19,0.15 c -0.1,0.06 -1,1.41 -1,1.41 l -0.11,0.17 2.26,0.33 c 0,0 0.33,0.22 0.52,0.34 l -0.58,0.48 c 0,0 -3.15,-0.18 -3.15,-0.18 0,0 -2.25,0.91 -2.25,0.91 l -0.23,0.1 1.09,0.73 c 0.06,0 4.76,0.18 4.76,0.18 l 3.49,0.9 c 0,0.05 0.67,1 0.67,1 0,0 0.47,0.66 0.64,0.93 l -1.49,0.83 -4.24,1.8 -8.81,5 -5.81,0.86 c 0,0 -2.26,1.26 -2.26,1.26 0,0 -1.83,2.51 -1.83,2.51 0,0 -1,3.12 -1,3.12 -0.08,5.25 0.13,5.37 0.21,5.42 a 3.25,3.25 0 0 0 2.85,0.34 26.75,26.75 0 0 1 5.63,-1.75 c 0.72,-0.15 1.07,0.11 1.13,0.38 0.06,0.27 -0.14,0.7 -0.69,0.85 l -0.3,0.09 c -2.56,0.7 -5.18,1.54 -5.1,2.53 l 0.46,0.75 a 9.12,9.12 0 0 0 5.68,0.07 l 1.65,-0.46 a 11.36,11.36 0 0 1 4.42,-0.76 7.65,7.65 0 0 1 2.32,0.82 10.74,10.74 0 0 0 4.33,1.29 16.93,16.93 0 0 1 5.54,1.05 5.59,5.59 0 0 1 -0.06,3.21 l -0.17,0.95 c -0.89,8.13 -9.94,17.31 -14.29,21.72 a 17.38,17.38 0 0 0 -2.12,2.32 l -0.5,1.15 a 3.71,3.71 0 0 1 -2.15,2.57 35.74,35.74 0 0 0 -4.83,3.34 29.39,29.39 0 0 1 -8.06,5.12 57.74,57.74 0 0 1 -10.48,-6.31 C 77.77,116.38 74.37,118 72.34,118.95 l -0.33,0.15 c -2.42,1.1 -5,8 -5.19,9.46 l -1,4.24 -0.75,3.12 c -0.22,1 -1.22,3.63 -2.18,6.14 l -2,5.44 a 34.72,34.72 0 0 1 -1.74,4.47 l -0.87,2.12 a 59.8,59.8 0 0 0 0.43,17.33 l 0.05,0.05 0.21,0.06 c 1,-0.11 3.31,-2.45 4.39,-3.58 l 0.25,-0.26 a 8.83,8.83 0 0 0 1.9,-4.44 18.6,18.6 0 0 0 -0.66,-3.73 24.36,24.36 0 0 1 -0.65,-10.85 l 0.11,-0.92 a 6.47,6.47 0 0 1 2,-3 l 1.18,-1.36 a 4.1,4.1 0 0 1 2,-1.4 l 1,-0.59 0.15,-0.17 a 9,9 0 0 0 2.38,-3.45 l 1,-4.31 0.21,-1.14 a 0.46,0.46 0 0 1 0.36,-0.4 1.44,1.44 0 0 1 1.25,0.56 l 7.19,8.36 a 17.2,17.2 0 0 1 3.73,3.86 v 0 h -0.05 a 43.39,43.39 0 0 1 -6.9,-1.22 c -6.88,-2 -10,-1.66 -12.45,1.38 -2.76,3.48 -1.89,14.15 -1.33,15.31 0.56,1.16 3,14.05 3.16,15.79 a 12.84,12.84 0 0 0 1.45,5.43 l 0.18,0.19 a 11.82,11.82 0 0 1 3.47,5.31 21.2,21.2 0 0 0 7.5,9.47 0.93,0.93 0 0 0 0.86,-0.16 c 1.49,-1.07 2.17,-6.24 2.25,-8.43 a 7.6,7.6 0 0 0 -1.92,-5.45 l -0.4,-0.56 a 5.39,5.39 0 0 0 -3,-1.67 c -0.37,-0.11 -0.89,-0.23 -0.89,-0.34 0,-0.11 -0.11,-4 -1.38,-4.8 a 12.08,12.08 0 0 1 -2.11,-5.93 24.94,24.94 0 0 0 -1.43,-6.51 12.67,12.67 0 0 1 -1.07,-6.61 1.46,1.46 0 0 1 1.35,-1.32 2.62,2.62 0 0 1 2.21,0.59 49.48,49.48 0 0 0 10.07,6.09 23.75,23.75 0 0 1 5.4,3.88 20.29,20.29 0 0 0 3.1,2.35 20,20 0 0 0 5.71,0.54 14.83,14.83 0 0 1 2.46,0.15 c -0.86,0.35 -0.85,1.87 -0.79,2.36 0.89,6.28 23.7,23.57 25.45,24.54 a 68.92,68.92 0 0 1 10,9.81 5.25,5.25 0 0 1 1.19,3 5.2,5.2 0 0 0 1.35,3.93 4.82,4.82 0 0 0 3.43,1.77 c 1,0 1.7,-0.9 2.2,-1.56 l 0.1,-0.15 a 15,15 0 0 0 3.65,-8.6 c 0.26,-4.23 2.22,-5.93 2.84,-6 0.29,-0.05 0.49,0 0.57,0.22 0.08,0.22 0,0.51 -0.4,0.77 a 9.34,9.34 0 0 0 -1.93,4.45 l -0.22,2.05 a 6.77,6.77 0 0 1 -1.62,4.91 28.38,28.38 0 0 0 -5.53,15.29 36.55,36.55 0 0 0 5.75,18.44 l 0.3,0.57 1.14,1.92 a 23.55,23.55 0 0 1 3,5.68 6.77,6.77 0 0 1 -2,4 114.17,114.17 0 0 1 -9.67,10.8 3.41,3.41 0 0 0 -2.77,1 l -1.19,0.91 a 4,4 0 0 0 -1.74,2.25 2.39,2.39 0 0 1 -0.92,1.31 l -0.45,0.32 c -0.09,0.07 -0.36,0.43 -3.18,3.28 a 12.37,12.37 0 0 0 -4.2,10.5 c 0.14,1.13 1.13,1.52 4,1.66 a 16.35,16.35 0 0 0 9.79,-6 l 0.1,-0.57 c 0.24,-1.37 0.67,-3.67 1.43,-4 a 17.14,17.14 0 0 0 3.57,-3.5 l 0.23,-0.23 a 4.27,4.27 0 0 0 0.89,-2.07 4,4 0 0 1 0.58,-1.53 2.86,2.86 0 0 1 1.11,-0.76 4.87,4.87 0 0 0 2.78,-3 33.81,33.81 0 0 1 9,-7.84 24.53,24.53 0 0 0 3.47,-2.71 5.23,5.23 0 0 0 0.73,-2.94 5.36,5.36 0 0 0 -1.29,-3.83 18.44,18.44 0 0 1 -2.91,-6 v 0 c 0,-0.47 0,-1.33 -0.12,-2.95 a 1.88,1.88 0 0 1 0,-0.22 c 0,-4.24 6.3,-8.39 9,-10.19 l 1.23,-0.87 c 9.86,-8.71 11.79,-15.34 12.15,-17.16 l 0.21,-2.18 c 0.06,-1.52 0.11,-2.95 1,-3.14 a 1.63,1.63 0 0 1 1.3,0.65 1.25,1.25 0 0 1 0.31,1.28 c -0.44,1.22 -0.61,13.52 -0.61,14 0,0.09 1.07,1.29 1.07,1.29 l 0.19,0.22 0.05,-0.29 c 0,-0.14 0.58,-3.49 0.58,-4.68 a 20.83,20.83 0 0 1 2.64,-7.1 0.14,0.14 0 0 0 0,0.06 18.18,18.18 0 0 1 0.58,4.79 9.13,9.13 0 0 1 -1.28,5.34 27.47,27.47 0 0 0 -3.43,6.63 l -0.7,1.63 a 1.91,1.91 0 0 0 -0.11,0.7 14.64,14.64 0 0 0 1.32,5.5 c 0.14,0.14 0.25,0.14 0.33,0.11 0.08,-0.03 0.33,-0.28 0.33,-1.58 a 12.6,12.6 0 0 1 4.21,-8.61 15.82,15.82 0 0 0 4.55,-12.35 33.49,33.49 0 0 0 -0.47,-5.58 c 0,0 -1.72,-2.52 -1.76,-2.58 -0.04,-0.06 0.55,-0.35 0.71,-0.48 0.16,0.19 1.82,2.43 1.82,2.43 a 5.83,5.83 0 0 1 1,2 23.52,23.52 0 0 0 0.67,5.58 l 0.06,0.31 a 62,62 0 0 0 2.22,5.9 l 0.19,0.46 0.05,-0.51 a 18.08,18.08 0 0 0 0,-4.24 14.6,14.6 0 0 1 0.26,-3.88 l 0.32,-3.31 a 10.57,10.57 0 0 0 -1.33,-6 l -0.49,-0.73 a 2.19,2.19 0 0 1 -0.36,-0.67 l 0.36,-0.16 a 21.78,21.78 0 0 0 12.83,-11.53 26.66,26.66 0 0 0 1.61,-9.53 48.71,48.71 0 0 0 -1.17,-11.47 16.45,16.45 0 0 1 -0.24,-6.59 l 0.24,-4 a 11.64,11.64 0 0 1 2.87,-6.81 l 1.67,-2.6 a 4.62,4.62 0 0 0 0.07,-4.6 m -79.62,100.22 3.39,1.62 a 5,5 0 0 0 3.66,0.23 8,8 0 0 0 2.66,-3.77 1.81,1.81 0 0 0 -0.27,-1.69 49.07,49.07 0 0 1 -4.53,-12.68 45,45 0 0 1 0.37,-8.65 27.5,27.5 0 0 0 0.3,-4.92 c -0.24,-0.68 -1.25,-1.34 -2.43,-2.09 l -1.85,-1.26 a 3.82,3.82 0 0 1 -1.08,-3.1 l -0.19,-1.85 A 41.7,41.7 0 0 0 126.72,196.3 c -2,-0.13 -2.46,2 -2.59,3.3 a 47.48,47.48 0 0 0 1.59,7.13 l 0.86,3.61 a 77.38,77.38 0 0 0 9.46,19.93 l 1.21,2.07 c 0.54,1.21 0.32,2.16 -0.61,2.68 a 45.33,45.33 0 0 1 -12.45,-1.16 39.75,39.75 0 0 1 -5.52,-1.94 23.2,23.2 0 0 0 -5.52,-1.81 4.66,4.66 0 0 0 -2.59,0.46 l -0.85,0.23 -0.84,-0.27 a 23.74,23.74 0 0 0 -8.26,-1.78 c -7.7,-0.72 -8.28,0.84 -8.59,1.67 -0.39,1.08 4.33,6.09 5.17,6.76 a 11,11 0 0 0 6.65,1.84 57.53,57.53 0 0 1 6.84,-0.78 l 0.78,0.49 0.74,0.53 a 50.69,50.69 0 0 0 6.28,0.58 c 1.5,0.08 5.44,0.9 8.32,1.5 l 3.22,0.66 a 43.08,43.08 0 0 1 7.13,3.16"
       style="fill:#0a0a0a"
       id="path7" />
    <path
       d="m 131.64,238.42 0.11,-0.17 c 0.21,-0.85 -4,-2.16 -6.29,-2.75 a 16.05,16.05 0 0 0 -6.65,-0.81 h -0.05 l -0.11,0.19 c -0.21,0.84 4,2.16 6.28,2.75 a 16.81,16.81 0 0 0 6.66,0.8 z m -17.91,-6 c -0.71,0 -1.27,0.38 -1.27,0.87 0,0.49 0.56,0.86 1.27,0.86 0.71,0 1.24,-0.4 1.24,-0.86 0,-0.46 -0.56,-0.87 -1.24,-0.87 m -14.68,-1 c -1,0 -1.8,0.57 -1.8,1.27 0,0.7 0.81,1.27 1.8,1.27 0.99,0 1.81,-0.54 1.81,-1.27 0,-0.73 -0.8,-1.27 -1.81,-1.27 m 34.59,48.21 a 3.12,3.12 0 0 0 -1.88,1.06 3.17,3.17 0 0 0 -1.05,1.93 0.59,0.59 0 0 0 0.18,0.47 l 0.47,0.19 a 3.08,3.08 0 0 0 1.88,-1.07 c 0.93,-1 1.29,-2 0.87,-2.4 z m 6.62,-9.59 a 2.93,2.93 0 0 0 -1.65,1 c -0.7,0.7 -1.22,1.68 -0.83,2.09 l 0.37,0.13 a 2.87,2.87 0 0 0 1.66,-1 c 0.69,-0.71 1.22,-1.67 0.82,-2.07 z m 15.11,-14 h -0.14 a 21.25,21.25 0 0 0 -5.75,4.77 c -0.21,0.21 -5.23,5.39 -4.57,6.06 v 0 h 0.16 a 21.46,21.46 0 0 0 5.75,-4.76 c 0.21,-0.22 5.26,-5.39 4.57,-6.08 z M 140.2,235.95 a 1.1415779,1.1415779 0 1 0 -0.12,2.28 h 0.12 a 1.141326,1.141326 0 0 0 0.11,-2.28 h -0.11 m 20.82,16.6 a 1.3552306,1.3552306 0 1 0 -0.05,2.71 h 0.05 a 1.355,1.355 0 1 0 0,-2.71 v 0 m -8.84,-9.8 0.06,-0.37 c 0,-0.22 0.69,-5.38 -0.9,-7.37 a 2,2 0 0 0 -1.37,-0.77 1,1 0 0 0 -1,0.41 c -1,1.56 2.81,7.52 3,7.78 z m -5.52,-18.49 c 0,0.05 0.16,0.27 0.35,0.26 h 0.08 l 0.15,-0.21 1.21,-3.71 1,-2.47 0.81,-1.87 q 0.36,-0.94 0,-1.29 c -0.39,-0.36 -1.19,-0.06 -1.28,0 -0.09,0.06 -2.28,3.76 -2.28,3.76 a 4.58,4.58 0 0 0 -0.6,2.48 7.19,7.19 0 0 0 0.62,3.09 m -66,-34.86 a 1.31,1.31 0 1 0 1.35,1.32 1.34,1.34 0 0 0 -1.35,-1.32 m -19.53,-25 a 1.11,1.11 0 0 0 -1.15,1.07 1.1,1.1 0 0 0 1.15,1 1.11,1.11 0 0 0 1.16,-1 1.13,1.13 0 0 0 -1.16,-1.07 m 7.95,-4.62 v 0 h -0.23 c -0.79,0.18 -0.24,3.64 0.17,5.44 a 11.52,11.52 0 0 0 1.91,4.92 v 0 h 0.22 c 0.8,-0.19 0.23,-3.65 -0.18,-5.44 a 11,11 0 0 0 -1.89,-4.92 m 0.68,-12.21 c 0.58,-0.78 0.7,-1.67 0.26,-2 l -0.51,-0.11 a 2.14,2.14 0 0 0 -1.29,0.94 c -0.58,0.78 -0.69,1.66 -0.26,2 l 0.5,0.1 a 2.15,2.15 0 0 0 1.31,-0.93 m -1.5,-11.19 a 8.28,8.28 0 0 0 2.17,-3.93 c 0.72,-2.16 1.11,-4.47 0.4,-4.72 h -0.32 a 8.35,8.35 0 0 0 -2.18,3.95 c -0.73,2.16 -1.11,4.47 -0.42,4.72 z M 75,121.8 c -1.09,0 -2,0.53 -2,1.18 0,0.65 0.88,1.18 2,1.18 1.12,0 2,-0.52 2,-1.18 0,-0.66 -0.88,-1.18 -2,-1.18 m 20.65,13.44 a 11.5,11.5 0 0 0 -3.29,5.28 17.34,17.34 0 0 0 -1.33,5.34 c 0,0.59 0.13,1 0.42,1.14 h 0.44 a 11.65,11.65 0 0 0 3.3,-5.28 17.6,17.6 0 0 0 1.33,-5.34 c 0,-0.6 -0.13,-1 -0.41,-1.13 z m -11.27,1.57 0.31,-0.13 c 0.4,-0.44 -0.51,-1.71 -1.62,-2.73 a 4.72,4.72 0 0 0 -2.54,-1.49 l -0.3,0.13 a 0.42,0.42 0 0 0 -0.09,0.28 4.94,4.94 0 0 0 1.71,2.46 4.77,4.77 0 0 0 2.53,1.48 m 1.07,18.77 a 24.07,24.07 0 0 0 -6.29,-2.23 l -0.1,0.24 4.39,3.32 c 0.73,0.59 3.92,2.58 5,1.77 a 0.51,0.51 0 0 0 0.19,-0.43 c 0,-0.61 -1.12,-1.4 -3.14,-2.67 m 44.19,36.23 c -0.1,-0.13 -11.39,-12.4 -13.82,-15.61 -2.43,-3.21 -3.68,-3.55 -4.89,-2.87 a 0.66,0.66 0 0 0 -0.32,0.5 c -0.17,1.35 2.64,4.58 5.1,7 3.44,3.34 13.63,11.15 13.73,11.23 z m 47.74,11.91 h -0.06 v 0 a 2.21,2.21 0 0 0 -1.06,1.19 1.71,1.71 0 0 0 0.36,1.35 l 0.28,0.51 0.11,1 0.18,1.47 a 0.72,0.72 0 0 0 0.71,0.5 1.08,1.08 0 0 0 0.94,-0.87 14.18,14.18 0 0 0 0.29,-3.27 c 0,-1.32 -1.63,-1.83 -1.69,-1.86 m -30.95,-16.96 a 0.71,0.71 0 0 0 0.75,0.12 1.25,1.25 0 0 0 0.81,-1.06 5,5 0 0 1 1.31,-2.51 2.27,2.27 0 0 0 -0.13,-3.13 l -1,-0.38 a 1.76,1.76 0 0 0 -1.08,0.52 c 0,0.08 -0.92,4.58 -0.92,4.58 v 0 c -0.09,0.26 -0.17,1.47 0.23,1.86 m 59.4,-18.63 h -0.26 c 0,0 0.07,2 0.07,4.55 a 53.34,53.34 0 0 1 -0.76,10.85 41.07,41.07 0 0 1 -4.82,8 l -2.22,3.34 a 0.77,0.77 0 0 0 -0.1,0.38 1,1 0 0 0 0.46,0.84 c 0.23,0.15 1,0.55 2.16,-0.8 l 1.43,-1.51 a 20.94,20.94 0 0 0 5.92,-9.47 c 1.82,-5.72 -1.83,-16.12 -1.87,-16.22 m -57.65,-2.88 c 1.77,0.83 2.4,1.12 2.66,1.21 v 0 0 c 0.12,0 0.16,0 0.19,0 L 151,166.3 v -0.05 l -0.11,-0.06 a 64.36,64.36 0 0 1 -9.64,-18.15 3.7,3.7 0 0 0 -1.22,-2.5 1.76,1.76 0 0 0 -1.52,0 0.45,0.45 0 0 0 -0.31,0.33 1.39,1.39 0 0 0 -0.08,0.57 35.05,35.05 0 0 0 3.34,10.22 c 4.52,7.38 6.75,8.6 6.83,8.65 m -16.84,-27.27 a 1.22,1.22 0 0 0 0.48,-1.19 c -0.12,-2.23 -0.72,-2.48 -1.95,-2.48 a 2.28,2.28 0 0 0 -2.13,1.9 c 0,0.61 0.44,1.13 1.3,1.58 a 2.62,2.62 0 0 0 2.29,0.19 m -20.22,-10.31 1.49,-0.27 a 29,29 0 0 1 5.76,-0.81 15.78,15.78 0 0 1 5.13,1 c 1.27,0.43 1.9,0.62 2.16,0.34 0.26,-0.28 0.05,-0.42 0,-0.6 -0.39,-0.83 -2.07,-3.56 -7.56,-3.69 a 9.12,9.12 0 0 0 -7.1,3.38 c -0.13,0.21 -0.16,0.36 -0.1,0.48 l 0.06,0.08 z m 32,1.95 c 0.59,0 1.09,-0.36 1.09,-0.82 0,-0.46 -0.5,-0.82 -1.09,-0.82 -0.59,0 -1.09,0.37 -1.09,0.82 0,0.45 0.49,0.82 1.09,0.82 m 1.1,-2.24 c 0.62,0 1.13,-0.36 1.13,-0.82 0,-0.46 -0.5,-0.81 -1.13,-0.81 -0.63,0 -1.14,0.36 -1.14,0.81 0,0.45 0.52,0.82 1.14,0.82 m 1.14,-2.34 a 1,1 0 1 0 -0.46,0 1,1 0 0 0 0.46,0 m 1,-5.35 a 1.11,1.11 0 1 0 1.19,1.12 1.16,1.16 0 0 0 -1.19,-1.12 m 2.13,-2.11 a 1.18,1.18 0 0 0 -1.23,-1.11 1.12,1.12 0 0 0 -0.25,2.22 h 0.25 a 1.17,1.17 0 0 0 1.23,-1.11 v 0 m 1.24,-3.55 a 1.54,1.54 0 1 0 -1.23,1.23 1.54,1.54 0 0 0 1.23,-1.23 m 0.66,-3.67 a 1.46,1.46 0 1 0 -1.42,1.12 1.31,1.31 0 0 0 1.42,-1.12 m 1.24,-2.92 c 0,-0.64 -0.85,-1.12 -2,-1.12 -1.15,0 -1.94,0.48 -1.94,1.12 0,0.64 0.87,1.12 1.94,1.12 1.07,0 2,-0.5 2,-1.12 m -2.92,-3.46 c 0,0.58 0.71,1.06 1.66,1.06 0.95,0 1.64,-0.48 1.64,-1.06 0,-0.58 -0.71,-1.06 -1.64,-1.06 -0.93,0 -1.66,0.46 -1.66,1.06 m 0.07,-1.91 a 2.12,2.12 0 0 0 1.54,0.27 c 1,-0.13 1.64,-0.66 1.56,-1.21 l -0.28,-0.45 a 2.09,2.09 0 0 0 -1.53,-0.27 c -1,0.13 -1.64,0.67 -1.56,1.21 z m 1.59,-3.12 c 0.86,-0.07 1.49,-0.54 1.43,-1.09 l -0.28,-0.5 A 1.88,1.88 0 0 0 150.3,97.1 c -0.83,0.07 -1.44,0.52 -1.44,1 v 0.06 l 0.28,0.48 a 1.76,1.76 0 0 0 1.32,0.33 m 0.47,-5.39 c -0.76,0 -1.37,0.45 -1.37,1 0,0.55 0.61,1 1.37,1 0.76,0 1.36,-0.45 1.36,-1 0,-0.55 -0.61,-1 -1.36,-1 m -0.05,-3.22 a 1,1 0 1 0 1.22,1 1.1,1.1 0 0 0 -1.22,-1 m 0.05,-2.55 a 0.89,0.89 0 1 0 1.09,0.87 1,1 0 0 0 -1.09,-0.87 m -0.89,-2 a 0.94,0.94 0 0 0 1,0.92 v 0 a 0.92,0.92 0 1 0 0,-1.84 v 0 a 0.94,0.94 0 0 0 -1,0.92 M 150.5,82 a 0.91,0.91 0 1 0 0.95,0.92 0.92,0.92 0 0 0 -0.93,-0.92 v 0 m -16.2,15.58 -0.45,-0.05 c -1.2,0.31 -3.25,3.86 -4.68,6.49 l -0.26,0.45 -4.29,8.09 -1.34,2.58 a 0.63,0.63 0 0 0 0.12,0.8 0.76,0.76 0 0 0 1,0 22.78,22.78 0 0 0 4.54,-5.14 l 1.62,-2.23 a 19.12,19.12 0 0 0 2.91,-4.69 l 0.24,-0.62 c 1.65,-4.27 1.9,-4.93 0.58,-5.74 m 5.55,-11.29 a 0.71,0.71 0 0 0 -0.9,-0.31 l -0.77,0.57 a 5.77,5.77 0 0 1 -1.8,1.18 c -1.43,0.38 -3.36,1 -3.47,2 v 0.12 a 0.61,0.61 0 0 0 0.24,0.52 c 0.54,0.44 1.85,0.18 2.8,-0.18 a 9.79,9.79 0 0 0 3.49,-2.24 c 0.7,-0.64 0.67,-1.28 0.42,-1.67 m -7.13,0.55 a 0.77,0.77 0 0 0 0.39,0.76 1,1 0 0 0 1.24,-0.45 l 1.1,-1 a 8.44,8.44 0 0 0 1.84,-1.65 c 0.54,-0.71 0.31,-1.14 0.11,-1.32 a 1.27,1.27 0 0 0 -1.39,-0.23 l -0.32,0.21 a 6.82,6.82 0 0 0 -2.83,2.92 2.29,2.29 0 0 0 -0.14,0.72 m -5.57,-3 -1.53,1.21 -0.11,0.12 a 0.49,0.49 0 0 0 -0.16,0.66 l 0.18,0.27 0.41,-0.09 0.59,-0.21 0.86,-0.15 a 4,4 0 0 0 2.19,-0.67 l 0.57,-0.94 0.84,-1.36 c 0.41,-0.44 0.42,-0.76 0.37,-0.93 a 0.47,0.47 0 0 0 -0.39,-0.31 0.76,0.76 0 0 0 -0.75,0.28 33.64,33.64 0 0 1 -3.05,2.23 m -14.1,-0.11 a 1,1 0 0 0 1,-1 1,1 0 1 0 -1,1 m -4.45,-6.36 c -0.22,0.21 -0.13,0.66 -0.06,1 v 0.25 0.15 a 0.44,0.44 0 0 0 0,0.44 c 0.08,0.14 0.31,0.2 0.69,0.2 0.38,0 0.53,0 0.7,-0.48 l 0.13,-0.33 a 1,1 0 0 0 0,-0.77 1.53,1.53 0 0 0 -1.06,-0.59 0.4,0.4 0 0 0 -0.4,0.09 m -3.7,-0.43 a 1.57,1.57 0 0 0 -1.35,0.76 l -0.33,0.38 a 3.37,3.37 0 0 0 -0.67,2.59 c 0,0.37 0.13,1.05 0.5,1.28 0.71,0.43 1,0.13 1.77,-0.57 l 0.56,-0.48 a 3.76,3.76 0 0 0 1.64,-2.32 1.31,1.31 0 0 0 -0.31,-1.07 2.45,2.45 0 0 0 -1.81,-0.59 m 10,-2.47 0.3,-0.09 2.46,-1 3.58,-2.35 c 0.1,-0.07 1,-0.79 0.84,-1.24 -0.16,-0.45 -0.6,-0.25 -0.94,-0.19 a 12.71,12.71 0 0 0 -3,1.16 l -1.45,0.68 -0.63,0.27 c -2.22,0.92 -4,1.74 -3.69,2.59 0.2,0.5 1.14,0.55 2.51,0.14 m 14.31,1.23 a 1.22,1.22 0 0 0 0.9,-0.47 3.14,3.14 0 0 0 0,-3.14 2.93,2.93 0 0 0 -2.35,-1.74 v 0 h -0.2 l -1.71,0.15 a 2.68,2.68 0 0 0 -1.93,1.52 0.8,0.8 0 0 0 0.18,0.86 8.48,8.48 0 0 0 5.09,2.84 M 148,74.11 c 0.12,-0.37 0.23,-0.71 0,-0.9 -0.23,-0.19 -0.45,-0.15 -1,0 a 4.11,4.11 0 0 0 -2.24,3.78 l -0.05,0.4 c -0.11,0.59 0.19,0.8 0.37,0.86 a 2.15,2.15 0 0 0 2,-0.77 c 0.28,-0.46 1.8,-0.87 2.93,-1.19 l 0.43,-0.11 c 0.51,-0.15 0.78,-0.34 0.82,-0.62 0.04,-0.28 -0.34,-0.67 -0.7,-0.87 -0.36,-0.2 -0.79,-0.07 -1.29,0.08 a 2.25,2.25 0 0 1 -1.36,0.13 c -0.19,-0.08 -0.12,-0.4 0,-0.84 m -2.17,-8.48 a 0.79,0.79 0 0 0 -0.37,0.87 l 0.07,0.27 c 0.08,0.32 0.12,0.38 0.4,0.41 l 0.52,0.09 a 2,2 0 0 0 2,-0.78 c 0.08,-0.17 0.14,-0.51 -0.32,-0.83 a 2.08,2.08 0 0 0 -2.27,0 m -0.83,-2.43 0.7,0.36 a 0.86,0.86 0 0 0 0.58,0.49 1,1 0 0 0 0.83,-0.21 c 0.18,-0.14 0.22,-0.4 0.11,-0.76 a 1.73,1.73 0 0 0 -1.42,-1.19 c -0.82,0 -1.57,0.09 -1.57,0.71 0,0.34 0.39,0.46 0.76,0.59 M 130.6,69.1 a 2,2 0 0 0 1.5,-0.17 c 0.83,-0.38 1.32,-1.06 1.12,-1.53 l -0.4,-0.35 a 2,2 0 0 0 -1.47,0.17 c -0.72,0.32 -1.17,0.84 -1.17,1.3 a 0.43,0.43 0 0 0 0.05,0.23 z"
       style="fill:#ffffff"
       id="path8" />
  </g>
  <metadata
     id="metadata8">
    <rdf:RDF>
      <cc:Work
         rdf:about="">
        <dc:title>Scuderia Ferrari logo - Brandlogos.net</dc:title>
      </cc:Work>
    </rdf:RDF>
  </metadata>
</svg>
