<?xml version="1.0" encoding="UTF-8" standalone="no"?>
<svg
   id="Layer_1"
   data-name="Layer 1"
   viewBox="0 0 500 500.00001"
   version="1.1"
   sodipodi:docname="haas.svg"
   width="500"
   height="500"
   inkscape:version="1.4.3 (0d15f75, 2025-12-25)"
   xmlns:inkscape="http://www.inkscape.org/namespaces/inkscape"
   xmlns:sodipodi="http://sodipodi.sourceforge.net/DTD/sodipodi-0.dtd"
   xmlns="http://www.w3.org/2000/svg"
   xmlns:svg="http://www.w3.org/2000/svg"
   xmlns:rdf="http://www.w3.org/1999/02/22-rdf-syntax-ns#"
   xmlns:cc="http://creativecommons.org/ns#"
   xmlns:dc="http://purl.org/dc/elements/1.1/">
  <defs
     id="defs4" />
  <sodipodi:namedview
     id="namedview4"
     pagecolor="#ffffff"
     bordercolor="#000000"
     borderopacity="0.25"
     inkscape:showpageshadow="2"
     inkscape:pageopacity="0.0"
     inkscape:pagecheckerboard="0"
     inkscape:deskcolor="#d1d1d1"
     inkscape:zoom="0.45460705"
     inkscape:cx="-239.76751"
     inkscape:cy="446.53949"
     inkscape:window-width="1440"
     inkscape:window-height="890"
     inkscape:window-x="-6"
     inkscape:window-y="-6"
     inkscape:window-maximized="1"
     inkscape:current-layer="Layer_1" />
  <title
     id="title1">Haas F1 Team logo - Brandlogos.net</title>
  <path
     d="M 279.313,422.14395 A 168.57677,168.57677 0 0 1 160.45608,373.1596 h 47.80755 c 0,0 137.28121,-244.48045 137.75929,-245.5837 0.47807,-1.10325 0.33097,-1.65487 -0.62518,-1.65487 h -56.04516 c -1.14002,0 -1.28712,0.33097 -1.6181,0.80905 -0.33097,0.47807 -77.22758,136.06763 -77.22758,136.06763 H 109.63298 q -0.47808,-6.4724 -0.47808,-12.94481 c 0,-94.95315 76.08755,-172.107174 170.1581,-172.107174 a 168.50322,168.50322 0 0 1 122.24022,52.588304 c -13.42289,22.91085 -73.55007,126.3958 -81.75091,141.47357 -4.7072,-11.03251 -26.40447,-8.82601 -37.58408,-9.00989 -4.85431,8.20084 -27.69161,51.74248 -27.69161,51.74248 0,0 12.61384,0 23.94055,0 11.32671,0 12.31964,11.76801 7.94341,19.15979 -4.37623,7.39179 -22.35922,39.27574 -22.35922,39.27574 h 57.77358 L 433.06943,176.52348 a 171.3349,171.3349 0 0 1 16.40167,73.5133 c 0,94.98992 -76.23466,172.07039 -170.1581,172.07039 M 121.62164,314.68729 h 58.84006 l -28.35355,49.60953 A 178.35893,178.35893 0 0 1 121.69519,314.68729 M 279.38655,26.8123 C 157.4773,26.8123 58.736328,126.73008 58.736328,250 c 0,4.413 0,8.64213 0.2942,12.94481 H 30.198899 a 3.3833034,3.3833034 0 0 0 -3.089103,2.13296 c -0.478075,1.14002 -26.0735014,46.66752 -26.73545201,47.80754 -0.66195067,1.14003 -0.47807548,1.80198 0.80905081,1.80198 H 68.077188 A 221.01797,221.01797 0 0 0 279.34977,473.1877 C 401.2958,473.1877 500,373.26992 500,250 500,126.73008 401.25902,26.8123 279.34977,26.8123"
     style="fill:#e6002d;stroke-width:3.6775"
     id="path3" />
  <metadata
     id="metadata4">
    <rdf:RDF>
      <cc:Work
         rdf:about="">
        <dc:title>Haas F1 Team logo - Brandlogos.net</dc:title>
      </cc:Work>
    </rdf:RDF>
  </metadata>
</svg>
