<?xml version="1.0" encoding="UTF-8" standalone="no"?>
<svg
   id="Layer_1"
   data-name="Layer 1"
   viewBox="0 0 500 500"
   version="1.1"
   sodipodi:docname="mercedes-benz-star-logo-brandlogos.net_ustlx8djf.svg"
   width="500"
   height="500"
   inkscape:version="1.4.3 (0d15f75, 2025-12-25)"
   xmlns:inkscape="http://www.inkscape.org/namespaces/inkscape"
   xmlns:sodipodi="http://sodipodi.sourceforge.net/DTD/sodipodi-0.dtd"
   xmlns:xlink="http://www.w3.org/1999/xlink"
   xmlns="http://www.w3.org/2000/svg"
   xmlns:svg="http://www.w3.org/2000/svg"
   xmlns:rdf="http://www.w3.org/1999/02/22-rdf-syntax-ns#"
   xmlns:cc="http://creativecommons.org/ns#"
   xmlns:dc="http://purl.org/dc/elements/1.1/">
  <sodipodi:namedview
     id="namedview65"
     pagecolor="#ffffff"
     bordercolor="#000000"
     borderopacity="0.25"
     inkscape:showpageshadow="2"
     inkscape:pageopacity="0.0"
     inkscape:pagecheckerboard="0"
     inkscape:deskcolor="#d1d1d1"
     inkscape:zoom="0.25490568"
     inkscape:cx="15.692079"
     inkscape:cy="270.68836"
     inkscape:window-width="845"
     inkscape:window-height="544"
     inkscape:window-x="-5"
     inkscape:window-y="0"
     inkscape:window-maximized="0"
     inkscape:current-layer="Layer_1" />
  <defs
     id="defs65">
    <linearGradient
       id="linear-gradient"
       x1="-13.11"
       y1="608.96997"
       x2="-12.35"
       y2="608.33002"
       gradientTransform="matrix(109.55,0,0,-109.55,1706.48,66986.73)"
       gradientUnits="userSpaceOnUse">
      <stop
         offset="0"
         stop-color="#fff"
         id="stop1" />
      <stop
         offset="0.1"
         stop-color="#e7e8e6"
         id="stop2" />
      <stop
         offset="0.1"
         stop-color="#cdd0d0"
         id="stop3" />
      <stop
         offset="0.2"
         stop-color="#b5bbbd"
         id="stop4" />
      <stop
         offset="0.2"
         stop-color="#a5acaf"
         id="stop5" />
      <stop
         offset="0.3"
         stop-color="#9ba3a7"
         id="stop6" />
      <stop
         offset="0.3"
         stop-color="#98a0a4"
         id="stop7" />
      <stop
         offset="0.4"
         stop-color="#828a8f"
         id="stop8" />
      <stop
         offset="0.5"
         stop-color="#667075"
         id="stop9" />
      <stop
         offset="0.6"
         stop-color="#535c63"
         id="stop10" />
      <stop
         offset="0.7"
         stop-color="#475158"
         id="stop11" />
      <stop
         offset="0.8"
         stop-color="#434d54"
         id="stop12" />
      <stop
         offset="1"
         stop-color="#475157"
         id="stop13" />
    </linearGradient>
    <linearGradient
       id="linear-gradient-2"
       x1="-13"
       y1="608.91998"
       x2="-12.23"
       y2="608.28003"
       gradientTransform="matrix(102.9,0,0,-102.9,1610.05,62933.55)"
       gradientUnits="userSpaceOnUse">
      <stop
         offset="0"
         stop-color="#0b1f2a"
         id="stop14" />
      <stop
         offset="0.2"
         stop-color="#333f47"
         id="stop15" />
      <stop
         offset="0.5"
         stop-color="#777f84"
         id="stop16" />
      <stop
         offset="0.5"
         stop-color="#81898d"
         id="stop17" />
      <stop
         offset="0.7"
         stop-color="#b3b8b8"
         id="stop18" />
      <stop
         offset="0.8"
         stop-color="#d2d5d3"
         id="stop19" />
      <stop
         offset="0.8"
         stop-color="#dee0dd"
         id="stop20" />
      <stop
         offset="1"
         stop-color="#fbfbfb"
         id="stop21" />
    </linearGradient>
    <linearGradient
       id="linear-gradient-3"
       x1="-12.6"
       y1="608.20001"
       x2="-12.94"
       y2="609.14001"
       gradientTransform="matrix(112,0,0,-112,1742,68480)"
       gradientUnits="userSpaceOnUse">
      <stop
         offset="0"
         stop-color="#e1e3e1"
         id="stop22" />
      <stop
         offset="0.1"
         stop-color="#c1c5c4"
         id="stop23" />
      <stop
         offset="0.3"
         stop-color="#9ba1a2"
         id="stop24" />
      <stop
         offset="0.5"
         stop-color="#7d8487"
         id="stop25" />
      <stop
         offset="0.7"
         stop-color="#687074"
         stop-opacity="0"
         id="stop26" />
      <stop
         offset="0.8"
         stop-color="#5b6469"
         stop-opacity="0"
         id="stop27" />
      <stop
         offset="1"
         stop-color="#576065"
         stop-opacity="0"
         id="stop28" />
    </linearGradient>
    <linearGradient
       id="linear-gradient-4"
       x1="-12.74"
       y1="608.96997"
       x2="-12.24"
       y2="608.09998"
       gradientTransform="matrix(96.6,0,0,-96.6,1518.7,59093.7)"
       xlink:href="#linear-gradient-3" />
    <linearGradient
       id="linear-gradient-5"
       x1="-9.96"
       y1="605.72998"
       x2="-10.03"
       y2="605.66998"
       gradientTransform="matrix(42.7,0,0,-24.6,758.85,15225.62)"
       gradientUnits="userSpaceOnUse">
      <stop
         offset="0"
         stop-color="#27343c"
         id="stop29" />
      <stop
         offset="1"
         stop-color="#00111e"
         stop-opacity="0"
         id="stop30" />
    </linearGradient>
    <linearGradient
       id="linear-gradient-6"
       x1="11.89"
       y1="607.12"
       x2="11.87"
       y2="607.28998"
       gradientTransform="matrix(7.35,0,0,-47.42,228.95,29096.95)"
       gradientUnits="userSpaceOnUse">
      <stop
         offset="0.1"
         stop-color="#02131f"
         id="stop31" />
      <stop
         offset="0.9"
         stop-color="#02131f"
         stop-opacity="0"
         id="stop32" />
    </linearGradient>
    <linearGradient
       id="linear-gradient-7"
       x1="-9.4899998"
       y1="605.81"
       x2="-9.6599998"
       y2="605.78998"
       gradientTransform="matrix(43.05,0,0,-24.7,720.53,15285.83)"
       gradientUnits="userSpaceOnUse">
      <stop
         offset="0.2"
         stop-color="#02131f"
         id="stop33" />
      <stop
         offset="0.9"
         stop-color="#02131f"
         stop-opacity="0"
         id="stop34" />
    </linearGradient>
    <linearGradient
       id="linear-gradient-8"
       x1="-9.79"
       y1="605.57001"
       x2="-9.8199997"
       y2="605.60999"
       gradientTransform="matrix(41.47,0,0,-23.99,698.47,14852.13)"
       gradientUnits="userSpaceOnUse">
      <stop
         offset="0"
         stop-color="#02131f"
         id="stop35" />
      <stop
         offset="0.1"
         stop-color="#02131f"
         id="stop36" />
      <stop
         offset="1"
         stop-color="#02131f"
         stop-opacity="0"
         id="stop37" />
    </linearGradient>
    <linearGradient
       id="linear-gradient-9"
       x1="9.0799999"
       y1="607.63"
       x2="9.0600004"
       y2="607.60999"
       gradientTransform="matrix(8.23,0,0,-48.7,241.2,29872.87)"
       gradientUnits="userSpaceOnUse">
      <stop
         offset="0.3"
         stop-color="#02131f"
         id="stop38" />
      <stop
         offset="0.8"
         stop-color="#02131f"
         stop-opacity="0"
         id="stop39" />
    </linearGradient>
    <linearGradient
       id="linear-gradient-10"
       x1="9.0799999"
       y1="607.63"
       x2="9.0699997"
       y2="607.62"
       gradientTransform="matrix(8.23,0,0,-48.7,241.2,29872.87)"
       gradientUnits="userSpaceOnUse">
      <stop
         offset="0.4"
         stop-color="#27343c"
         id="stop40" />
      <stop
         offset="1"
         stop-color="#3b474e"
         stop-opacity="0"
         id="stop41" />
    </linearGradient>
    <linearGradient
       id="linear-gradient-11"
       x1="-9.7799997"
       y1="608.28003"
       x2="-9.3999996"
       y2="607.88"
       gradientTransform="matrix(39.03,0,0,-70.53,648.6,43215.25)"
       gradientUnits="userSpaceOnUse">
      <stop
         offset="0"
         stop-color="#24303a"
         stop-opacity="0"
         id="stop42" />
      <stop
         offset="0"
         stop-color="#25323b"
         stop-opacity="0"
         id="stop43" />
      <stop
         offset="0.1"
         stop-color="#27343c"
         id="stop44" />
    </linearGradient>
    <linearGradient
       id="linear-gradient-12"
       x1="108.67"
       y1="597.77002"
       x2="108.67"
       y2="598.78003"
       gradientTransform="matrix(1.58,0,0,-8.3,140.75,5278.45)"
       gradientUnits="userSpaceOnUse">
      <stop
         offset="0.3"
         stop-color="#a5abaf"
         id="stop45" />
      <stop
         offset="1"
         stop-color="#a5abaf"
         stop-opacity="0"
         id="stop46" />
    </linearGradient>
    <linearGradient
       id="linear-gradient-13"
       x1="-10.96"
       y1="609.13"
       x2="-10.96"
       y2="608.13"
       gradientTransform="matrix(54.78,0,0,-106.75,939.63,65281.53)"
       gradientUnits="userSpaceOnUse">
      <stop
         offset="0"
         stop-color="#dee0dd"
         id="stop47" />
      <stop
         offset="0"
         stop-color="#c5c9c7"
         id="stop48" />
      <stop
         offset="0"
         stop-color="#9ea4a5"
         id="stop49" />
      <stop
         offset="0"
         stop-color="#82898c"
         id="stop50" />
      <stop
         offset="0"
         stop-color="#71797d"
         id="stop51" />
      <stop
         offset="0"
         stop-color="#6b7378"
         id="stop52" />
      <stop
         offset="0.2"
         stop-color="#333f47"
         id="stop53" />
      <stop
         offset="0.5"
         stop-color="#27343c"
         id="stop54" />
      <stop
         offset="0.8"
         stop-color="#333f47"
         id="stop55" />
      <stop
         offset="1"
         stop-color="#434d54"
         id="stop56" />
    </linearGradient>
    <linearGradient
       id="linear-gradient-14"
       x1="354.51999"
       y1="517"
       x2="355.51999"
       y2="517"
       gradientTransform="matrix(0.53,0,0,-1,125.88,771.23)"
       xlink:href="#linear-gradient-13" />
    <linearGradient
       id="linear-gradient-15"
       x1="-10.17"
       y1="608.59003"
       x2="-10.39"
       y2="608.09998"
       gradientTransform="matrix(46.18,0,0,-71.57,816.01,43826.17)"
       gradientUnits="userSpaceOnUse">
      <stop
         offset="0.7"
         stop-color="#27343c"
         id="stop57" />
      <stop
         offset="0.7"
         stop-color="#2b373f"
         id="stop58" />
      <stop
         offset="0.7"
         stop-color="#36424a"
         id="stop59" />
      <stop
         offset="0.7"
         stop-color="#49545b"
         id="stop60" />
      <stop
         offset="0.8"
         stop-color="#646d73"
         stop-opacity="0"
         id="stop61" />
      <stop
         offset="0.8"
         stop-color="#868d92"
         stop-opacity="0"
         id="stop62" />
      <stop
         offset="0.8"
         stop-color="#b0b5b8"
         stop-opacity="0"
         id="stop63" />
      <stop
         offset="0.8"
         stop-color="#e1e3e4"
         stop-opacity="0"
         id="stop64" />
      <stop
         offset="0.8"
         stop-color="#fff"
         stop-opacity="0"
         id="stop65" />
    </linearGradient>
    <linearGradient
       inkscape:collect="always"
       xlink:href="#linear-gradient-3"
       id="linearGradient65"
       gradientUnits="userSpaceOnUse"
       gradientTransform="matrix(112,0,0,-112,1742,68480)"
       x1="-12.6"
       y1="608.20001"
       x2="-12.94"
       y2="609.14001" />
    <linearGradient
       inkscape:collect="always"
       xlink:href="#linear-gradient-13"
       id="linearGradient66"
       gradientUnits="userSpaceOnUse"
       gradientTransform="matrix(54.78,0,0,-106.75,939.63,65281.53)"
       x1="-10.96"
       y1="609.13"
       x2="-10.96"
       y2="608.13" />
  </defs>
  <title
     id="title65">Mercedes-Benz Star logo - Brandlogos.net</title>
  <g
     id="Logo_with_name"
     data-name="Logo with name"
     transform="scale(4.4642857)">
    <g
       id="Group">
      <path
         id="outer"
         d="M 366.78,309 A 54.78,54.78 0 1 1 312,254.23 54.74,54.74 0 0 1 366.78,309 Z M 312,257.55 A 51.45,51.45 0 1 0 363.45,309 51.31,51.31 0 0 0 312,257.55 Z"
         transform="translate(-256,-253)"
         style="fill:url(#linear-gradient)" />
      <path
         id="Shape"
         d="M 312,257.55 A 51.45,51.45 0 1 0 363.45,309 51.31,51.31 0 0 0 312,257.55 Z m 0,99.57 A 48.13,48.13 0 1 1 360.13,309 48.1,48.1 0 0 1 312,357.13 Z"
         transform="translate(-256,-253)"
         style="fill:url(#linear-gradient-2)" />
      <path
         id="Shape-2"
         data-name="Shape"
         d="M 312,363.78 A 54.78,54.78 0 1 0 257.23,309 54.74,54.74 0 0 0 312,363.78 Z M 312,253 a 56,56 0 1 1 -56,56 56.16,56.16 0 0 1 56,-56 z"
         transform="translate(-256,-253)"
         style="opacity:0.4;isolation:isolate;fill:url(#linearGradient65)" />
      <path
         id="Shape-3"
         data-name="Shape"
         d="M 259.85,309.17 A 52.32,52.32 0 0 1 312,256.85 v 0 a 52.21,52.21 0 0 1 52.15,52.32 v 0 a 52,52 0 0 1 -52.15,52 v 0 a 52,52 0 0 1 -52.15,-52 z m 16.28,-36 a 51,51 0 0 0 -15.05,36 v 0 A 50.8,50.8 0 0 0 276,345.05 v 0 a 51.53,51.53 0 0 0 36,14.88 v 0 a 50.08,50.08 0 0 0 35.88,-14.87 v 0 a 50.08,50.08 0 0 0 14.88,-35.88 v 0 a 51.53,51.53 0 0 0 -14.87,-36 v 0 A 50.23,50.23 0 0 0 312,258.07 v 0 a 50.23,50.23 0 0 0 -35.87,15.05 z"
         transform="translate(-256,-253)"
         style="fill:#ffffff" />
      <path
         id="Shape-4"
         data-name="Shape"
         d="M 312,357.3 A 48.4,48.4 0 1 1 346.13,343.12 47.92,47.92 0 0 1 312,357.3 Z m 0,-1.4 A 46.73,46.73 0 1 0 278.92,276.1 45.5,45.5 0 0 0 265.1,309 46.9,46.9 0 0 0 312,355.9 Z"
         transform="translate(-256,-253)"
         style="opacity:0.4;isolation:isolate;fill:url(#linear-gradient-4)" />
      <path
         id="Shape-5"
         data-name="Shape"
         d="m 354.53,331.75 -34.65,-27.47 -7.87,-45 a 3,3 0 0 0 -1.58,1.4 l -5.6,43.75 -34.83,26.79 c 0,0 -0.7,0.88 -1.05,1.4 a 3.41,3.41 0 0 0 -0.18,1.4 v 0 l 43.05,-17.68 43,17.68 v 0 a 2.5,2.5 0 0 0 -0.29,-2.27 z"
         transform="translate(-256,-253)"
         style="fill:#ffffff" />
      <path
         id="Shape-6"
         data-name="Shape"
         d="m 312.35,310.4 -0.35,8 39.55,15.93 a 3.15,3.15 0 0 0 3.5,-0.35 l -42.18,-23.8 a 0.34,0.34 0 0 0 -0.52,0.22 z"
         transform="translate(-256,-253)"
         style="fill:#565f64" />
      <path
         id="Shape-7"
         data-name="Shape"
         d="m 312.35,310.4 a 41.8,41.8 0 0 0 4.9,6.82 40.42,40.42 0 0 0 8.57,6.83 l 25.73,10.32 a 3.15,3.15 0 0 0 3.5,-0.35 l -42.18,-23.8 a 0.34,0.34 0 0 0 -0.52,0.18 z"
         transform="translate(-256,-253)"
         style="fill:url(#linear-gradient-5)" />
      <path
         id="Shape-8"
         data-name="Shape"
         d="m 354.88,332.45 c 0,-0.17 -0.18,-0.35 -0.35,-0.7 l -36.05,-26.42 -4.9,3.15 c 0,0 0.35,0.18 0.52,0 a 4.38,4.38 0 0 1 2.63,0 c 0.88,0.35 38.15,24.15 38.15,24.15 z"
         transform="translate(-256,-253)"
         style="fill:#a4aaae;fill-opacity:0.6" />
      <path
         id="Shape-9"
         data-name="Shape"
         d="m 353.65,330.88 -33.6,-26.6 v 0 l -1.58,1 36.05,26.6 a 4.64,4.64 0 0 0 -0.87,-1 z"
         transform="translate(-256,-253)"
         style="fill:#333e46" />
      <path
         id="Shape-10"
         data-name="Shape"
         d="m 312.88,307.78 -0.17,0.17 c 0,0 0,0.35 0.35,0.17 0.17,-0.17 5.25,-2.8 7,-3.85 l -6.13,-42 a 3,3 0 0 0 -2.1,-2.8 l 0.7,48.65 z"
         transform="translate(-256,-253)"
         style="fill:#565f64" />
      <path
         id="Shape-11"
         data-name="Shape"
         d="m 309.9,262.27 v 2.28 l -3.9,38.67 a 1.59,1.59 0 0 0 0.7,1.4 l 2.28,1.75 1.57,-42.7 0.18,-3.33 a 2.85,2.85 0 0 0 -0.83,1.93 z"
         transform="translate(-256,-253)"
         style="fill:#a4aaae;fill-opacity:0.6" />
      <path
         id="Shape-12"
         data-name="Shape"
         d="m 307.8,307.08 -2.1,-1.75 -35.53,25.73 c 0,0 -1.05,0.7 -1.23,1.4 v 0 l 1.23,-0.7 v 0 l 37.28,-23.45 c 0.7,-0.31 0.88,-0.71 0.35,-1.23 z"
         transform="translate(-256,-253)"
         style="fill:#a4aaae;fill-opacity:0.6" />
      <path
         id="Shape-13"
         data-name="Shape"
         d="m 311.47,310.4 c 0,-0.18 -0.17,-0.35 -0.35,-0.18 l -42.35,24 a 3.52,3.52 0 0 0 3.5,0.35 l 39.55,-15.93 z"
         transform="translate(-256,-253)"
         style="fill:#565f64" />
      <path
         id="Shape-14"
         data-name="Shape"
         d="m 312.7,308 0.17,-0.17 -0.17,0.17 v 0 a 0.17,0.17 0 0 0 0.17,0.17 H 313 c 0.17,-0.17 5.25,-2.8 7,-3.85 l -0.7,-5.08 v 0 l -5.42,-36.93 a 2.14,2.14 0 0 0 -0.52,-1.57 c 0,0 2.64,35.26 2.64,39.16 a 11.42,11.42 0 0 1 -3.3,8.1 z"
         transform="translate(-256,-253)"
         style="fill:url(#linear-gradient-6)" />
      <path
         id="Shape-15"
         data-name="Shape"
         d="m 311.47,310.4 c 0,-0.18 -0.17,-0.35 -0.35,-0.18 l -42.35,24 a 3.52,3.52 0 0 0 3.5,0.35 l 39.55,-15.93 z"
         transform="translate(-256,-253)"
         style="fill:url(#linear-gradient-7);fill-opacity:0.8" />
      <path
         id="Shape-16"
         data-name="Shape"
         d="m 272.27,334.38 39.55,-15.93 -0.35,-7.7 a 10,10 0 0 1 -5.25,6.13 v 0 c -2.45,1.4 -25.9,12.95 -34.3,17 a 11.05,11.05 0 0 1 -1.57,0.7 1.92,1.92 0 0 0 1.92,-0.2 z"
         transform="translate(-256,-253)"
         style="opacity:0.8;isolation:isolate;fill:url(#linear-gradient-8)" />
      <path
         id="Shape-17"
         data-name="Shape"
         d="m 312.88,307.78 -0.17,0.17 c 0,0 0,0.35 0.35,0.17 0.17,-0.17 5.25,-2.8 7,-3.85 l -6.13,-42 a 3,3 0 0 0 -2.1,-2.8 l 0.7,48.65 z"
         transform="translate(-256,-253)"
         style="fill:url(#linear-gradient-9)" />
      <path
         id="Shape-18"
         data-name="Shape"
         d="m 312.88,307.78 -0.17,0.17 c 0,0 0,0.35 0.35,0.17 0.17,-0.17 5.25,-2.8 7,-3.85 l -6.13,-42 a 3,3 0 0 0 -2.1,-2.8 l 0.7,48.65 z"
         transform="translate(-256,-253)"
         style="fill:url(#linear-gradient-10)" />
      <path
         id="Shape-19"
         data-name="Shape"
         d="M 264.93,330.7 C 263.7,327.9 256.7,314.25 264.4,288 h -3 c -1.58,5.25 -2.8,8.4 -3.5,13.13 0,0 -0.35,1.75 -0.53,3.67 a 39.81,39.81 0 0 0 -0.17,4.2 c 0,10.5 2.62,16.63 2.62,16.63 a 51.09,51.09 0 0 0 14.38,22.57 c 5.77,5.08 14.7,8.93 22,10.33 -1.2,-0.18 -22.2,-9.1 -31.27,-27.83 z"
         transform="translate(-256,-253)"
         style="fill:url(#linear-gradient-11)" />
      <path
         id="Shape-20"
         data-name="Shape"
         d="m 312.7,310 h -1.58 c 0.17,0 0.35,0 0.35,0.17 l 0.35,8.05 H 312 l 0.35,-8.05 c 0,-0.17 0.18,-0.35 0.35,-0.17 z"
         transform="translate(-256,-253)"
         style="fill:url(#linear-gradient-12)" />
      <path
         id="Shape-21"
         data-name="Shape"
         d="m 329.5,257 c 18.38,7 35.7,26.25 35.7,50.57 A 53.1,53.1 0 0 1 312,361 v 2.8 c 29.75,0 54.78,-24.5 54.78,-54.78 A 54.8,54.8 0 0 0 329.5,257 Z"
         transform="translate(-256,-253)"
         style="fill:url(#linearGradient66)" />
      <path
         id="Shape-22"
         data-name="Shape"
         d="M 312.53,254.23 Z"
         transform="translate(-256,-253)"
         style="fill:url(#linear-gradient-14)" />
      <path
         id="Shape-23"
         data-name="Shape"
         d="M 358.9,288.35 C 346.65,260.18 319,258.6 317.42,258.43 h -0.17 c 21.18,3.85 34.65,17.68 39.38,32.2 v 0.17 a 54.94,54.94 0 0 1 3.32,18 47.85,47.85 0 0 1 -3.85,19.25 c -0.17,0.88 -0.35,1.93 -0.53,1.93 h 2.8 c 8.41,-15.73 4.73,-31.65 0.53,-41.63 z"
         transform="translate(-256,-253)"
         style="fill:url(#linear-gradient-15)" />
      <path
         id="Shape-24"
         data-name="Shape"
         d="M 259.85,309.17 A 52.32,52.32 0 0 1 312,256.85 v 0 a 52.21,52.21 0 0 1 52.15,52.32 v 0 a 52,52 0 0 1 -52.15,52 v 0 a 52,52 0 0 1 -52.15,-52 z m 16.28,-36 a 51,51 0 0 0 -15.05,36 v 0 A 50.8,50.8 0 0 0 276,345.05 v 0 a 51.53,51.53 0 0 0 36,14.88 v 0 a 50.08,50.08 0 0 0 35.88,-14.87 v 0 a 50.08,50.08 0 0 0 14.88,-35.88 v 0 a 51.53,51.53 0 0 0 -14.87,-36 v 0 A 50.23,50.23 0 0 0 312,258.07 v 0 a 50.23,50.23 0 0 0 -35.87,15.05 z"
         transform="translate(-256,-253)"
         style="fill:#fbfbfb" />
      <path
         id="Shape-25"
         data-name="Shape"
         d="m 269.82,331.4 v 0 l 35.7,-25.73 a 36.21,36.21 0 0 0 5.42,2.45 c 0.35,0.17 0.35,-0.17 0.35,-0.17 l -4.37,-3.67 a 1.59,1.59 0 0 1 -0.7,-1.4 l 4.2,-42.18 c -0.17,0.18 -0.17,0.53 -0.35,0.7 a 1.58,1.58 0 0 0 -0.17,0.88 l -6.12,42.18 -33.6,26.42 c -0.18,0.17 -0.36,0.34 -0.36,0.52 z"
         transform="translate(-256,-253)"
         style="fill:#333f47" />
    </g>
  </g>
  <metadata
     id="metadata65">
    <rdf:RDF>
      <cc:Work
         rdf:about="">
        <dc:title>Mercedes-Benz Star logo - Brandlogos.net</dc:title>
      </cc:Work>
    </rdf:RDF>
  </metadata>
</svg>
