<?xml version="1.0" encoding="UTF-8" standalone="no"?>
<svg
   id="Layer_1"
   viewBox="0 0 500.00001 499.99999"
   version="1.1"
   sodipodi:docname="rb.svg"
   width="500"
   height="500"
   inkscape:version="1.4.3 (0d15f75, 2025-12-25)"
   xmlns:inkscape="http://www.inkscape.org/namespaces/inkscape"
   xmlns:sodipodi="http://sodipodi.sourceforge.net/DTD/sodipodi-0.dtd"
   xmlns="http://www.w3.org/2000/svg"
   xmlns:svg="http://www.w3.org/2000/svg">
  <sodipodi:namedview
     id="namedview1"
     pagecolor="#ffffff"
     bordercolor="#000000"
     borderopacity="0.25"
     inkscape:showpageshadow="2"
     inkscape:pageopacity="0.0"
     inkscape:pagecheckerboard="0"
     inkscape:deskcolor="#d1d1d1"
     inkscape:zoom="1.0674157"
     inkscape:cx="214.53684"
     inkscape:cy="295.10527"
     inkscape:window-width="1440"
     inkscape:window-height="890"
     inkscape:window-x="-6"
     inkscape:window-y="-6"
     inkscape:window-maximized="1"
     inkscape:current-layer="Layer_1" />
  <defs
     id="defs1">
    <style
       id="style1">.cls-1{fill:#8b8f91;}</style>
  </defs>
  <path
     class="cls-1"
     d="m 23.339635,349.44706 c 0.851149,0.71387 1.976861,1.53756 3.816439,1.53756 0.98843,0 2.114142,-0.27456 3.102572,-0.85115 5.793299,-2.82801 11.696423,-13.536 11.833705,-14.11258 0.576585,-1.7023 -1.400276,-3.23986 -3.816438,-5.21672 l -0.274564,-0.27456 c -1.125712,-0.85115 -3.102572,-0.71387 -4.365566,0.13728 -0.988431,0.57658 -1.839579,1.263 -2.828009,1.83958 -2.965291,1.97686 -6.067862,3.95372 -9.307717,6.78172 -1.125712,0.98844 -1.839578,2.82802 -1.97686,4.22829 -0.137282,1.12571 0.137282,2.11414 0.576584,2.69073 0.411846,0.27456 2.690726,2.82801 3.239854,3.23985 M 438.45284,268.09377 c -0.71388,-3.23986 -3.51442,-8.59385 -6.06787,-11.28458 -2.52599,-2.69072 -3.37713,-4.091 -4.22828,-5.49128 -0.85115,-1.40027 -0.13729,-0.98842 -3.23986,-4.80486 -2.69072,-3.23986 -5.07943,-2.96529 -5.7933,-2.96529 0,0 -2.828,-0.13728 -4.94214,2.96529 -0.85116,1.12571 -2.82802,5.93058 -2.82802,5.93058 -0.98842,2.3887 -1.83958,3.10257 -2.69072,6.61698 -0.85115,3.37714 -0.57658,4.80488 -0.13728,6.617 0.27456,1.83958 1.26299,1.97686 1.97686,1.53756 0.71386,-0.41185 0.71386,-0.85116 2.96528,-3.81644 1.97686,-2.52599 4.50286,-4.091 5.49128,-4.091 3.95373,-0.41185 10.708,8.45656 12.13573,11.55914 1.263,2.828 1.53756,9.58228 1.53756,9.58228 0,0.27456 -0.13728,2.82801 1.97686,2.82801 1.83958,0 2.52598,-1.40028 2.828,-1.97686 0.27457,-0.57659 0.98844,-1.83958 1.40028,-4.36557 0.27456,-2.82801 0.41185,-5.62856 -0.41184,-8.89588 m -19.41167,45.30306 c -1.97686,-0.98843 -4.091,-0.27457 -4.091,-0.27457 -6.47972,1.7023 -9.71956,8.45657 -10.15887,9.17043 0,0 -0.98843,1.83958 -0.41185,2.82802 0.57659,0.85114 1.53756,1.26299 4.36557,1.40027 2.82801,0.13729 8.04473,-0.57659 9.445,-1.97686 1.40027,-1.26299 1.83958,-4.50285 1.83958,-4.50285 0,-0.57658 0.98843,-5.62856 -0.98843,-6.61699 M 349.49413,183.74773 c -2.11415,-4.22828 -4.2283,-6.91901 -6.34244,-7.90744 -0.57658,-0.27456 -1.26299,-0.41185 -1.97686,-0.41185 -1.40027,0 -2.828,0.57659 -3.23985,1.40028 -1.83958,2.96529 -0.13728,5.07943 1.70229,7.60542 0.85116,1.263 1.83958,2.52599 2.69074,4.22829 2.52598,5.07943 3.81644,10.5707 5.93058,21.58072 0.13728,0.98843 0.85114,1.12572 0.98842,1.12572 0.57659,0 0.98844,-0.57659 1.263,-1.263 0.13728,-0.13728 4.36556,-15.51286 -0.98843,-26.35814 M 499.9277,335.19719 c -0.13728,0.98844 -0.85115,1.7023 -1.97686,1.83958 -1.263,0.27456 -2.52599,0.41185 -3.95372,0.41185 -10.29615,0 -21.14143,-8.18201 -25.36971,-15.78743 -5.62856,-10.29615 -10.29615,-16.36401 -18.61543,-19.32929 0.85114,1.70229 1.83958,3.23984 2.96528,4.80486 0.71387,0.85115 1.263,1.83958 1.83958,2.69073 2.69073,4.50285 6.47971,11.14729 8.45657,17.76428 1.83958,6.20514 8.45657,10.84528 14.52444,14.66172 l 7.60542,4.091 c 1.53756,0.71387 2.3887,1.83958 2.25142,2.82801 -0.13728,0.85115 -0.41184,1.53756 -1.83958,1.97686 l -1.40028,0.13728 h -1.53756 c -13.67328,0 -24.68329,-4.64013 -33.55171,-14.24987 -2.69072,-2.96528 -5.35399,-4.50284 -8.04472,-4.50284 -6.06786,5.35399 -12.273,10.70799 -20.59229,11.28457 -10.29615,-1.70229 -18.89,-1.12571 -25.36971,1.7023 -1.12571,0.41184 -2.11414,0.71386 -3.23985,1.12571 -5.93059,2.11414 -11.99845,4.36557 -18.75272,4.64013 -3.67915,0 -8.31929,-1.83958 -9.58228,-5.49128 -0.41185,-1.53755 -0.27456,-2.96529 -0.85115,-4.80487 -0.85115,-3.23985 -1.53756,-6.61698 0.27457,-9.71956 l 5.07943,-7.60542 c 0,-0.71387 -0.57658,-1.263 -1.263,-1.40028 -0.71386,-0.13728 -1.53755,0.27457 -2.3887,0.57659 -0.85115,0.27456 -1.53756,0.71387 -2.25143,0.71387 -2.25142,-0.13729 -2.11414,-2.25143 -2.11414,-2.25143 0.27457,-5.93058 5.07943,-10.57071 9.58228,-14.66172 1.26299,-1.1257 2.52599,-2.25142 3.67916,-3.51442 1.26299,-6.4797 3.81643,-11.8337 7.90744,-16.50128 -0.13728,-0.41185 -0.41185,-0.85115 -0.98843,-1.12572 -1.53756,0.27457 -3.10258,0.57659 -4.64013,0.85115 -4.94215,0.98843 -10.02158,1.83958 -15.37558,1.83958 -7.05629,3.67915 -16.77586,4.80487 -19.46658,2.96529 0,0 -1.12572,-0.85115 -1.263,-1.83958 -0.13728,-0.98843 0.13728,-2.11414 0.41185,-2.69072 6.91901,-9.58229 9.58228,-21.71801 7.60542,-33.27715 -0.13728,-0.98843 -0.57659,-1.263 -1.12571,-1.263 -0.85115,0 -1.12572,0.98843 -1.263,1.53756 -2.11414,12.13572 -5.49128,21.00414 -11.01001,29.46071 -1.83958,2.82801 -6.91901,3.95372 -11.8337,4.94215 -2.11414,0.41185 -3.95372,0.71387 -6.06786,1.53756 -1.12572,0.41185 -2.69074,1.53756 -2.69074,3.23985 -0.13728,3.51442 1.7023,6.617 3.51442,9.445 l 0.27457,0.27456 c 0.41185,0.85116 12.13572,20.01572 12.54757,23.96943 0.41185,3.37714 -1.12571,13.81058 -2.52599,18.17614 -0.41184,1.53756 0.27457,1.7023 0.41185,1.7023 0.27456,0 0.71386,-0.13729 1.26299,-0.57659 1.97686,-1.40027 8.89588,-11.99845 9.445,-15.23829 0.57658,-3.23986 -0.41184,-5.354 -1.40028,-7.46814 l -13.81056,-27.34657 0.13728,-0.27456 c 0.71387,-1.40028 2.52599,-2.25143 5.07943,-2.38872 h 0.27457 c 2.25142,0 4.22828,0.71388 6.06786,1.53756 0.85115,0.27457 1.83958,0.71387 2.69072,0.98844 h 0.27457 l 0.13729,0.27456 c 3.10256,8.31928 4.50284,11.55914 12.13572,23.83215 2.52598,4.091 2.52598,9.30772 0,14.52443 -2.82801,5.93058 -6.20514,11.55914 -10.02158,17.05042 -3.10258,3.23986 -7.33086,3.51442 -11.42186,3.81644 -0.85115,0 -1.83958,0.13728 -2.69073,0.27456 h -3.95372 c -11.99844,6.34243 -24.54602,10.57072 -37.50543,14.66172 -1.83958,0.57658 -3.67916,0.85114 -5.62856,0.85114 -4.50286,0 -8.73114,-1.53756 -11.69643,-4.091 -3.23985,-2.52598 -5.21671,-6.06786 -7.05629,-9.445 -0.71387,-1.40028 -1.53756,-2.828 -2.38871,-4.091 -0.98842,-1.26299 -2.69072,-1.83958 -5.07943,-1.83958 -0.85115,0 -1.70229,0 -2.38871,0.13728 -0.71386,0 -1.40027,0.13729 -2.11414,0.13729 -1.1257,0 -2.69072,-0.13729 -3.37714,-1.263 l -1.26298,-2.11414 c -2.82802,-4.80487 -5.62857,-9.445 -8.45658,-14.38715 -0.71386,-1.12571 -0.71386,-2.52599 -0.27456,-3.51441 0.41184,-0.98844 1.263,-1.53756 2.3887,-1.83958 5.354,-1.12572 10.02159,-2.11415 14.93628,-2.526 5.07944,-0.41184 8.89587,0.85116 11.83371,4.22829 2.25142,2.52599 3.95372,5.49128 5.62856,8.31929 3.10257,5.21671 2.52598,6.78173 7.46814,11.28457 0.13728,0.13729 2.828,2.11415 5.93058,2.38871 4.64013,0.27457 12.54757,-2.82801 17.48972,-5.21671 3.10257,-1.83958 7.33085,-4.94215 7.33085,-9.30772 -0.57658,-9.58229 -7.7427,-16.50129 -13.67328,-20.72958 -9.30771,-4.80487 -16.77585,-10.70799 -21.58072,-16.77586 -2.25143,-3.10256 -3.37713,-6.919 -4.36557,-10.43343 -0.27456,-0.85115 -0.41184,-1.70229 -0.71386,-2.52598 -0.13728,-0.57659 -0.71387,-0.71387 -1.12572,-0.71387 -0.41184,0 -0.98842,0.13728 -1.26299,0.41185 -2.38871,2.11414 -0.98843,6.47971 0,9.44499 0.13728,0.41186 0.27457,0.85116 0.41185,1.263 l 0.13728,0.41184 c 0.71386,2.25144 1.12571,3.95373 -0.27456,5.21672 -2.11415,1.7023 -4.94216,2.52599 -8.89588,2.52599 -1.70229,0 -3.37713,-0.13728 -5.07943,-0.27457 -0.98843,-0.13728 -1.83958,-0.13728 -2.69072,-0.13728 -4.80488,-0.27456 -9.445,-1.1257 -13.81057,-2.11414 -5.07943,-0.98842 -10.43343,-2.11414 -15.92471,-2.11414 -1.26299,0 -2.38871,0 -3.51441,0.13727 -2.82802,0.13728 -6.06787,0.71387 -9.445,1.12572 -4.36557,0.71387 -9.03316,1.40027 -13.12416,1.40027 -6.91901,0 -11.28457,-2.11414 -13.26144,-6.47971 -4.36557,-11.01001 -2.11414,-24.10671 -0.27457,-33.68899 0,-0.98844 -1.26298,-1.40028 -1.83957,-1.53756 -0.27457,-0.13727 -0.41185,-0.13727 -0.57659,-0.13727 -0.57658,0 -1.1257,0.27456 -1.40028,0.98842 -1.26298,4.64014 -1.97686,9.58229 -2.69072,14.52444 -0.85114,6.06786 -1.83958,12.41029 -3.81644,18.34087 -2.96529,9.03316 -10.43343,20.45501 -20.59229,25.53445 -7.90744,4.091 -16.91314,6.20514 -29.46071,7.05628 -16.91314,0.27457 -37.779997,2.82802 -50.053004,20.31774 -0.851148,1.53756 -0.98843,1.97686 -1.262994,3.23985 -0.137282,0.57659 -0.137282,1.12572 0.137282,1.40028 0.411846,0.57658 1.262994,0.41184 1.839578,-0.13728 11.559141,-12.95942 27.34657,-19.60387 46.950438,-19.60387 h 3.23985 c 15.78742,0 35.52857,-2.11414 47.66429,-18.61543 2.9653,-3.37714 7.46814,-10.84528 7.46814,-10.84528 l 0.27456,-0.41184 6.91902,5.21671 -0.13728,0.27457 c 0,0.13728 -2.9653,7.60542 -4.80488,11.01001 -1.83957,3.67916 -6.919,12.68486 -12.68484,15.9247 -1.40028,0.71388 -3.10258,1.7023 -4.94216,2.69074 -3.37713,1.70229 -7.46813,3.95372 -11.55913,6.20514 -3.37714,1.97685 -7.60542,2.96528 -11.99845,2.96528 -2.52599,0 -5.07943,-0.27456 -7.60542,-0.98843 -4.64013,-0.85115 -10.57071,-1.97685 -16.06199,-1.97685 -4.50285,0 -8.04473,0.71386 -11.14729,2.11414 -2.388709,1.53756 -4.804879,3.67916 -7.056302,5.7933 -1.400269,1.40026 -2.965286,2.69072 -4.365564,3.95371 -3.377138,2.69073 -10.433429,7.33085 -17.764286,6.91902 -1.537558,-0.13728 -3.102572,-0.57658 -4.502848,-0.85114 -1.702296,-0.41186 -3.377136,-0.85116 -4.942151,-0.85116 -1.839578,0 -3.102572,0.57658 -4.228284,1.83958 -1.97686,1.83958 -3.377136,4.22828 -4.64013,6.617 -2.114143,3.51441 -4.228285,7.19357 -8.182005,9.03315 -2.251424,1.26299 -4.804869,1.83957 -7.742703,1.83957 -2.937834,0 -6.342427,-0.71386 -9.307717,-1.40027 -2.388706,-0.57659 -4.502848,-0.98843 -6.781729,-1.12571 h -0.576584 l 0.137282,-0.85116 c 0.137282,-0.98842 0.411846,-1.83958 0.576584,-2.82801 1.262994,-6.20513 2.690727,-12.54757 6.781729,-17.35244 l 0.137282,-0.13727 h 0.137282 c 2.690726,-0.27456 5.491279,-0.85116 7.742702,-2.82801 2.828009,-2.52599 5.079433,-5.7933 7.193576,-9.30773 l 0.137282,-0.13727 c 1.262994,-0.85116 2.690726,-1.53756 3.953719,-2.3887 5.353997,-3.10258 10.845276,-6.34243 14.249868,-11.69643 1.125713,-2.52599 2.388707,-5.49128 3.514419,-8.3193 1.839578,-4.80486 3.514418,-8.89587 4.94215,-10.43342 0.851148,-0.85114 1.702297,-1.26299 2.965291,-1.40027 0.576584,0 1.400276,-0.13728 2.690726,-0.13728 2.388707,-0.13729 5.793299,-0.27457 8.895868,-0.71387 1.97686,-0.27456 12.410295,-3.95372 17.627003,-8.73113 1.40028,-1.40027 2.11414,-3.81644 1.40028,-5.93059 -0.13728,-0.71386 -0.71386,-1.97686 -1.40028,-3.51441 -1.53756,-3.81644 -3.953719,-9.71956 -4.942145,-14.52443 -0.411844,-2.11415 -0.713864,-7.33086 -0.851153,-12.68485 -0.137282,-3.37714 -0.274563,-6.78174 -0.576583,-9.85685 -0.137281,-1.53756 -0.713864,-1.53756 -0.988426,-1.53756 -0.137281,0 -0.411844,0 -0.713864,0.13728 -6.781734,1.7023 -13.81057,3.51442 -21.278708,3.51442 -2.388707,0 -4.502848,-0.13728 -6.781729,-0.57659 -12.547571,-1.53755 -27.648587,-9.85684 -33.139866,-24.54601 -4.228284,-11.14729 -3.816438,-28.33499 5.353997,-38.35658 6.919011,-8.45657 15.238298,-15.37559 23.420302,-22.12985 1.537559,-1.263 3.239855,-2.69074 4.804869,-3.95373 1.702297,-1.40027 2.388706,-2.38871 2.251424,-3.81644 -0.274563,-2.25143 -2.114142,-4.09101 -3.95372,-4.64013 -1.97686,-0.57658 -4.228285,-0.57658 -6.067863,-0.57658 h -3.95372 c -2.965291,0 -6.067863,-0.13728 -9.170435,-1.40028 -0.411846,-0.13728 -0.851148,-0.27456 -1.262994,-0.41184 -9.444999,-4.36557 -18.038851,-14.93629 -19.329301,-25.23243 -0.274564,-4.94215 0.576584,-9.30771 3.102572,-13.26144 6.78173,3.67916 12.684854,9.58228 20.455013,11.69642 2.96529,0.71387 5.930581,1.12572 9.033153,1.83958 0.411846,0.13728 1.262994,0.13728 1.839578,0.27456 l 0.851148,0.13729 c 4.804869,1.12571 17.764287,4.36557 23.557584,10.70799 5.7933,6.34244 6.342425,18.03885 1.262997,24.95787 -4.365568,5.93058 -10.845277,11.42185 -17.627005,17.05041 -4.228285,3.51442 -8.45657,7.19358 -12.273008,11.01002 -8.044724,8.04472 -11.010013,18.34087 -8.182005,28.47227 2.96529,9.03316 11.998443,15.78743 21.855288,16.5013 h 0.98843 c 13.26144,0 23.557585,-6.06786 34.40286,-12.4103 0.98843,-0.57658 2.11415,-1.26298 2.96529,-1.83957 1.83958,-1.12571 5.62856,-4.091 8.59386,-6.34242 8.73112,-6.91902 19.16455,-14.93627 28.91157,-17.21515 6.47971,-1.53756 7.60542,-1.53756 14.38715,-2.25144 4.80487,-0.41185 9.30772,-0.98843 13.39872,-2.38871 9.03316,-3.10257 16.91314,-9.85683 24.6833,-16.91313 9.8843,-8.04472 19.46658,-11.42186 32.8653,-11.42186 5.7933,0 6.61699,-0.71387 13.67328,-7.33086 1.53756,-1.40028 3.37714,-3.10258 5.62856,-5.21672 7.60542,-7.05629 17.35245,-10.02158 26.79745,-12.95941 4.80486,-1.53756 9.71956,-2.96529 14.38714,-5.07944 5.93059,-1.97686 11.42186,-5.49128 16.63857,-8.89586 3.10258,-1.97686 6.34244,-4.09101 9.58229,-5.7933 4.80487,-2.11415 10.57071,-3.23986 16.50129,-3.23986 4.64013,0 9.17043,0.71387 12.95941,2.11414 5.93059,2.11414 8.45658,3.23986 16.63858,8.89588 l 41.32187,34.26557 0.57659,0.57658 c 0.71386,0.71388 1.7023,1.53756 2.3887,2.38872 1.263,1.26298 24.244,28.06043 33.85373,43.71057 3.10258,5.21671 5.62856,13.26144 5.93058,17.05042 1.83958,24.10671 9.17044,45.82472 15.92471,64.16559 0.27457,0.71386 1.7023,1.97686 3.23986,3.37714 1.83958,1.53756 3.81644,3.37714 5.07943,5.21671 1.83957,2.52599 3.51441,5.354 5.07943,8.04472 4.091,6.91901 8.45657,14.11259 15.78743,18.34088 0,0 3.37714,1.70229 6.20514,3.10256 0.98843,0.71388 1.12572,1.40028 0.98843,2.25143 M 12.055058,349.72163 c -0.137282,0 -0.411846,0 -0.576584,0.13728 -3.1025722,1.26299 -6.6169903,5.21671 -6.7817287,7.60542 -0.7138662,10.29615 -1.1257121,11.42185 -3.81643857,14.52443 -0.85114817,0.85115 -1.26299406,2.96529 -0.41184589,3.81644 0.85114816,0.85115 10.84527516,3.95372 11.99844316,3.95372 h 0.274564 c 0.851148,-0.27456 1.702296,-2.52599 3.679156,-9.71956 1.125712,-3.81644 2.388706,-8.18201 3.816439,-12.13573 0.137282,-0.27457 0.137282,-0.57659 -0.851148,-1.97686 -1.125713,-1.70229 -5.079433,-6.20514 -7.330857,-6.20514 M 278.54681,338.02521 c 1.53756,3.37713 2.96528,6.4797 4.50284,6.919 0.71387,0.13728 1.40028,0.27457 2.25142,0.27457 3.51442,0 8.59386,-1.97686 12.13573,-4.80487 1.97686,-1.7023 1.40028,-2.82801 0.41185,-4.36556 -0.27457,-0.41186 -0.57659,-0.98844 -0.98843,-1.7023 -0.98843,-1.83958 -1.53756,-3.81644 -1.97686,-5.49128 -0.98843,-3.51442 -1.83958,-6.47971 -5.49128,-5.93058 -5.35399,0.71386 -10.43343,1.12571 -16.22673,1.12571 -0.13728,0 -1.83958,0 -2.3887,1.26299 -0.71387,1.40028 0.85114,2.82801 2.3887,4.22828 0.85115,0.85116 1.83958,1.7023 2.3887,2.526 0.85116,1.53756 1.97686,3.81644 2.9653,5.93058"
     id="path1"
     style="stroke-width:2.74564"
     sodipodi:nodetypes="csccccccccccccscccccccccccscccccccscccccsccccsccccsccccccccccscccccccccccccccccccccsccscccccccccsccccccscccccccccccscccscsccccccccccccccccscssccscccsccscccscccccccccsscccccccccscscccccscccsccccccccccccccccccccccccscscccccccssccccccccsccsccscccccccsccccccscccsccccccccccccccsscccccccscccccscccc" />
</svg>
